;Holesize 1 =   28.0 PLATED MILS
;Holesize 2 =   31.0 PLATED MILS
;Holesize 3 =   47.0 PLATED MILS
;Holesize 4 =   91.0 PLATED MILS
;Holesize 5 =   39.0 PLATED MILS
;Holesize 6 =   45.0 PLATED MILS
;Holesize 7 =   98.0 PLATED MILS
;Holesize 8 =  156.0 PLATED MILS
;Holesize 9 =   51.0 PLATED MILS
;Holesize 10 =  125.0 PLATED MILS
;Holesize 11 =   26.0 PLATED MILS
M48
INCH,00.0000
T01C0.028
T02C0.031
T03C0.047
T04C0.091
T05C0.039
T06C0.045
T07C0.098
T08C0.156
T09C0.051
T10C0.125
T11C0.026
%
G05
G90
T01
X007000Y018000
X007000Y017000
X007000Y016000
X007000Y015000
X007000Y014000
X007000Y013000
X007000Y012000
X007000Y011000
X007000Y010000
X007000Y009000
X010000Y009000
X010000Y010000
X010000Y011000
X010000Y012000
X010000Y013000
X010000Y014000
X010000Y015000
X010000Y016000
X010000Y017000
X010000Y018000
X012000Y018000
X014000Y018000
X004000Y018000
X004000Y014000
X003000Y008000
X005000Y008000
X003000Y010000
X003000Y012000
X002000Y014000
X002000Y015000
X002000Y016000
X002000Y017000
X002000Y018000
X002000Y019000
X010000Y020000
X012000Y020000
X012000Y012000
X014000Y012000
X012000Y030000
X010000Y030000
X012000Y028000
X010000Y028000
X003000Y022000
X003000Y026000
X001500Y022000
X001500Y026000
X001500Y032500
X002500Y032500
X001500Y030000
X002500Y030000
X007000Y019000
X004000Y019000
X007000Y029000
X003000Y029000
X007000Y028000
X003000Y028000
X007000Y020500
X003000Y020500
X024000Y029790
X024000Y029000
X022000Y030000
X022000Y028000
X027000Y031000
X031000Y031000
X025000Y025000
X025000Y023000
X013500Y022000
X013500Y026000
X012500Y022000
X012500Y026000
X010000Y026000
X010000Y023000
X011000Y026000
X011000Y023000
X035000Y030020
X035000Y031000
X032000Y031000
X032000Y029000
X022000Y021000
X018000Y021000
X022790Y023000
X022000Y023000
X013000Y028000
X013000Y030000
X015000Y028000
X015000Y030000
X031500Y025000
X031500Y027000
X029000Y026790
X029000Y026000
X029000Y023210
X029000Y024000
X033000Y027000
X033000Y025000
X027000Y036000
X027000Y032000
X015000Y026000
X015000Y025000
X015000Y024000
X015000Y023000
X027000Y026000
X027000Y025000
X027000Y024000
X027000Y023000
X018000Y028000
X020000Y028000
X020000Y014000
X021000Y014000
X022000Y014000
X023000Y014000
X024000Y014000
X025000Y014000
X026000Y014000
X026000Y017000
X025000Y017000
X024000Y017000
X023000Y017000
X022000Y017000
X021000Y017000
X020000Y017000
X025000Y012500
X025000Y008500
X018000Y014000
X018000Y016000
X013000Y016000
X012000Y016000
X013000Y015000
X012000Y015000
X023000Y019500
X019000Y019500
X025000Y019500
X029000Y019500
X027500Y018000
X027500Y014000
X029000Y018000
X029000Y014000
X024000Y012500
X024000Y008500
X013000Y014000
X012000Y014000
X031000Y018000
X031000Y014000
X013000Y013000
X012000Y013000
X020000Y008500
X020000Y012500
X018500Y010500
X018500Y012500
X021000Y008500
X021000Y012500
X022000Y010500
X022000Y012500
X032000Y010000
X028000Y010000
X028000Y011000
X032000Y011000
X030000Y012500
X028000Y012500
X028000Y008500
X030000Y008500
X015000Y010000
X014000Y010000
X013000Y010000
X012000Y010000
X009000Y005000
X005000Y005000
X009000Y003500
X009000Y002500
X009000Y006500
X005000Y006500
X005000Y003500
X005000Y002500
X017750Y003000
X017750Y007000
X022750Y003000
X022750Y007000
X027750Y003000
X027750Y007000
X032750Y003000
X032750Y007000
X016000Y008000
X012000Y008000
X031000Y023000
X035000Y023000
X031000Y019500
X031000Y020500
X031000Y022000
X035000Y022000
X035000Y019500
X035000Y020500
X016000Y033000
X017000Y033000
X018000Y033000
X019000Y033000
X020000Y033000
X016500Y034000
X017500Y034000
X018500Y034000
X019500Y034000
X023000Y012500
X023000Y008500
T02
X005000Y012000
X005000Y010000
T03
X008000Y032000
X007000Y032000
X008000Y033000
X007000Y033000
T04
X010000Y034000
X005000Y034000
T05
X018000Y024000
X020000Y025000
X018000Y026000
X035000Y017000
X033000Y016000
X035000Y015000
X016750Y001000
X017750Y001000
X018750Y001000
X021750Y001000
X022750Y001000
X023750Y001000
X026750Y001000
X027750Y001000
X028750Y001000
X031750Y001000
X032750Y001000
X033750Y001000
X013500Y005000
X011750Y005000
X011750Y002500
X013500Y002500
T06
X027000Y029000
X029000Y029000
X035000Y027000
X035000Y026000
X035000Y025000
T07
X015900Y004000
X019600Y004000
X020900Y004000
X024600Y004000
X025900Y004000
X029600Y004000
X030900Y004000
X034600Y004000
T08
X013000Y033500
X023000Y033500
T09
X032750Y034250
X031750Y034000
X030000Y033000
T10
X002000Y035000
X035000Y035000
X035000Y010000
X002000Y001000
T11
X015250Y014250
X009000Y027250
X008250Y027750
M30
