G04 FreePCB version 1.359*
G04 D:\INSA\Projet pluri\svn\Carte\PCB\CAM\top_copper.grb*
G04 top copper layer *
G04 Scale: 100 percent, Rotated: No, Reflected: No *
%FSLAX24Y24*%
%MOIN*%
%LN top copper *%
G04 Rounded Rectangle Macro, params: W/2, H/2, R *
%AMRNDREC*
21,1,$1+$1,$2+$2-$3-$3,0,0,0*
21,1,$1+$1-$3-$3,$2+$2,0,0,0*
1,1,$3+$3,$1-$3,$2-$3*
1,1,$3+$3,$3-$1,$2-$3*
1,1,$3+$3,$1-$3,$3-$2*
1,1,$3+$3,$3-$1,$3-$2*%
G04 Rectangular Thermal Macro, params: W/2, H/2, T/2 *
%AMRECTHERM*
$4=$3/2*
21,1,$1-$3,$2-$3,0-$1/2-$4,0-$2/2-$4,0*
21,1,$1-$3,$2-$3,0-$1/2-$4,$2/2+$4,0*
21,1,$1-$3,$2-$3,$1/2+$4,0-$2/2-$4,0*
21,1,$1-$3,$2-$3,$1/2+$4,$2/2+$4,0*%
%ADD10C,0.005000*%
%ADD11R,0.104000X0.104000*%
%ADD12RNDREC,0.066000X0.052000X0.032000*%
%ADD13RECTHERM,0.066000X0.052000X0.005000*%
%ADD14C,0.001000*%
%ADD15C,0.115000*%
%AMTHERM16*7,0,0,0.115000,0.075000,0.010000,45.0*%
%ADD16THERM16*%
%ADD17C,0.118740*%
%ADD18R,0.100000X0.100000*%
%ADD19C,0.100000*%
%AMTHERM20*7,0,0,0.100000,0.060000,0.010000,45.0*%
%ADD20THERM20*%
%ADD21RNDREC,0.059370X0.059370X0.027874*%
%ADD22RECTHERM,0.059370X0.059370X0.005000*%
%ADD23RECTHERM,0.110551X0.110551X0.005000*%
%ADD24RNDREC,0.110551X0.110551X0.051496*%
%ADD25R,0.053780X0.110866*%
%ADD26C,0.105000*%
%AMTHERM27*7,0,0,0.105000,0.065000,0.010000,45.0*%
%ADD27THERM27*%
%ADD28C,0.138425*%
%AMTHERM29*7,0,0,0.138425,0.098425,0.010000,45.0*%
%ADD29THERM29*%
%ADD30R,0.120000X0.120000*%
%ADD31RECTHERM,0.060000X0.060000X0.005000*%
%ADD32RNDREC,0.052000X0.066000X0.032000*%
%ADD33RECTHERM,0.052000X0.066000X0.005000*%
%ADD34R,0.090000X0.090000*%
%ADD35C,0.090000*%
%ADD36RECTHERM,0.050000X0.050000X0.005000*%
%AMTHERM37*7,0,0,0.118740,0.078740,0.010000,45.0*%
%ADD37THERM37*%
%ADD38R,0.197480X0.197480*%
%ADD39C,0.112000*%
%AMTHERM40*7,0,0,0.112000,0.072000,0.010000,45.0*%
%ADD40THERM40*%
%ADD41RECTHERM,0.176000X0.176000X0.005000*%
%ADD42R,0.352000X0.352000*%
%AMTHERM43*7,0,0,0.142362,0.102362,0.010000,45.0*%
%ADD43THERM43*%
%ADD44C,0.142362*%
%ADD45R,0.240000X0.240000*%
%ADD46RNDREC,0.069213X0.069213X0.035748*%
%ADD47C,0.066000*%
%ADD48C,0.053780*%
%ADD49C,0.078000*%
%ADD50C,0.096000*%
%ADD51C,0.052000*%
%ADD52R,0.064000X0.064000*%
%ADD53RNDREC,0.046000X0.032000X0.012000*%
%ADD54C,0.075000*%
%ADD55C,0.078740*%
%ADD56R,0.060000X0.060000*%
%ADD57C,0.060000*%
%ADD58RNDREC,0.039370X0.039370X0.007874*%
%ADD59RNDREC,0.090551X0.090551X0.031496*%
%ADD60R,0.013780X0.070866*%
%ADD61C,0.065000*%
%ADD62C,0.098425*%
%ADD63R,0.080000X0.080000*%
%ADD64RNDREC,0.032000X0.046000X0.012000*%
%ADD65R,0.050000X0.050000*%
%ADD66C,0.050000*%
%ADD67R,0.157480X0.157480*%
%ADD68C,0.072000*%
%ADD69R,0.312000X0.312000*%
%ADD70C,0.102362*%
%ADD71R,0.200000X0.200000*%
%ADD72RNDREC,0.049213X0.049213X0.015748*%
%ADD73C,0.026000*%
%ADD74C,0.013780*%
%ADD75C,0.038000*%
%ADD76C,0.056000*%
%ADD77C,0.012000*%
%ADD78C,0.020000*%
G90*
G70D02*

G04 Step and Repeat for panelization *

G04 ----------------------- Draw board outline (positive)*
%LPD*%
G54D10*
G01X0Y37000D02*
G01X37000Y37000D01*
G04 end of side 1*
G01X37000Y-1000D01*
G04 end of side 2*
G01X0Y-1000D01*
G04 end of side 3*
G01X0Y37000D01*

G04 ----------------------- Draw copper area (positive)*
G36*
G01X36750Y-750D02*
G01X250Y-750D01*
G01X250Y36750D01*
G01X36750Y36750D01*
G01X36750Y-750D01*
G37*

G04 -------------------- Draw copper area clearances (negative)*
%LPC*%

G04 Draw clearances for pads*
G54D11*
G01X7000Y18000D03*
G54D12*
G01X7000Y17000D03*
G01X7000Y16000D03*
G01X7000Y15000D03*
G01X7000Y14000D03*
G01X7000Y13000D03*
G01X7000Y12000D03*
G01X7000Y11000D03*
G01X7000Y10000D03*
G01X7000Y9000D03*
G01X10000Y9000D03*
G01X10000Y10000D03*
G01X10000Y11000D03*
G01X10000Y12000D03*
G01X10000Y13000D03*
G01X10000Y14000D03*
G01X10000Y15000D03*
G01X10000Y16000D03*
G54D13*
G01X10000Y17000D03*
G54D14*
G54D12*
G01X10000Y18000D03*
G54D15*
G01X12000Y18000D03*
G54D16*
G01X14000Y18000D03*
G54D14*
G54D15*
G01X4000Y18000D03*
G01X4000Y14000D03*
G54D17*
G01X5000Y12000D03*
G01X5000Y10000D03*
G54D16*
G01X3000Y8000D03*
G54D14*
G54D15*
G01X5000Y8000D03*
G54D16*
G01X3000Y10000D03*
G54D14*
G54D15*
G01X3000Y12000D03*
G54D18*
G01X2000Y14000D03*
G54D19*
G01X2000Y15000D03*
G54D20*
G01X2000Y16000D03*
G54D14*
G54D19*
G01X2000Y17000D03*
G01X2000Y18000D03*
G01X2000Y19000D03*
G54D15*
G01X10000Y20000D03*
G54D16*
G01X12000Y20000D03*
G54D14*
G54D21*
G01X8000Y32000D03*
G01X7000Y32000D03*
G01X8000Y33000D03*
G54D22*
G01X7000Y33000D03*
G54D14*
G54D23*
G01X10000Y34000D03*
G54D14*
G54D24*
G01X5000Y34000D03*
G54D15*
G01X12000Y12000D03*
G54D16*
G01X14000Y12000D03*
G54D14*
G54D25*
G01X5000Y23000D03*
G01X5255Y23000D03*
G01X5511Y23000D03*
G01X5767Y23000D03*
G01X6023Y23000D03*
G01X6279Y23000D03*
G01X6535Y23000D03*
G01X6791Y23000D03*
G01X7047Y23000D03*
G01X7303Y23000D03*
G01X7559Y23000D03*
G01X7814Y23000D03*
G01X8070Y23000D03*
G01X8326Y23000D03*
G01X8326Y25874D03*
G01X8070Y25874D03*
G01X7814Y25874D03*
G01X7559Y25874D03*
G01X7303Y25874D03*
G01X7047Y25874D03*
G01X6791Y25874D03*
G01X6535Y25874D03*
G01X6279Y25874D03*
G01X6023Y25874D03*
G01X5767Y25874D03*
G01X5511Y25874D03*
G01X5255Y25874D03*
G01X5000Y25874D03*
G54D15*
G01X12000Y30000D03*
G54D16*
G01X10000Y30000D03*
G54D14*
G54D15*
G01X12000Y28000D03*
G54D16*
G01X10000Y28000D03*
G54D14*
G54D15*
G01X3000Y22000D03*
G01X3000Y26000D03*
G01X1500Y22000D03*
G01X1500Y26000D03*
G54D26*
G01X1500Y32500D03*
G01X2500Y32500D03*
G01X1500Y30000D03*
G01X2500Y30000D03*
G54D15*
G01X7000Y19500D03*
G01X4000Y19500D03*
G01X7000Y29000D03*
G01X3000Y29000D03*
G01X7000Y28000D03*
G54D16*
G01X3000Y28000D03*
G54D14*
G54D15*
G01X7000Y20500D03*
G01X3000Y20500D03*
G54D26*
G01X24000Y29790D03*
G54D27*
G01X24000Y29000D03*
G54D14*
G54D15*
G01X22000Y30000D03*
G54D16*
G01X22000Y28000D03*
G54D14*
G54D15*
G01X27000Y31000D03*
G01X31000Y31000D03*
G01X25000Y25000D03*
G54D16*
G01X25000Y23000D03*
G54D14*
G54D15*
G01X13500Y22000D03*
G01X13500Y26000D03*
G01X12500Y22000D03*
G01X12500Y26000D03*
G01X10000Y26000D03*
G01X10000Y23000D03*
G01X11000Y26000D03*
G01X11000Y23000D03*
G54D26*
G01X35000Y30020D03*
G54D27*
G01X35000Y31000D03*
G54D14*
G54D16*
G01X32000Y31000D03*
G54D14*
G54D15*
G01X32000Y29000D03*
G54D28*
G01X18000Y24000D03*
G01X20000Y25000D03*
G54D29*
G01X18000Y26000D03*
G54D14*
G54D15*
G01X22000Y21000D03*
G01X18000Y21000D03*
G54D26*
G01X22790Y23000D03*
G54D27*
G01X22000Y23000D03*
G54D14*
G54D16*
G01X13000Y28000D03*
G54D14*
G54D15*
G01X13000Y30000D03*
G54D16*
G01X15000Y28000D03*
G54D14*
G54D15*
G01X15000Y30000D03*
G01X27000Y29000D03*
G01X29000Y29000D03*
G54D16*
G01X31500Y25000D03*
G54D14*
G54D15*
G01X31500Y27000D03*
G54D26*
G01X29000Y26790D03*
G54D27*
G01X29000Y26000D03*
G54D14*
G54D30*
G01X35000Y27000D03*
G54D31*
G01X35000Y26000D03*
G54D14*
G54D30*
G01X35000Y25000D03*
G54D26*
G01X29000Y23210D03*
G54D27*
G01X29000Y24000D03*
G54D14*
G54D16*
G01X33000Y27000D03*
G54D14*
G54D15*
G01X33000Y25000D03*
G01X27000Y36000D03*
G01X27000Y32000D03*
G54D18*
G01X15000Y26000D03*
G54D19*
G01X15000Y25000D03*
G01X15000Y24000D03*
G54D20*
G01X15000Y23000D03*
G54D14*
G54D18*
G01X27000Y26000D03*
G54D19*
G01X27000Y25000D03*
G01X27000Y24000D03*
G54D20*
G01X27000Y23000D03*
G54D14*
G54D16*
G01X18000Y28000D03*
G54D14*
G54D15*
G01X20000Y28000D03*
G54D11*
G01X20000Y14000D03*
G54D32*
G01X21000Y14000D03*
G01X22000Y14000D03*
G01X23000Y14000D03*
G01X24000Y14000D03*
G01X25000Y14000D03*
G01X26000Y14000D03*
G01X26000Y17000D03*
G01X25000Y17000D03*
G01X24000Y17000D03*
G54D33*
G01X23000Y17000D03*
G54D14*
G54D32*
G01X22000Y17000D03*
G01X21000Y17000D03*
G01X20000Y17000D03*
G54D15*
G01X25000Y12500D03*
G01X25000Y8500D03*
G01X18000Y14000D03*
G54D16*
G01X18000Y16000D03*
G54D14*
G54D34*
G01X13000Y16000D03*
G54D35*
G01X12000Y16000D03*
G54D34*
G01X13000Y15000D03*
G54D35*
G01X12000Y15000D03*
G54D15*
G01X23000Y19500D03*
G01X19000Y19500D03*
G01X25000Y19500D03*
G01X29000Y19500D03*
G01X27500Y18000D03*
G01X27500Y14000D03*
G01X29000Y18000D03*
G01X29000Y14000D03*
G01X24000Y12500D03*
G01X24000Y8500D03*
G54D34*
G01X13000Y14000D03*
G54D35*
G01X12000Y14000D03*
G54D15*
G01X31000Y18000D03*
G01X31000Y14000D03*
G54D34*
G01X13000Y13000D03*
G54D35*
G01X12000Y13000D03*
G54D15*
G01X20000Y8500D03*
G01X20000Y12500D03*
G01X18500Y10500D03*
G01X18500Y12500D03*
G01X21000Y8500D03*
G01X21000Y12500D03*
G01X22000Y10500D03*
G01X22000Y12500D03*
G01X32000Y10000D03*
G01X28000Y10000D03*
G54D16*
G01X28000Y11000D03*
G54D14*
G54D15*
G01X32000Y11000D03*
G01X30000Y12500D03*
G54D16*
G01X28000Y12500D03*
G54D14*
G54D15*
G01X28000Y8500D03*
G01X30000Y8500D03*
G54D28*
G01X35000Y17000D03*
G01X33000Y16000D03*
G01X35000Y15000D03*
G54D36*
G01X15000Y10000D03*
G54D14*
G54D19*
G01X14000Y10000D03*
G01X13000Y10000D03*
G54D20*
G01X12000Y10000D03*
G54D14*
G54D37*
G01X16750Y1000D03*
G54D14*
G54D17*
G01X17750Y1000D03*
G01X18750Y1000D03*
G54D38*
G01X15900Y4000D03*
G01X19600Y4000D03*
G54D37*
G01X21750Y1000D03*
G54D14*
G54D17*
G01X22750Y1000D03*
G01X23750Y1000D03*
G54D38*
G01X20900Y4000D03*
G01X24600Y4000D03*
G54D37*
G01X26750Y1000D03*
G54D14*
G54D17*
G01X27750Y1000D03*
G01X28750Y1000D03*
G54D38*
G01X25900Y4000D03*
G01X29600Y4000D03*
G54D37*
G01X31750Y1000D03*
G54D14*
G54D17*
G01X32750Y1000D03*
G01X33750Y1000D03*
G54D38*
G01X30900Y4000D03*
G01X34600Y4000D03*
G54D15*
G01X9000Y5000D03*
G01X5000Y5000D03*
G54D26*
G01X9000Y3500D03*
G01X9000Y2500D03*
G54D15*
G01X9000Y6500D03*
G01X5000Y6500D03*
G54D26*
G01X5000Y3500D03*
G01X5000Y2500D03*
G54D15*
G01X17750Y3000D03*
G01X17750Y7000D03*
G01X22750Y3000D03*
G01X22750Y7000D03*
G01X27750Y3000D03*
G01X27750Y7000D03*
G01X32750Y3000D03*
G01X32750Y7000D03*
G54D16*
G01X16000Y8000D03*
G54D14*
G54D15*
G01X12000Y8000D03*
G01X31000Y23000D03*
G01X35000Y23000D03*
G54D27*
G01X31000Y19500D03*
G54D14*
G54D26*
G01X31000Y20500D03*
G54D15*
G01X31000Y22000D03*
G01X35000Y22000D03*
G54D27*
G01X35000Y19500D03*
G54D14*
G54D26*
G01X35000Y20500D03*
G54D39*
G01X16000Y33000D03*
G54D40*
G01X17000Y33000D03*
G54D14*
G54D39*
G01X18000Y33000D03*
G01X19000Y33000D03*
G01X20000Y33000D03*
G01X16500Y34000D03*
G01X17500Y34000D03*
G01X18500Y34000D03*
G01X19500Y34000D03*
G54D41*
G01X13000Y33500D03*
G54D14*
G54D42*
G01X23000Y33500D03*
G54D43*
G01X32750Y34250D03*
G54D14*
G54D44*
G01X31750Y34000D03*
G01X30000Y33000D03*
G54D45*
G01X2000Y35000D03*
G01X35000Y35000D03*
G01X35000Y10000D03*
G01X2000Y1000D03*
G54D46*
G01X13500Y5000D03*
G01X11750Y5000D03*
G01X11750Y2500D03*
G01X13500Y2500D03*

G04 Draw clearances for traces*
G54D47*
G01X21000Y8500D02*
G01X20250Y9500D01*
G01X20250Y9500D02*
G01X18250Y9500D01*
G01X18250Y9500D02*
G01X13750Y14000D01*
G01X13750Y14000D02*
G01X13000Y14000D01*
G54D48*
G01X7303Y25874D02*
G01X7300Y26925D01*
G54D47*
G01X7300Y26925D02*
G01X7000Y27250D01*
G01X7000Y27250D02*
G01X7000Y28000D01*
G01X27750Y7000D02*
G01X23750Y7000D01*
G01X23750Y7000D02*
G01X19500Y11250D01*
G01X19500Y11250D02*
G01X17250Y11250D01*
G01X17250Y11250D02*
G01X14000Y14500D01*
G01X14000Y14500D02*
G01X12500Y14500D01*
G01X12500Y14500D02*
G01X12000Y15000D01*
G54D49*
G01X27000Y29000D02*
G01X29000Y31000D01*
G01X29000Y31000D02*
G01X31000Y31000D01*
G01X32000Y29000D02*
G01X33980Y29000D01*
G01X33980Y29000D02*
G01X35000Y30020D01*
G54D47*
G01X22790Y23000D02*
G01X22790Y21790D01*
G01X22790Y21790D02*
G01X22000Y21000D01*
G01X25000Y25000D02*
G01X25000Y27000D01*
G01X25000Y27000D02*
G01X27000Y29000D01*
G01X32750Y7000D02*
G01X29250Y7000D01*
G01X29250Y7000D02*
G01X28500Y7750D01*
G01X28500Y7750D02*
G01X23750Y7750D01*
G01X23750Y7750D02*
G01X19750Y11750D01*
G01X19750Y11750D02*
G01X17750Y11750D01*
G54D50*
G01X15250Y14250D03*
G54D47*
G01X17750Y11750D02*
G01X15250Y14250D01*
G01X12500Y22000D02*
G01X13000Y22000D01*
G01X13000Y22000D02*
G01X13000Y19500D01*
G01X13000Y19500D02*
G01X12250Y18750D01*
G01X12250Y18750D02*
G01X9500Y18750D01*
G01X9500Y18750D02*
G01X9000Y18250D01*
G01X9000Y18250D02*
G01X9000Y9500D01*
G01X9000Y9500D02*
G01X9500Y9000D01*
G01X9500Y9000D02*
G01X10000Y9000D01*
G01X12500Y22000D02*
G01X13500Y22000D01*
G01X10000Y26000D02*
G01X10000Y25250D01*
G01X10000Y25250D02*
G01X10500Y24750D01*
G01X10500Y24750D02*
G01X11250Y24750D01*
G01X11250Y24750D02*
G01X12500Y26000D01*
G01X30000Y8500D02*
G01X30250Y8500D01*
G01X30250Y8500D02*
G01X29500Y9250D01*
G01X29500Y9250D02*
G01X24500Y9250D01*
G01X24500Y9250D02*
G01X24000Y8750D01*
G01X24000Y8750D02*
G01X24000Y8500D01*
G54D51*
G01X5000Y23000D02*
G01X5000Y21750D01*
G54D47*
G01X5000Y21750D02*
G01X5000Y19250D01*
G01X5000Y19250D02*
G01X5521Y18750D01*
G01X5521Y18750D02*
G01X7500Y18750D01*
G01X7500Y18750D02*
G01X8000Y18250D01*
G01X8000Y18250D02*
G01X8000Y15500D01*
G01X8000Y15500D02*
G01X7500Y15000D01*
G01X7500Y15000D02*
G01X7000Y15000D01*
G54D49*
G01X31500Y27000D02*
G01X29210Y27000D01*
G01X29210Y27000D02*
G01X29000Y26790D01*
G01X35000Y27000D02*
G01X34500Y27000D01*
G01X34500Y27000D02*
G01X33500Y28000D01*
G01X33500Y28000D02*
G01X32500Y28000D01*
G01X32500Y28000D02*
G01X31500Y27000D01*
G54D47*
G01X3000Y22000D02*
G01X3000Y23000D01*
G01X3000Y23000D02*
G01X4000Y24000D01*
G01X4000Y24000D02*
G01X6000Y24000D01*
G01X6000Y24000D02*
G01X6535Y24535D01*
G54D51*
G01X6535Y24535D02*
G01X6535Y25874D01*
G01X6023Y23000D02*
G01X6025Y22225D01*
G01X6025Y22225D02*
G01X6500Y21750D01*
G54D47*
G01X6500Y21750D02*
G01X7000Y21250D01*
G01X7000Y21250D02*
G01X10500Y21250D01*
G01X10500Y21250D02*
G01X11000Y20750D01*
G01X11000Y20750D02*
G01X11000Y19750D01*
G01X11000Y19750D02*
G01X10500Y19250D01*
G01X10500Y19250D02*
G01X9000Y19250D01*
G01X9000Y19250D02*
G01X8500Y18750D01*
G01X8500Y18750D02*
G01X8500Y14750D01*
G01X8500Y14750D02*
G01X7750Y14000D01*
G01X7750Y14000D02*
G01X7000Y14000D01*
G01X13500Y26000D02*
G01X13500Y26500D01*
G01X13500Y26500D02*
G01X13000Y27000D01*
G01X13000Y27000D02*
G01X12000Y27000D01*
G01X12000Y27000D02*
G01X11000Y26000D01*
G54D51*
G01X7814Y25874D02*
G01X7825Y26750D01*
G01X7825Y26750D02*
G01X7700Y26925D01*
G54D47*
G01X7700Y26925D02*
G01X7700Y28425D01*
G01X7700Y28425D02*
G01X8000Y28750D01*
G01X8000Y28750D02*
G01X11500Y28750D01*
G01X11500Y28750D02*
G01X12000Y28250D01*
G01X12000Y28250D02*
G01X12000Y28000D01*
G01X25000Y12500D02*
G01X25646Y13146D01*
G01X25646Y13146D02*
G01X28146Y13146D01*
G01X28146Y13146D02*
G01X29000Y14000D01*
G01X13000Y16000D02*
G01X17000Y16000D01*
G01X17000Y16000D02*
G01X18000Y17000D01*
G01X18000Y17000D02*
G01X20000Y17000D01*
G54D51*
G01X6279Y25874D02*
G01X6275Y25025D01*
G01X6275Y25025D02*
G01X6000Y24750D01*
G54D47*
G01X6000Y24750D02*
G01X3250Y24750D01*
G01X3250Y24750D02*
G01X1500Y23000D01*
G01X1500Y23000D02*
G01X1500Y22000D01*
G54D51*
G01X8326Y25874D02*
G01X8325Y26325D01*
G01X8325Y26325D02*
G01X8750Y26750D01*
G54D50*
G01X9000Y27250D03*
G54D47*
G01X8750Y26750D02*
G01X9000Y27250D01*
G01X7000Y18000D02*
G01X6000Y18000D01*
G01X6000Y18000D02*
G01X4000Y15999D01*
G01X4000Y15999D02*
G01X4000Y14000D01*
G01X29000Y18000D02*
G01X28000Y17000D01*
G01X28000Y17000D02*
G01X26000Y17000D01*
G01X13000Y15000D02*
G01X18000Y15000D01*
G01X18000Y15000D02*
G01X18750Y15750D01*
G01X18750Y15750D02*
G01X25250Y15750D01*
G01X25250Y15750D02*
G01X26000Y16500D01*
G01X26000Y16500D02*
G01X26000Y17000D01*
G01X24000Y14000D02*
G01X24000Y14750D01*
G01X24000Y14750D02*
G01X24500Y15250D01*
G01X24500Y15250D02*
G01X26249Y15250D01*
G01X26249Y15250D02*
G01X27500Y14000D01*
G01X22000Y17000D02*
G01X22000Y17500D01*
G01X22000Y17500D02*
G01X21500Y18000D01*
G01X21500Y18000D02*
G01X18500Y18000D01*
G01X18500Y18000D02*
G01X16000Y20500D01*
G01X16000Y20500D02*
G01X16000Y28500D01*
G01X16000Y28500D02*
G01X15500Y29000D01*
G01X15500Y29000D02*
G01X14000Y29000D01*
G01X14000Y29000D02*
G01X13000Y30000D01*
G54D51*
G01X8070Y25874D02*
G01X8075Y26775D01*
G01X8075Y26775D02*
G01X8250Y27000D01*
G54D50*
G01X8250Y27750D03*
G54D47*
G01X8250Y27000D02*
G01X8250Y27750D01*
G01X24000Y17000D02*
G01X24000Y16750D01*
G01X24000Y16750D02*
G01X24000Y17750D01*
G01X24000Y17750D02*
G01X23250Y18500D01*
G01X23250Y18500D02*
G01X18750Y18500D01*
G01X18750Y18500D02*
G01X16500Y20750D01*
G01X16500Y20750D02*
G01X16500Y29250D01*
G01X16500Y29250D02*
G01X15750Y30000D01*
G01X15750Y30000D02*
G01X15000Y30000D01*
G54D48*
G01X5767Y23000D02*
G01X5775Y21725D01*
G54D47*
G01X5775Y21725D02*
G01X7000Y20500D01*
G01X10000Y20000D02*
G01X7500Y20000D01*
G01X7500Y20000D02*
G01X7000Y20500D01*
G54D49*
G01X33000Y25000D02*
G01X35000Y25000D01*
G54D47*
G01X29000Y23210D02*
G01X29960Y23210D01*
G01X29960Y23210D02*
G01X30750Y24000D01*
G01X30750Y24000D02*
G01X32000Y24000D01*
G01X32000Y24000D02*
G01X33000Y25000D01*
G01X23000Y14000D02*
G01X23000Y14500D01*
G01X23000Y14500D02*
G01X22250Y15250D01*
G01X22250Y15250D02*
G01X19250Y15250D01*
G01X19250Y15250D02*
G01X18000Y14000D01*
G01X28000Y10000D02*
G01X24250Y10000D01*
G01X24250Y10000D02*
G01X23000Y11250D01*
G01X23000Y11250D02*
G01X23000Y14000D01*
G01X12000Y30000D02*
G01X11250Y29250D01*
G01X11250Y29250D02*
G01X8250Y29250D01*
G01X8250Y29250D02*
G01X7500Y30000D01*
G01X7500Y30000D02*
G01X2500Y30000D01*
G54D51*
G01X7047Y25874D02*
G01X7050Y26575D01*
G01X7050Y26575D02*
G01X6625Y27000D01*
G54D47*
G01X6625Y27000D02*
G01X5750Y27875D01*
G01X5750Y27875D02*
G01X5750Y29500D01*
G01X5750Y29500D02*
G01X5250Y30000D01*
G54D51*
G01X5250Y30000D02*
G01X2500Y30000D01*
G54D47*
G01X7000Y20500D02*
G01X7000Y19500D01*
G01X28000Y10000D02*
G01X30000Y10000D01*
G01X30000Y10000D02*
G01X34000Y14000D01*
G01X34000Y14000D02*
G01X34000Y23750D01*
G01X34000Y23750D02*
G01X33000Y24750D01*
G01X33000Y24750D02*
G01X33000Y25000D01*
G01X22000Y30000D02*
G01X21000Y29000D01*
G01X21000Y29000D02*
G01X21000Y27000D01*
G01X21000Y27000D02*
G01X23750Y24250D01*
G01X23750Y24250D02*
G01X23750Y22000D01*
G01X23750Y22000D02*
G01X24250Y21500D01*
G01X24250Y21500D02*
G01X27250Y21500D01*
G01X27250Y21500D02*
G01X29000Y23250D01*
G01X29000Y23250D02*
G01X29000Y23210D01*
G01X12000Y8000D02*
G01X9001Y8000D01*
G01X9001Y8000D02*
G01X8250Y8751D01*
G01X8250Y8751D02*
G01X8250Y12500D01*
G01X8250Y12500D02*
G01X7750Y13000D01*
G01X7750Y13000D02*
G01X7000Y13000D01*
G01X17750Y7000D02*
G01X17750Y8500D01*
G01X17750Y8500D02*
G01X15288Y10962D01*
G01X15288Y10962D02*
G01X14037Y10962D01*
G01X14037Y10962D02*
G01X12000Y13000D01*
G01X31000Y18000D02*
G01X30000Y19000D01*
G01X30000Y19000D02*
G01X30000Y19750D01*
G01X30000Y19750D02*
G01X29500Y20250D01*
G01X29500Y20250D02*
G01X23750Y20250D01*
G01X23750Y20250D02*
G01X23000Y19500D01*
G01X22750Y7000D02*
G01X20000Y7000D01*
G01X20000Y7000D02*
G01X13500Y13500D01*
G01X13500Y13500D02*
G01X12480Y13519D01*
G01X12480Y13519D02*
G01X12000Y14000D01*

G04 Draw clearances for text*

G04 -------------- Draw Parts, Pads, Traces, Vias and Text (positive)*
%LPD*%
G04 Draw part U1*
G54D52*
G01X7000Y18000D03*
G54D53*
G01X7000Y17000D03*
G01X7000Y16000D03*
G01X7000Y15000D03*
G01X7000Y14000D03*
G01X7000Y13000D03*
G01X7000Y12000D03*
G01X7000Y11000D03*
G01X7000Y10000D03*
G01X7000Y9000D03*
G01X10000Y9000D03*
G01X10000Y10000D03*
G01X10000Y11000D03*
G01X10000Y12000D03*
G01X10000Y13000D03*
G01X10000Y14000D03*
G01X10000Y15000D03*
G01X10000Y16000D03*
G01X10000Y17000D03*
G01X10000Y18000D03*
G04 Draw part C1*
G54D54*
G01X12000Y18000D03*
G01X14000Y18000D03*
G04 Draw part R1*
G01X4000Y18000D03*
G01X4000Y14000D03*
G04 Draw part X1*
G54D55*
G01X5000Y12000D03*
G01X5000Y10000D03*
G04 Draw part C3*
G54D54*
G01X3000Y8000D03*
G01X5000Y8000D03*
G04 Draw part C4*
G01X3000Y10000D03*
G01X3000Y12000D03*
G04 Draw part J1*
G54D56*
G01X2000Y14000D03*
G54D57*
G01X2000Y15000D03*
G01X2000Y16000D03*
G01X2000Y17000D03*
G01X2000Y18000D03*
G01X2000Y19000D03*
G04 Draw part C2*
G54D54*
G01X10000Y20000D03*
G01X12000Y20000D03*
G04 Draw part USB1*
G54D58*
G01X8000Y32000D03*
G01X7000Y32000D03*
G01X8000Y33000D03*
G01X7000Y33000D03*
G54D59*
G01X10000Y34000D03*
G01X5000Y34000D03*
G04 Draw part C5*
G54D54*
G01X12000Y12000D03*
G01X14000Y12000D03*
G04 Draw part U2*
G54D60*
G01X5000Y23000D03*
G01X5255Y23000D03*
G01X5511Y23000D03*
G01X5767Y23000D03*
G01X6023Y23000D03*
G01X6279Y23000D03*
G01X6535Y23000D03*
G01X6791Y23000D03*
G01X7047Y23000D03*
G01X7303Y23000D03*
G01X7559Y23000D03*
G01X7814Y23000D03*
G01X8070Y23000D03*
G01X8326Y23000D03*
G01X8326Y25874D03*
G01X8070Y25874D03*
G01X7814Y25874D03*
G01X7559Y25874D03*
G01X7303Y25874D03*
G01X7047Y25874D03*
G01X6791Y25874D03*
G01X6535Y25874D03*
G01X6279Y25874D03*
G01X6023Y25874D03*
G01X5767Y25874D03*
G01X5511Y25874D03*
G01X5255Y25874D03*
G01X5000Y25874D03*
G04 Draw part C6*
G54D54*
G01X12000Y30000D03*
G01X10000Y30000D03*
G04 Draw part C7*
G01X12000Y28000D03*
G01X10000Y28000D03*
G04 Draw part R6*
G01X3000Y22000D03*
G01X3000Y26000D03*
G04 Draw part R5*
G01X1500Y22000D03*
G01X1500Y26000D03*
G04 Draw part D2*
G54D61*
G01X1500Y32500D03*
G01X2500Y32500D03*
G04 Draw part D3*
G01X1500Y30000D03*
G01X2500Y30000D03*
G04 Draw part D1*
G54D54*
G01X7000Y19500D03*
G01X4000Y19500D03*
G04 Draw part R3*
G01X7000Y29000D03*
G01X3000Y29000D03*
G04 Draw part R4*
G01X7000Y28000D03*
G01X3000Y28000D03*
G04 Draw part R2*
G01X7000Y20500D03*
G01X3000Y20500D03*
G04 Draw part C13*
G54D61*
G01X24000Y29790D03*
G01X24000Y29000D03*
G04 Draw part C11*
G54D54*
G01X22000Y30000D03*
G01X22000Y28000D03*
G04 Draw part D6*
G01X27000Y31000D03*
G01X31000Y31000D03*
G04 Draw part C8*
G01X25000Y25000D03*
G01X25000Y23000D03*
G04 Draw part R7*
G01X13500Y22000D03*
G01X13500Y26000D03*
G04 Draw part R8*
G01X12500Y22000D03*
G01X12500Y26000D03*
G04 Draw part D4*
G01X10000Y26000D03*
G01X10000Y23000D03*
G04 Draw part D5*
G01X11000Y26000D03*
G01X11000Y23000D03*
G04 Draw part C20*
G54D61*
G01X35000Y30020D03*
G01X35000Y31000D03*
G04 Draw part C16*
G54D54*
G01X32000Y31000D03*
G01X32000Y29000D03*
G04 Draw part R9*
G54D62*
G01X18000Y24000D03*
G01X20000Y25000D03*
G01X18000Y26000D03*
G04 Draw part R10*
G54D54*
G01X22000Y21000D03*
G01X18000Y21000D03*
G04 Draw part C9*
G54D61*
G01X22790Y23000D03*
G01X22000Y23000D03*
G04 Draw part C10*
G54D54*
G01X13000Y28000D03*
G01X13000Y30000D03*
G04 Draw part C12*
G01X15000Y28000D03*
G01X15000Y30000D03*
G04 Draw part R11*
G01X27000Y29000D03*
G01X29000Y29000D03*
G04 Draw part C15*
G01X31500Y25000D03*
G01X31500Y27000D03*
G04 Draw part C19*
G54D61*
G01X29000Y26790D03*
G01X29000Y26000D03*
G04 Draw part REG1*
G54D63*
G01X35000Y27000D03*
G01X35000Y26000D03*
G01X35000Y25000D03*
G04 Draw part C17*
G54D61*
G01X29000Y23210D03*
G01X29000Y24000D03*
G04 Draw part C18*
G54D54*
G01X33000Y27000D03*
G01X33000Y25000D03*
G04 Draw part R12*
G01X27000Y36000D03*
G01X27000Y32000D03*
G04 Draw part J2*
G54D56*
G01X15000Y26000D03*
G54D57*
G01X15000Y25000D03*
G01X15000Y24000D03*
G01X15000Y23000D03*
G04 Draw part J3*
G54D56*
G01X27000Y26000D03*
G54D57*
G01X27000Y25000D03*
G01X27000Y24000D03*
G01X27000Y23000D03*
G04 Draw part C14*
G54D54*
G01X18000Y28000D03*
G01X20000Y28000D03*
G04 Draw part U3*
G54D52*
G01X20000Y14000D03*
G54D64*
G01X21000Y14000D03*
G01X22000Y14000D03*
G01X23000Y14000D03*
G01X24000Y14000D03*
G01X25000Y14000D03*
G01X26000Y14000D03*
G01X26000Y17000D03*
G01X25000Y17000D03*
G01X24000Y17000D03*
G01X23000Y17000D03*
G01X22000Y17000D03*
G01X21000Y17000D03*
G01X20000Y17000D03*
G04 Draw part R20*
G54D54*
G01X25000Y12500D03*
G01X25000Y8500D03*
G04 Draw part C21*
G01X18000Y14000D03*
G01X18000Y16000D03*
G04 Draw part J6*
G54D65*
G01X13000Y16000D03*
G54D66*
G01X12000Y16000D03*
G04 Draw part J4*
G54D65*
G01X13000Y15000D03*
G54D66*
G01X12000Y15000D03*
G04 Draw part R17*
G54D54*
G01X23000Y19500D03*
G01X19000Y19500D03*
G04 Draw part R18*
G01X25000Y19500D03*
G01X29000Y19500D03*
G04 Draw part R16*
G01X27500Y18000D03*
G01X27500Y14000D03*
G04 Draw part R19*
G01X29000Y18000D03*
G01X29000Y14000D03*
G04 Draw part R15*
G01X24000Y12500D03*
G01X24000Y8500D03*
G04 Draw part J5*
G54D65*
G01X13000Y14000D03*
G54D66*
G01X12000Y14000D03*
G04 Draw part R14*
G54D54*
G01X31000Y18000D03*
G01X31000Y14000D03*
G04 Draw part J7*
G54D65*
G01X13000Y13000D03*
G54D66*
G01X12000Y13000D03*
G04 Draw part R24*
G54D54*
G01X20000Y8500D03*
G01X20000Y12500D03*
G04 Draw part C25*
G01X18500Y10500D03*
G01X18500Y12500D03*
G04 Draw part R23*
G01X21000Y8500D03*
G01X21000Y12500D03*
G04 Draw part C24*
G01X22000Y10500D03*
G01X22000Y12500D03*
G04 Draw part R21*
G01X32000Y10000D03*
G01X28000Y10000D03*
G04 Draw part R22*
G01X28000Y11000D03*
G01X32000Y11000D03*
G04 Draw part C23*
G01X30000Y12500D03*
G01X28000Y12500D03*
G04 Draw part C22*
G01X28000Y8500D03*
G01X30000Y8500D03*
G04 Draw part R13*
G54D62*
G01X35000Y17000D03*
G01X33000Y16000D03*
G01X35000Y15000D03*
G04 Draw part CONN1*
G54D56*
G01X15000Y10000D03*
G54D57*
G01X14000Y10000D03*
G01X13000Y10000D03*
G01X12000Y10000D03*
G04 Draw part R29*
G54D55*
G01X16750Y1000D03*
G01X17750Y1000D03*
G01X18750Y1000D03*
G54D67*
G01X15900Y4000D03*
G01X19600Y4000D03*
G04 Draw part R30*
G54D55*
G01X21750Y1000D03*
G01X22750Y1000D03*
G01X23750Y1000D03*
G54D67*
G01X20900Y4000D03*
G01X24600Y4000D03*
G04 Draw part R31*
G54D55*
G01X26750Y1000D03*
G01X27750Y1000D03*
G01X28750Y1000D03*
G54D67*
G01X25900Y4000D03*
G01X29600Y4000D03*
G04 Draw part R32*
G54D55*
G01X31750Y1000D03*
G01X32750Y1000D03*
G01X33750Y1000D03*
G54D67*
G01X30900Y4000D03*
G01X34600Y4000D03*
G04 Draw part R33*
G54D54*
G01X9000Y5000D03*
G01X5000Y5000D03*
G04 Draw part D7*
G54D61*
G01X9000Y3500D03*
G01X9000Y2500D03*
G04 Draw part R34*
G54D54*
G01X9000Y6500D03*
G01X5000Y6500D03*
G04 Draw part D8*
G54D61*
G01X5000Y3500D03*
G01X5000Y2500D03*
G04 Draw part R25*
G54D54*
G01X17750Y3000D03*
G01X17750Y7000D03*
G04 Draw part R26*
G01X22750Y3000D03*
G01X22750Y7000D03*
G04 Draw part R27*
G01X27750Y3000D03*
G01X27750Y7000D03*
G04 Draw part R28*
G01X32750Y3000D03*
G01X32750Y7000D03*
G04 Draw part R37*
G01X16000Y8000D03*
G01X12000Y8000D03*
G04 Draw part R35*
G01X31000Y23000D03*
G01X35000Y23000D03*
G04 Draw part D9*
G54D61*
G01X31000Y19500D03*
G01X31000Y20500D03*
G04 Draw part R36*
G54D54*
G01X31000Y22000D03*
G01X35000Y22000D03*
G04 Draw part D10*
G54D61*
G01X35000Y19500D03*
G01X35000Y20500D03*
G04 Draw part K1*
G54D68*
G01X16000Y33000D03*
G01X17000Y33000D03*
G01X18000Y33000D03*
G01X19000Y33000D03*
G01X20000Y33000D03*
G01X16500Y34000D03*
G01X17500Y34000D03*
G01X18500Y34000D03*
G01X19500Y34000D03*
G54D69*
G01X13000Y33500D03*
G01X23000Y33500D03*
G04 Draw part K2*
G54D70*
G01X32750Y34250D03*
G01X31750Y34000D03*
G01X30000Y33000D03*
G04 Draw part MH*
G54D71*
G01X2000Y35000D03*
G04 Draw part MH2*
G01X35000Y35000D03*
G04 Draw part MH3*
G01X35000Y10000D03*
G04 Draw part MH4*
G01X2000Y1000D03*
G04 Draw part S1*
G54D72*
G01X13500Y5000D03*
G01X11750Y5000D03*
G01X11750Y2500D03*
G01X13500Y2500D03*

G04 Draw traces*
G54D73*
G01X21000Y8500D02*
G01X20250Y9500D01*
G01X20250Y9500D02*
G01X18250Y9500D01*
G01X18250Y9500D02*
G01X13750Y14000D01*
G01X13750Y14000D02*
G01X13000Y14000D01*
G54D74*
G01X7303Y25874D02*
G01X7300Y26925D01*
G54D73*
G01X7300Y26925D02*
G01X7000Y27250D01*
G01X7000Y27250D02*
G01X7000Y28000D01*
G01X27750Y7000D02*
G01X23750Y7000D01*
G01X23750Y7000D02*
G01X19500Y11250D01*
G01X19500Y11250D02*
G01X17250Y11250D01*
G01X17250Y11250D02*
G01X14000Y14500D01*
G01X14000Y14500D02*
G01X12500Y14500D01*
G01X12500Y14500D02*
G01X12000Y15000D01*
G54D75*
G01X27000Y29000D02*
G01X29000Y31000D01*
G01X29000Y31000D02*
G01X31000Y31000D01*
G01X32000Y29000D02*
G01X33980Y29000D01*
G01X33980Y29000D02*
G01X35000Y30020D01*
G54D73*
G01X22790Y23000D02*
G01X22790Y21790D01*
G01X22790Y21790D02*
G01X22000Y21000D01*
G01X25000Y25000D02*
G01X25000Y27000D01*
G01X25000Y27000D02*
G01X27000Y29000D01*
G01X32750Y7000D02*
G01X29250Y7000D01*
G01X29250Y7000D02*
G01X28500Y7750D01*
G01X28500Y7750D02*
G01X23750Y7750D01*
G01X23750Y7750D02*
G01X19750Y11750D01*
G01X19750Y11750D02*
G01X17750Y11750D01*
G01X17750Y11750D02*
G01X15250Y14250D01*
G54D76*
G01X15250Y14250D03*
G54D73*
G01X12500Y22000D02*
G01X13000Y22000D01*
G01X13000Y22000D02*
G01X13000Y19500D01*
G01X13000Y19500D02*
G01X12250Y18750D01*
G01X12250Y18750D02*
G01X9500Y18750D01*
G01X9500Y18750D02*
G01X9000Y18250D01*
G01X9000Y18250D02*
G01X9000Y9500D01*
G01X9000Y9500D02*
G01X9500Y9000D01*
G01X9500Y9000D02*
G01X10000Y9000D01*
G01X12500Y22000D02*
G01X13500Y22000D01*
G01X10000Y26000D02*
G01X10000Y25250D01*
G01X10000Y25250D02*
G01X10500Y24750D01*
G01X10500Y24750D02*
G01X11250Y24750D01*
G01X11250Y24750D02*
G01X12500Y26000D01*
G01X30000Y8500D02*
G01X30250Y8500D01*
G01X30250Y8500D02*
G01X29500Y9250D01*
G01X29500Y9250D02*
G01X24500Y9250D01*
G01X24500Y9250D02*
G01X24000Y8750D01*
G01X24000Y8750D02*
G01X24000Y8500D01*
G54D77*
G01X5000Y23000D02*
G01X5000Y21750D01*
G54D73*
G01X5000Y21750D02*
G01X5000Y19250D01*
G01X5000Y19250D02*
G01X5521Y18750D01*
G01X5521Y18750D02*
G01X7500Y18750D01*
G01X7500Y18750D02*
G01X8000Y18250D01*
G01X8000Y18250D02*
G01X8000Y15500D01*
G01X8000Y15500D02*
G01X7500Y15000D01*
G01X7500Y15000D02*
G01X7000Y15000D01*
G54D75*
G01X31500Y27000D02*
G01X29210Y27000D01*
G01X29210Y27000D02*
G01X29000Y26790D01*
G01X35000Y27000D02*
G01X34500Y27000D01*
G01X34500Y27000D02*
G01X33500Y28000D01*
G01X33500Y28000D02*
G01X32500Y28000D01*
G01X32500Y28000D02*
G01X31500Y27000D01*
G54D73*
G01X3000Y22000D02*
G01X3000Y23000D01*
G01X3000Y23000D02*
G01X4000Y24000D01*
G01X4000Y24000D02*
G01X6000Y24000D01*
G01X6000Y24000D02*
G01X6535Y24535D01*
G54D77*
G01X6535Y24535D02*
G01X6535Y25874D01*
G01X6023Y23000D02*
G01X6025Y22225D01*
G01X6025Y22225D02*
G01X6500Y21750D01*
G54D73*
G01X6500Y21750D02*
G01X7000Y21250D01*
G01X7000Y21250D02*
G01X10500Y21250D01*
G01X10500Y21250D02*
G01X11000Y20750D01*
G01X11000Y20750D02*
G01X11000Y19750D01*
G01X11000Y19750D02*
G01X10500Y19250D01*
G01X10500Y19250D02*
G01X9000Y19250D01*
G01X9000Y19250D02*
G01X8500Y18750D01*
G01X8500Y18750D02*
G01X8500Y14750D01*
G01X8500Y14750D02*
G01X7750Y14000D01*
G01X7750Y14000D02*
G01X7000Y14000D01*
G01X13500Y26000D02*
G01X13500Y26500D01*
G01X13500Y26500D02*
G01X13000Y27000D01*
G01X13000Y27000D02*
G01X12000Y27000D01*
G01X12000Y27000D02*
G01X11000Y26000D01*
G54D77*
G01X7814Y25874D02*
G01X7825Y26750D01*
G01X7825Y26750D02*
G01X7700Y26925D01*
G54D73*
G01X7700Y26925D02*
G01X7700Y28425D01*
G01X7700Y28425D02*
G01X8000Y28750D01*
G01X8000Y28750D02*
G01X11500Y28750D01*
G01X11500Y28750D02*
G01X12000Y28250D01*
G01X12000Y28250D02*
G01X12000Y28000D01*
G01X25000Y12500D02*
G01X25646Y13146D01*
G01X25646Y13146D02*
G01X28146Y13146D01*
G01X28146Y13146D02*
G01X29000Y14000D01*
G01X13000Y16000D02*
G01X17000Y16000D01*
G01X17000Y16000D02*
G01X18000Y17000D01*
G01X18000Y17000D02*
G01X20000Y17000D01*
G54D77*
G01X6279Y25874D02*
G01X6275Y25025D01*
G01X6275Y25025D02*
G01X6000Y24750D01*
G54D73*
G01X6000Y24750D02*
G01X3250Y24750D01*
G01X3250Y24750D02*
G01X1500Y23000D01*
G01X1500Y23000D02*
G01X1500Y22000D01*
G54D77*
G01X8326Y25874D02*
G01X8325Y26325D01*
G01X8325Y26325D02*
G01X8750Y26750D01*
G54D73*
G01X8750Y26750D02*
G01X9000Y27250D01*
G54D76*
G01X9000Y27250D03*
G54D73*
G01X7000Y18000D02*
G01X6000Y18000D01*
G01X6000Y18000D02*
G01X4000Y15999D01*
G01X4000Y15999D02*
G01X4000Y14000D01*
G01X29000Y18000D02*
G01X28000Y17000D01*
G01X28000Y17000D02*
G01X26000Y17000D01*
G01X13000Y15000D02*
G01X18000Y15000D01*
G01X18000Y15000D02*
G01X18750Y15750D01*
G01X18750Y15750D02*
G01X25250Y15750D01*
G01X25250Y15750D02*
G01X26000Y16500D01*
G01X26000Y16500D02*
G01X26000Y17000D01*
G01X10000Y17000D02*
G01X13000Y17000D01*
G01X13000Y17000D02*
G01X14000Y18000D01*
G01X16000Y8000D02*
G01X15250Y7250D01*
G01X15250Y7250D02*
G01X3749Y7250D01*
G01X3749Y7250D02*
G01X3000Y8000D01*
G01X15000Y23000D02*
G01X12250Y23000D01*
G01X12250Y23000D02*
G01X11000Y21750D01*
G01X11000Y21750D02*
G01X7250Y21750D01*
G01X7250Y21750D02*
G01X7000Y22000D01*
G54D74*
G01X7000Y22000D02*
G01X6525Y22475D01*
G01X6525Y22475D02*
G01X6535Y23000D01*
G54D75*
G01X35000Y26000D02*
G01X34000Y26000D01*
G01X34000Y26000D02*
G01X33000Y27000D01*
G01X31500Y25000D02*
G01X30750Y25000D01*
G01X30750Y25000D02*
G01X29750Y26000D01*
G01X29750Y26000D02*
G01X29000Y26000D01*
G54D73*
G01X21750Y1000D02*
G01X21000Y250D01*
G01X21000Y250D02*
G01X17500Y250D01*
G01X17500Y250D02*
G01X16750Y1000D01*
G01X26750Y1000D02*
G01X26000Y250D01*
G01X26000Y250D02*
G01X22500Y250D01*
G01X22500Y250D02*
G01X21750Y1000D01*
G01X31750Y1000D02*
G01X31000Y250D01*
G01X31000Y250D02*
G01X27500Y250D01*
G01X27500Y250D02*
G01X26750Y1000D01*
G54D77*
G01X5511Y25874D02*
G01X5511Y26738D01*
G54D73*
G01X5511Y26738D02*
G01X4250Y28000D01*
G01X4250Y28000D02*
G01X3000Y28000D01*
G54D77*
G01X6791Y25874D02*
G01X6800Y26400D01*
G01X6800Y26400D02*
G01X6550Y26650D01*
G01X6550Y26650D02*
G01X6000Y26650D01*
G01X6000Y26650D02*
G01X5750Y26400D01*
G01X5750Y26400D02*
G01X5750Y26000D01*
G01X5750Y26000D02*
G01X5767Y25874D01*
G01X5767Y25874D02*
G01X5725Y25850D01*
G01X5725Y25850D02*
G01X5700Y25874D01*
G01X5700Y25874D02*
G01X5511Y25874D01*
G01X7559Y25874D02*
G01X7550Y25225D01*
G01X7550Y25225D02*
G01X7350Y25025D01*
G01X7350Y25025D02*
G01X6975Y25025D01*
G01X6975Y25025D02*
G01X6791Y25208D01*
G01X6791Y25208D02*
G01X6791Y25874D01*
G54D73*
G01X15000Y23000D02*
G01X12250Y23000D01*
G01X12250Y23000D02*
G01X11000Y21750D01*
G01X11000Y21750D02*
G01X9500Y21750D01*
G01X9500Y21750D02*
G01X9000Y22250D01*
G01X9000Y22250D02*
G01X9000Y26250D01*
G01X9000Y26250D02*
G01X10000Y27250D01*
G01X10000Y27250D02*
G01X10000Y28000D01*
G01X10000Y30000D02*
G01X9000Y31000D01*
G01X9000Y31000D02*
G01X1250Y31000D01*
G01X1250Y31000D02*
G01X750Y30500D01*
G01X750Y30500D02*
G01X750Y28500D01*
G01X750Y28500D02*
G01X1250Y28000D01*
G01X1250Y28000D02*
G01X3000Y28000D01*
G01X31000Y19500D02*
G01X32000Y18500D01*
G01X32000Y18500D02*
G01X32000Y13000D01*
G01X32000Y13000D02*
G01X30000Y11000D01*
G01X30000Y11000D02*
G01X28000Y11000D01*
G01X24000Y14000D02*
G01X24000Y14750D01*
G01X24000Y14750D02*
G01X24500Y15250D01*
G01X24500Y15250D02*
G01X26249Y15250D01*
G01X26249Y15250D02*
G01X27500Y14000D01*
G01X22000Y17000D02*
G01X22000Y17500D01*
G01X22000Y17500D02*
G01X21500Y18000D01*
G01X21500Y18000D02*
G01X18500Y18000D01*
G01X18500Y18000D02*
G01X16000Y20500D01*
G01X16000Y20500D02*
G01X16000Y28500D01*
G01X16000Y28500D02*
G01X15500Y29000D01*
G01X15500Y29000D02*
G01X14000Y29000D01*
G01X14000Y29000D02*
G01X13000Y30000D01*
G54D77*
G01X8070Y25874D02*
G01X8075Y26775D01*
G01X8075Y26775D02*
G01X8250Y27000D01*
G54D73*
G01X8250Y27000D02*
G01X8250Y27750D01*
G54D76*
G01X8250Y27750D03*
G54D73*
G01X24000Y17000D02*
G01X24000Y16750D01*
G01X24000Y16750D02*
G01X24000Y17750D01*
G01X24000Y17750D02*
G01X23250Y18500D01*
G01X23250Y18500D02*
G01X18750Y18500D01*
G01X18750Y18500D02*
G01X16500Y20750D01*
G01X16500Y20750D02*
G01X16500Y29250D01*
G01X16500Y29250D02*
G01X15750Y30000D01*
G01X15750Y30000D02*
G01X15000Y30000D01*
G54D74*
G01X5767Y23000D02*
G01X5775Y21725D01*
G54D73*
G01X5775Y21725D02*
G01X7000Y20500D01*
G01X10000Y20000D02*
G01X7500Y20000D01*
G01X7500Y20000D02*
G01X7000Y20500D01*
G54D75*
G01X33000Y25000D02*
G01X35000Y25000D01*
G54D73*
G01X29000Y23210D02*
G01X29960Y23210D01*
G01X29960Y23210D02*
G01X30750Y24000D01*
G01X30750Y24000D02*
G01X32000Y24000D01*
G01X32000Y24000D02*
G01X33000Y25000D01*
G01X23000Y14000D02*
G01X23000Y14500D01*
G01X23000Y14500D02*
G01X22250Y15250D01*
G01X22250Y15250D02*
G01X19250Y15250D01*
G01X19250Y15250D02*
G01X18000Y14000D01*
G01X28000Y10000D02*
G01X24250Y10000D01*
G01X24250Y10000D02*
G01X23000Y11250D01*
G01X23000Y11250D02*
G01X23000Y14000D01*
G01X12000Y30000D02*
G01X11250Y29250D01*
G01X11250Y29250D02*
G01X8250Y29250D01*
G01X8250Y29250D02*
G01X7500Y30000D01*
G01X7500Y30000D02*
G01X2500Y30000D01*
G54D77*
G01X7047Y25874D02*
G01X7050Y26575D01*
G01X7050Y26575D02*
G01X6625Y27000D01*
G54D73*
G01X6625Y27000D02*
G01X5750Y27875D01*
G01X5750Y27875D02*
G01X5750Y29500D01*
G01X5750Y29500D02*
G01X5250Y30000D01*
G54D77*
G01X5250Y30000D02*
G01X2500Y30000D01*
G54D73*
G01X7000Y20500D02*
G01X7000Y19500D01*
G01X28000Y10000D02*
G01X30000Y10000D01*
G01X30000Y10000D02*
G01X34000Y14000D01*
G01X34000Y14000D02*
G01X34000Y23750D01*
G01X34000Y23750D02*
G01X33000Y24750D01*
G01X33000Y24750D02*
G01X33000Y25000D01*
G01X22000Y30000D02*
G01X21000Y29000D01*
G01X21000Y29000D02*
G01X21000Y27000D01*
G01X21000Y27000D02*
G01X23750Y24250D01*
G01X23750Y24250D02*
G01X23750Y22000D01*
G01X23750Y22000D02*
G01X24250Y21500D01*
G01X24250Y21500D02*
G01X27250Y21500D01*
G01X27250Y21500D02*
G01X29000Y23250D01*
G01X29000Y23250D02*
G01X29000Y23210D01*
G01X12000Y8000D02*
G01X9001Y8000D01*
G01X9001Y8000D02*
G01X8250Y8751D01*
G01X8250Y8751D02*
G01X8250Y12500D01*
G01X8250Y12500D02*
G01X7750Y13000D01*
G01X7750Y13000D02*
G01X7000Y13000D01*
G01X17750Y7000D02*
G01X17750Y8500D01*
G01X17750Y8500D02*
G01X15288Y10962D01*
G01X15288Y10962D02*
G01X14037Y10962D01*
G01X14037Y10962D02*
G01X12000Y13000D01*
G01X31000Y18000D02*
G01X30000Y19000D01*
G01X30000Y19000D02*
G01X30000Y19750D01*
G01X30000Y19750D02*
G01X29500Y20250D01*
G01X29500Y20250D02*
G01X23750Y20250D01*
G01X23750Y20250D02*
G01X23000Y19500D01*
G01X22750Y7000D02*
G01X20000Y7000D01*
G01X20000Y7000D02*
G01X13500Y13500D01*
G01X13500Y13500D02*
G01X12480Y13519D01*
G01X12480Y13519D02*
G01X12000Y14000D01*

G04 Draw Text*

G04 ----------------------- Draw Pilot Holes (scratch)*
%LPC*%
G04 draw pilot holes for part U1*
G54D78*
G01X7000Y18000D03*
G01X7000Y17000D03*
G01X7000Y16000D03*
G01X7000Y15000D03*
G01X7000Y14000D03*
G01X7000Y13000D03*
G01X7000Y12000D03*
G01X7000Y11000D03*
G01X7000Y10000D03*
G01X7000Y9000D03*
G01X10000Y9000D03*
G01X10000Y10000D03*
G01X10000Y11000D03*
G01X10000Y12000D03*
G01X10000Y13000D03*
G01X10000Y14000D03*
G01X10000Y15000D03*
G01X10000Y16000D03*
G01X10000Y17000D03*
G01X10000Y18000D03*
G04 draw pilot holes for part C1*
G01X12000Y18000D03*
G01X14000Y18000D03*
G04 draw pilot holes for part R1*
G01X4000Y18000D03*
G01X4000Y14000D03*
G04 draw pilot holes for part X1*
G01X5000Y12000D03*
G01X5000Y10000D03*
G04 draw pilot holes for part C3*
G01X3000Y8000D03*
G01X5000Y8000D03*
G04 draw pilot holes for part C4*
G01X3000Y10000D03*
G01X3000Y12000D03*
G04 draw pilot holes for part J1*
G01X2000Y14000D03*
G01X2000Y15000D03*
G01X2000Y16000D03*
G01X2000Y17000D03*
G01X2000Y18000D03*
G01X2000Y19000D03*
G04 draw pilot holes for part C2*
G01X10000Y20000D03*
G01X12000Y20000D03*
G04 draw pilot holes for part USB1*
G01X8000Y32000D03*
G01X7000Y32000D03*
G01X8000Y33000D03*
G01X7000Y33000D03*
G01X10000Y34000D03*
G01X5000Y34000D03*
G04 draw pilot holes for part C5*
G01X12000Y12000D03*
G01X14000Y12000D03*
G04 draw pilot holes for part U2*
G04 draw pilot holes for part C6*
G01X12000Y30000D03*
G01X10000Y30000D03*
G04 draw pilot holes for part C7*
G01X12000Y28000D03*
G01X10000Y28000D03*
G04 draw pilot holes for part R6*
G01X3000Y22000D03*
G01X3000Y26000D03*
G04 draw pilot holes for part R5*
G01X1500Y22000D03*
G01X1500Y26000D03*
G04 draw pilot holes for part D2*
G01X1500Y32500D03*
G01X2500Y32500D03*
G04 draw pilot holes for part D3*
G01X1500Y30000D03*
G01X2500Y30000D03*
G04 draw pilot holes for part D1*
G01X7000Y19500D03*
G01X4000Y19500D03*
G04 draw pilot holes for part R3*
G01X7000Y29000D03*
G01X3000Y29000D03*
G04 draw pilot holes for part R4*
G01X7000Y28000D03*
G01X3000Y28000D03*
G04 draw pilot holes for part R2*
G01X7000Y20500D03*
G01X3000Y20500D03*
G04 draw pilot holes for part C13*
G01X24000Y29790D03*
G01X24000Y29000D03*
G04 draw pilot holes for part C11*
G01X22000Y30000D03*
G01X22000Y28000D03*
G04 draw pilot holes for part D6*
G01X27000Y31000D03*
G01X31000Y31000D03*
G04 draw pilot holes for part C8*
G01X25000Y25000D03*
G01X25000Y23000D03*
G04 draw pilot holes for part R7*
G01X13500Y22000D03*
G01X13500Y26000D03*
G04 draw pilot holes for part R8*
G01X12500Y22000D03*
G01X12500Y26000D03*
G04 draw pilot holes for part D4*
G01X10000Y26000D03*
G01X10000Y23000D03*
G04 draw pilot holes for part D5*
G01X11000Y26000D03*
G01X11000Y23000D03*
G04 draw pilot holes for part C20*
G01X35000Y30020D03*
G01X35000Y31000D03*
G04 draw pilot holes for part C16*
G01X32000Y31000D03*
G01X32000Y29000D03*
G04 draw pilot holes for part R9*
G01X18000Y24000D03*
G01X20000Y25000D03*
G01X18000Y26000D03*
G04 draw pilot holes for part R10*
G01X22000Y21000D03*
G01X18000Y21000D03*
G04 draw pilot holes for part C9*
G01X22790Y23000D03*
G01X22000Y23000D03*
G04 draw pilot holes for part C10*
G01X13000Y28000D03*
G01X13000Y30000D03*
G04 draw pilot holes for part C12*
G01X15000Y28000D03*
G01X15000Y30000D03*
G04 draw pilot holes for part R11*
G01X27000Y29000D03*
G01X29000Y29000D03*
G04 draw pilot holes for part C15*
G01X31500Y25000D03*
G01X31500Y27000D03*
G04 draw pilot holes for part C19*
G01X29000Y26790D03*
G01X29000Y26000D03*
G04 draw pilot holes for part REG1*
G01X35000Y27000D03*
G01X35000Y26000D03*
G01X35000Y25000D03*
G04 draw pilot holes for part C17*
G01X29000Y23210D03*
G01X29000Y24000D03*
G04 draw pilot holes for part C18*
G01X33000Y27000D03*
G01X33000Y25000D03*
G04 draw pilot holes for part R12*
G01X27000Y36000D03*
G01X27000Y32000D03*
G04 draw pilot holes for part J2*
G01X15000Y26000D03*
G01X15000Y25000D03*
G01X15000Y24000D03*
G01X15000Y23000D03*
G04 draw pilot holes for part J3*
G01X27000Y26000D03*
G01X27000Y25000D03*
G01X27000Y24000D03*
G01X27000Y23000D03*
G04 draw pilot holes for part C14*
G01X18000Y28000D03*
G01X20000Y28000D03*
G04 draw pilot holes for part U3*
G01X20000Y14000D03*
G01X21000Y14000D03*
G01X22000Y14000D03*
G01X23000Y14000D03*
G01X24000Y14000D03*
G01X25000Y14000D03*
G01X26000Y14000D03*
G01X26000Y17000D03*
G01X25000Y17000D03*
G01X24000Y17000D03*
G01X23000Y17000D03*
G01X22000Y17000D03*
G01X21000Y17000D03*
G01X20000Y17000D03*
G04 draw pilot holes for part R20*
G01X25000Y12500D03*
G01X25000Y8500D03*
G04 draw pilot holes for part C21*
G01X18000Y14000D03*
G01X18000Y16000D03*
G04 draw pilot holes for part J6*
G01X13000Y16000D03*
G01X12000Y16000D03*
G04 draw pilot holes for part J4*
G01X13000Y15000D03*
G01X12000Y15000D03*
G04 draw pilot holes for part R17*
G01X23000Y19500D03*
G01X19000Y19500D03*
G04 draw pilot holes for part R18*
G01X25000Y19500D03*
G01X29000Y19500D03*
G04 draw pilot holes for part R16*
G01X27500Y18000D03*
G01X27500Y14000D03*
G04 draw pilot holes for part R19*
G01X29000Y18000D03*
G01X29000Y14000D03*
G04 draw pilot holes for part R15*
G01X24000Y12500D03*
G01X24000Y8500D03*
G04 draw pilot holes for part J5*
G01X13000Y14000D03*
G01X12000Y14000D03*
G04 draw pilot holes for part R14*
G01X31000Y18000D03*
G01X31000Y14000D03*
G04 draw pilot holes for part J7*
G01X13000Y13000D03*
G01X12000Y13000D03*
G04 draw pilot holes for part R24*
G01X20000Y8500D03*
G01X20000Y12500D03*
G04 draw pilot holes for part C25*
G01X18500Y10500D03*
G01X18500Y12500D03*
G04 draw pilot holes for part R23*
G01X21000Y8500D03*
G01X21000Y12500D03*
G04 draw pilot holes for part C24*
G01X22000Y10500D03*
G01X22000Y12500D03*
G04 draw pilot holes for part R21*
G01X32000Y10000D03*
G01X28000Y10000D03*
G04 draw pilot holes for part R22*
G01X28000Y11000D03*
G01X32000Y11000D03*
G04 draw pilot holes for part C23*
G01X30000Y12500D03*
G01X28000Y12500D03*
G04 draw pilot holes for part C22*
G01X28000Y8500D03*
G01X30000Y8500D03*
G04 draw pilot holes for part R13*
G01X35000Y17000D03*
G01X33000Y16000D03*
G01X35000Y15000D03*
G04 draw pilot holes for part CONN1*
G01X15000Y10000D03*
G01X14000Y10000D03*
G01X13000Y10000D03*
G01X12000Y10000D03*
G04 draw pilot holes for part R29*
G01X16750Y1000D03*
G01X17750Y1000D03*
G01X18750Y1000D03*
G01X15900Y4000D03*
G01X19600Y4000D03*
G04 draw pilot holes for part R30*
G01X21750Y1000D03*
G01X22750Y1000D03*
G01X23750Y1000D03*
G01X20900Y4000D03*
G01X24600Y4000D03*
G04 draw pilot holes for part R31*
G01X26750Y1000D03*
G01X27750Y1000D03*
G01X28750Y1000D03*
G01X25900Y4000D03*
G01X29600Y4000D03*
G04 draw pilot holes for part R32*
G01X31750Y1000D03*
G01X32750Y1000D03*
G01X33750Y1000D03*
G01X30900Y4000D03*
G01X34600Y4000D03*
G04 draw pilot holes for part R33*
G01X9000Y5000D03*
G01X5000Y5000D03*
G04 draw pilot holes for part D7*
G01X9000Y3500D03*
G01X9000Y2500D03*
G04 draw pilot holes for part R34*
G01X9000Y6500D03*
G01X5000Y6500D03*
G04 draw pilot holes for part D8*
G01X5000Y3500D03*
G01X5000Y2500D03*
G04 draw pilot holes for part R25*
G01X17750Y3000D03*
G01X17750Y7000D03*
G04 draw pilot holes for part R26*
G01X22750Y3000D03*
G01X22750Y7000D03*
G04 draw pilot holes for part R27*
G01X27750Y3000D03*
G01X27750Y7000D03*
G04 draw pilot holes for part R28*
G01X32750Y3000D03*
G01X32750Y7000D03*
G04 draw pilot holes for part R37*
G01X16000Y8000D03*
G01X12000Y8000D03*
G04 draw pilot holes for part R35*
G01X31000Y23000D03*
G01X35000Y23000D03*
G04 draw pilot holes for part D9*
G01X31000Y19500D03*
G01X31000Y20500D03*
G04 draw pilot holes for part R36*
G01X31000Y22000D03*
G01X35000Y22000D03*
G04 draw pilot holes for part D10*
G01X35000Y19500D03*
G01X35000Y20500D03*
G04 draw pilot holes for part K1*
G01X16000Y33000D03*
G01X17000Y33000D03*
G01X18000Y33000D03*
G01X19000Y33000D03*
G01X20000Y33000D03*
G01X16500Y34000D03*
G01X17500Y34000D03*
G01X18500Y34000D03*
G01X19500Y34000D03*
G01X13000Y33500D03*
G01X23000Y33500D03*
G04 draw pilot holes for part K2*
G01X32750Y34250D03*
G01X31750Y34000D03*
G01X30000Y33000D03*
G04 draw pilot holes for part MH*
G01X2000Y35000D03*
G04 draw pilot holes for part MH2*
G01X35000Y35000D03*
G04 draw pilot holes for part MH3*
G01X35000Y10000D03*
G04 draw pilot holes for part MH4*
G01X2000Y1000D03*
G04 draw pilot holes for part S1*
G01X13500Y5000D03*
G01X11750Y5000D03*
G01X11750Y2500D03*
G01X13500Y2500D03*

G04 Draw pilot holes for vias*
G01X15250Y14250D03*
G01X9000Y27250D03*
G01X8250Y27750D03*
M00*
M02*
