G04 FreePCB version 1.359*
G04 C:\Users\Marzac\AppData\Local\VirtualStore\Program Files (x86)\FreePCB\projects\Pluri\CAM\top_silk.grb*
G04 top silk layer *
G04 Scale: 100 percent, Rotated: No, Reflected: No *
%FSLAX24Y24*%
%MOIN*%
%LN top silk *%
G04 Rounded Rectangle Macro, params: W/2, H/2, R *
%AMRNDREC*
21,1,$1+$1,$2+$2-$3-$3,0,0,0*
21,1,$1+$1-$3-$3,$2+$2,0,0,0*
1,1,$3+$3,$1-$3,$2-$3*
1,1,$3+$3,$3-$1,$2-$3*
1,1,$3+$3,$1-$3,$3-$2*
1,1,$3+$3,$3-$1,$3-$2*%
G04 Rectangular Thermal Macro, params: W/2, H/2, T/2 *
%AMRECTHERM*
$4=$3/2*
21,1,$1-$3,$2-$3,0-$1/2-$4,0-$2/2-$4,0*
21,1,$1-$3,$2-$3,0-$1/2-$4,$2/2+$4,0*
21,1,$1-$3,$2-$3,$1/2+$4,0-$2/2-$4,0*
21,1,$1-$3,$2-$3,$1/2+$4,$2/2+$4,0*%
%ADD10C,0.005000*%
%ADD11C,0.007000*%
%ADD12C,0.010000*%
G90*
G70D02*

G04 Step and Repeat for panelization *

G04 ----------------------- Draw board outline (positive)*
%LPD*%
G54D10*
G01X-18000Y18000D02*
G01X19000Y18000D01*
G04 end of side 1*
G01X19000Y-19000D01*
G04 end of side 2*
G01X-18000Y-19000D01*
G04 end of side 3*
G01X-18000Y18000D01*

G04 -------------- Draw Parts, Pads, Traces, Vias and Text (positive)*
%LPD*%
G04 Draw part U1*
G04 draw part outline for part U1*
G54D11*
G01X-10500Y-500D02*
G01X-10500Y-10500D01*
G01X-10500Y-10500D02*
G01X-8500Y-10500D01*
G01X-8500Y-10500D02*
G01X-8500Y-500D01*
G01X-8500Y-500D02*
G01X-10500Y-500D01*
G01X-10000Y-500D02*
G01X-10000Y-1000D01*
G01X-10000Y-1000D02*
G01X-9000Y-1000D01*
G01X-9000Y-1000D02*
G01X-9000Y-500D01*
G01X-9000Y-500D02*
G01X-10000Y-500D01*
G04 draw reference designator for part U1*
G01X-9500Y477D02*
G01X-9500Y136D01*
G01X-9500Y136D02*
G01X-9477Y68D01*
G01X-9477Y68D02*
G01X-9431Y22D01*
G01X-9431Y22D02*
G01X-9363Y0D01*
G01X-9318Y0D02*
G01X-9363Y0D01*
G01X-9250Y22D02*
G01X-9318Y0D01*
G01X-9204Y68D02*
G01X-9250Y22D01*
G01X-9181Y136D02*
G01X-9204Y68D01*
G01X-9181Y477D02*
G01X-9181Y136D01*
G01X-8954Y409D02*
G01X-9000Y386D01*
G01X-8886Y477D02*
G01X-8954Y409D01*
G01X-8886Y477D02*
G01X-8886Y0D01*
G04 Draw part C1*
G04 draw part outline for part C1*
G01X-6500Y-500D02*
G01X-3500Y-500D01*
G01X-3500Y-500D02*
G01X-3500Y-1500D01*
G01X-3500Y-1500D02*
G01X-6500Y-1500D01*
G01X-6500Y-1500D02*
G01X-6500Y-500D01*
G04 draw reference designator for part C1*
G01X-4681Y209D02*
G01X-4659Y163D01*
G01X-4727Y254D02*
G01X-4681Y209D01*
G01X-4772Y277D02*
G01X-4727Y254D01*
G01X-4863Y277D02*
G01X-4772Y277D01*
G01X-4863Y277D02*
G01X-4909Y254D01*
G01X-4909Y254D02*
G01X-4954Y209D01*
G01X-4954Y209D02*
G01X-4977Y163D01*
G01X-4977Y163D02*
G01X-5000Y95D01*
G01X-5000Y95D02*
G01X-5000Y-18D01*
G01X-5000Y-18D02*
G01X-4977Y-86D01*
G01X-4977Y-86D02*
G01X-4954Y-131D01*
G01X-4954Y-131D02*
G01X-4909Y-177D01*
G01X-4909Y-177D02*
G01X-4863Y-200D01*
G01X-4772Y-200D02*
G01X-4863Y-200D01*
G01X-4727Y-177D02*
G01X-4772Y-200D01*
G01X-4681Y-131D02*
G01X-4727Y-177D01*
G01X-4659Y-86D02*
G01X-4681Y-131D01*
G01X-4431Y209D02*
G01X-4477Y186D01*
G01X-4363Y277D02*
G01X-4431Y209D01*
G01X-4363Y277D02*
G01X-4363Y-200D01*
G04 Draw part R1*
G04 draw part outline for part R1*
G01X-13500Y-1750D02*
G01X-13500Y-4250D01*
G01X-13500Y-4250D02*
G01X-14500Y-4250D01*
G01X-14500Y-4250D02*
G01X-14500Y-1750D01*
G01X-14500Y-1750D02*
G01X-13500Y-1750D01*
G04 draw reference designator for part R1*
G01X-14477Y-4000D02*
G01X-14000Y-4000D01*
G01X-14477Y-3795D02*
G01X-14477Y-4000D01*
G01X-14477Y-3795D02*
G01X-14454Y-3727D01*
G01X-14454Y-3727D02*
G01X-14431Y-3704D01*
G01X-14431Y-3704D02*
G01X-14386Y-3681D01*
G01X-14386Y-3681D02*
G01X-14340Y-3681D01*
G01X-14340Y-3681D02*
G01X-14295Y-3704D01*
G01X-14295Y-3704D02*
G01X-14272Y-3727D01*
G01X-14272Y-3727D02*
G01X-14250Y-3795D01*
G01X-14250Y-4000D02*
G01X-14250Y-3795D01*
G01X-14250Y-3840D02*
G01X-14000Y-3681D01*
G01X-14409Y-3454D02*
G01X-14386Y-3500D01*
G01X-14477Y-3386D02*
G01X-14409Y-3454D01*
G01X-14477Y-3386D02*
G01X-14000Y-3386D01*
G04 Draw part X1*
G04 draw part outline for part X1*
G54D12*
G01X-12250Y-6500D02*
G01X-13000Y-5750D01*
G01X-13000Y-5750D02*
G01X-13750Y-6500D01*
G01X-13750Y-6500D02*
G01X-13750Y-9500D01*
G01X-13750Y-9500D02*
G01X-13000Y-10250D01*
G01X-13000Y-10250D02*
G01X-12250Y-9500D01*
G01X-12250Y-9500D02*
G01X-12250Y-6500D01*
G04 draw reference designator for part X1*
G01X-12236Y-7000D02*
G01X-13000Y-7509D01*
G01X-12236Y-7509D02*
G01X-13000Y-7000D01*
G01X-12345Y-7872D02*
G01X-12381Y-7800D01*
G01X-12236Y-7981D02*
G01X-12345Y-7872D01*
G01X-12236Y-7981D02*
G01X-13000Y-7981D01*
G04 Draw part C3*
G04 draw part outline for part C3*
G54D11*
G01X-15500Y-10500D02*
G01X-12500Y-10500D01*
G01X-12500Y-10500D02*
G01X-12500Y-11500D01*
G01X-12500Y-11500D02*
G01X-15500Y-11500D01*
G01X-15500Y-11500D02*
G01X-15500Y-10500D01*
G04 draw reference designator for part C3*
G01X-14318Y-12409D02*
G01X-14340Y-12363D01*
G01X-14272Y-12454D02*
G01X-14318Y-12409D01*
G01X-14227Y-12477D02*
G01X-14272Y-12454D01*
G01X-14136Y-12477D02*
G01X-14227Y-12477D01*
G01X-14136Y-12477D02*
G01X-14090Y-12454D01*
G01X-14090Y-12454D02*
G01X-14045Y-12409D01*
G01X-14045Y-12409D02*
G01X-14022Y-12363D01*
G01X-14022Y-12363D02*
G01X-14000Y-12295D01*
G01X-14000Y-12295D02*
G01X-14000Y-12181D01*
G01X-14000Y-12181D02*
G01X-14022Y-12113D01*
G01X-14022Y-12113D02*
G01X-14045Y-12068D01*
G01X-14045Y-12068D02*
G01X-14090Y-12022D01*
G01X-14090Y-12022D02*
G01X-14136Y-12000D01*
G01X-14227Y-12000D02*
G01X-14136Y-12000D01*
G01X-14272Y-12022D02*
G01X-14227Y-12000D01*
G01X-14318Y-12068D02*
G01X-14272Y-12022D01*
G01X-14340Y-12113D02*
G01X-14318Y-12068D01*
G01X-14818Y-12477D02*
G01X-14568Y-12477D01*
G01X-14818Y-12477D02*
G01X-14681Y-12295D01*
G01X-14750Y-12295D02*
G01X-14681Y-12295D01*
G01X-14750Y-12295D02*
G01X-14795Y-12272D01*
G01X-14795Y-12272D02*
G01X-14818Y-12250D01*
G01X-14818Y-12250D02*
G01X-14840Y-12181D01*
G01X-14840Y-12181D02*
G01X-14840Y-12136D01*
G01X-14840Y-12136D02*
G01X-14818Y-12068D01*
G01X-14818Y-12068D02*
G01X-14772Y-12022D01*
G01X-14772Y-12022D02*
G01X-14704Y-12000D01*
G01X-14636Y-12000D02*
G01X-14704Y-12000D01*
G01X-14568Y-12022D02*
G01X-14636Y-12000D01*
G01X-14545Y-12045D02*
G01X-14568Y-12022D01*
G01X-14522Y-12090D02*
G01X-14545Y-12045D01*
G04 Draw part C4*
G04 draw part outline for part C4*
G01X-15500Y-9500D02*
G01X-15500Y-6500D01*
G01X-15500Y-6500D02*
G01X-14500Y-6500D01*
G01X-14500Y-6500D02*
G01X-14500Y-9500D01*
G01X-14500Y-9500D02*
G01X-15500Y-9500D01*
G04 draw reference designator for part C4*
G01X-16209Y-7681D02*
G01X-16163Y-7659D01*
G01X-16254Y-7727D02*
G01X-16209Y-7681D01*
G01X-16277Y-7772D02*
G01X-16254Y-7727D01*
G01X-16277Y-7863D02*
G01X-16277Y-7772D01*
G01X-16277Y-7863D02*
G01X-16254Y-7909D01*
G01X-16254Y-7909D02*
G01X-16209Y-7954D01*
G01X-16209Y-7954D02*
G01X-16163Y-7977D01*
G01X-16163Y-7977D02*
G01X-16095Y-8000D01*
G01X-16095Y-8000D02*
G01X-15981Y-8000D01*
G01X-15981Y-8000D02*
G01X-15913Y-7977D01*
G01X-15913Y-7977D02*
G01X-15868Y-7954D01*
G01X-15868Y-7954D02*
G01X-15822Y-7909D01*
G01X-15822Y-7909D02*
G01X-15800Y-7863D01*
G01X-15800Y-7772D02*
G01X-15800Y-7863D01*
G01X-15822Y-7727D02*
G01X-15800Y-7772D01*
G01X-15868Y-7681D02*
G01X-15822Y-7727D01*
G01X-15913Y-7659D02*
G01X-15868Y-7681D01*
G01X-16277Y-7250D02*
G01X-15959Y-7477D01*
G01X-15959Y-7136D02*
G01X-15959Y-7477D01*
G01X-16277Y-7250D02*
G01X-15800Y-7250D01*
G04 Draw part J1*
G04 draw part outline for part J1*
G01X-16500Y-5500D02*
G01X-16500Y500D01*
G01X-16500Y500D02*
G01X-15500Y500D01*
G01X-15500Y500D02*
G01X-15500Y-5500D01*
G01X-15500Y-5500D02*
G01X-16500Y-5500D01*
G04 draw reference designator for part J1*
G01X-17477Y-2772D02*
G01X-17113Y-2772D01*
G01X-17113Y-2772D02*
G01X-17045Y-2795D01*
G01X-17045Y-2795D02*
G01X-17022Y-2818D01*
G01X-17022Y-2818D02*
G01X-17000Y-2863D01*
G01X-17000Y-2909D02*
G01X-17000Y-2863D01*
G01X-17022Y-2954D02*
G01X-17000Y-2909D01*
G01X-17045Y-2977D02*
G01X-17022Y-2954D01*
G01X-17113Y-3000D02*
G01X-17045Y-2977D01*
G01X-17159Y-3000D02*
G01X-17113Y-3000D01*
G01X-17409Y-2545D02*
G01X-17386Y-2590D01*
G01X-17477Y-2477D02*
G01X-17409Y-2545D01*
G01X-17477Y-2477D02*
G01X-17000Y-2477D01*
G04 Draw part C2*
G04 draw part outline for part C2*
G01X-8500Y1500D02*
G01X-5500Y1500D01*
G01X-5500Y1500D02*
G01X-5500Y500D01*
G01X-5500Y500D02*
G01X-8500Y500D01*
G01X-8500Y500D02*
G01X-8500Y1500D01*
G04 draw reference designator for part C2*
G01X-6681Y2209D02*
G01X-6659Y2163D01*
G01X-6727Y2254D02*
G01X-6681Y2209D01*
G01X-6772Y2277D02*
G01X-6727Y2254D01*
G01X-6863Y2277D02*
G01X-6772Y2277D01*
G01X-6863Y2277D02*
G01X-6909Y2254D01*
G01X-6909Y2254D02*
G01X-6954Y2209D01*
G01X-6954Y2209D02*
G01X-6977Y2163D01*
G01X-6977Y2163D02*
G01X-7000Y2095D01*
G01X-7000Y2095D02*
G01X-7000Y1981D01*
G01X-7000Y1981D02*
G01X-6977Y1913D01*
G01X-6977Y1913D02*
G01X-6954Y1868D01*
G01X-6954Y1868D02*
G01X-6909Y1822D01*
G01X-6909Y1822D02*
G01X-6863Y1800D01*
G01X-6772Y1800D02*
G01X-6863Y1800D01*
G01X-6727Y1822D02*
G01X-6772Y1800D01*
G01X-6681Y1868D02*
G01X-6727Y1822D01*
G01X-6659Y1913D02*
G01X-6681Y1868D01*
G01X-6454Y2186D02*
G01X-6454Y2163D01*
G01X-6431Y2231D02*
G01X-6454Y2186D01*
G01X-6409Y2254D02*
G01X-6431Y2231D01*
G01X-6363Y2277D02*
G01X-6409Y2254D01*
G01X-6272Y2277D02*
G01X-6363Y2277D01*
G01X-6272Y2277D02*
G01X-6227Y2254D01*
G01X-6227Y2254D02*
G01X-6204Y2231D01*
G01X-6204Y2231D02*
G01X-6181Y2186D01*
G01X-6181Y2186D02*
G01X-6181Y2140D01*
G01X-6181Y2140D02*
G01X-6204Y2095D01*
G01X-6204Y2095D02*
G01X-6250Y2027D01*
G01X-6250Y2027D02*
G01X-6477Y1800D01*
G01X-6159Y1800D02*
G01X-6477Y1800D01*
G04 Draw part USB1*
G04 draw part outline for part USB1*
G54D12*
G01X-12750Y18250D02*
G01X-12750Y11750D01*
G01X-12750Y11750D02*
G01X-8250Y11750D01*
G01X-8250Y11750D02*
G01X-8250Y18250D01*
G01X-8250Y18250D02*
G01X-12750Y18250D01*
G01X-8250Y17500D02*
G01X-12750Y17500D01*
G04 draw reference designator for part USB1*
G01X-12000Y15954D02*
G01X-12000Y15272D01*
G01X-12000Y15272D02*
G01X-11954Y15136D01*
G01X-11954Y15136D02*
G01X-11863Y15045D01*
G01X-11863Y15045D02*
G01X-11727Y15000D01*
G01X-11636Y15000D02*
G01X-11727Y15000D01*
G01X-11500Y15045D02*
G01X-11636Y15000D01*
G01X-11409Y15136D02*
G01X-11500Y15045D01*
G01X-11363Y15272D02*
G01X-11409Y15136D01*
G01X-11363Y15954D02*
G01X-11363Y15272D01*
G01X-10454Y15909D02*
G01X-10363Y15818D01*
G01X-10590Y15954D02*
G01X-10454Y15909D01*
G01X-10772Y15954D02*
G01X-10590Y15954D01*
G01X-10772Y15954D02*
G01X-10909Y15909D01*
G01X-10909Y15909D02*
G01X-11000Y15818D01*
G01X-11000Y15818D02*
G01X-11000Y15727D01*
G01X-11000Y15727D02*
G01X-10954Y15636D01*
G01X-10954Y15636D02*
G01X-10909Y15590D01*
G01X-10909Y15590D02*
G01X-10818Y15545D01*
G01X-10818Y15545D02*
G01X-10545Y15454D01*
G01X-10545Y15454D02*
G01X-10454Y15409D01*
G01X-10454Y15409D02*
G01X-10409Y15363D01*
G01X-10409Y15363D02*
G01X-10363Y15272D01*
G01X-10363Y15272D02*
G01X-10363Y15136D01*
G01X-10363Y15136D02*
G01X-10454Y15045D01*
G01X-10454Y15045D02*
G01X-10590Y15000D01*
G01X-10772Y15000D02*
G01X-10590Y15000D01*
G01X-10909Y15045D02*
G01X-10772Y15000D01*
G01X-11000Y15136D02*
G01X-10909Y15045D01*
G01X-10000Y15954D02*
G01X-10000Y15000D01*
G01X-9590Y15954D02*
G01X-10000Y15954D01*
G01X-9590Y15954D02*
G01X-9454Y15909D01*
G01X-9454Y15909D02*
G01X-9409Y15863D01*
G01X-9409Y15863D02*
G01X-9363Y15772D01*
G01X-9363Y15772D02*
G01X-9363Y15681D01*
G01X-9363Y15681D02*
G01X-9409Y15590D01*
G01X-9409Y15590D02*
G01X-9454Y15545D01*
G01X-9454Y15545D02*
G01X-9590Y15500D01*
G01X-9590Y15500D02*
G01X-10000Y15500D01*
G01X-9590Y15500D02*
G01X-9454Y15454D01*
G01X-9454Y15454D02*
G01X-9409Y15409D01*
G01X-9409Y15409D02*
G01X-9363Y15318D01*
G01X-9363Y15318D02*
G01X-9363Y15181D01*
G01X-9363Y15181D02*
G01X-9409Y15090D01*
G01X-9409Y15090D02*
G01X-9454Y15045D01*
G01X-9454Y15045D02*
G01X-9590Y15000D01*
G01X-10000Y15000D02*
G01X-9590Y15000D01*
G01X-8909Y15818D02*
G01X-9000Y15772D01*
G01X-8772Y15954D02*
G01X-8909Y15818D01*
G01X-8772Y15954D02*
G01X-8772Y15000D01*
G04 Draw part C5*
G04 draw part outline for part C5*
G54D11*
G01X-6500Y-6500D02*
G01X-3500Y-6500D01*
G01X-3500Y-6500D02*
G01X-3500Y-7500D01*
G01X-3500Y-7500D02*
G01X-6500Y-7500D01*
G01X-6500Y-7500D02*
G01X-6500Y-6500D01*
G04 draw reference designator for part C5*
G01X-5681Y-6590D02*
G01X-5659Y-6636D01*
G01X-5727Y-6545D02*
G01X-5681Y-6590D01*
G01X-5772Y-6522D02*
G01X-5727Y-6545D01*
G01X-5863Y-6522D02*
G01X-5772Y-6522D01*
G01X-5863Y-6522D02*
G01X-5909Y-6545D01*
G01X-5909Y-6545D02*
G01X-5954Y-6590D01*
G01X-5954Y-6590D02*
G01X-5977Y-6636D01*
G01X-5977Y-6636D02*
G01X-6000Y-6704D01*
G01X-6000Y-6704D02*
G01X-6000Y-6818D01*
G01X-6000Y-6818D02*
G01X-5977Y-6886D01*
G01X-5977Y-6886D02*
G01X-5954Y-6931D01*
G01X-5954Y-6931D02*
G01X-5909Y-6977D01*
G01X-5909Y-6977D02*
G01X-5863Y-7000D01*
G01X-5772Y-7000D02*
G01X-5863Y-7000D01*
G01X-5727Y-6977D02*
G01X-5772Y-7000D01*
G01X-5681Y-6931D02*
G01X-5727Y-6977D01*
G01X-5659Y-6886D02*
G01X-5681Y-6931D01*
G01X-5431Y-6522D02*
G01X-5204Y-6522D01*
G01X-5431Y-6522D02*
G01X-5454Y-6727D01*
G01X-5431Y-6704D02*
G01X-5454Y-6727D01*
G01X-5363Y-6681D02*
G01X-5431Y-6704D01*
G01X-5295Y-6681D02*
G01X-5363Y-6681D01*
G01X-5295Y-6681D02*
G01X-5227Y-6704D01*
G01X-5227Y-6704D02*
G01X-5181Y-6750D01*
G01X-5181Y-6750D02*
G01X-5159Y-6818D01*
G01X-5159Y-6818D02*
G01X-5159Y-6863D01*
G01X-5159Y-6863D02*
G01X-5181Y-6931D01*
G01X-5181Y-6931D02*
G01X-5227Y-6977D01*
G01X-5227Y-6977D02*
G01X-5295Y-7000D01*
G01X-5363Y-7000D02*
G01X-5295Y-7000D01*
G01X-5431Y-6977D02*
G01X-5363Y-7000D01*
G01X-5454Y-6954D02*
G01X-5431Y-6977D01*
G01X-5477Y-6909D02*
G01X-5454Y-6954D01*
G04 Draw part U2*
G04 draw part outline for part U2*
G01X-13000Y4475D02*
G01X-9673Y4475D01*
G01X-9673Y4475D02*
G01X-9673Y6398D01*
G01X-9673Y6398D02*
G01X-13000Y6398D01*
G01X-13000Y6398D02*
G01X-13000Y5676D01*
G01X-13000Y5676D02*
G01X-12936Y5676D01*
G01X-12936Y5676D02*
G01X-12936Y5197D01*
G01X-12936Y5197D02*
G01X-13000Y5197D01*
G01X-13000Y5197D02*
G01X-13000Y4475D01*
G04 draw reference designator for part U2*
G54D10*
G01X-13477Y5000D02*
G01X-13136Y5000D01*
G01X-13136Y5000D02*
G01X-13068Y5022D01*
G01X-13068Y5022D02*
G01X-13022Y5068D01*
G01X-13022Y5068D02*
G01X-13000Y5136D01*
G01X-13000Y5181D02*
G01X-13000Y5136D01*
G01X-13022Y5250D02*
G01X-13000Y5181D01*
G01X-13068Y5295D02*
G01X-13022Y5250D01*
G01X-13136Y5318D02*
G01X-13068Y5295D01*
G01X-13477Y5318D02*
G01X-13136Y5318D01*
G01X-13386Y5522D02*
G01X-13363Y5522D01*
G01X-13431Y5545D02*
G01X-13386Y5522D01*
G01X-13454Y5568D02*
G01X-13431Y5545D01*
G01X-13477Y5613D02*
G01X-13454Y5568D01*
G01X-13477Y5704D02*
G01X-13477Y5613D01*
G01X-13477Y5704D02*
G01X-13454Y5750D01*
G01X-13454Y5750D02*
G01X-13431Y5772D01*
G01X-13431Y5772D02*
G01X-13386Y5795D01*
G01X-13386Y5795D02*
G01X-13340Y5795D01*
G01X-13340Y5795D02*
G01X-13295Y5772D01*
G01X-13295Y5772D02*
G01X-13227Y5727D01*
G01X-13227Y5727D02*
G01X-13000Y5500D01*
G01X-13000Y5818D02*
G01X-13000Y5500D01*
G04 Draw part C6*
G04 draw part outline for part C6*
G54D11*
G01X-9500Y10500D02*
G01X-6500Y10500D01*
G01X-6500Y10500D02*
G01X-6500Y9500D01*
G01X-6500Y9500D02*
G01X-9500Y9500D01*
G01X-9500Y9500D02*
G01X-9500Y10500D01*
G04 draw reference designator for part C6*
G01X-8181Y10409D02*
G01X-8159Y10363D01*
G01X-8227Y10454D02*
G01X-8181Y10409D01*
G01X-8272Y10477D02*
G01X-8227Y10454D01*
G01X-8363Y10477D02*
G01X-8272Y10477D01*
G01X-8363Y10477D02*
G01X-8409Y10454D01*
G01X-8409Y10454D02*
G01X-8454Y10409D01*
G01X-8454Y10409D02*
G01X-8477Y10363D01*
G01X-8477Y10363D02*
G01X-8500Y10295D01*
G01X-8500Y10295D02*
G01X-8500Y10181D01*
G01X-8500Y10181D02*
G01X-8477Y10113D01*
G01X-8477Y10113D02*
G01X-8454Y10068D01*
G01X-8454Y10068D02*
G01X-8409Y10022D01*
G01X-8409Y10022D02*
G01X-8363Y10000D01*
G01X-8272Y10000D02*
G01X-8363Y10000D01*
G01X-8227Y10022D02*
G01X-8272Y10000D01*
G01X-8181Y10068D02*
G01X-8227Y10022D01*
G01X-8159Y10113D02*
G01X-8181Y10068D01*
G01X-7727Y10454D02*
G01X-7704Y10409D01*
G01X-7795Y10477D02*
G01X-7727Y10454D01*
G01X-7840Y10477D02*
G01X-7795Y10477D01*
G01X-7840Y10477D02*
G01X-7909Y10454D01*
G01X-7909Y10454D02*
G01X-7954Y10386D01*
G01X-7954Y10386D02*
G01X-7977Y10272D01*
G01X-7977Y10272D02*
G01X-7977Y10159D01*
G01X-7977Y10159D02*
G01X-7954Y10068D01*
G01X-7954Y10068D02*
G01X-7909Y10022D01*
G01X-7909Y10022D02*
G01X-7840Y10000D01*
G01X-7818Y10000D02*
G01X-7840Y10000D01*
G01X-7750Y10022D02*
G01X-7818Y10000D01*
G01X-7704Y10068D02*
G01X-7750Y10022D01*
G01X-7681Y10136D02*
G01X-7704Y10068D01*
G01X-7681Y10159D02*
G01X-7681Y10136D01*
G01X-7704Y10227D02*
G01X-7681Y10159D01*
G01X-7750Y10272D02*
G01X-7704Y10227D01*
G01X-7818Y10295D02*
G01X-7750Y10272D01*
G01X-7840Y10295D02*
G01X-7818Y10295D01*
G01X-7840Y10295D02*
G01X-7909Y10272D01*
G01X-7909Y10272D02*
G01X-7954Y10227D01*
G01X-7954Y10227D02*
G01X-7977Y10159D01*
G04 Draw part C7*
G04 draw part outline for part C7*
G01X-9500Y9500D02*
G01X-6500Y9500D01*
G01X-6500Y9500D02*
G01X-6500Y8500D01*
G01X-6500Y8500D02*
G01X-9500Y8500D01*
G01X-9500Y8500D02*
G01X-9500Y9500D01*
G04 draw reference designator for part C7*
G01X-8181Y9409D02*
G01X-8159Y9363D01*
G01X-8227Y9454D02*
G01X-8181Y9409D01*
G01X-8272Y9477D02*
G01X-8227Y9454D01*
G01X-8363Y9477D02*
G01X-8272Y9477D01*
G01X-8363Y9477D02*
G01X-8409Y9454D01*
G01X-8409Y9454D02*
G01X-8454Y9409D01*
G01X-8454Y9409D02*
G01X-8477Y9363D01*
G01X-8477Y9363D02*
G01X-8500Y9295D01*
G01X-8500Y9295D02*
G01X-8500Y9181D01*
G01X-8500Y9181D02*
G01X-8477Y9113D01*
G01X-8477Y9113D02*
G01X-8454Y9068D01*
G01X-8454Y9068D02*
G01X-8409Y9022D01*
G01X-8409Y9022D02*
G01X-8363Y9000D01*
G01X-8272Y9000D02*
G01X-8363Y9000D01*
G01X-8227Y9022D02*
G01X-8272Y9000D01*
G01X-8181Y9068D02*
G01X-8227Y9022D01*
G01X-8159Y9113D02*
G01X-8181Y9068D01*
G01X-7659Y9477D02*
G01X-7886Y9000D01*
G01X-7659Y9477D02*
G01X-7977Y9477D01*
G04 Draw part R6*
G04 draw part outline for part R6*
G01X-15500Y4750D02*
G01X-15500Y7250D01*
G01X-15500Y7250D02*
G01X-14500Y7250D01*
G01X-14500Y7250D02*
G01X-14500Y4750D01*
G01X-14500Y4750D02*
G01X-15500Y4750D01*
G04 draw reference designator for part R6*
G01X-15477Y6000D02*
G01X-15000Y6000D01*
G01X-15477Y6204D02*
G01X-15477Y6000D01*
G01X-15477Y6204D02*
G01X-15454Y6272D01*
G01X-15454Y6272D02*
G01X-15431Y6295D01*
G01X-15431Y6295D02*
G01X-15386Y6318D01*
G01X-15386Y6318D02*
G01X-15340Y6318D01*
G01X-15340Y6318D02*
G01X-15295Y6295D01*
G01X-15295Y6295D02*
G01X-15272Y6272D01*
G01X-15272Y6272D02*
G01X-15250Y6204D01*
G01X-15250Y6000D02*
G01X-15250Y6204D01*
G01X-15250Y6159D02*
G01X-15000Y6318D01*
G01X-15454Y6750D02*
G01X-15409Y6772D01*
G01X-15477Y6681D02*
G01X-15454Y6750D01*
G01X-15477Y6636D02*
G01X-15477Y6681D01*
G01X-15477Y6636D02*
G01X-15454Y6568D01*
G01X-15454Y6568D02*
G01X-15386Y6522D01*
G01X-15386Y6522D02*
G01X-15272Y6500D01*
G01X-15272Y6500D02*
G01X-15159Y6500D01*
G01X-15159Y6500D02*
G01X-15068Y6522D01*
G01X-15068Y6522D02*
G01X-15022Y6568D01*
G01X-15022Y6568D02*
G01X-15000Y6636D01*
G01X-15000Y6659D02*
G01X-15000Y6636D01*
G01X-15022Y6727D02*
G01X-15000Y6659D01*
G01X-15068Y6772D02*
G01X-15022Y6727D01*
G01X-15136Y6795D02*
G01X-15068Y6772D01*
G01X-15159Y6795D02*
G01X-15136Y6795D01*
G01X-15227Y6772D02*
G01X-15159Y6795D01*
G01X-15272Y6727D02*
G01X-15227Y6772D01*
G01X-15295Y6659D02*
G01X-15272Y6727D01*
G01X-15295Y6636D02*
G01X-15295Y6659D01*
G01X-15295Y6636D02*
G01X-15272Y6568D01*
G01X-15272Y6568D02*
G01X-15227Y6522D01*
G01X-15227Y6522D02*
G01X-15159Y6500D01*
G04 Draw part R5*
G04 draw part outline for part R5*
G01X-16500Y4750D02*
G01X-16500Y7250D01*
G01X-16500Y7250D02*
G01X-15500Y7250D01*
G01X-15500Y7250D02*
G01X-15500Y4750D01*
G01X-15500Y4750D02*
G01X-16500Y4750D01*
G04 draw reference designator for part R5*
G01X-16477Y6000D02*
G01X-16000Y6000D01*
G01X-16477Y6204D02*
G01X-16477Y6000D01*
G01X-16477Y6204D02*
G01X-16454Y6272D01*
G01X-16454Y6272D02*
G01X-16431Y6295D01*
G01X-16431Y6295D02*
G01X-16386Y6318D01*
G01X-16386Y6318D02*
G01X-16340Y6318D01*
G01X-16340Y6318D02*
G01X-16295Y6295D01*
G01X-16295Y6295D02*
G01X-16272Y6272D01*
G01X-16272Y6272D02*
G01X-16250Y6204D01*
G01X-16250Y6000D02*
G01X-16250Y6204D01*
G01X-16250Y6159D02*
G01X-16000Y6318D01*
G01X-16477Y6545D02*
G01X-16477Y6772D01*
G01X-16477Y6545D02*
G01X-16272Y6522D01*
G01X-16295Y6545D02*
G01X-16272Y6522D01*
G01X-16318Y6613D02*
G01X-16295Y6545D01*
G01X-16318Y6681D02*
G01X-16318Y6613D01*
G01X-16318Y6681D02*
G01X-16295Y6750D01*
G01X-16295Y6750D02*
G01X-16250Y6795D01*
G01X-16250Y6795D02*
G01X-16181Y6818D01*
G01X-16181Y6818D02*
G01X-16136Y6818D01*
G01X-16136Y6818D02*
G01X-16068Y6795D01*
G01X-16068Y6795D02*
G01X-16022Y6750D01*
G01X-16022Y6750D02*
G01X-16000Y6681D01*
G01X-16000Y6613D02*
G01X-16000Y6681D01*
G01X-16022Y6545D02*
G01X-16000Y6613D01*
G01X-16045Y6522D02*
G01X-16022Y6545D01*
G01X-16090Y6500D02*
G01X-16045Y6522D01*
G04 Draw part D2*
G04 draw part outline for part D2*
G01X-15100Y13500D02*
G01X-15100Y13539D01*
G01X-15103Y13578D01*
G01X-15107Y13617D01*
G01X-15113Y13656D01*
G01X-15121Y13694D01*
G01X-15130Y13732D01*
G01X-15141Y13770D01*
G01X-15154Y13807D01*
G01X-15168Y13844D01*
G01X-15184Y13880D01*
G01X-15201Y13915D01*
G01X-15220Y13950D01*
G01X-15240Y13983D01*
G01X-15262Y14016D01*
G01X-15285Y14047D01*
G01X-15310Y14078D01*
G01X-15336Y14108D01*
G01X-15363Y14136D01*
G01X-15391Y14163D01*
G01X-15421Y14189D01*
G01X-15452Y14214D01*
G01X-15483Y14237D01*
G01X-15516Y14259D01*
G01X-15550Y14279D01*
G01X-15584Y14298D01*
G01X-15619Y14315D01*
G01X-15655Y14331D01*
G01X-15692Y14345D01*
G01X-15729Y14358D01*
G01X-15767Y14369D01*
G01X-15805Y14378D01*
G01X-15843Y14386D01*
G01X-15882Y14392D01*
G01X-15921Y14396D01*
G01X-15960Y14399D01*
G01X-16000Y14400D01*
G01X-16000Y14400D02*
G01X-16039Y14399D01*
G01X-16078Y14396D01*
G01X-16117Y14392D01*
G01X-16156Y14386D01*
G01X-16194Y14378D01*
G01X-16232Y14369D01*
G01X-16270Y14358D01*
G01X-16307Y14345D01*
G01X-16344Y14331D01*
G01X-16380Y14315D01*
G01X-16415Y14298D01*
G01X-16450Y14279D01*
G01X-16483Y14259D01*
G01X-16516Y14237D01*
G01X-16547Y14214D01*
G01X-16578Y14189D01*
G01X-16608Y14163D01*
G01X-16636Y14136D01*
G01X-16663Y14108D01*
G01X-16689Y14078D01*
G01X-16714Y14047D01*
G01X-16737Y14016D01*
G01X-16759Y13983D01*
G01X-16779Y13949D01*
G01X-16798Y13915D01*
G01X-16815Y13880D01*
G01X-16831Y13844D01*
G01X-16845Y13807D01*
G01X-16858Y13770D01*
G01X-16869Y13732D01*
G01X-16878Y13694D01*
G01X-16886Y13656D01*
G01X-16892Y13617D01*
G01X-16896Y13578D01*
G01X-16899Y13539D01*
G01X-16900Y13500D01*
G01X-16900Y13500D02*
G01X-16899Y13460D01*
G01X-16896Y13421D01*
G01X-16892Y13382D01*
G01X-16886Y13343D01*
G01X-16878Y13305D01*
G01X-16869Y13267D01*
G01X-16858Y13229D01*
G01X-16845Y13192D01*
G01X-16831Y13155D01*
G01X-16815Y13119D01*
G01X-16798Y13084D01*
G01X-16779Y13049D01*
G01X-16759Y13016D01*
G01X-16737Y12983D01*
G01X-16714Y12952D01*
G01X-16689Y12921D01*
G01X-16663Y12891D01*
G01X-16636Y12863D01*
G01X-16608Y12836D01*
G01X-16578Y12810D01*
G01X-16547Y12785D01*
G01X-16516Y12762D01*
G01X-16483Y12740D01*
G01X-16449Y12720D01*
G01X-16415Y12701D01*
G01X-16380Y12684D01*
G01X-16344Y12668D01*
G01X-16307Y12654D01*
G01X-16270Y12641D01*
G01X-16232Y12630D01*
G01X-16194Y12621D01*
G01X-16156Y12613D01*
G01X-16117Y12607D01*
G01X-16078Y12603D01*
G01X-16039Y12600D01*
G01X-16000Y12600D01*
G01X-16000Y12600D02*
G01X-15960Y12600D01*
G01X-15921Y12603D01*
G01X-15882Y12607D01*
G01X-15843Y12613D01*
G01X-15805Y12621D01*
G01X-15767Y12630D01*
G01X-15729Y12641D01*
G01X-15692Y12654D01*
G01X-15655Y12668D01*
G01X-15619Y12684D01*
G01X-15584Y12701D01*
G01X-15549Y12720D01*
G01X-15516Y12740D01*
G01X-15483Y12762D01*
G01X-15452Y12785D01*
G01X-15421Y12810D01*
G01X-15391Y12836D01*
G01X-15363Y12863D01*
G01X-15336Y12891D01*
G01X-15310Y12921D01*
G01X-15285Y12952D01*
G01X-15262Y12983D01*
G01X-15240Y13016D01*
G01X-15220Y13050D01*
G01X-15201Y13084D01*
G01X-15184Y13119D01*
G01X-15168Y13155D01*
G01X-15154Y13192D01*
G01X-15141Y13229D01*
G01X-15130Y13267D01*
G01X-15121Y13305D01*
G01X-15113Y13343D01*
G01X-15107Y13382D01*
G01X-15103Y13421D01*
G01X-15100Y13460D01*
G01X-15100Y13500D01*
G54D12*
G01X-16250Y13500D02*
G01X-15750Y14000D01*
G01X-15750Y14000D02*
G01X-15750Y13000D01*
G01X-15750Y13000D02*
G01X-16250Y13500D01*
G01X-16200Y13900D02*
G01X-16700Y14600D01*
G01X-16700Y14600D02*
G01X-16700Y14200D01*
G01X-16700Y14600D02*
G01X-16300Y14500D01*
G04 draw reference designator for part D2*
G54D11*
G01X-15000Y14477D02*
G01X-15000Y14000D01*
G01X-14840Y14477D02*
G01X-15000Y14477D01*
G01X-14840Y14477D02*
G01X-14772Y14454D01*
G01X-14772Y14454D02*
G01X-14727Y14409D01*
G01X-14727Y14409D02*
G01X-14704Y14363D01*
G01X-14704Y14363D02*
G01X-14681Y14295D01*
G01X-14681Y14295D02*
G01X-14681Y14181D01*
G01X-14681Y14181D02*
G01X-14704Y14113D01*
G01X-14704Y14113D02*
G01X-14727Y14068D01*
G01X-14727Y14068D02*
G01X-14772Y14022D01*
G01X-14772Y14022D02*
G01X-14840Y14000D01*
G01X-15000Y14000D02*
G01X-14840Y14000D01*
G01X-14477Y14386D02*
G01X-14477Y14363D01*
G01X-14454Y14431D02*
G01X-14477Y14386D01*
G01X-14431Y14454D02*
G01X-14454Y14431D01*
G01X-14386Y14477D02*
G01X-14431Y14454D01*
G01X-14295Y14477D02*
G01X-14386Y14477D01*
G01X-14295Y14477D02*
G01X-14250Y14454D01*
G01X-14250Y14454D02*
G01X-14227Y14431D01*
G01X-14227Y14431D02*
G01X-14204Y14386D01*
G01X-14204Y14386D02*
G01X-14204Y14340D01*
G01X-14204Y14340D02*
G01X-14227Y14295D01*
G01X-14227Y14295D02*
G01X-14272Y14227D01*
G01X-14272Y14227D02*
G01X-14500Y14000D01*
G01X-14181Y14000D02*
G01X-14500Y14000D01*
G04 Draw part D3*
G04 draw part outline for part D3*
G01X-15100Y11000D02*
G01X-15100Y11039D01*
G01X-15103Y11078D01*
G01X-15107Y11117D01*
G01X-15113Y11156D01*
G01X-15121Y11194D01*
G01X-15130Y11232D01*
G01X-15141Y11270D01*
G01X-15154Y11307D01*
G01X-15168Y11344D01*
G01X-15184Y11380D01*
G01X-15201Y11415D01*
G01X-15220Y11450D01*
G01X-15240Y11483D01*
G01X-15262Y11516D01*
G01X-15285Y11547D01*
G01X-15310Y11578D01*
G01X-15336Y11608D01*
G01X-15363Y11636D01*
G01X-15391Y11663D01*
G01X-15421Y11689D01*
G01X-15452Y11714D01*
G01X-15483Y11737D01*
G01X-15516Y11759D01*
G01X-15550Y11779D01*
G01X-15584Y11798D01*
G01X-15619Y11815D01*
G01X-15655Y11831D01*
G01X-15692Y11845D01*
G01X-15729Y11858D01*
G01X-15767Y11869D01*
G01X-15805Y11878D01*
G01X-15843Y11886D01*
G01X-15882Y11892D01*
G01X-15921Y11896D01*
G01X-15960Y11899D01*
G01X-16000Y11900D01*
G01X-16000Y11900D02*
G01X-16039Y11899D01*
G01X-16078Y11896D01*
G01X-16117Y11892D01*
G01X-16156Y11886D01*
G01X-16194Y11878D01*
G01X-16232Y11869D01*
G01X-16270Y11858D01*
G01X-16307Y11845D01*
G01X-16344Y11831D01*
G01X-16380Y11815D01*
G01X-16415Y11798D01*
G01X-16450Y11779D01*
G01X-16483Y11759D01*
G01X-16516Y11737D01*
G01X-16547Y11714D01*
G01X-16578Y11689D01*
G01X-16608Y11663D01*
G01X-16636Y11636D01*
G01X-16663Y11608D01*
G01X-16689Y11578D01*
G01X-16714Y11547D01*
G01X-16737Y11516D01*
G01X-16759Y11483D01*
G01X-16779Y11449D01*
G01X-16798Y11415D01*
G01X-16815Y11380D01*
G01X-16831Y11344D01*
G01X-16845Y11307D01*
G01X-16858Y11270D01*
G01X-16869Y11232D01*
G01X-16878Y11194D01*
G01X-16886Y11156D01*
G01X-16892Y11117D01*
G01X-16896Y11078D01*
G01X-16899Y11039D01*
G01X-16900Y11000D01*
G01X-16900Y11000D02*
G01X-16899Y10960D01*
G01X-16896Y10921D01*
G01X-16892Y10882D01*
G01X-16886Y10843D01*
G01X-16878Y10805D01*
G01X-16869Y10767D01*
G01X-16858Y10729D01*
G01X-16845Y10692D01*
G01X-16831Y10655D01*
G01X-16815Y10619D01*
G01X-16798Y10584D01*
G01X-16779Y10549D01*
G01X-16759Y10516D01*
G01X-16737Y10483D01*
G01X-16714Y10452D01*
G01X-16689Y10421D01*
G01X-16663Y10391D01*
G01X-16636Y10363D01*
G01X-16608Y10336D01*
G01X-16578Y10310D01*
G01X-16547Y10285D01*
G01X-16516Y10262D01*
G01X-16483Y10240D01*
G01X-16449Y10220D01*
G01X-16415Y10201D01*
G01X-16380Y10184D01*
G01X-16344Y10168D01*
G01X-16307Y10154D01*
G01X-16270Y10141D01*
G01X-16232Y10130D01*
G01X-16194Y10121D01*
G01X-16156Y10113D01*
G01X-16117Y10107D01*
G01X-16078Y10103D01*
G01X-16039Y10100D01*
G01X-16000Y10100D01*
G01X-16000Y10100D02*
G01X-15960Y10100D01*
G01X-15921Y10103D01*
G01X-15882Y10107D01*
G01X-15843Y10113D01*
G01X-15805Y10121D01*
G01X-15767Y10130D01*
G01X-15729Y10141D01*
G01X-15692Y10154D01*
G01X-15655Y10168D01*
G01X-15619Y10184D01*
G01X-15584Y10201D01*
G01X-15549Y10220D01*
G01X-15516Y10240D01*
G01X-15483Y10262D01*
G01X-15452Y10285D01*
G01X-15421Y10310D01*
G01X-15391Y10336D01*
G01X-15363Y10363D01*
G01X-15336Y10391D01*
G01X-15310Y10421D01*
G01X-15285Y10452D01*
G01X-15262Y10483D01*
G01X-15240Y10516D01*
G01X-15220Y10550D01*
G01X-15201Y10584D01*
G01X-15184Y10619D01*
G01X-15168Y10655D01*
G01X-15154Y10692D01*
G01X-15141Y10729D01*
G01X-15130Y10767D01*
G01X-15121Y10805D01*
G01X-15113Y10843D01*
G01X-15107Y10882D01*
G01X-15103Y10921D01*
G01X-15100Y10960D01*
G01X-15100Y11000D01*
G54D12*
G01X-16250Y11000D02*
G01X-15750Y11500D01*
G01X-15750Y11500D02*
G01X-15750Y10500D01*
G01X-15750Y10500D02*
G01X-16250Y11000D01*
G01X-16200Y11400D02*
G01X-16700Y12100D01*
G01X-16700Y12100D02*
G01X-16700Y11700D01*
G01X-16700Y12100D02*
G01X-16300Y12000D01*
G04 draw reference designator for part D3*
G54D11*
G01X-15000Y11977D02*
G01X-15000Y11500D01*
G01X-14840Y11977D02*
G01X-15000Y11977D01*
G01X-14840Y11977D02*
G01X-14772Y11954D01*
G01X-14772Y11954D02*
G01X-14727Y11909D01*
G01X-14727Y11909D02*
G01X-14704Y11863D01*
G01X-14704Y11863D02*
G01X-14681Y11795D01*
G01X-14681Y11795D02*
G01X-14681Y11681D01*
G01X-14681Y11681D02*
G01X-14704Y11613D01*
G01X-14704Y11613D02*
G01X-14727Y11568D01*
G01X-14727Y11568D02*
G01X-14772Y11522D01*
G01X-14772Y11522D02*
G01X-14840Y11500D01*
G01X-15000Y11500D02*
G01X-14840Y11500D01*
G01X-14204Y11977D02*
G01X-14454Y11977D01*
G01X-14204Y11977D02*
G01X-14340Y11795D01*
G01X-14272Y11795D02*
G01X-14340Y11795D01*
G01X-14272Y11795D02*
G01X-14227Y11772D01*
G01X-14227Y11772D02*
G01X-14204Y11750D01*
G01X-14204Y11750D02*
G01X-14181Y11681D01*
G01X-14181Y11681D02*
G01X-14181Y11636D01*
G01X-14181Y11636D02*
G01X-14204Y11568D01*
G01X-14204Y11568D02*
G01X-14250Y11522D01*
G01X-14250Y11522D02*
G01X-14318Y11500D01*
G01X-14386Y11500D02*
G01X-14318Y11500D01*
G01X-14454Y11522D02*
G01X-14386Y11500D01*
G01X-14477Y11545D02*
G01X-14454Y11522D01*
G01X-14500Y11590D02*
G01X-14477Y11545D01*
G04 Draw part D1*
G04 draw part outline for part D1*
G01X-11500Y550D02*
G01X-13500Y550D01*
G01X-13500Y550D02*
G01X-13500Y1450D01*
G01X-13500Y1450D02*
G01X-11500Y1450D01*
G01X-11500Y1450D02*
G01X-11500Y550D01*
G01X-13250Y550D02*
G01X-13250Y1450D01*
G04 draw reference designator for part D1*
G01X-13000Y1477D02*
G01X-13000Y1000D01*
G01X-12840Y1477D02*
G01X-13000Y1477D01*
G01X-12840Y1477D02*
G01X-12772Y1454D01*
G01X-12772Y1454D02*
G01X-12727Y1409D01*
G01X-12727Y1409D02*
G01X-12704Y1363D01*
G01X-12704Y1363D02*
G01X-12681Y1295D01*
G01X-12681Y1295D02*
G01X-12681Y1181D01*
G01X-12681Y1181D02*
G01X-12704Y1113D01*
G01X-12704Y1113D02*
G01X-12727Y1068D01*
G01X-12727Y1068D02*
G01X-12772Y1022D01*
G01X-12772Y1022D02*
G01X-12840Y1000D01*
G01X-13000Y1000D02*
G01X-12840Y1000D01*
G01X-12454Y1409D02*
G01X-12500Y1386D01*
G01X-12386Y1477D02*
G01X-12454Y1409D01*
G01X-12386Y1477D02*
G01X-12386Y1000D01*
G04 Draw part R3*
G04 draw part outline for part R3*
G01X-11750Y9500D02*
G01X-14250Y9500D01*
G01X-14250Y9500D02*
G01X-14250Y10500D01*
G01X-14250Y10500D02*
G01X-11750Y10500D01*
G01X-11750Y10500D02*
G01X-11750Y9500D01*
G04 draw reference designator for part R3*
G01X-13500Y10477D02*
G01X-13500Y10000D01*
G01X-13295Y10477D02*
G01X-13500Y10477D01*
G01X-13295Y10477D02*
G01X-13227Y10454D01*
G01X-13227Y10454D02*
G01X-13204Y10431D01*
G01X-13204Y10431D02*
G01X-13181Y10386D01*
G01X-13181Y10386D02*
G01X-13181Y10340D01*
G01X-13181Y10340D02*
G01X-13204Y10295D01*
G01X-13204Y10295D02*
G01X-13227Y10272D01*
G01X-13227Y10272D02*
G01X-13295Y10250D01*
G01X-13500Y10250D02*
G01X-13295Y10250D01*
G01X-13340Y10250D02*
G01X-13181Y10000D01*
G01X-12704Y10477D02*
G01X-12954Y10477D01*
G01X-12704Y10477D02*
G01X-12840Y10295D01*
G01X-12772Y10295D02*
G01X-12840Y10295D01*
G01X-12772Y10295D02*
G01X-12727Y10272D01*
G01X-12727Y10272D02*
G01X-12704Y10250D01*
G01X-12704Y10250D02*
G01X-12681Y10181D01*
G01X-12681Y10181D02*
G01X-12681Y10136D01*
G01X-12681Y10136D02*
G01X-12704Y10068D01*
G01X-12704Y10068D02*
G01X-12750Y10022D01*
G01X-12750Y10022D02*
G01X-12818Y10000D01*
G01X-12886Y10000D02*
G01X-12818Y10000D01*
G01X-12954Y10022D02*
G01X-12886Y10000D01*
G01X-12977Y10045D02*
G01X-12954Y10022D01*
G01X-13000Y10090D02*
G01X-12977Y10045D01*
G04 Draw part R4*
G04 draw part outline for part R4*
G01X-11750Y8500D02*
G01X-14250Y8500D01*
G01X-14250Y8500D02*
G01X-14250Y9500D01*
G01X-14250Y9500D02*
G01X-11750Y9500D01*
G01X-11750Y9500D02*
G01X-11750Y8500D01*
G04 draw reference designator for part R4*
G01X-13500Y9477D02*
G01X-13500Y9000D01*
G01X-13295Y9477D02*
G01X-13500Y9477D01*
G01X-13295Y9477D02*
G01X-13227Y9454D01*
G01X-13227Y9454D02*
G01X-13204Y9431D01*
G01X-13204Y9431D02*
G01X-13181Y9386D01*
G01X-13181Y9386D02*
G01X-13181Y9340D01*
G01X-13181Y9340D02*
G01X-13204Y9295D01*
G01X-13204Y9295D02*
G01X-13227Y9272D01*
G01X-13227Y9272D02*
G01X-13295Y9250D01*
G01X-13500Y9250D02*
G01X-13295Y9250D01*
G01X-13340Y9250D02*
G01X-13181Y9000D01*
G01X-12772Y9477D02*
G01X-13000Y9159D01*
G01X-12659Y9159D02*
G01X-13000Y9159D01*
G01X-12772Y9477D02*
G01X-12772Y9000D01*
G04 Draw part R2*
G04 draw part outline for part R2*
G01X-11750Y1500D02*
G01X-14250Y1500D01*
G01X-14250Y1500D02*
G01X-14250Y2500D01*
G01X-14250Y2500D02*
G01X-11750Y2500D01*
G01X-11750Y2500D02*
G01X-11750Y1500D01*
G04 draw reference designator for part R2*
G01X-13000Y2477D02*
G01X-13000Y2000D01*
G01X-12795Y2477D02*
G01X-13000Y2477D01*
G01X-12795Y2477D02*
G01X-12727Y2454D01*
G01X-12727Y2454D02*
G01X-12704Y2431D01*
G01X-12704Y2431D02*
G01X-12681Y2386D01*
G01X-12681Y2386D02*
G01X-12681Y2340D01*
G01X-12681Y2340D02*
G01X-12704Y2295D01*
G01X-12704Y2295D02*
G01X-12727Y2272D01*
G01X-12727Y2272D02*
G01X-12795Y2250D01*
G01X-13000Y2250D02*
G01X-12795Y2250D01*
G01X-12840Y2250D02*
G01X-12681Y2000D01*
G01X-12477Y2386D02*
G01X-12477Y2363D01*
G01X-12454Y2431D02*
G01X-12477Y2386D01*
G01X-12431Y2454D02*
G01X-12454Y2431D01*
G01X-12386Y2477D02*
G01X-12431Y2454D01*
G01X-12295Y2477D02*
G01X-12386Y2477D01*
G01X-12295Y2477D02*
G01X-12250Y2454D01*
G01X-12250Y2454D02*
G01X-12227Y2431D01*
G01X-12227Y2431D02*
G01X-12204Y2386D01*
G01X-12204Y2386D02*
G01X-12204Y2340D01*
G01X-12204Y2340D02*
G01X-12227Y2295D01*
G01X-12227Y2295D02*
G01X-12272Y2227D01*
G01X-12272Y2227D02*
G01X-12500Y2000D01*
G01X-12181Y2000D02*
G01X-12500Y2000D01*
G04 Draw part C13*
G04 draw part outline for part C13*
G01X6500Y10700D02*
G01X6500Y10900D01*
G01X6400Y10800D02*
G01X6600Y10800D01*
G01X6000Y11380D02*
G01X5960Y11379D01*
G01X5921Y11376D01*
G01X5881Y11372D01*
G01X5842Y11367D01*
G01X5803Y11359D01*
G01X5765Y11351D01*
G01X5727Y11340D01*
G01X5689Y11329D01*
G01X5652Y11315D01*
G01X5615Y11300D01*
G01X5579Y11284D01*
G01X5544Y11266D01*
G01X5509Y11247D01*
G01X5476Y11226D01*
G01X5443Y11204D01*
G01X5411Y11181D01*
G01X5380Y11156D01*
G01X5350Y11131D01*
G01X5321Y11103D01*
G01X5293Y11075D01*
G01X5266Y11046D01*
G01X5240Y11016D01*
G01X5216Y10984D01*
G01X5193Y10952D01*
G01X5171Y10919D01*
G01X5151Y10884D01*
G01X5132Y10850D01*
G01X5114Y10814D01*
G01X5098Y10778D01*
G01X5083Y10741D01*
G01X5070Y10703D01*
G01X5058Y10665D01*
G01X5048Y10626D01*
G01X5039Y10588D01*
G01X5032Y10548D01*
G01X5027Y10509D01*
G01X5023Y10469D01*
G01X5020Y10429D01*
G01X5020Y10390D01*
G01X5020Y10390D02*
G01X5020Y10350D01*
G01X5023Y10311D01*
G01X5027Y10271D01*
G01X5032Y10232D01*
G01X5039Y10193D01*
G01X5048Y10155D01*
G01X5058Y10117D01*
G01X5070Y10079D01*
G01X5083Y10042D01*
G01X5098Y10005D01*
G01X5114Y9969D01*
G01X5132Y9934D01*
G01X5151Y9899D01*
G01X5171Y9866D01*
G01X5193Y9833D01*
G01X5216Y9801D01*
G01X5240Y9770D01*
G01X5266Y9740D01*
G01X5293Y9711D01*
G01X5321Y9683D01*
G01X5350Y9656D01*
G01X5380Y9630D01*
G01X5411Y9606D01*
G01X5443Y9583D01*
G01X5476Y9561D01*
G01X5510Y9541D01*
G01X5544Y9522D01*
G01X5579Y9504D01*
G01X5615Y9488D01*
G01X5652Y9473D01*
G01X5689Y9460D01*
G01X5727Y9448D01*
G01X5765Y9438D01*
G01X5803Y9429D01*
G01X5842Y9422D01*
G01X5881Y9417D01*
G01X5921Y9413D01*
G01X5960Y9410D01*
G01X6000Y9410D01*
G01X6000Y9410D02*
G01X6039Y9410D01*
G01X6078Y9413D01*
G01X6118Y9417D01*
G01X6157Y9422D01*
G01X6196Y9429D01*
G01X6234Y9438D01*
G01X6272Y9448D01*
G01X6310Y9460D01*
G01X6347Y9473D01*
G01X6384Y9488D01*
G01X6420Y9504D01*
G01X6455Y9522D01*
G01X6490Y9541D01*
G01X6523Y9561D01*
G01X6556Y9583D01*
G01X6588Y9606D01*
G01X6619Y9630D01*
G01X6649Y9656D01*
G01X6678Y9683D01*
G01X6706Y9711D01*
G01X6733Y9740D01*
G01X6759Y9770D01*
G01X6783Y9801D01*
G01X6806Y9833D01*
G01X6828Y9866D01*
G01X6848Y9900D01*
G01X6867Y9934D01*
G01X6885Y9969D01*
G01X6901Y10005D01*
G01X6916Y10042D01*
G01X6929Y10079D01*
G01X6941Y10117D01*
G01X6951Y10155D01*
G01X6960Y10193D01*
G01X6967Y10232D01*
G01X6972Y10271D01*
G01X6976Y10311D01*
G01X6979Y10350D01*
G01X6980Y10390D01*
G01X6980Y10390D02*
G01X6979Y10429D01*
G01X6976Y10469D01*
G01X6972Y10509D01*
G01X6967Y10548D01*
G01X6960Y10588D01*
G01X6951Y10626D01*
G01X6941Y10665D01*
G01X6929Y10703D01*
G01X6916Y10741D01*
G01X6901Y10778D01*
G01X6885Y10814D01*
G01X6867Y10850D01*
G01X6848Y10885D01*
G01X6828Y10919D01*
G01X6806Y10952D01*
G01X6783Y10984D01*
G01X6759Y11016D01*
G01X6733Y11046D01*
G01X6706Y11075D01*
G01X6678Y11103D01*
G01X6649Y11131D01*
G01X6619Y11156D01*
G01X6588Y11181D01*
G01X6556Y11204D01*
G01X6523Y11226D01*
G01X6489Y11247D01*
G01X6455Y11266D01*
G01X6420Y11284D01*
G01X6384Y11300D01*
G01X6347Y11315D01*
G01X6310Y11329D01*
G01X6272Y11340D01*
G01X6234Y11351D01*
G01X6196Y11359D01*
G01X6157Y11367D01*
G01X6118Y11372D01*
G01X6078Y11376D01*
G01X6039Y11379D01*
G01X6000Y11380D01*
G04 draw reference designator for part C13*
G01X4790Y11318D02*
G01X4836Y11340D01*
G01X4745Y11272D02*
G01X4790Y11318D01*
G01X4722Y11227D02*
G01X4745Y11272D01*
G01X4722Y11136D02*
G01X4722Y11227D01*
G01X4722Y11136D02*
G01X4745Y11090D01*
G01X4745Y11090D02*
G01X4790Y11045D01*
G01X4790Y11045D02*
G01X4836Y11022D01*
G01X4836Y11022D02*
G01X4904Y11000D01*
G01X4904Y11000D02*
G01X5018Y11000D01*
G01X5018Y11000D02*
G01X5086Y11022D01*
G01X5086Y11022D02*
G01X5131Y11045D01*
G01X5131Y11045D02*
G01X5177Y11090D01*
G01X5177Y11090D02*
G01X5200Y11136D01*
G01X5200Y11227D02*
G01X5200Y11136D01*
G01X5177Y11272D02*
G01X5200Y11227D01*
G01X5131Y11318D02*
G01X5177Y11272D01*
G01X5086Y11340D02*
G01X5131Y11318D01*
G01X4790Y11568D02*
G01X4813Y11522D01*
G01X4722Y11636D02*
G01X4790Y11568D01*
G01X4722Y11636D02*
G01X5200Y11636D01*
G01X4722Y12113D02*
G01X4722Y11863D01*
G01X4722Y12113D02*
G01X4904Y11977D01*
G01X4904Y12045D02*
G01X4904Y11977D01*
G01X4904Y12045D02*
G01X4927Y12090D01*
G01X4927Y12090D02*
G01X4950Y12113D01*
G01X4950Y12113D02*
G01X5018Y12136D01*
G01X5018Y12136D02*
G01X5063Y12136D01*
G01X5063Y12136D02*
G01X5131Y12113D01*
G01X5131Y12113D02*
G01X5177Y12068D01*
G01X5177Y12068D02*
G01X5200Y12000D01*
G01X5200Y11931D02*
G01X5200Y12000D01*
G01X5177Y11863D02*
G01X5200Y11931D01*
G01X5154Y11840D02*
G01X5177Y11863D01*
G01X5109Y11818D02*
G01X5154Y11840D01*
G04 Draw part C11*
G04 draw part outline for part C11*
G01X4500Y11500D02*
G01X4500Y8500D01*
G01X4500Y8500D02*
G01X3500Y8500D01*
G01X3500Y8500D02*
G01X3500Y11500D01*
G01X3500Y11500D02*
G01X4500Y11500D01*
G04 draw reference designator for part C11*
G01X5209Y9681D02*
G01X5163Y9659D01*
G01X5254Y9727D02*
G01X5209Y9681D01*
G01X5277Y9772D02*
G01X5254Y9727D01*
G01X5277Y9863D02*
G01X5277Y9772D01*
G01X5277Y9863D02*
G01X5254Y9909D01*
G01X5254Y9909D02*
G01X5209Y9954D01*
G01X5209Y9954D02*
G01X5163Y9977D01*
G01X5163Y9977D02*
G01X5095Y10000D01*
G01X5095Y10000D02*
G01X4981Y10000D01*
G01X4981Y10000D02*
G01X4913Y9977D01*
G01X4913Y9977D02*
G01X4868Y9954D01*
G01X4868Y9954D02*
G01X4822Y9909D01*
G01X4822Y9909D02*
G01X4800Y9863D01*
G01X4800Y9772D02*
G01X4800Y9863D01*
G01X4822Y9727D02*
G01X4800Y9772D01*
G01X4868Y9681D02*
G01X4822Y9727D01*
G01X4913Y9659D02*
G01X4868Y9681D01*
G01X5209Y9431D02*
G01X5186Y9477D01*
G01X5277Y9363D02*
G01X5209Y9431D01*
G01X5277Y9363D02*
G01X4800Y9363D01*
G01X5209Y9136D02*
G01X5186Y9181D01*
G01X5277Y9068D02*
G01X5209Y9136D01*
G01X5277Y9068D02*
G01X4800Y9068D01*
G04 Draw part D6*
G04 draw part outline for part D6*
G01X9500Y12450D02*
G01X11500Y12450D01*
G01X11500Y12450D02*
G01X11500Y11550D01*
G01X11500Y11550D02*
G01X9500Y11550D01*
G01X9500Y11550D02*
G01X9500Y12450D01*
G01X11250Y12450D02*
G01X11250Y11550D01*
G04 draw reference designator for part D6*
G01X10000Y12477D02*
G01X10000Y12000D01*
G01X10159Y12477D02*
G01X10000Y12477D01*
G01X10159Y12477D02*
G01X10227Y12454D01*
G01X10227Y12454D02*
G01X10272Y12409D01*
G01X10272Y12409D02*
G01X10295Y12363D01*
G01X10295Y12363D02*
G01X10318Y12295D01*
G01X10318Y12295D02*
G01X10318Y12181D01*
G01X10318Y12181D02*
G01X10295Y12113D01*
G01X10295Y12113D02*
G01X10272Y12068D01*
G01X10272Y12068D02*
G01X10227Y12022D01*
G01X10227Y12022D02*
G01X10159Y12000D01*
G01X10000Y12000D02*
G01X10159Y12000D01*
G01X10750Y12454D02*
G01X10772Y12409D01*
G01X10681Y12477D02*
G01X10750Y12454D01*
G01X10636Y12477D02*
G01X10681Y12477D01*
G01X10636Y12477D02*
G01X10568Y12454D01*
G01X10568Y12454D02*
G01X10522Y12386D01*
G01X10522Y12386D02*
G01X10500Y12272D01*
G01X10500Y12272D02*
G01X10500Y12159D01*
G01X10500Y12159D02*
G01X10522Y12068D01*
G01X10522Y12068D02*
G01X10568Y12022D01*
G01X10568Y12022D02*
G01X10636Y12000D01*
G01X10659Y12000D02*
G01X10636Y12000D01*
G01X10727Y12022D02*
G01X10659Y12000D01*
G01X10772Y12068D02*
G01X10727Y12022D01*
G01X10795Y12136D02*
G01X10772Y12068D01*
G01X10795Y12159D02*
G01X10795Y12136D01*
G01X10772Y12227D02*
G01X10795Y12159D01*
G01X10727Y12272D02*
G01X10772Y12227D01*
G01X10659Y12295D02*
G01X10727Y12272D01*
G01X10636Y12295D02*
G01X10659Y12295D01*
G01X10636Y12295D02*
G01X10568Y12272D01*
G01X10568Y12272D02*
G01X10522Y12227D01*
G01X10522Y12227D02*
G01X10500Y12159D01*
G04 Draw part C8*
G04 draw part outline for part C8*
G01X7500Y6500D02*
G01X7500Y3500D01*
G01X7500Y3500D02*
G01X6500Y3500D01*
G01X6500Y3500D02*
G01X6500Y6500D01*
G01X6500Y6500D02*
G01X7500Y6500D01*
G04 draw reference designator for part C8*
G01X6590Y5318D02*
G01X6636Y5340D01*
G01X6545Y5272D02*
G01X6590Y5318D01*
G01X6522Y5227D02*
G01X6545Y5272D01*
G01X6522Y5136D02*
G01X6522Y5227D01*
G01X6522Y5136D02*
G01X6545Y5090D01*
G01X6545Y5090D02*
G01X6590Y5045D01*
G01X6590Y5045D02*
G01X6636Y5022D01*
G01X6636Y5022D02*
G01X6704Y5000D01*
G01X6704Y5000D02*
G01X6818Y5000D01*
G01X6818Y5000D02*
G01X6886Y5022D01*
G01X6886Y5022D02*
G01X6931Y5045D01*
G01X6931Y5045D02*
G01X6977Y5090D01*
G01X6977Y5090D02*
G01X7000Y5136D01*
G01X7000Y5227D02*
G01X7000Y5136D01*
G01X6977Y5272D02*
G01X7000Y5227D01*
G01X6931Y5318D02*
G01X6977Y5272D01*
G01X6886Y5340D02*
G01X6931Y5318D01*
G01X6522Y5636D02*
G01X6545Y5568D01*
G01X6545Y5568D02*
G01X6590Y5545D01*
G01X6590Y5545D02*
G01X6636Y5545D01*
G01X6636Y5545D02*
G01X6681Y5568D01*
G01X6681Y5568D02*
G01X6704Y5613D01*
G01X6704Y5613D02*
G01X6727Y5704D01*
G01X6727Y5704D02*
G01X6750Y5772D01*
G01X6750Y5772D02*
G01X6795Y5818D01*
G01X6795Y5818D02*
G01X6840Y5840D01*
G01X6840Y5840D02*
G01X6909Y5840D01*
G01X6909Y5840D02*
G01X6954Y5818D01*
G01X6954Y5818D02*
G01X6977Y5795D01*
G01X6977Y5795D02*
G01X7000Y5727D01*
G01X7000Y5636D02*
G01X7000Y5727D01*
G01X6977Y5568D02*
G01X7000Y5636D01*
G01X6954Y5545D02*
G01X6977Y5568D01*
G01X6909Y5522D02*
G01X6954Y5545D01*
G01X6840Y5522D02*
G01X6909Y5522D01*
G01X6795Y5545D02*
G01X6840Y5522D01*
G01X6750Y5590D02*
G01X6795Y5545D01*
G01X6727Y5659D02*
G01X6750Y5590D01*
G01X6704Y5750D02*
G01X6727Y5659D01*
G01X6681Y5795D02*
G01X6704Y5750D01*
G01X6636Y5818D02*
G01X6681Y5795D01*
G01X6590Y5818D02*
G01X6636Y5818D01*
G01X6545Y5795D02*
G01X6590Y5818D01*
G01X6522Y5727D02*
G01X6545Y5795D01*
G01X6522Y5636D02*
G01X6522Y5727D01*
G04 Draw part R7*
G04 draw part outline for part R7*
G01X-5500Y3750D02*
G01X-5500Y6250D01*
G01X-5500Y6250D02*
G01X-4500Y6250D01*
G01X-4500Y6250D02*
G01X-4500Y3750D01*
G01X-4500Y3750D02*
G01X-5500Y3750D01*
G04 draw reference designator for part R7*
G01X-5477Y5000D02*
G01X-5000Y5000D01*
G01X-5477Y5204D02*
G01X-5477Y5000D01*
G01X-5477Y5204D02*
G01X-5454Y5272D01*
G01X-5454Y5272D02*
G01X-5431Y5295D01*
G01X-5431Y5295D02*
G01X-5386Y5318D01*
G01X-5386Y5318D02*
G01X-5340Y5318D01*
G01X-5340Y5318D02*
G01X-5295Y5295D01*
G01X-5295Y5295D02*
G01X-5272Y5272D01*
G01X-5272Y5272D02*
G01X-5250Y5204D01*
G01X-5250Y5000D02*
G01X-5250Y5204D01*
G01X-5250Y5159D02*
G01X-5000Y5318D01*
G01X-5477Y5818D02*
G01X-5000Y5590D01*
G01X-5477Y5818D02*
G01X-5477Y5500D01*
G04 Draw part R8*
G04 draw part outline for part R8*
G01X-6500Y3750D02*
G01X-6500Y6250D01*
G01X-6500Y6250D02*
G01X-5500Y6250D01*
G01X-5500Y6250D02*
G01X-5500Y3750D01*
G01X-5500Y3750D02*
G01X-6500Y3750D01*
G04 draw reference designator for part R8*
G01X-6477Y5000D02*
G01X-6000Y5000D01*
G01X-6477Y5204D02*
G01X-6477Y5000D01*
G01X-6477Y5204D02*
G01X-6454Y5272D01*
G01X-6454Y5272D02*
G01X-6431Y5295D01*
G01X-6431Y5295D02*
G01X-6386Y5318D01*
G01X-6386Y5318D02*
G01X-6340Y5318D01*
G01X-6340Y5318D02*
G01X-6295Y5295D01*
G01X-6295Y5295D02*
G01X-6272Y5272D01*
G01X-6272Y5272D02*
G01X-6250Y5204D01*
G01X-6250Y5000D02*
G01X-6250Y5204D01*
G01X-6250Y5159D02*
G01X-6000Y5318D01*
G01X-6477Y5613D02*
G01X-6454Y5545D01*
G01X-6454Y5545D02*
G01X-6409Y5522D01*
G01X-6409Y5522D02*
G01X-6363Y5522D01*
G01X-6363Y5522D02*
G01X-6318Y5545D01*
G01X-6318Y5545D02*
G01X-6295Y5590D01*
G01X-6295Y5590D02*
G01X-6272Y5681D01*
G01X-6272Y5681D02*
G01X-6250Y5750D01*
G01X-6250Y5750D02*
G01X-6204Y5795D01*
G01X-6204Y5795D02*
G01X-6159Y5818D01*
G01X-6159Y5818D02*
G01X-6090Y5818D01*
G01X-6090Y5818D02*
G01X-6045Y5795D01*
G01X-6045Y5795D02*
G01X-6022Y5772D01*
G01X-6022Y5772D02*
G01X-6000Y5704D01*
G01X-6000Y5613D02*
G01X-6000Y5704D01*
G01X-6022Y5545D02*
G01X-6000Y5613D01*
G01X-6045Y5522D02*
G01X-6022Y5545D01*
G01X-6090Y5500D02*
G01X-6045Y5522D01*
G01X-6159Y5500D02*
G01X-6090Y5500D01*
G01X-6204Y5522D02*
G01X-6159Y5500D01*
G01X-6250Y5568D02*
G01X-6204Y5522D01*
G01X-6272Y5636D02*
G01X-6250Y5568D01*
G01X-6295Y5727D02*
G01X-6272Y5636D01*
G01X-6318Y5772D02*
G01X-6295Y5727D01*
G01X-6363Y5795D02*
G01X-6318Y5772D01*
G01X-6409Y5795D02*
G01X-6363Y5795D01*
G01X-6454Y5772D02*
G01X-6409Y5795D01*
G01X-6477Y5704D02*
G01X-6454Y5772D01*
G01X-6477Y5613D02*
G01X-6477Y5704D01*
G04 Draw part D4*
G04 draw part outline for part D4*
G01X-7550Y6500D02*
G01X-7550Y4500D01*
G01X-7550Y4500D02*
G01X-8450Y4500D01*
G01X-8450Y4500D02*
G01X-8450Y6500D01*
G01X-8450Y6500D02*
G01X-7550Y6500D01*
G01X-7550Y4750D02*
G01X-8450Y4750D01*
G04 draw reference designator for part D4*
G01X-6622Y5500D02*
G01X-7100Y5500D01*
G01X-6622Y5340D02*
G01X-6622Y5500D01*
G01X-6622Y5340D02*
G01X-6645Y5272D01*
G01X-6645Y5272D02*
G01X-6690Y5227D01*
G01X-6690Y5227D02*
G01X-6736Y5204D01*
G01X-6736Y5204D02*
G01X-6804Y5181D01*
G01X-6804Y5181D02*
G01X-6918Y5181D01*
G01X-6918Y5181D02*
G01X-6986Y5204D01*
G01X-6986Y5204D02*
G01X-7031Y5227D01*
G01X-7031Y5227D02*
G01X-7077Y5272D01*
G01X-7077Y5272D02*
G01X-7100Y5340D01*
G01X-7100Y5500D02*
G01X-7100Y5340D01*
G01X-6622Y4772D02*
G01X-6940Y5000D01*
G01X-6940Y4659D02*
G01X-6940Y5000D01*
G01X-6622Y4772D02*
G01X-7100Y4772D01*
G04 Draw part D5*
G04 draw part outline for part D5*
G01X-6550Y6500D02*
G01X-6550Y4500D01*
G01X-6550Y4500D02*
G01X-7450Y4500D01*
G01X-7450Y4500D02*
G01X-7450Y6500D01*
G01X-7450Y6500D02*
G01X-6550Y6500D01*
G01X-6550Y4750D02*
G01X-7450Y4750D01*
G04 draw reference designator for part D5*
G01X-5622Y5500D02*
G01X-6100Y5500D01*
G01X-5622Y5340D02*
G01X-5622Y5500D01*
G01X-5622Y5340D02*
G01X-5645Y5272D01*
G01X-5645Y5272D02*
G01X-5690Y5227D01*
G01X-5690Y5227D02*
G01X-5736Y5204D01*
G01X-5736Y5204D02*
G01X-5804Y5181D01*
G01X-5804Y5181D02*
G01X-5918Y5181D01*
G01X-5918Y5181D02*
G01X-5986Y5204D01*
G01X-5986Y5204D02*
G01X-6031Y5227D01*
G01X-6031Y5227D02*
G01X-6077Y5272D01*
G01X-6077Y5272D02*
G01X-6100Y5340D01*
G01X-6100Y5500D02*
G01X-6100Y5340D01*
G01X-5622Y4954D02*
G01X-5622Y4727D01*
G01X-5622Y4954D02*
G01X-5827Y4977D01*
G01X-5804Y4954D02*
G01X-5827Y4977D01*
G01X-5781Y4886D02*
G01X-5804Y4954D01*
G01X-5781Y4818D02*
G01X-5781Y4886D01*
G01X-5781Y4818D02*
G01X-5804Y4750D01*
G01X-5804Y4750D02*
G01X-5850Y4704D01*
G01X-5850Y4704D02*
G01X-5918Y4681D01*
G01X-5918Y4681D02*
G01X-5963Y4681D01*
G01X-5963Y4681D02*
G01X-6031Y4704D01*
G01X-6031Y4704D02*
G01X-6077Y4750D01*
G01X-6077Y4750D02*
G01X-6100Y4818D01*
G01X-6100Y4886D02*
G01X-6100Y4818D01*
G01X-6077Y4954D02*
G01X-6100Y4886D01*
G01X-6054Y4977D02*
G01X-6077Y4954D01*
G01X-6009Y5000D02*
G01X-6054Y4977D01*
G04 Draw part C20*
G04 draw part outline for part C20*
G01X16500Y11100D02*
G01X16500Y10900D01*
G01X16600Y11000D02*
G01X16400Y11000D01*
G01X17000Y10270D02*
G01X17039Y10270D01*
G01X17079Y10272D01*
G01X17119Y10275D01*
G01X17158Y10280D01*
G01X17197Y10285D01*
G01X17237Y10292D01*
G01X17275Y10301D01*
G01X17314Y10310D01*
G01X17352Y10321D01*
G01X17390Y10333D01*
G01X17428Y10346D01*
G01X17465Y10360D01*
G01X17501Y10376D01*
G01X17538Y10392D01*
G01X17573Y10410D01*
G01X17608Y10429D01*
G01X17642Y10449D01*
G01X17676Y10470D01*
G01X17709Y10492D01*
G01X17741Y10516D01*
G01X17773Y10540D01*
G01X17803Y10565D01*
G01X17833Y10592D01*
G01X17862Y10619D01*
G01X17890Y10647D01*
G01X17917Y10676D01*
G01X17944Y10706D01*
G01X17969Y10736D01*
G01X17993Y10768D01*
G01X18017Y10800D01*
G01X18039Y10833D01*
G01X18060Y10867D01*
G01X18080Y10901D01*
G01X18099Y10936D01*
G01X18117Y10971D01*
G01X18133Y11008D01*
G01X18149Y11044D01*
G01X18163Y11081D01*
G01X18176Y11119D01*
G01X18188Y11157D01*
G01X18199Y11195D01*
G01X18208Y11234D01*
G01X18217Y11272D01*
G01X18224Y11312D01*
G01X18229Y11351D01*
G01X18234Y11390D01*
G01X18237Y11430D01*
G01X18239Y11470D01*
G01X18240Y11510D01*
G01X18240Y11510D02*
G01X18239Y11549D01*
G01X18237Y11589D01*
G01X18234Y11629D01*
G01X18229Y11668D01*
G01X18224Y11707D01*
G01X18217Y11747D01*
G01X18208Y11785D01*
G01X18199Y11824D01*
G01X18188Y11862D01*
G01X18176Y11900D01*
G01X18163Y11938D01*
G01X18149Y11975D01*
G01X18133Y12011D01*
G01X18117Y12048D01*
G01X18099Y12083D01*
G01X18080Y12118D01*
G01X18060Y12152D01*
G01X18039Y12186D01*
G01X18017Y12219D01*
G01X17993Y12251D01*
G01X17969Y12283D01*
G01X17944Y12313D01*
G01X17917Y12343D01*
G01X17890Y12372D01*
G01X17862Y12400D01*
G01X17833Y12427D01*
G01X17803Y12454D01*
G01X17773Y12479D01*
G01X17741Y12503D01*
G01X17709Y12527D01*
G01X17676Y12549D01*
G01X17642Y12570D01*
G01X17608Y12590D01*
G01X17573Y12609D01*
G01X17538Y12627D01*
G01X17501Y12643D01*
G01X17465Y12659D01*
G01X17428Y12673D01*
G01X17390Y12686D01*
G01X17352Y12698D01*
G01X17314Y12709D01*
G01X17275Y12718D01*
G01X17237Y12727D01*
G01X17197Y12734D01*
G01X17158Y12739D01*
G01X17119Y12744D01*
G01X17079Y12747D01*
G01X17039Y12749D01*
G01X17000Y12750D01*
G01X17000Y12750D02*
G01X16960Y12749D01*
G01X16920Y12747D01*
G01X16880Y12744D01*
G01X16841Y12739D01*
G01X16802Y12734D01*
G01X16762Y12727D01*
G01X16724Y12718D01*
G01X16685Y12709D01*
G01X16647Y12698D01*
G01X16609Y12686D01*
G01X16571Y12673D01*
G01X16534Y12659D01*
G01X16498Y12643D01*
G01X16461Y12627D01*
G01X16426Y12609D01*
G01X16391Y12590D01*
G01X16357Y12570D01*
G01X16323Y12549D01*
G01X16290Y12527D01*
G01X16258Y12503D01*
G01X16226Y12479D01*
G01X16196Y12454D01*
G01X16166Y12427D01*
G01X16137Y12400D01*
G01X16109Y12372D01*
G01X16082Y12343D01*
G01X16055Y12313D01*
G01X16030Y12283D01*
G01X16006Y12251D01*
G01X15982Y12219D01*
G01X15960Y12186D01*
G01X15939Y12152D01*
G01X15919Y12118D01*
G01X15900Y12083D01*
G01X15882Y12048D01*
G01X15866Y12011D01*
G01X15850Y11975D01*
G01X15836Y11938D01*
G01X15823Y11900D01*
G01X15811Y11862D01*
G01X15800Y11824D01*
G01X15791Y11785D01*
G01X15782Y11747D01*
G01X15775Y11707D01*
G01X15770Y11668D01*
G01X15765Y11629D01*
G01X15762Y11589D01*
G01X15760Y11549D01*
G01X15760Y11510D01*
G01X15760Y11510D02*
G01X15760Y11470D01*
G01X15762Y11430D01*
G01X15765Y11390D01*
G01X15770Y11351D01*
G01X15775Y11312D01*
G01X15782Y11272D01*
G01X15791Y11234D01*
G01X15800Y11195D01*
G01X15811Y11157D01*
G01X15823Y11119D01*
G01X15836Y11081D01*
G01X15850Y11044D01*
G01X15866Y11008D01*
G01X15882Y10971D01*
G01X15900Y10936D01*
G01X15919Y10901D01*
G01X15939Y10867D01*
G01X15960Y10833D01*
G01X15982Y10800D01*
G01X16006Y10768D01*
G01X16030Y10736D01*
G01X16055Y10706D01*
G01X16082Y10676D01*
G01X16109Y10647D01*
G01X16137Y10619D01*
G01X16166Y10592D01*
G01X16196Y10565D01*
G01X16226Y10540D01*
G01X16258Y10516D01*
G01X16290Y10492D01*
G01X16323Y10470D01*
G01X16357Y10449D01*
G01X16391Y10429D01*
G01X16426Y10410D01*
G01X16461Y10392D01*
G01X16498Y10376D01*
G01X16534Y10360D01*
G01X16571Y10346D01*
G01X16609Y10333D01*
G01X16647Y10321D01*
G01X16685Y10310D01*
G01X16724Y10301D01*
G01X16762Y10292D01*
G01X16802Y10285D01*
G01X16841Y10280D01*
G01X16880Y10275D01*
G01X16920Y10272D01*
G01X16960Y10270D01*
G01X17000Y10270D01*
G04 draw reference designator for part C20*
G01X16318Y13409D02*
G01X16340Y13363D01*
G01X16272Y13454D02*
G01X16318Y13409D01*
G01X16227Y13477D02*
G01X16272Y13454D01*
G01X16136Y13477D02*
G01X16227Y13477D01*
G01X16136Y13477D02*
G01X16090Y13454D01*
G01X16090Y13454D02*
G01X16045Y13409D01*
G01X16045Y13409D02*
G01X16022Y13363D01*
G01X16022Y13363D02*
G01X16000Y13295D01*
G01X16000Y13295D02*
G01X16000Y13181D01*
G01X16000Y13181D02*
G01X16022Y13113D01*
G01X16022Y13113D02*
G01X16045Y13068D01*
G01X16045Y13068D02*
G01X16090Y13022D01*
G01X16090Y13022D02*
G01X16136Y13000D01*
G01X16227Y13000D02*
G01X16136Y13000D01*
G01X16272Y13022D02*
G01X16227Y13000D01*
G01X16318Y13068D02*
G01X16272Y13022D01*
G01X16340Y13113D02*
G01X16318Y13068D01*
G01X16545Y13386D02*
G01X16545Y13363D01*
G01X16568Y13431D02*
G01X16545Y13386D01*
G01X16590Y13454D02*
G01X16568Y13431D01*
G01X16636Y13477D02*
G01X16590Y13454D01*
G01X16727Y13477D02*
G01X16636Y13477D01*
G01X16727Y13477D02*
G01X16772Y13454D01*
G01X16772Y13454D02*
G01X16795Y13431D01*
G01X16795Y13431D02*
G01X16818Y13386D01*
G01X16818Y13386D02*
G01X16818Y13340D01*
G01X16818Y13340D02*
G01X16795Y13295D01*
G01X16795Y13295D02*
G01X16750Y13227D01*
G01X16750Y13227D02*
G01X16522Y13000D01*
G01X16840Y13000D02*
G01X16522Y13000D01*
G01X17159Y13477D02*
G01X17090Y13454D01*
G01X17090Y13454D02*
G01X17045Y13386D01*
G01X17045Y13386D02*
G01X17022Y13272D01*
G01X17022Y13272D02*
G01X17022Y13204D01*
G01X17022Y13204D02*
G01X17045Y13090D01*
G01X17045Y13090D02*
G01X17090Y13022D01*
G01X17090Y13022D02*
G01X17159Y13000D01*
G01X17204Y13000D02*
G01X17159Y13000D01*
G01X17272Y13022D02*
G01X17204Y13000D01*
G01X17318Y13090D02*
G01X17272Y13022D01*
G01X17340Y13204D02*
G01X17318Y13090D01*
G01X17340Y13272D02*
G01X17340Y13204D01*
G01X17318Y13386D02*
G01X17340Y13272D01*
G01X17272Y13454D02*
G01X17318Y13386D01*
G01X17204Y13477D02*
G01X17272Y13454D01*
G01X17159Y13477D02*
G01X17204Y13477D01*
G04 Draw part C16*
G04 draw part outline for part C16*
G01X14500Y12500D02*
G01X14500Y9500D01*
G01X14500Y9500D02*
G01X13500Y9500D01*
G01X13500Y9500D02*
G01X13500Y12500D01*
G01X13500Y12500D02*
G01X14500Y12500D01*
G04 draw reference designator for part C16*
G01X15209Y10681D02*
G01X15163Y10659D01*
G01X15254Y10727D02*
G01X15209Y10681D01*
G01X15277Y10772D02*
G01X15254Y10727D01*
G01X15277Y10863D02*
G01X15277Y10772D01*
G01X15277Y10863D02*
G01X15254Y10909D01*
G01X15254Y10909D02*
G01X15209Y10954D01*
G01X15209Y10954D02*
G01X15163Y10977D01*
G01X15163Y10977D02*
G01X15095Y11000D01*
G01X15095Y11000D02*
G01X14981Y11000D01*
G01X14981Y11000D02*
G01X14913Y10977D01*
G01X14913Y10977D02*
G01X14868Y10954D01*
G01X14868Y10954D02*
G01X14822Y10909D01*
G01X14822Y10909D02*
G01X14800Y10863D01*
G01X14800Y10772D02*
G01X14800Y10863D01*
G01X14822Y10727D02*
G01X14800Y10772D01*
G01X14868Y10681D02*
G01X14822Y10727D01*
G01X14913Y10659D02*
G01X14868Y10681D01*
G01X15209Y10431D02*
G01X15186Y10477D01*
G01X15277Y10363D02*
G01X15209Y10431D01*
G01X15277Y10363D02*
G01X14800Y10363D01*
G01X15254Y9931D02*
G01X15209Y9909D01*
G01X15277Y10000D02*
G01X15254Y9931D01*
G01X15277Y10045D02*
G01X15277Y10000D01*
G01X15277Y10045D02*
G01X15254Y10113D01*
G01X15254Y10113D02*
G01X15186Y10159D01*
G01X15186Y10159D02*
G01X15072Y10181D01*
G01X15072Y10181D02*
G01X14959Y10181D01*
G01X14959Y10181D02*
G01X14868Y10159D01*
G01X14868Y10159D02*
G01X14822Y10113D01*
G01X14822Y10113D02*
G01X14800Y10045D01*
G01X14800Y10022D02*
G01X14800Y10045D01*
G01X14822Y9954D02*
G01X14800Y10022D01*
G01X14868Y9909D02*
G01X14822Y9954D01*
G01X14936Y9886D02*
G01X14868Y9909D01*
G01X14959Y9886D02*
G01X14936Y9886D01*
G01X15027Y9909D02*
G01X14959Y9886D01*
G01X15072Y9954D02*
G01X15027Y9909D01*
G01X15095Y10022D02*
G01X15072Y9954D01*
G01X15095Y10045D02*
G01X15095Y10022D01*
G01X15095Y10045D02*
G01X15072Y10113D01*
G01X15072Y10113D02*
G01X15027Y10159D01*
G01X15027Y10159D02*
G01X14959Y10181D01*
G04 Draw part R9*
G04 draw part outline for part R9*
G54D12*
G01X2900Y7900D02*
G01X2900Y4100D01*
G01X2900Y4100D02*
G01X-900Y4100D01*
G01X-900Y4100D02*
G01X-900Y7900D01*
G01X-900Y7900D02*
G01X2900Y7900D01*
G04 draw reference designator for part R9*
G01X1000Y7954D02*
G01X1000Y7000D01*
G01X1409Y7954D02*
G01X1000Y7954D01*
G01X1409Y7954D02*
G01X1545Y7909D01*
G01X1545Y7909D02*
G01X1590Y7863D01*
G01X1590Y7863D02*
G01X1636Y7772D01*
G01X1636Y7772D02*
G01X1636Y7681D01*
G01X1636Y7681D02*
G01X1590Y7590D01*
G01X1590Y7590D02*
G01X1545Y7545D01*
G01X1545Y7545D02*
G01X1409Y7500D01*
G01X1000Y7500D02*
G01X1409Y7500D01*
G01X1318Y7500D02*
G01X1636Y7000D01*
G01X2590Y7636D02*
G01X2545Y7500D01*
G01X2545Y7500D02*
G01X2454Y7409D01*
G01X2454Y7409D02*
G01X2318Y7363D01*
G01X2272Y7363D02*
G01X2318Y7363D01*
G01X2136Y7409D02*
G01X2272Y7363D01*
G01X2045Y7500D02*
G01X2136Y7409D01*
G01X2000Y7636D02*
G01X2045Y7500D01*
G01X2000Y7681D02*
G01X2000Y7636D01*
G01X2045Y7818D02*
G01X2000Y7681D01*
G01X2136Y7909D02*
G01X2045Y7818D01*
G01X2272Y7954D02*
G01X2136Y7909D01*
G01X2318Y7954D02*
G01X2272Y7954D01*
G01X2318Y7954D02*
G01X2454Y7909D01*
G01X2454Y7909D02*
G01X2545Y7818D01*
G01X2545Y7818D02*
G01X2590Y7636D01*
G01X2590Y7636D02*
G01X2590Y7409D01*
G01X2590Y7409D02*
G01X2545Y7181D01*
G01X2545Y7181D02*
G01X2454Y7045D01*
G01X2454Y7045D02*
G01X2318Y7000D01*
G01X2227Y7000D02*
G01X2318Y7000D01*
G01X2090Y7045D02*
G01X2227Y7000D01*
G01X2045Y7136D02*
G01X2090Y7045D01*
G04 Draw part R10*
G04 draw part outline for part R10*
G54D11*
G01X2250Y1500D02*
G01X-250Y1500D01*
G01X-250Y1500D02*
G01X-250Y2500D01*
G01X-250Y2500D02*
G01X2250Y2500D01*
G01X2250Y2500D02*
G01X2250Y1500D01*
G04 draw reference designator for part R10*
G01X1000Y542D02*
G01X1000Y1020D01*
G01X795Y542D02*
G01X1000Y542D01*
G01X795Y542D02*
G01X727Y565D01*
G01X727Y565D02*
G01X704Y588D01*
G01X704Y588D02*
G01X681Y633D01*
G01X681Y633D02*
G01X681Y679D01*
G01X681Y679D02*
G01X704Y724D01*
G01X704Y724D02*
G01X727Y747D01*
G01X727Y747D02*
G01X795Y770D01*
G01X1000Y770D02*
G01X795Y770D01*
G01X840Y770D02*
G01X681Y1020D01*
G01X454Y610D02*
G01X500Y633D01*
G01X386Y542D02*
G01X454Y610D01*
G01X386Y542D02*
G01X386Y1020D01*
G01X68Y542D02*
G01X136Y565D01*
G01X136Y565D02*
G01X181Y633D01*
G01X181Y633D02*
G01X204Y747D01*
G01X204Y747D02*
G01X204Y815D01*
G01X204Y815D02*
G01X181Y929D01*
G01X181Y929D02*
G01X136Y997D01*
G01X136Y997D02*
G01X68Y1020D01*
G01X22Y1020D02*
G01X68Y1020D01*
G01X-45Y997D02*
G01X22Y1020D01*
G01X-90Y929D02*
G01X-45Y997D01*
G01X-113Y815D02*
G01X-90Y929D01*
G01X-113Y747D02*
G01X-113Y815D01*
G01X-90Y633D02*
G01X-113Y747D01*
G01X-45Y565D02*
G01X-90Y633D01*
G01X22Y542D02*
G01X-45Y565D01*
G01X68Y542D02*
G01X22Y542D01*
G04 Draw part C9*
G04 draw part outline for part C9*
G01X4700Y3500D02*
G01X4900Y3500D01*
G01X4800Y3600D02*
G01X4800Y3400D01*
G01X5380Y4000D02*
G01X5379Y4039D01*
G01X5376Y4078D01*
G01X5372Y4118D01*
G01X5367Y4157D01*
G01X5359Y4196D01*
G01X5351Y4234D01*
G01X5340Y4272D01*
G01X5329Y4310D01*
G01X5315Y4347D01*
G01X5300Y4384D01*
G01X5284Y4420D01*
G01X5266Y4455D01*
G01X5247Y4490D01*
G01X5226Y4523D01*
G01X5204Y4556D01*
G01X5181Y4588D01*
G01X5156Y4619D01*
G01X5131Y4649D01*
G01X5103Y4678D01*
G01X5075Y4706D01*
G01X5046Y4733D01*
G01X5016Y4759D01*
G01X4984Y4783D01*
G01X4952Y4806D01*
G01X4919Y4828D01*
G01X4884Y4848D01*
G01X4850Y4867D01*
G01X4814Y4885D01*
G01X4778Y4901D01*
G01X4741Y4916D01*
G01X4703Y4929D01*
G01X4665Y4941D01*
G01X4626Y4951D01*
G01X4588Y4960D01*
G01X4548Y4967D01*
G01X4509Y4972D01*
G01X4469Y4976D01*
G01X4429Y4979D01*
G01X4390Y4980D01*
G01X4390Y4980D02*
G01X4350Y4979D01*
G01X4311Y4976D01*
G01X4271Y4972D01*
G01X4232Y4967D01*
G01X4193Y4960D01*
G01X4155Y4951D01*
G01X4117Y4941D01*
G01X4079Y4929D01*
G01X4042Y4916D01*
G01X4005Y4901D01*
G01X3969Y4885D01*
G01X3934Y4867D01*
G01X3899Y4848D01*
G01X3866Y4828D01*
G01X3833Y4806D01*
G01X3801Y4783D01*
G01X3770Y4759D01*
G01X3740Y4733D01*
G01X3711Y4706D01*
G01X3683Y4678D01*
G01X3656Y4649D01*
G01X3630Y4619D01*
G01X3606Y4588D01*
G01X3583Y4556D01*
G01X3561Y4523D01*
G01X3541Y4489D01*
G01X3522Y4455D01*
G01X3504Y4420D01*
G01X3488Y4384D01*
G01X3473Y4347D01*
G01X3460Y4310D01*
G01X3448Y4272D01*
G01X3438Y4234D01*
G01X3429Y4196D01*
G01X3422Y4157D01*
G01X3417Y4118D01*
G01X3413Y4078D01*
G01X3410Y4039D01*
G01X3410Y4000D01*
G01X3410Y4000D02*
G01X3410Y3960D01*
G01X3413Y3921D01*
G01X3417Y3881D01*
G01X3422Y3842D01*
G01X3429Y3803D01*
G01X3438Y3765D01*
G01X3448Y3727D01*
G01X3460Y3689D01*
G01X3473Y3652D01*
G01X3488Y3615D01*
G01X3504Y3579D01*
G01X3522Y3544D01*
G01X3541Y3509D01*
G01X3561Y3476D01*
G01X3583Y3443D01*
G01X3606Y3411D01*
G01X3630Y3380D01*
G01X3656Y3350D01*
G01X3683Y3321D01*
G01X3711Y3293D01*
G01X3740Y3266D01*
G01X3770Y3240D01*
G01X3801Y3216D01*
G01X3833Y3193D01*
G01X3866Y3171D01*
G01X3900Y3151D01*
G01X3934Y3132D01*
G01X3969Y3114D01*
G01X4005Y3098D01*
G01X4042Y3083D01*
G01X4079Y3070D01*
G01X4117Y3058D01*
G01X4155Y3048D01*
G01X4193Y3039D01*
G01X4232Y3032D01*
G01X4271Y3027D01*
G01X4311Y3023D01*
G01X4350Y3020D01*
G01X4390Y3020D01*
G01X4390Y3020D02*
G01X4429Y3020D01*
G01X4469Y3023D01*
G01X4509Y3027D01*
G01X4548Y3032D01*
G01X4588Y3039D01*
G01X4626Y3048D01*
G01X4665Y3058D01*
G01X4703Y3070D01*
G01X4741Y3083D01*
G01X4778Y3098D01*
G01X4814Y3114D01*
G01X4850Y3132D01*
G01X4885Y3151D01*
G01X4919Y3171D01*
G01X4952Y3193D01*
G01X4984Y3216D01*
G01X5016Y3240D01*
G01X5046Y3266D01*
G01X5075Y3293D01*
G01X5103Y3321D01*
G01X5131Y3350D01*
G01X5156Y3380D01*
G01X5181Y3411D01*
G01X5204Y3443D01*
G01X5226Y3476D01*
G01X5247Y3510D01*
G01X5266Y3544D01*
G01X5284Y3579D01*
G01X5300Y3615D01*
G01X5315Y3652D01*
G01X5329Y3689D01*
G01X5340Y3727D01*
G01X5351Y3765D01*
G01X5359Y3803D01*
G01X5367Y3842D01*
G01X5372Y3881D01*
G01X5376Y3921D01*
G01X5379Y3960D01*
G01X5380Y4000D01*
G04 draw reference designator for part C9*
G01X5318Y5409D02*
G01X5340Y5363D01*
G01X5272Y5454D02*
G01X5318Y5409D01*
G01X5227Y5477D02*
G01X5272Y5454D01*
G01X5136Y5477D02*
G01X5227Y5477D01*
G01X5136Y5477D02*
G01X5090Y5454D01*
G01X5090Y5454D02*
G01X5045Y5409D01*
G01X5045Y5409D02*
G01X5022Y5363D01*
G01X5022Y5363D02*
G01X5000Y5295D01*
G01X5000Y5295D02*
G01X5000Y5181D01*
G01X5000Y5181D02*
G01X5022Y5113D01*
G01X5022Y5113D02*
G01X5045Y5068D01*
G01X5045Y5068D02*
G01X5090Y5022D01*
G01X5090Y5022D02*
G01X5136Y5000D01*
G01X5227Y5000D02*
G01X5136Y5000D01*
G01X5272Y5022D02*
G01X5227Y5000D01*
G01X5318Y5068D02*
G01X5272Y5022D01*
G01X5340Y5113D02*
G01X5318Y5068D01*
G01X5818Y5318D02*
G01X5795Y5250D01*
G01X5795Y5250D02*
G01X5750Y5204D01*
G01X5750Y5204D02*
G01X5681Y5181D01*
G01X5659Y5181D02*
G01X5681Y5181D01*
G01X5590Y5204D02*
G01X5659Y5181D01*
G01X5545Y5250D02*
G01X5590Y5204D01*
G01X5522Y5318D02*
G01X5545Y5250D01*
G01X5522Y5340D02*
G01X5522Y5318D01*
G01X5545Y5409D02*
G01X5522Y5340D01*
G01X5590Y5454D02*
G01X5545Y5409D01*
G01X5659Y5477D02*
G01X5590Y5454D01*
G01X5681Y5477D02*
G01X5659Y5477D01*
G01X5681Y5477D02*
G01X5750Y5454D01*
G01X5750Y5454D02*
G01X5795Y5409D01*
G01X5795Y5409D02*
G01X5818Y5318D01*
G01X5818Y5318D02*
G01X5818Y5204D01*
G01X5818Y5204D02*
G01X5795Y5090D01*
G01X5795Y5090D02*
G01X5750Y5022D01*
G01X5750Y5022D02*
G01X5681Y5000D01*
G01X5636Y5000D02*
G01X5681Y5000D01*
G01X5568Y5022D02*
G01X5636Y5000D01*
G01X5545Y5068D02*
G01X5568Y5022D01*
G04 Draw part C10*
G04 draw part outline for part C10*
G01X-4500Y8500D02*
G01X-4500Y11500D01*
G01X-4500Y11500D02*
G01X-3500Y11500D01*
G01X-3500Y11500D02*
G01X-3500Y8500D01*
G01X-3500Y8500D02*
G01X-4500Y8500D01*
G04 draw reference designator for part C10*
G01X-5209Y10318D02*
G01X-5163Y10340D01*
G01X-5254Y10272D02*
G01X-5209Y10318D01*
G01X-5277Y10227D02*
G01X-5254Y10272D01*
G01X-5277Y10136D02*
G01X-5277Y10227D01*
G01X-5277Y10136D02*
G01X-5254Y10090D01*
G01X-5254Y10090D02*
G01X-5209Y10045D01*
G01X-5209Y10045D02*
G01X-5163Y10022D01*
G01X-5163Y10022D02*
G01X-5095Y10000D01*
G01X-5095Y10000D02*
G01X-4981Y10000D01*
G01X-4981Y10000D02*
G01X-4913Y10022D01*
G01X-4913Y10022D02*
G01X-4868Y10045D01*
G01X-4868Y10045D02*
G01X-4822Y10090D01*
G01X-4822Y10090D02*
G01X-4800Y10136D01*
G01X-4800Y10227D02*
G01X-4800Y10136D01*
G01X-4822Y10272D02*
G01X-4800Y10227D01*
G01X-4868Y10318D02*
G01X-4822Y10272D01*
G01X-4913Y10340D02*
G01X-4868Y10318D01*
G01X-5209Y10568D02*
G01X-5186Y10522D01*
G01X-5277Y10636D02*
G01X-5209Y10568D01*
G01X-5277Y10636D02*
G01X-4800Y10636D01*
G01X-5277Y10954D02*
G01X-5254Y10886D01*
G01X-5254Y10886D02*
G01X-5186Y10840D01*
G01X-5186Y10840D02*
G01X-5072Y10818D01*
G01X-5072Y10818D02*
G01X-5004Y10818D01*
G01X-5004Y10818D02*
G01X-4890Y10840D01*
G01X-4890Y10840D02*
G01X-4822Y10886D01*
G01X-4822Y10886D02*
G01X-4800Y10954D01*
G01X-4800Y11000D02*
G01X-4800Y10954D01*
G01X-4822Y11068D02*
G01X-4800Y11000D01*
G01X-4890Y11113D02*
G01X-4822Y11068D01*
G01X-5004Y11136D02*
G01X-4890Y11113D01*
G01X-5072Y11136D02*
G01X-5004Y11136D01*
G01X-5186Y11113D02*
G01X-5072Y11136D01*
G01X-5254Y11068D02*
G01X-5186Y11113D01*
G01X-5277Y11000D02*
G01X-5254Y11068D01*
G01X-5277Y10954D02*
G01X-5277Y11000D01*
G04 Draw part C12*
G04 draw part outline for part C12*
G01X-5500Y8500D02*
G01X-5500Y11500D01*
G01X-5500Y11500D02*
G01X-4500Y11500D01*
G01X-4500Y11500D02*
G01X-4500Y8500D01*
G01X-4500Y8500D02*
G01X-5500Y8500D01*
G04 draw reference designator for part C12*
G01X-6209Y10318D02*
G01X-6163Y10340D01*
G01X-6254Y10272D02*
G01X-6209Y10318D01*
G01X-6277Y10227D02*
G01X-6254Y10272D01*
G01X-6277Y10136D02*
G01X-6277Y10227D01*
G01X-6277Y10136D02*
G01X-6254Y10090D01*
G01X-6254Y10090D02*
G01X-6209Y10045D01*
G01X-6209Y10045D02*
G01X-6163Y10022D01*
G01X-6163Y10022D02*
G01X-6095Y10000D01*
G01X-6095Y10000D02*
G01X-5981Y10000D01*
G01X-5981Y10000D02*
G01X-5913Y10022D01*
G01X-5913Y10022D02*
G01X-5868Y10045D01*
G01X-5868Y10045D02*
G01X-5822Y10090D01*
G01X-5822Y10090D02*
G01X-5800Y10136D01*
G01X-5800Y10227D02*
G01X-5800Y10136D01*
G01X-5822Y10272D02*
G01X-5800Y10227D01*
G01X-5868Y10318D02*
G01X-5822Y10272D01*
G01X-5913Y10340D02*
G01X-5868Y10318D01*
G01X-6209Y10568D02*
G01X-6186Y10522D01*
G01X-6277Y10636D02*
G01X-6209Y10568D01*
G01X-6277Y10636D02*
G01X-5800Y10636D01*
G01X-6186Y10840D02*
G01X-6163Y10840D01*
G01X-6231Y10863D02*
G01X-6186Y10840D01*
G01X-6254Y10886D02*
G01X-6231Y10863D01*
G01X-6277Y10931D02*
G01X-6254Y10886D01*
G01X-6277Y11022D02*
G01X-6277Y10931D01*
G01X-6277Y11022D02*
G01X-6254Y11068D01*
G01X-6254Y11068D02*
G01X-6231Y11090D01*
G01X-6231Y11090D02*
G01X-6186Y11113D01*
G01X-6186Y11113D02*
G01X-6140Y11113D01*
G01X-6140Y11113D02*
G01X-6095Y11090D01*
G01X-6095Y11090D02*
G01X-6027Y11045D01*
G01X-6027Y11045D02*
G01X-5800Y10818D01*
G01X-5800Y11136D02*
G01X-5800Y10818D01*
G04 Draw part R11*
G04 draw part outline for part R11*
G01X11250Y9500D02*
G01X8750Y9500D01*
G01X8750Y9500D02*
G01X8750Y10500D01*
G01X8750Y10500D02*
G01X11250Y10500D01*
G01X11250Y10500D02*
G01X11250Y9500D01*
G04 draw reference designator for part R11*
G01X9000Y10477D02*
G01X9000Y10000D01*
G01X9204Y10477D02*
G01X9000Y10477D01*
G01X9204Y10477D02*
G01X9272Y10454D01*
G01X9272Y10454D02*
G01X9295Y10431D01*
G01X9295Y10431D02*
G01X9318Y10386D01*
G01X9318Y10386D02*
G01X9318Y10340D01*
G01X9318Y10340D02*
G01X9295Y10295D01*
G01X9295Y10295D02*
G01X9272Y10272D01*
G01X9272Y10272D02*
G01X9204Y10250D01*
G01X9000Y10250D02*
G01X9204Y10250D01*
G01X9159Y10250D02*
G01X9318Y10000D01*
G01X9545Y10409D02*
G01X9500Y10386D01*
G01X9613Y10477D02*
G01X9545Y10409D01*
G01X9613Y10477D02*
G01X9613Y10000D01*
G01X9840Y10409D02*
G01X9795Y10386D01*
G01X9909Y10477D02*
G01X9840Y10409D01*
G01X9909Y10477D02*
G01X9909Y10000D01*
G04 Draw part C15*
G04 draw part outline for part C15*
G01X13500Y5500D02*
G01X13500Y8500D01*
G01X13500Y8500D02*
G01X14500Y8500D01*
G01X14500Y8500D02*
G01X14500Y5500D01*
G01X14500Y5500D02*
G01X13500Y5500D01*
G04 draw reference designator for part C15*
G01X13590Y6318D02*
G01X13636Y6340D01*
G01X13545Y6272D02*
G01X13590Y6318D01*
G01X13522Y6227D02*
G01X13545Y6272D01*
G01X13522Y6136D02*
G01X13522Y6227D01*
G01X13522Y6136D02*
G01X13545Y6090D01*
G01X13545Y6090D02*
G01X13590Y6045D01*
G01X13590Y6045D02*
G01X13636Y6022D01*
G01X13636Y6022D02*
G01X13704Y6000D01*
G01X13704Y6000D02*
G01X13818Y6000D01*
G01X13818Y6000D02*
G01X13886Y6022D01*
G01X13886Y6022D02*
G01X13931Y6045D01*
G01X13931Y6045D02*
G01X13977Y6090D01*
G01X13977Y6090D02*
G01X14000Y6136D01*
G01X14000Y6227D02*
G01X14000Y6136D01*
G01X13977Y6272D02*
G01X14000Y6227D01*
G01X13931Y6318D02*
G01X13977Y6272D01*
G01X13886Y6340D02*
G01X13931Y6318D01*
G01X13590Y6568D02*
G01X13613Y6522D01*
G01X13522Y6636D02*
G01X13590Y6568D01*
G01X13522Y6636D02*
G01X14000Y6636D01*
G01X13522Y6863D02*
G01X13522Y7090D01*
G01X13522Y6863D02*
G01X13727Y6840D01*
G01X13704Y6863D02*
G01X13727Y6840D01*
G01X13681Y6931D02*
G01X13704Y6863D01*
G01X13681Y7000D02*
G01X13681Y6931D01*
G01X13681Y7000D02*
G01X13704Y7068D01*
G01X13704Y7068D02*
G01X13750Y7113D01*
G01X13750Y7113D02*
G01X13818Y7136D01*
G01X13818Y7136D02*
G01X13863Y7136D01*
G01X13863Y7136D02*
G01X13931Y7113D01*
G01X13931Y7113D02*
G01X13977Y7068D01*
G01X13977Y7068D02*
G01X14000Y7000D01*
G01X14000Y6931D02*
G01X14000Y7000D01*
G01X13977Y6863D02*
G01X14000Y6931D01*
G01X13954Y6840D02*
G01X13977Y6863D01*
G01X13909Y6818D02*
G01X13954Y6840D01*
G04 Draw part C19*
G04 draw part outline for part C19*
G01X12500Y7700D02*
G01X12500Y7900D01*
G01X12400Y7800D02*
G01X12600Y7800D01*
G01X12000Y8380D02*
G01X11960Y8379D01*
G01X11921Y8376D01*
G01X11881Y8372D01*
G01X11842Y8367D01*
G01X11803Y8359D01*
G01X11765Y8351D01*
G01X11727Y8340D01*
G01X11689Y8329D01*
G01X11652Y8315D01*
G01X11615Y8300D01*
G01X11579Y8284D01*
G01X11544Y8266D01*
G01X11509Y8247D01*
G01X11476Y8226D01*
G01X11443Y8204D01*
G01X11411Y8181D01*
G01X11380Y8156D01*
G01X11350Y8131D01*
G01X11321Y8103D01*
G01X11293Y8075D01*
G01X11266Y8046D01*
G01X11240Y8016D01*
G01X11216Y7984D01*
G01X11193Y7952D01*
G01X11171Y7919D01*
G01X11151Y7884D01*
G01X11132Y7850D01*
G01X11114Y7814D01*
G01X11098Y7778D01*
G01X11083Y7741D01*
G01X11070Y7703D01*
G01X11058Y7665D01*
G01X11048Y7626D01*
G01X11039Y7588D01*
G01X11032Y7548D01*
G01X11027Y7509D01*
G01X11023Y7469D01*
G01X11020Y7429D01*
G01X11020Y7390D01*
G01X11020Y7390D02*
G01X11020Y7350D01*
G01X11023Y7311D01*
G01X11027Y7271D01*
G01X11032Y7232D01*
G01X11039Y7193D01*
G01X11048Y7155D01*
G01X11058Y7117D01*
G01X11070Y7079D01*
G01X11083Y7042D01*
G01X11098Y7005D01*
G01X11114Y6969D01*
G01X11132Y6934D01*
G01X11151Y6899D01*
G01X11171Y6866D01*
G01X11193Y6833D01*
G01X11216Y6801D01*
G01X11240Y6770D01*
G01X11266Y6740D01*
G01X11293Y6711D01*
G01X11321Y6683D01*
G01X11350Y6656D01*
G01X11380Y6630D01*
G01X11411Y6606D01*
G01X11443Y6583D01*
G01X11476Y6561D01*
G01X11510Y6541D01*
G01X11544Y6522D01*
G01X11579Y6504D01*
G01X11615Y6488D01*
G01X11652Y6473D01*
G01X11689Y6460D01*
G01X11727Y6448D01*
G01X11765Y6438D01*
G01X11803Y6429D01*
G01X11842Y6422D01*
G01X11881Y6417D01*
G01X11921Y6413D01*
G01X11960Y6410D01*
G01X12000Y6410D01*
G01X12000Y6410D02*
G01X12039Y6410D01*
G01X12078Y6413D01*
G01X12118Y6417D01*
G01X12157Y6422D01*
G01X12196Y6429D01*
G01X12234Y6438D01*
G01X12272Y6448D01*
G01X12310Y6460D01*
G01X12347Y6473D01*
G01X12384Y6488D01*
G01X12420Y6504D01*
G01X12455Y6522D01*
G01X12490Y6541D01*
G01X12523Y6561D01*
G01X12556Y6583D01*
G01X12588Y6606D01*
G01X12619Y6630D01*
G01X12649Y6656D01*
G01X12678Y6683D01*
G01X12706Y6711D01*
G01X12733Y6740D01*
G01X12759Y6770D01*
G01X12783Y6801D01*
G01X12806Y6833D01*
G01X12828Y6866D01*
G01X12848Y6900D01*
G01X12867Y6934D01*
G01X12885Y6969D01*
G01X12901Y7005D01*
G01X12916Y7042D01*
G01X12929Y7079D01*
G01X12941Y7117D01*
G01X12951Y7155D01*
G01X12960Y7193D01*
G01X12967Y7232D01*
G01X12972Y7271D01*
G01X12976Y7311D01*
G01X12979Y7350D01*
G01X12980Y7390D01*
G01X12980Y7390D02*
G01X12979Y7429D01*
G01X12976Y7469D01*
G01X12972Y7509D01*
G01X12967Y7548D01*
G01X12960Y7588D01*
G01X12951Y7626D01*
G01X12941Y7665D01*
G01X12929Y7703D01*
G01X12916Y7741D01*
G01X12901Y7778D01*
G01X12885Y7814D01*
G01X12867Y7850D01*
G01X12848Y7885D01*
G01X12828Y7919D01*
G01X12806Y7952D01*
G01X12783Y7984D01*
G01X12759Y8016D01*
G01X12733Y8046D01*
G01X12706Y8075D01*
G01X12678Y8103D01*
G01X12649Y8131D01*
G01X12619Y8156D01*
G01X12588Y8181D01*
G01X12556Y8204D01*
G01X12523Y8226D01*
G01X12489Y8247D01*
G01X12455Y8266D01*
G01X12420Y8284D01*
G01X12384Y8300D01*
G01X12347Y8315D01*
G01X12310Y8329D01*
G01X12272Y8340D01*
G01X12234Y8351D01*
G01X12196Y8359D01*
G01X12157Y8367D01*
G01X12118Y8372D01*
G01X12078Y8376D01*
G01X12039Y8379D01*
G01X12000Y8380D01*
G04 draw reference designator for part C19*
G01X10790Y8318D02*
G01X10836Y8340D01*
G01X10745Y8272D02*
G01X10790Y8318D01*
G01X10722Y8227D02*
G01X10745Y8272D01*
G01X10722Y8136D02*
G01X10722Y8227D01*
G01X10722Y8136D02*
G01X10745Y8090D01*
G01X10745Y8090D02*
G01X10790Y8045D01*
G01X10790Y8045D02*
G01X10836Y8022D01*
G01X10836Y8022D02*
G01X10904Y8000D01*
G01X10904Y8000D02*
G01X11018Y8000D01*
G01X11018Y8000D02*
G01X11086Y8022D01*
G01X11086Y8022D02*
G01X11131Y8045D01*
G01X11131Y8045D02*
G01X11177Y8090D01*
G01X11177Y8090D02*
G01X11200Y8136D01*
G01X11200Y8227D02*
G01X11200Y8136D01*
G01X11177Y8272D02*
G01X11200Y8227D01*
G01X11131Y8318D02*
G01X11177Y8272D01*
G01X11086Y8340D02*
G01X11131Y8318D01*
G01X10790Y8568D02*
G01X10813Y8522D01*
G01X10722Y8636D02*
G01X10790Y8568D01*
G01X10722Y8636D02*
G01X11200Y8636D01*
G01X10881Y9113D02*
G01X10950Y9090D01*
G01X10950Y9090D02*
G01X10995Y9045D01*
G01X10995Y9045D02*
G01X11018Y8977D01*
G01X11018Y8954D02*
G01X11018Y8977D01*
G01X10995Y8886D02*
G01X11018Y8954D01*
G01X10950Y8840D02*
G01X10995Y8886D01*
G01X10881Y8818D02*
G01X10950Y8840D01*
G01X10859Y8818D02*
G01X10881Y8818D01*
G01X10790Y8840D02*
G01X10859Y8818D01*
G01X10745Y8886D02*
G01X10790Y8840D01*
G01X10722Y8954D02*
G01X10745Y8886D01*
G01X10722Y8977D02*
G01X10722Y8954D01*
G01X10722Y8977D02*
G01X10745Y9045D01*
G01X10745Y9045D02*
G01X10790Y9090D01*
G01X10790Y9090D02*
G01X10881Y9113D01*
G01X10881Y9113D02*
G01X10995Y9113D01*
G01X10995Y9113D02*
G01X11109Y9090D01*
G01X11109Y9090D02*
G01X11177Y9045D01*
G01X11177Y9045D02*
G01X11200Y8977D01*
G01X11200Y8931D02*
G01X11200Y8977D01*
G01X11177Y8863D02*
G01X11200Y8931D01*
G01X11131Y8840D02*
G01X11177Y8863D01*
G04 Draw part REG1*
G04 draw part outline for part REG1*
G01X16300Y8700D02*
G01X16300Y5300D01*
G01X16300Y5300D02*
G01X17900Y5300D01*
G01X17900Y5300D02*
G01X17900Y8700D01*
G01X17900Y8700D02*
G01X16300Y8700D01*
G01X17700Y8700D02*
G01X17700Y5300D01*
G04 draw reference designator for part REG1*
G01X18877Y7000D02*
G01X18400Y7000D01*
G01X18877Y6795D02*
G01X18877Y7000D01*
G01X18877Y6795D02*
G01X18854Y6727D01*
G01X18854Y6727D02*
G01X18831Y6704D01*
G01X18831Y6704D02*
G01X18786Y6681D01*
G01X18786Y6681D02*
G01X18740Y6681D01*
G01X18740Y6681D02*
G01X18695Y6704D01*
G01X18695Y6704D02*
G01X18672Y6727D01*
G01X18672Y6727D02*
G01X18650Y6795D01*
G01X18650Y7000D02*
G01X18650Y6795D01*
G01X18650Y6840D02*
G01X18400Y6681D01*
G01X18877Y6500D02*
G01X18400Y6500D01*
G01X18877Y6204D02*
G01X18877Y6500D01*
G01X18650Y6318D02*
G01X18650Y6500D01*
G01X18400Y6204D02*
G01X18400Y6500D01*
G01X18809Y5704D02*
G01X18763Y5681D01*
G01X18854Y5750D02*
G01X18809Y5704D01*
G01X18877Y5795D02*
G01X18854Y5750D01*
G01X18877Y5886D02*
G01X18877Y5795D01*
G01X18877Y5886D02*
G01X18854Y5931D01*
G01X18854Y5931D02*
G01X18809Y5977D01*
G01X18809Y5977D02*
G01X18763Y6000D01*
G01X18763Y6000D02*
G01X18695Y6022D01*
G01X18695Y6022D02*
G01X18581Y6022D01*
G01X18581Y6022D02*
G01X18513Y6000D01*
G01X18513Y6000D02*
G01X18468Y5977D01*
G01X18468Y5977D02*
G01X18422Y5931D01*
G01X18422Y5931D02*
G01X18400Y5886D01*
G01X18400Y5795D02*
G01X18400Y5886D01*
G01X18422Y5750D02*
G01X18400Y5795D01*
G01X18468Y5704D02*
G01X18422Y5750D01*
G01X18513Y5681D02*
G01X18468Y5704D01*
G01X18581Y5681D02*
G01X18513Y5681D01*
G01X18581Y5681D02*
G01X18581Y5795D01*
G01X18809Y5454D02*
G01X18786Y5500D01*
G01X18877Y5386D02*
G01X18809Y5454D01*
G01X18877Y5386D02*
G01X18400Y5386D01*
G04 Draw part C17*
G04 draw part outline for part C17*
G01X11500Y4300D02*
G01X11500Y4100D01*
G01X11600Y4200D02*
G01X11400Y4200D01*
G01X12000Y3620D02*
G01X12039Y3620D01*
G01X12078Y3623D01*
G01X12118Y3627D01*
G01X12157Y3632D01*
G01X12196Y3640D01*
G01X12234Y3648D01*
G01X12272Y3659D01*
G01X12310Y3670D01*
G01X12347Y3684D01*
G01X12384Y3699D01*
G01X12420Y3715D01*
G01X12455Y3733D01*
G01X12490Y3752D01*
G01X12523Y3773D01*
G01X12556Y3795D01*
G01X12588Y3818D01*
G01X12619Y3843D01*
G01X12649Y3868D01*
G01X12678Y3896D01*
G01X12706Y3924D01*
G01X12733Y3953D01*
G01X12759Y3983D01*
G01X12783Y4015D01*
G01X12806Y4047D01*
G01X12828Y4080D01*
G01X12848Y4115D01*
G01X12867Y4149D01*
G01X12885Y4185D01*
G01X12901Y4221D01*
G01X12916Y4258D01*
G01X12929Y4296D01*
G01X12941Y4334D01*
G01X12951Y4373D01*
G01X12960Y4411D01*
G01X12967Y4451D01*
G01X12972Y4490D01*
G01X12976Y4530D01*
G01X12979Y4570D01*
G01X12980Y4610D01*
G01X12980Y4610D02*
G01X12979Y4649D01*
G01X12976Y4688D01*
G01X12972Y4728D01*
G01X12967Y4767D01*
G01X12960Y4806D01*
G01X12951Y4844D01*
G01X12941Y4882D01*
G01X12929Y4920D01*
G01X12916Y4957D01*
G01X12901Y4994D01*
G01X12885Y5030D01*
G01X12867Y5065D01*
G01X12848Y5100D01*
G01X12828Y5133D01*
G01X12806Y5166D01*
G01X12783Y5198D01*
G01X12759Y5229D01*
G01X12733Y5259D01*
G01X12706Y5288D01*
G01X12678Y5316D01*
G01X12649Y5343D01*
G01X12619Y5369D01*
G01X12588Y5393D01*
G01X12556Y5416D01*
G01X12523Y5438D01*
G01X12489Y5458D01*
G01X12455Y5477D01*
G01X12420Y5495D01*
G01X12384Y5511D01*
G01X12347Y5526D01*
G01X12310Y5539D01*
G01X12272Y5551D01*
G01X12234Y5561D01*
G01X12196Y5570D01*
G01X12157Y5577D01*
G01X12118Y5582D01*
G01X12078Y5586D01*
G01X12039Y5589D01*
G01X12000Y5590D01*
G01X12000Y5590D02*
G01X11960Y5589D01*
G01X11921Y5586D01*
G01X11881Y5582D01*
G01X11842Y5577D01*
G01X11803Y5570D01*
G01X11765Y5561D01*
G01X11727Y5551D01*
G01X11689Y5539D01*
G01X11652Y5526D01*
G01X11615Y5511D01*
G01X11579Y5495D01*
G01X11544Y5477D01*
G01X11509Y5458D01*
G01X11476Y5438D01*
G01X11443Y5416D01*
G01X11411Y5393D01*
G01X11380Y5369D01*
G01X11350Y5343D01*
G01X11321Y5316D01*
G01X11293Y5288D01*
G01X11266Y5259D01*
G01X11240Y5229D01*
G01X11216Y5198D01*
G01X11193Y5166D01*
G01X11171Y5133D01*
G01X11151Y5099D01*
G01X11132Y5065D01*
G01X11114Y5030D01*
G01X11098Y4994D01*
G01X11083Y4957D01*
G01X11070Y4920D01*
G01X11058Y4882D01*
G01X11048Y4844D01*
G01X11039Y4806D01*
G01X11032Y4767D01*
G01X11027Y4728D01*
G01X11023Y4688D01*
G01X11020Y4649D01*
G01X11020Y4610D01*
G01X11020Y4610D02*
G01X11020Y4570D01*
G01X11023Y4530D01*
G01X11027Y4490D01*
G01X11032Y4451D01*
G01X11039Y4411D01*
G01X11048Y4373D01*
G01X11058Y4334D01*
G01X11070Y4296D01*
G01X11083Y4258D01*
G01X11098Y4221D01*
G01X11114Y4185D01*
G01X11132Y4149D01*
G01X11151Y4114D01*
G01X11171Y4080D01*
G01X11193Y4047D01*
G01X11216Y4015D01*
G01X11240Y3983D01*
G01X11266Y3953D01*
G01X11293Y3924D01*
G01X11321Y3896D01*
G01X11350Y3868D01*
G01X11380Y3843D01*
G01X11411Y3818D01*
G01X11443Y3795D01*
G01X11476Y3773D01*
G01X11510Y3752D01*
G01X11544Y3733D01*
G01X11579Y3715D01*
G01X11615Y3699D01*
G01X11652Y3684D01*
G01X11689Y3670D01*
G01X11727Y3659D01*
G01X11765Y3648D01*
G01X11803Y3640D01*
G01X11842Y3632D01*
G01X11881Y3627D01*
G01X11921Y3623D01*
G01X11960Y3620D01*
G01X12000Y3620D01*
G04 draw reference designator for part C17*
G01X10590Y5318D02*
G01X10636Y5340D01*
G01X10545Y5272D02*
G01X10590Y5318D01*
G01X10522Y5227D02*
G01X10545Y5272D01*
G01X10522Y5136D02*
G01X10522Y5227D01*
G01X10522Y5136D02*
G01X10545Y5090D01*
G01X10545Y5090D02*
G01X10590Y5045D01*
G01X10590Y5045D02*
G01X10636Y5022D01*
G01X10636Y5022D02*
G01X10704Y5000D01*
G01X10704Y5000D02*
G01X10818Y5000D01*
G01X10818Y5000D02*
G01X10886Y5022D01*
G01X10886Y5022D02*
G01X10931Y5045D01*
G01X10931Y5045D02*
G01X10977Y5090D01*
G01X10977Y5090D02*
G01X11000Y5136D01*
G01X11000Y5227D02*
G01X11000Y5136D01*
G01X10977Y5272D02*
G01X11000Y5227D01*
G01X10931Y5318D02*
G01X10977Y5272D01*
G01X10886Y5340D02*
G01X10931Y5318D01*
G01X10590Y5568D02*
G01X10613Y5522D01*
G01X10522Y5636D02*
G01X10590Y5568D01*
G01X10522Y5636D02*
G01X11000Y5636D01*
G01X10522Y6136D02*
G01X11000Y5909D01*
G01X10522Y6136D02*
G01X10522Y5818D01*
G04 Draw part C18*
G04 draw part outline for part C18*
G01X15500Y8500D02*
G01X15500Y5500D01*
G01X15500Y5500D02*
G01X14500Y5500D01*
G01X14500Y5500D02*
G01X14500Y8500D01*
G01X14500Y8500D02*
G01X15500Y8500D01*
G04 draw reference designator for part C18*
G01X14590Y6318D02*
G01X14636Y6340D01*
G01X14545Y6272D02*
G01X14590Y6318D01*
G01X14522Y6227D02*
G01X14545Y6272D01*
G01X14522Y6136D02*
G01X14522Y6227D01*
G01X14522Y6136D02*
G01X14545Y6090D01*
G01X14545Y6090D02*
G01X14590Y6045D01*
G01X14590Y6045D02*
G01X14636Y6022D01*
G01X14636Y6022D02*
G01X14704Y6000D01*
G01X14704Y6000D02*
G01X14818Y6000D01*
G01X14818Y6000D02*
G01X14886Y6022D01*
G01X14886Y6022D02*
G01X14931Y6045D01*
G01X14931Y6045D02*
G01X14977Y6090D01*
G01X14977Y6090D02*
G01X15000Y6136D01*
G01X15000Y6227D02*
G01X15000Y6136D01*
G01X14977Y6272D02*
G01X15000Y6227D01*
G01X14931Y6318D02*
G01X14977Y6272D01*
G01X14886Y6340D02*
G01X14931Y6318D01*
G01X14590Y6568D02*
G01X14613Y6522D01*
G01X14522Y6636D02*
G01X14590Y6568D01*
G01X14522Y6636D02*
G01X15000Y6636D01*
G01X14522Y6931D02*
G01X14545Y6863D01*
G01X14545Y6863D02*
G01X14590Y6840D01*
G01X14590Y6840D02*
G01X14636Y6840D01*
G01X14636Y6840D02*
G01X14681Y6863D01*
G01X14681Y6863D02*
G01X14704Y6909D01*
G01X14704Y6909D02*
G01X14727Y7000D01*
G01X14727Y7000D02*
G01X14750Y7068D01*
G01X14750Y7068D02*
G01X14795Y7113D01*
G01X14795Y7113D02*
G01X14840Y7136D01*
G01X14840Y7136D02*
G01X14909Y7136D01*
G01X14909Y7136D02*
G01X14954Y7113D01*
G01X14954Y7113D02*
G01X14977Y7090D01*
G01X14977Y7090D02*
G01X15000Y7022D01*
G01X15000Y6931D02*
G01X15000Y7022D01*
G01X14977Y6863D02*
G01X15000Y6931D01*
G01X14954Y6840D02*
G01X14977Y6863D01*
G01X14909Y6818D02*
G01X14954Y6840D01*
G01X14840Y6818D02*
G01X14909Y6818D01*
G01X14795Y6840D02*
G01X14840Y6818D01*
G01X14750Y6886D02*
G01X14795Y6840D01*
G01X14727Y6954D02*
G01X14750Y6886D01*
G01X14704Y7045D02*
G01X14727Y6954D01*
G01X14681Y7090D02*
G01X14704Y7045D01*
G01X14636Y7113D02*
G01X14681Y7090D01*
G01X14590Y7113D02*
G01X14636Y7113D01*
G01X14545Y7090D02*
G01X14590Y7113D01*
G01X14522Y7022D02*
G01X14545Y7090D01*
G01X14522Y6931D02*
G01X14522Y7022D01*
G04 Draw part R12*
G04 draw part outline for part R12*
G01X8500Y15250D02*
G01X8500Y12750D01*
G01X8500Y12750D02*
G01X7500Y12750D01*
G01X7500Y12750D02*
G01X7500Y15250D01*
G01X7500Y15250D02*
G01X8500Y15250D01*
G04 draw reference designator for part R12*
G01X8477Y15000D02*
G01X8000Y15000D01*
G01X8477Y14795D02*
G01X8477Y15000D01*
G01X8477Y14795D02*
G01X8454Y14727D01*
G01X8454Y14727D02*
G01X8431Y14704D01*
G01X8431Y14704D02*
G01X8386Y14681D01*
G01X8386Y14681D02*
G01X8340Y14681D01*
G01X8340Y14681D02*
G01X8295Y14704D01*
G01X8295Y14704D02*
G01X8272Y14727D01*
G01X8272Y14727D02*
G01X8250Y14795D01*
G01X8250Y15000D02*
G01X8250Y14795D01*
G01X8250Y14840D02*
G01X8000Y14681D01*
G01X8409Y14454D02*
G01X8386Y14500D01*
G01X8477Y14386D02*
G01X8409Y14454D01*
G01X8477Y14386D02*
G01X8000Y14386D01*
G01X8386Y14181D02*
G01X8363Y14181D01*
G01X8431Y14159D02*
G01X8386Y14181D01*
G01X8454Y14136D02*
G01X8431Y14159D01*
G01X8477Y14090D02*
G01X8454Y14136D01*
G01X8477Y14000D02*
G01X8477Y14090D01*
G01X8477Y14000D02*
G01X8454Y13954D01*
G01X8454Y13954D02*
G01X8431Y13931D01*
G01X8431Y13931D02*
G01X8386Y13909D01*
G01X8386Y13909D02*
G01X8340Y13909D01*
G01X8340Y13909D02*
G01X8295Y13931D01*
G01X8295Y13931D02*
G01X8227Y13977D01*
G01X8227Y13977D02*
G01X8000Y14204D01*
G01X8000Y13886D02*
G01X8000Y14204D01*
G04 Draw part J2*
G04 draw part outline for part J2*
G01X-2500Y7500D02*
G01X-2500Y3500D01*
G01X-2500Y3500D02*
G01X-3500Y3500D01*
G01X-3500Y3500D02*
G01X-3500Y7500D01*
G01X-3500Y7500D02*
G01X-2500Y7500D01*
G04 draw reference designator for part J2*
G01X-4477Y5227D02*
G01X-4113Y5227D01*
G01X-4113Y5227D02*
G01X-4045Y5204D01*
G01X-4045Y5204D02*
G01X-4022Y5181D01*
G01X-4022Y5181D02*
G01X-4000Y5136D01*
G01X-4000Y5090D02*
G01X-4000Y5136D01*
G01X-4022Y5045D02*
G01X-4000Y5090D01*
G01X-4045Y5022D02*
G01X-4022Y5045D01*
G01X-4113Y5000D02*
G01X-4045Y5022D01*
G01X-4159Y5000D02*
G01X-4113Y5000D01*
G01X-4386Y5431D02*
G01X-4363Y5431D01*
G01X-4431Y5454D02*
G01X-4386Y5431D01*
G01X-4454Y5477D02*
G01X-4431Y5454D01*
G01X-4477Y5522D02*
G01X-4454Y5477D01*
G01X-4477Y5613D02*
G01X-4477Y5522D01*
G01X-4477Y5613D02*
G01X-4454Y5659D01*
G01X-4454Y5659D02*
G01X-4431Y5681D01*
G01X-4431Y5681D02*
G01X-4386Y5704D01*
G01X-4386Y5704D02*
G01X-4340Y5704D01*
G01X-4340Y5704D02*
G01X-4295Y5681D01*
G01X-4295Y5681D02*
G01X-4227Y5636D01*
G01X-4227Y5636D02*
G01X-4000Y5409D01*
G01X-4000Y5727D02*
G01X-4000Y5409D01*
G04 Draw part J3*
G04 draw part outline for part J3*
G01X9500Y7500D02*
G01X9500Y3500D01*
G01X9500Y3500D02*
G01X8500Y3500D01*
G01X8500Y3500D02*
G01X8500Y7500D01*
G01X8500Y7500D02*
G01X9500Y7500D01*
G04 draw reference designator for part J3*
G01X7522Y5227D02*
G01X7886Y5227D01*
G01X7886Y5227D02*
G01X7954Y5204D01*
G01X7954Y5204D02*
G01X7977Y5181D01*
G01X7977Y5181D02*
G01X8000Y5136D01*
G01X8000Y5090D02*
G01X8000Y5136D01*
G01X7977Y5045D02*
G01X8000Y5090D01*
G01X7954Y5022D02*
G01X7977Y5045D01*
G01X7886Y5000D02*
G01X7954Y5022D01*
G01X7840Y5000D02*
G01X7886Y5000D01*
G01X7522Y5704D02*
G01X7522Y5454D01*
G01X7522Y5704D02*
G01X7704Y5568D01*
G01X7704Y5636D02*
G01X7704Y5568D01*
G01X7704Y5636D02*
G01X7727Y5681D01*
G01X7727Y5681D02*
G01X7750Y5704D01*
G01X7750Y5704D02*
G01X7818Y5727D01*
G01X7818Y5727D02*
G01X7863Y5727D01*
G01X7863Y5727D02*
G01X7931Y5704D01*
G01X7931Y5704D02*
G01X7977Y5659D01*
G01X7977Y5659D02*
G01X8000Y5590D01*
G01X8000Y5522D02*
G01X8000Y5590D01*
G01X7977Y5454D02*
G01X8000Y5522D01*
G01X7954Y5431D02*
G01X7977Y5454D01*
G01X7909Y5409D02*
G01X7954Y5431D01*
G04 Draw part C14*
G04 draw part outline for part C14*
G01X-500Y9500D02*
G01X2500Y9500D01*
G01X2500Y9500D02*
G01X2500Y8500D01*
G01X2500Y8500D02*
G01X-500Y8500D01*
G01X-500Y8500D02*
G01X-500Y9500D01*
G04 draw reference designator for part C14*
G01X1318Y7909D02*
G01X1340Y7863D01*
G01X1272Y7954D02*
G01X1318Y7909D01*
G01X1227Y7977D02*
G01X1272Y7954D01*
G01X1136Y7977D02*
G01X1227Y7977D01*
G01X1136Y7977D02*
G01X1090Y7954D01*
G01X1090Y7954D02*
G01X1045Y7909D01*
G01X1045Y7909D02*
G01X1022Y7863D01*
G01X1022Y7863D02*
G01X1000Y7795D01*
G01X1000Y7795D02*
G01X1000Y7681D01*
G01X1000Y7681D02*
G01X1022Y7613D01*
G01X1022Y7613D02*
G01X1045Y7568D01*
G01X1045Y7568D02*
G01X1090Y7522D01*
G01X1090Y7522D02*
G01X1136Y7500D01*
G01X1227Y7500D02*
G01X1136Y7500D01*
G01X1272Y7522D02*
G01X1227Y7500D01*
G01X1318Y7568D02*
G01X1272Y7522D01*
G01X1340Y7613D02*
G01X1318Y7568D01*
G01X1568Y7909D02*
G01X1522Y7886D01*
G01X1636Y7977D02*
G01X1568Y7909D01*
G01X1636Y7977D02*
G01X1636Y7500D01*
G01X2045Y7977D02*
G01X1818Y7659D01*
G01X2159Y7659D02*
G01X1818Y7659D01*
G01X2045Y7977D02*
G01X2045Y7500D01*
G04 Draw part U3*
G04 draw part outline for part U3*
G01X1500Y-4500D02*
G01X8500Y-4500D01*
G01X8500Y-4500D02*
G01X8500Y-2500D01*
G01X8500Y-2500D02*
G01X1500Y-2500D01*
G01X1500Y-2500D02*
G01X1500Y-4500D01*
G01X1500Y-4000D02*
G01X2000Y-4000D01*
G01X2000Y-4000D02*
G01X2000Y-3000D01*
G01X2000Y-3000D02*
G01X1500Y-3000D01*
G01X1500Y-3000D02*
G01X1500Y-4000D01*
G04 draw reference designator for part U3*
G01X522Y-3500D02*
G01X863Y-3500D01*
G01X863Y-3500D02*
G01X931Y-3477D01*
G01X931Y-3477D02*
G01X977Y-3431D01*
G01X977Y-3431D02*
G01X1000Y-3363D01*
G01X1000Y-3318D02*
G01X1000Y-3363D01*
G01X977Y-3250D02*
G01X1000Y-3318D01*
G01X931Y-3204D02*
G01X977Y-3250D01*
G01X863Y-3181D02*
G01X931Y-3204D01*
G01X522Y-3181D02*
G01X863Y-3181D01*
G01X522Y-2704D02*
G01X522Y-2954D01*
G01X522Y-2704D02*
G01X704Y-2840D01*
G01X704Y-2772D02*
G01X704Y-2840D01*
G01X704Y-2772D02*
G01X727Y-2727D01*
G01X727Y-2727D02*
G01X750Y-2704D01*
G01X750Y-2704D02*
G01X818Y-2681D01*
G01X818Y-2681D02*
G01X863Y-2681D01*
G01X863Y-2681D02*
G01X931Y-2704D01*
G01X931Y-2704D02*
G01X977Y-2750D01*
G01X977Y-2750D02*
G01X1000Y-2818D01*
G01X1000Y-2886D02*
G01X1000Y-2818D01*
G01X977Y-2954D02*
G01X1000Y-2886D01*
G01X954Y-2977D02*
G01X977Y-2954D01*
G01X909Y-3000D02*
G01X954Y-2977D01*
G04 Draw part R20*
G04 draw part outline for part R20*
G01X7500Y-7750D02*
G01X7500Y-10250D01*
G01X7500Y-10250D02*
G01X6500Y-10250D01*
G01X6500Y-10250D02*
G01X6500Y-7750D01*
G01X6500Y-7750D02*
G01X7500Y-7750D01*
G04 draw reference designator for part R20*
G01X7477Y-9000D02*
G01X7000Y-9000D01*
G01X7477Y-9204D02*
G01X7477Y-9000D01*
G01X7477Y-9204D02*
G01X7454Y-9272D01*
G01X7454Y-9272D02*
G01X7431Y-9295D01*
G01X7431Y-9295D02*
G01X7386Y-9318D01*
G01X7386Y-9318D02*
G01X7340Y-9318D01*
G01X7340Y-9318D02*
G01X7295Y-9295D01*
G01X7295Y-9295D02*
G01X7272Y-9272D01*
G01X7272Y-9272D02*
G01X7250Y-9204D01*
G01X7250Y-9000D02*
G01X7250Y-9204D01*
G01X7250Y-9159D02*
G01X7000Y-9318D01*
G01X7386Y-9522D02*
G01X7363Y-9522D01*
G01X7431Y-9545D02*
G01X7386Y-9522D01*
G01X7454Y-9568D02*
G01X7431Y-9545D01*
G01X7477Y-9613D02*
G01X7454Y-9568D01*
G01X7477Y-9704D02*
G01X7477Y-9613D01*
G01X7477Y-9704D02*
G01X7454Y-9750D01*
G01X7454Y-9750D02*
G01X7431Y-9772D01*
G01X7431Y-9772D02*
G01X7386Y-9795D01*
G01X7386Y-9795D02*
G01X7340Y-9795D01*
G01X7340Y-9795D02*
G01X7295Y-9772D01*
G01X7295Y-9772D02*
G01X7227Y-9727D01*
G01X7227Y-9727D02*
G01X7000Y-9500D01*
G01X7000Y-9818D02*
G01X7000Y-9500D01*
G01X7477Y-10136D02*
G01X7454Y-10068D01*
G01X7454Y-10068D02*
G01X7386Y-10022D01*
G01X7386Y-10022D02*
G01X7272Y-10000D01*
G01X7272Y-10000D02*
G01X7204Y-10000D01*
G01X7204Y-10000D02*
G01X7090Y-10022D01*
G01X7090Y-10022D02*
G01X7022Y-10068D01*
G01X7022Y-10068D02*
G01X7000Y-10136D01*
G01X7000Y-10181D02*
G01X7000Y-10136D01*
G01X7022Y-10250D02*
G01X7000Y-10181D01*
G01X7090Y-10295D02*
G01X7022Y-10250D01*
G01X7204Y-10318D02*
G01X7090Y-10295D01*
G01X7272Y-10318D02*
G01X7204Y-10318D01*
G01X7386Y-10295D02*
G01X7272Y-10318D01*
G01X7454Y-10250D02*
G01X7386Y-10295D01*
G01X7477Y-10181D02*
G01X7454Y-10250D01*
G01X7477Y-10136D02*
G01X7477Y-10181D01*
G04 Draw part C21*
G04 draw part outline for part C21*
G01X-500Y-5500D02*
G01X-500Y-2500D01*
G01X-500Y-2500D02*
G01X500Y-2500D01*
G01X500Y-2500D02*
G01X500Y-5500D01*
G01X500Y-5500D02*
G01X-500Y-5500D01*
G04 draw reference designator for part C21*
G01X-1209Y-3681D02*
G01X-1163Y-3659D01*
G01X-1254Y-3727D02*
G01X-1209Y-3681D01*
G01X-1277Y-3772D02*
G01X-1254Y-3727D01*
G01X-1277Y-3863D02*
G01X-1277Y-3772D01*
G01X-1277Y-3863D02*
G01X-1254Y-3909D01*
G01X-1254Y-3909D02*
G01X-1209Y-3954D01*
G01X-1209Y-3954D02*
G01X-1163Y-3977D01*
G01X-1163Y-3977D02*
G01X-1095Y-4000D01*
G01X-1095Y-4000D02*
G01X-981Y-4000D01*
G01X-981Y-4000D02*
G01X-913Y-3977D01*
G01X-913Y-3977D02*
G01X-868Y-3954D01*
G01X-868Y-3954D02*
G01X-822Y-3909D01*
G01X-822Y-3909D02*
G01X-800Y-3863D01*
G01X-800Y-3772D02*
G01X-800Y-3863D01*
G01X-822Y-3727D02*
G01X-800Y-3772D01*
G01X-868Y-3681D02*
G01X-822Y-3727D01*
G01X-913Y-3659D02*
G01X-868Y-3681D01*
G01X-1186Y-3454D02*
G01X-1163Y-3454D01*
G01X-1231Y-3431D02*
G01X-1186Y-3454D01*
G01X-1254Y-3409D02*
G01X-1231Y-3431D01*
G01X-1277Y-3363D02*
G01X-1254Y-3409D01*
G01X-1277Y-3272D02*
G01X-1277Y-3363D01*
G01X-1277Y-3272D02*
G01X-1254Y-3227D01*
G01X-1254Y-3227D02*
G01X-1231Y-3204D01*
G01X-1231Y-3204D02*
G01X-1186Y-3181D01*
G01X-1186Y-3181D02*
G01X-1140Y-3181D01*
G01X-1140Y-3181D02*
G01X-1095Y-3204D01*
G01X-1095Y-3204D02*
G01X-1027Y-3250D01*
G01X-1027Y-3250D02*
G01X-800Y-3477D01*
G01X-800Y-3159D02*
G01X-800Y-3477D01*
G01X-1209Y-2931D02*
G01X-1186Y-2977D01*
G01X-1277Y-2863D02*
G01X-1209Y-2931D01*
G01X-1277Y-2863D02*
G01X-800Y-2863D01*
G04 Draw part J6*
G04 draw part outline for part J6*
G04 draw reference designator for part J6*
G01X-3522Y-5227D02*
G01X-3886Y-5227D01*
G01X-3886Y-5227D02*
G01X-3954Y-5204D01*
G01X-3954Y-5204D02*
G01X-3977Y-5181D01*
G01X-3977Y-5181D02*
G01X-4000Y-5136D01*
G01X-4000Y-5090D02*
G01X-4000Y-5136D01*
G01X-3977Y-5045D02*
G01X-4000Y-5090D01*
G01X-3954Y-5022D02*
G01X-3977Y-5045D01*
G01X-3886Y-5000D02*
G01X-3954Y-5022D01*
G01X-3840Y-5000D02*
G01X-3886Y-5000D01*
G01X-3545Y-5659D02*
G01X-3590Y-5681D01*
G01X-3522Y-5590D02*
G01X-3545Y-5659D01*
G01X-3522Y-5545D02*
G01X-3522Y-5590D01*
G01X-3522Y-5545D02*
G01X-3545Y-5477D01*
G01X-3545Y-5477D02*
G01X-3613Y-5431D01*
G01X-3613Y-5431D02*
G01X-3727Y-5409D01*
G01X-3727Y-5409D02*
G01X-3840Y-5409D01*
G01X-3840Y-5409D02*
G01X-3931Y-5431D01*
G01X-3931Y-5431D02*
G01X-3977Y-5477D01*
G01X-3977Y-5477D02*
G01X-4000Y-5545D01*
G01X-4000Y-5568D02*
G01X-4000Y-5545D01*
G01X-3977Y-5636D02*
G01X-4000Y-5568D01*
G01X-3931Y-5681D02*
G01X-3977Y-5636D01*
G01X-3863Y-5704D02*
G01X-3931Y-5681D01*
G01X-3840Y-5704D02*
G01X-3863Y-5704D01*
G01X-3772Y-5681D02*
G01X-3840Y-5704D01*
G01X-3727Y-5636D02*
G01X-3772Y-5681D01*
G01X-3704Y-5568D02*
G01X-3727Y-5636D01*
G01X-3704Y-5545D02*
G01X-3704Y-5568D01*
G01X-3704Y-5545D02*
G01X-3727Y-5477D01*
G01X-3727Y-5477D02*
G01X-3772Y-5431D01*
G01X-3772Y-5431D02*
G01X-3840Y-5409D01*
G04 Draw part J4*
G04 draw part outline for part J4*
G04 draw reference designator for part J4*
G01X-3522Y-4227D02*
G01X-3886Y-4227D01*
G01X-3886Y-4227D02*
G01X-3954Y-4204D01*
G01X-3954Y-4204D02*
G01X-3977Y-4181D01*
G01X-3977Y-4181D02*
G01X-4000Y-4136D01*
G01X-4000Y-4090D02*
G01X-4000Y-4136D01*
G01X-3977Y-4045D02*
G01X-4000Y-4090D01*
G01X-3954Y-4022D02*
G01X-3977Y-4045D01*
G01X-3886Y-4000D02*
G01X-3954Y-4022D01*
G01X-3840Y-4000D02*
G01X-3886Y-4000D01*
G01X-3522Y-4636D02*
G01X-3840Y-4409D01*
G01X-3840Y-4750D02*
G01X-3840Y-4409D01*
G01X-3522Y-4636D02*
G01X-4000Y-4636D01*
G04 Draw part R17*
G04 draw part outline for part R17*
G01X5250Y-500D02*
G01X2750Y-500D01*
G01X2750Y-500D02*
G01X2750Y500D01*
G01X2750Y500D02*
G01X5250Y500D01*
G01X5250Y500D02*
G01X5250Y-500D01*
G04 draw reference designator for part R17*
G01X3000Y477D02*
G01X3000Y0D01*
G01X3204Y477D02*
G01X3000Y477D01*
G01X3204Y477D02*
G01X3272Y454D01*
G01X3272Y454D02*
G01X3295Y431D01*
G01X3295Y431D02*
G01X3318Y386D01*
G01X3318Y386D02*
G01X3318Y340D01*
G01X3318Y340D02*
G01X3295Y295D01*
G01X3295Y295D02*
G01X3272Y272D01*
G01X3272Y272D02*
G01X3204Y250D01*
G01X3000Y250D02*
G01X3204Y250D01*
G01X3159Y250D02*
G01X3318Y0D01*
G01X3545Y409D02*
G01X3500Y386D01*
G01X3613Y477D02*
G01X3545Y409D01*
G01X3613Y477D02*
G01X3613Y0D01*
G01X4113Y477D02*
G01X3886Y0D01*
G01X4113Y477D02*
G01X3795Y477D01*
G04 Draw part R18*
G04 draw part outline for part R18*
G01X5750Y2500D02*
G01X8250Y2500D01*
G01X8250Y2500D02*
G01X8250Y1500D01*
G01X8250Y1500D02*
G01X5750Y1500D01*
G01X5750Y1500D02*
G01X5750Y2500D01*
G04 draw reference designator for part R18*
G01X6000Y2477D02*
G01X6000Y2000D01*
G01X6204Y2477D02*
G01X6000Y2477D01*
G01X6204Y2477D02*
G01X6272Y2454D01*
G01X6272Y2454D02*
G01X6295Y2431D01*
G01X6295Y2431D02*
G01X6318Y2386D01*
G01X6318Y2386D02*
G01X6318Y2340D01*
G01X6318Y2340D02*
G01X6295Y2295D01*
G01X6295Y2295D02*
G01X6272Y2272D01*
G01X6272Y2272D02*
G01X6204Y2250D01*
G01X6000Y2250D02*
G01X6204Y2250D01*
G01X6159Y2250D02*
G01X6318Y2000D01*
G01X6545Y2409D02*
G01X6500Y2386D01*
G01X6613Y2477D02*
G01X6545Y2409D01*
G01X6613Y2477D02*
G01X6613Y2000D01*
G01X6909Y2477D02*
G01X6840Y2454D01*
G01X6840Y2454D02*
G01X6818Y2409D01*
G01X6818Y2409D02*
G01X6818Y2363D01*
G01X6818Y2363D02*
G01X6840Y2318D01*
G01X6840Y2318D02*
G01X6886Y2295D01*
G01X6886Y2295D02*
G01X6977Y2272D01*
G01X6977Y2272D02*
G01X7045Y2250D01*
G01X7045Y2250D02*
G01X7090Y2204D01*
G01X7090Y2204D02*
G01X7113Y2159D01*
G01X7113Y2159D02*
G01X7113Y2090D01*
G01X7113Y2090D02*
G01X7090Y2045D01*
G01X7090Y2045D02*
G01X7068Y2022D01*
G01X7068Y2022D02*
G01X7000Y2000D01*
G01X6909Y2000D02*
G01X7000Y2000D01*
G01X6840Y2022D02*
G01X6909Y2000D01*
G01X6818Y2045D02*
G01X6840Y2022D01*
G01X6795Y2090D02*
G01X6818Y2045D01*
G01X6795Y2159D02*
G01X6795Y2090D01*
G01X6818Y2204D02*
G01X6795Y2159D01*
G01X6863Y2250D02*
G01X6818Y2204D01*
G01X6931Y2272D02*
G01X6863Y2250D01*
G01X7022Y2295D02*
G01X6931Y2272D01*
G01X7068Y2318D02*
G01X7022Y2295D01*
G01X7090Y2363D02*
G01X7068Y2318D01*
G01X7090Y2409D02*
G01X7090Y2363D01*
G01X7068Y2454D02*
G01X7090Y2409D01*
G01X7000Y2477D02*
G01X7068Y2454D01*
G01X6909Y2477D02*
G01X7000Y2477D01*
G04 Draw part R16*
G04 draw part outline for part R16*
G01X10500Y-1750D02*
G01X10500Y-4250D01*
G01X10500Y-4250D02*
G01X9500Y-4250D01*
G01X9500Y-4250D02*
G01X9500Y-1750D01*
G01X9500Y-1750D02*
G01X10500Y-1750D01*
G04 draw reference designator for part R16*
G01X10477Y-3000D02*
G01X10000Y-3000D01*
G01X10477Y-3204D02*
G01X10477Y-3000D01*
G01X10477Y-3204D02*
G01X10454Y-3272D01*
G01X10454Y-3272D02*
G01X10431Y-3295D01*
G01X10431Y-3295D02*
G01X10386Y-3318D01*
G01X10386Y-3318D02*
G01X10340Y-3318D01*
G01X10340Y-3318D02*
G01X10295Y-3295D01*
G01X10295Y-3295D02*
G01X10272Y-3272D01*
G01X10272Y-3272D02*
G01X10250Y-3204D01*
G01X10250Y-3000D02*
G01X10250Y-3204D01*
G01X10250Y-3159D02*
G01X10000Y-3318D01*
G01X10409Y-3545D02*
G01X10386Y-3500D01*
G01X10477Y-3613D02*
G01X10409Y-3545D01*
G01X10477Y-3613D02*
G01X10000Y-3613D01*
G01X10454Y-4045D02*
G01X10409Y-4068D01*
G01X10477Y-3977D02*
G01X10454Y-4045D01*
G01X10477Y-3931D02*
G01X10477Y-3977D01*
G01X10477Y-3931D02*
G01X10454Y-3863D01*
G01X10454Y-3863D02*
G01X10386Y-3818D01*
G01X10386Y-3818D02*
G01X10272Y-3795D01*
G01X10272Y-3795D02*
G01X10159Y-3795D01*
G01X10159Y-3795D02*
G01X10068Y-3818D01*
G01X10068Y-3818D02*
G01X10022Y-3863D01*
G01X10022Y-3863D02*
G01X10000Y-3931D01*
G01X10000Y-3954D02*
G01X10000Y-3931D01*
G01X10022Y-4022D02*
G01X10000Y-3954D01*
G01X10068Y-4068D02*
G01X10022Y-4022D01*
G01X10136Y-4090D02*
G01X10068Y-4068D01*
G01X10159Y-4090D02*
G01X10136Y-4090D01*
G01X10227Y-4068D02*
G01X10159Y-4090D01*
G01X10272Y-4022D02*
G01X10227Y-4068D01*
G01X10295Y-3954D02*
G01X10272Y-4022D01*
G01X10295Y-3931D02*
G01X10295Y-3954D01*
G01X10295Y-3931D02*
G01X10272Y-3863D01*
G01X10272Y-3863D02*
G01X10227Y-3818D01*
G01X10227Y-3818D02*
G01X10159Y-3795D01*
G04 Draw part R19*
G04 draw part outline for part R19*
G01X11500Y-1750D02*
G01X11500Y-4250D01*
G01X11500Y-4250D02*
G01X10500Y-4250D01*
G01X10500Y-4250D02*
G01X10500Y-1750D01*
G01X10500Y-1750D02*
G01X11500Y-1750D01*
G04 draw reference designator for part R19*
G01X11477Y-3000D02*
G01X11000Y-3000D01*
G01X11477Y-3204D02*
G01X11477Y-3000D01*
G01X11477Y-3204D02*
G01X11454Y-3272D01*
G01X11454Y-3272D02*
G01X11431Y-3295D01*
G01X11431Y-3295D02*
G01X11386Y-3318D01*
G01X11386Y-3318D02*
G01X11340Y-3318D01*
G01X11340Y-3318D02*
G01X11295Y-3295D01*
G01X11295Y-3295D02*
G01X11272Y-3272D01*
G01X11272Y-3272D02*
G01X11250Y-3204D01*
G01X11250Y-3000D02*
G01X11250Y-3204D01*
G01X11250Y-3159D02*
G01X11000Y-3318D01*
G01X11409Y-3545D02*
G01X11386Y-3500D01*
G01X11477Y-3613D02*
G01X11409Y-3545D01*
G01X11477Y-3613D02*
G01X11000Y-3613D01*
G01X11318Y-4090D02*
G01X11250Y-4068D01*
G01X11250Y-4068D02*
G01X11204Y-4022D01*
G01X11204Y-4022D02*
G01X11181Y-3954D01*
G01X11181Y-3931D02*
G01X11181Y-3954D01*
G01X11204Y-3863D02*
G01X11181Y-3931D01*
G01X11250Y-3818D02*
G01X11204Y-3863D01*
G01X11318Y-3795D02*
G01X11250Y-3818D01*
G01X11340Y-3795D02*
G01X11318Y-3795D01*
G01X11409Y-3818D02*
G01X11340Y-3795D01*
G01X11454Y-3863D02*
G01X11409Y-3818D01*
G01X11477Y-3931D02*
G01X11454Y-3863D01*
G01X11477Y-3954D02*
G01X11477Y-3931D01*
G01X11477Y-3954D02*
G01X11454Y-4022D01*
G01X11454Y-4022D02*
G01X11409Y-4068D01*
G01X11409Y-4068D02*
G01X11318Y-4090D01*
G01X11318Y-4090D02*
G01X11204Y-4090D01*
G01X11204Y-4090D02*
G01X11090Y-4068D01*
G01X11090Y-4068D02*
G01X11022Y-4022D01*
G01X11022Y-4022D02*
G01X11000Y-3954D01*
G01X11000Y-3909D02*
G01X11000Y-3954D01*
G01X11022Y-3840D02*
G01X11000Y-3909D01*
G01X11068Y-3818D02*
G01X11022Y-3840D01*
G04 Draw part R15*
G04 draw part outline for part R15*
G01X6500Y-7750D02*
G01X6500Y-10250D01*
G01X6500Y-10250D02*
G01X5500Y-10250D01*
G01X5500Y-10250D02*
G01X5500Y-7750D01*
G01X5500Y-7750D02*
G01X6500Y-7750D01*
G04 draw reference designator for part R15*
G01X5522Y-10000D02*
G01X6000Y-10000D01*
G01X5522Y-9795D02*
G01X5522Y-10000D01*
G01X5522Y-9795D02*
G01X5545Y-9727D01*
G01X5545Y-9727D02*
G01X5568Y-9704D01*
G01X5568Y-9704D02*
G01X5613Y-9681D01*
G01X5613Y-9681D02*
G01X5659Y-9681D01*
G01X5659Y-9681D02*
G01X5704Y-9704D01*
G01X5704Y-9704D02*
G01X5727Y-9727D01*
G01X5727Y-9727D02*
G01X5750Y-9795D01*
G01X5750Y-10000D02*
G01X5750Y-9795D01*
G01X5750Y-9840D02*
G01X6000Y-9681D01*
G01X5590Y-9454D02*
G01X5613Y-9500D01*
G01X5522Y-9386D02*
G01X5590Y-9454D01*
G01X5522Y-9386D02*
G01X6000Y-9386D01*
G01X5522Y-9159D02*
G01X5522Y-8931D01*
G01X5522Y-9159D02*
G01X5727Y-9181D01*
G01X5704Y-9159D02*
G01X5727Y-9181D01*
G01X5681Y-9090D02*
G01X5704Y-9159D01*
G01X5681Y-9022D02*
G01X5681Y-9090D01*
G01X5681Y-9022D02*
G01X5704Y-8954D01*
G01X5704Y-8954D02*
G01X5750Y-8909D01*
G01X5750Y-8909D02*
G01X5818Y-8886D01*
G01X5818Y-8886D02*
G01X5863Y-8886D01*
G01X5863Y-8886D02*
G01X5931Y-8909D01*
G01X5931Y-8909D02*
G01X5977Y-8954D01*
G01X5977Y-8954D02*
G01X6000Y-9022D01*
G01X6000Y-9090D02*
G01X6000Y-9022D01*
G01X5977Y-9159D02*
G01X6000Y-9090D01*
G01X5954Y-9181D02*
G01X5977Y-9159D01*
G01X5909Y-9204D02*
G01X5954Y-9181D01*
G04 Draw part J5*
G04 draw part outline for part J5*
G04 draw reference designator for part J5*
G01X-3522Y-3227D02*
G01X-3886Y-3227D01*
G01X-3886Y-3227D02*
G01X-3954Y-3204D01*
G01X-3954Y-3204D02*
G01X-3977Y-3181D01*
G01X-3977Y-3181D02*
G01X-4000Y-3136D01*
G01X-4000Y-3090D02*
G01X-4000Y-3136D01*
G01X-3977Y-3045D02*
G01X-4000Y-3090D01*
G01X-3954Y-3022D02*
G01X-3977Y-3045D01*
G01X-3886Y-3000D02*
G01X-3954Y-3022D01*
G01X-3840Y-3000D02*
G01X-3886Y-3000D01*
G01X-3522Y-3454D02*
G01X-3522Y-3681D01*
G01X-3522Y-3454D02*
G01X-3727Y-3431D01*
G01X-3704Y-3454D02*
G01X-3727Y-3431D01*
G01X-3681Y-3522D02*
G01X-3704Y-3454D01*
G01X-3681Y-3590D02*
G01X-3681Y-3522D01*
G01X-3681Y-3590D02*
G01X-3704Y-3659D01*
G01X-3704Y-3659D02*
G01X-3750Y-3704D01*
G01X-3750Y-3704D02*
G01X-3818Y-3727D01*
G01X-3818Y-3727D02*
G01X-3863Y-3727D01*
G01X-3863Y-3727D02*
G01X-3931Y-3704D01*
G01X-3931Y-3704D02*
G01X-3977Y-3659D01*
G01X-3977Y-3659D02*
G01X-4000Y-3590D01*
G01X-4000Y-3522D02*
G01X-4000Y-3590D01*
G01X-3977Y-3454D02*
G01X-4000Y-3522D01*
G01X-3954Y-3431D02*
G01X-3977Y-3454D01*
G01X-3909Y-3409D02*
G01X-3954Y-3431D01*
G04 Draw part R14*
G04 draw part outline for part R14*
G01X13500Y-1750D02*
G01X13500Y-4250D01*
G01X13500Y-4250D02*
G01X12500Y-4250D01*
G01X12500Y-4250D02*
G01X12500Y-1750D01*
G01X12500Y-1750D02*
G01X13500Y-1750D01*
G04 draw reference designator for part R14*
G01X15000Y-3522D02*
G01X15000Y-4000D01*
G01X15204Y-3522D02*
G01X15000Y-3522D01*
G01X15204Y-3522D02*
G01X15272Y-3545D01*
G01X15272Y-3545D02*
G01X15295Y-3568D01*
G01X15295Y-3568D02*
G01X15318Y-3613D01*
G01X15318Y-3613D02*
G01X15318Y-3659D01*
G01X15318Y-3659D02*
G01X15295Y-3704D01*
G01X15295Y-3704D02*
G01X15272Y-3727D01*
G01X15272Y-3727D02*
G01X15204Y-3750D01*
G01X15000Y-3750D02*
G01X15204Y-3750D01*
G01X15159Y-3750D02*
G01X15318Y-4000D01*
G01X15545Y-3590D02*
G01X15500Y-3613D01*
G01X15613Y-3522D02*
G01X15545Y-3590D01*
G01X15613Y-3522D02*
G01X15613Y-4000D01*
G01X16022Y-3522D02*
G01X15795Y-3840D01*
G01X16136Y-3840D02*
G01X15795Y-3840D01*
G01X16022Y-3522D02*
G01X16022Y-4000D01*
G04 Draw part J7*
G04 draw part outline for part J7*
G04 draw reference designator for part J7*
G01X-7077Y-2772D02*
G01X-6713Y-2772D01*
G01X-6713Y-2772D02*
G01X-6645Y-2795D01*
G01X-6645Y-2795D02*
G01X-6622Y-2818D01*
G01X-6622Y-2818D02*
G01X-6600Y-2863D01*
G01X-6600Y-2909D02*
G01X-6600Y-2863D01*
G01X-6622Y-2954D02*
G01X-6600Y-2909D01*
G01X-6645Y-2977D02*
G01X-6622Y-2954D01*
G01X-6713Y-3000D02*
G01X-6645Y-2977D01*
G01X-6759Y-3000D02*
G01X-6713Y-3000D01*
G01X-7077Y-2272D02*
G01X-6600Y-2500D01*
G01X-7077Y-2272D02*
G01X-7077Y-2590D01*
G04 Draw part R24*
G04 draw part outline for part R24*
G01X1500Y-10250D02*
G01X1500Y-7750D01*
G01X1500Y-7750D02*
G01X2500Y-7750D01*
G01X2500Y-7750D02*
G01X2500Y-10250D01*
G01X2500Y-10250D02*
G01X1500Y-10250D01*
G04 draw reference designator for part R24*
G01X542Y-9000D02*
G01X1020Y-9000D01*
G01X542Y-8795D02*
G01X542Y-9000D01*
G01X542Y-8795D02*
G01X565Y-8727D01*
G01X565Y-8727D02*
G01X588Y-8704D01*
G01X588Y-8704D02*
G01X633Y-8681D01*
G01X633Y-8681D02*
G01X679Y-8681D01*
G01X679Y-8681D02*
G01X724Y-8704D01*
G01X724Y-8704D02*
G01X747Y-8727D01*
G01X747Y-8727D02*
G01X770Y-8795D01*
G01X770Y-9000D02*
G01X770Y-8795D01*
G01X770Y-8840D02*
G01X1020Y-8681D01*
G01X633Y-8477D02*
G01X656Y-8477D01*
G01X588Y-8454D02*
G01X633Y-8477D01*
G01X565Y-8431D02*
G01X588Y-8454D01*
G01X542Y-8386D02*
G01X565Y-8431D01*
G01X542Y-8295D02*
G01X542Y-8386D01*
G01X542Y-8295D02*
G01X565Y-8250D01*
G01X565Y-8250D02*
G01X588Y-8227D01*
G01X588Y-8227D02*
G01X633Y-8204D01*
G01X633Y-8204D02*
G01X679Y-8204D01*
G01X679Y-8204D02*
G01X724Y-8227D01*
G01X724Y-8227D02*
G01X792Y-8272D01*
G01X792Y-8272D02*
G01X1020Y-8500D01*
G01X1020Y-8181D02*
G01X1020Y-8500D01*
G01X542Y-7772D02*
G01X860Y-8000D01*
G01X860Y-7659D02*
G01X860Y-8000D01*
G01X542Y-7772D02*
G01X1020Y-7772D01*
G04 Draw part C25*
G04 draw part outline for part C25*
G01X500Y-9500D02*
G01X500Y-6500D01*
G01X500Y-6500D02*
G01X1500Y-6500D01*
G01X1500Y-6500D02*
G01X1500Y-9500D01*
G01X1500Y-9500D02*
G01X500Y-9500D01*
G04 draw reference designator for part C25*
G01X-209Y-7681D02*
G01X-163Y-7659D01*
G01X-254Y-7727D02*
G01X-209Y-7681D01*
G01X-277Y-7772D02*
G01X-254Y-7727D01*
G01X-277Y-7863D02*
G01X-277Y-7772D01*
G01X-277Y-7863D02*
G01X-254Y-7909D01*
G01X-254Y-7909D02*
G01X-209Y-7954D01*
G01X-209Y-7954D02*
G01X-163Y-7977D01*
G01X-163Y-7977D02*
G01X-95Y-8000D01*
G01X-95Y-8000D02*
G01X18Y-8000D01*
G01X18Y-8000D02*
G01X86Y-7977D01*
G01X86Y-7977D02*
G01X131Y-7954D01*
G01X131Y-7954D02*
G01X177Y-7909D01*
G01X177Y-7909D02*
G01X200Y-7863D01*
G01X200Y-7772D02*
G01X200Y-7863D01*
G01X177Y-7727D02*
G01X200Y-7772D01*
G01X131Y-7681D02*
G01X177Y-7727D01*
G01X86Y-7659D02*
G01X131Y-7681D01*
G01X-186Y-7454D02*
G01X-163Y-7454D01*
G01X-231Y-7431D02*
G01X-186Y-7454D01*
G01X-254Y-7409D02*
G01X-231Y-7431D01*
G01X-277Y-7363D02*
G01X-254Y-7409D01*
G01X-277Y-7272D02*
G01X-277Y-7363D01*
G01X-277Y-7272D02*
G01X-254Y-7227D01*
G01X-254Y-7227D02*
G01X-231Y-7204D01*
G01X-231Y-7204D02*
G01X-186Y-7181D01*
G01X-186Y-7181D02*
G01X-140Y-7181D01*
G01X-140Y-7181D02*
G01X-95Y-7204D01*
G01X-95Y-7204D02*
G01X-27Y-7250D01*
G01X-27Y-7250D02*
G01X200Y-7477D01*
G01X200Y-7159D02*
G01X200Y-7477D01*
G01X-277Y-6931D02*
G01X-277Y-6704D01*
G01X-277Y-6931D02*
G01X-72Y-6954D01*
G01X-95Y-6931D02*
G01X-72Y-6954D01*
G01X-118Y-6863D02*
G01X-95Y-6931D01*
G01X-118Y-6795D02*
G01X-118Y-6863D01*
G01X-118Y-6795D02*
G01X-95Y-6727D01*
G01X-95Y-6727D02*
G01X-50Y-6681D01*
G01X-50Y-6681D02*
G01X18Y-6659D01*
G01X18Y-6659D02*
G01X63Y-6659D01*
G01X63Y-6659D02*
G01X131Y-6681D01*
G01X131Y-6681D02*
G01X177Y-6727D01*
G01X177Y-6727D02*
G01X200Y-6795D01*
G01X200Y-6863D02*
G01X200Y-6795D01*
G01X177Y-6931D02*
G01X200Y-6863D01*
G01X154Y-6954D02*
G01X177Y-6931D01*
G01X109Y-6977D02*
G01X154Y-6954D01*
G04 Draw part R23*
G04 draw part outline for part R23*
G01X2500Y-10250D02*
G01X2500Y-7750D01*
G01X2500Y-7750D02*
G01X3500Y-7750D01*
G01X3500Y-7750D02*
G01X3500Y-10250D01*
G01X3500Y-10250D02*
G01X2500Y-10250D01*
G04 draw reference designator for part R23*
G01X3477Y-8000D02*
G01X3000Y-8000D01*
G01X3477Y-8204D02*
G01X3477Y-8000D01*
G01X3477Y-8204D02*
G01X3454Y-8272D01*
G01X3454Y-8272D02*
G01X3431Y-8295D01*
G01X3431Y-8295D02*
G01X3386Y-8318D01*
G01X3386Y-8318D02*
G01X3340Y-8318D01*
G01X3340Y-8318D02*
G01X3295Y-8295D01*
G01X3295Y-8295D02*
G01X3272Y-8272D01*
G01X3272Y-8272D02*
G01X3250Y-8204D01*
G01X3250Y-8000D02*
G01X3250Y-8204D01*
G01X3250Y-8159D02*
G01X3000Y-8318D01*
G01X3386Y-8522D02*
G01X3363Y-8522D01*
G01X3431Y-8545D02*
G01X3386Y-8522D01*
G01X3454Y-8568D02*
G01X3431Y-8545D01*
G01X3477Y-8613D02*
G01X3454Y-8568D01*
G01X3477Y-8704D02*
G01X3477Y-8613D01*
G01X3477Y-8704D02*
G01X3454Y-8750D01*
G01X3454Y-8750D02*
G01X3431Y-8772D01*
G01X3431Y-8772D02*
G01X3386Y-8795D01*
G01X3386Y-8795D02*
G01X3340Y-8795D01*
G01X3340Y-8795D02*
G01X3295Y-8772D01*
G01X3295Y-8772D02*
G01X3227Y-8727D01*
G01X3227Y-8727D02*
G01X3000Y-8500D01*
G01X3000Y-8818D02*
G01X3000Y-8500D01*
G01X3477Y-9295D02*
G01X3477Y-9045D01*
G01X3477Y-9295D02*
G01X3295Y-9159D01*
G01X3295Y-9227D02*
G01X3295Y-9159D01*
G01X3295Y-9227D02*
G01X3272Y-9272D01*
G01X3272Y-9272D02*
G01X3250Y-9295D01*
G01X3250Y-9295D02*
G01X3181Y-9318D01*
G01X3181Y-9318D02*
G01X3136Y-9318D01*
G01X3136Y-9318D02*
G01X3068Y-9295D01*
G01X3068Y-9295D02*
G01X3022Y-9250D01*
G01X3022Y-9250D02*
G01X3000Y-9181D01*
G01X3000Y-9113D02*
G01X3000Y-9181D01*
G01X3022Y-9045D02*
G01X3000Y-9113D01*
G01X3045Y-9022D02*
G01X3022Y-9045D01*
G01X3090Y-9000D02*
G01X3045Y-9022D01*
G04 Draw part C24*
G04 draw part outline for part C24*
G01X3500Y-9500D02*
G01X3500Y-6500D01*
G01X3500Y-6500D02*
G01X4500Y-6500D01*
G01X4500Y-6500D02*
G01X4500Y-9500D01*
G01X4500Y-9500D02*
G01X3500Y-9500D01*
G04 draw reference designator for part C24*
G01X4409Y-7318D02*
G01X4363Y-7340D01*
G01X4454Y-7272D02*
G01X4409Y-7318D01*
G01X4477Y-7227D02*
G01X4454Y-7272D01*
G01X4477Y-7136D02*
G01X4477Y-7227D01*
G01X4477Y-7136D02*
G01X4454Y-7090D01*
G01X4454Y-7090D02*
G01X4409Y-7045D01*
G01X4409Y-7045D02*
G01X4363Y-7022D01*
G01X4363Y-7022D02*
G01X4295Y-7000D01*
G01X4295Y-7000D02*
G01X4181Y-7000D01*
G01X4181Y-7000D02*
G01X4113Y-7022D01*
G01X4113Y-7022D02*
G01X4068Y-7045D01*
G01X4068Y-7045D02*
G01X4022Y-7090D01*
G01X4022Y-7090D02*
G01X4000Y-7136D01*
G01X4000Y-7227D02*
G01X4000Y-7136D01*
G01X4022Y-7272D02*
G01X4000Y-7227D01*
G01X4068Y-7318D02*
G01X4022Y-7272D01*
G01X4113Y-7340D02*
G01X4068Y-7318D01*
G01X4386Y-7545D02*
G01X4363Y-7545D01*
G01X4431Y-7568D02*
G01X4386Y-7545D01*
G01X4454Y-7590D02*
G01X4431Y-7568D01*
G01X4477Y-7636D02*
G01X4454Y-7590D01*
G01X4477Y-7727D02*
G01X4477Y-7636D01*
G01X4477Y-7727D02*
G01X4454Y-7772D01*
G01X4454Y-7772D02*
G01X4431Y-7795D01*
G01X4431Y-7795D02*
G01X4386Y-7818D01*
G01X4386Y-7818D02*
G01X4340Y-7818D01*
G01X4340Y-7818D02*
G01X4295Y-7795D01*
G01X4295Y-7795D02*
G01X4227Y-7750D01*
G01X4227Y-7750D02*
G01X4000Y-7522D01*
G01X4000Y-7840D02*
G01X4000Y-7522D01*
G01X4477Y-8250D02*
G01X4159Y-8022D01*
G01X4159Y-8363D02*
G01X4159Y-8022D01*
G01X4477Y-8250D02*
G01X4000Y-8250D01*
G04 Draw part R21*
G04 draw part outline for part R21*
G01X10750Y-8500D02*
G01X13250Y-8500D01*
G01X13250Y-8500D02*
G01X13250Y-9500D01*
G01X13250Y-9500D02*
G01X10750Y-9500D01*
G01X10750Y-9500D02*
G01X10750Y-8500D01*
G04 draw reference designator for part R21*
G01X12000Y-7542D02*
G01X12000Y-8020D01*
G01X12204Y-7542D02*
G01X12000Y-7542D01*
G01X12204Y-7542D02*
G01X12272Y-7565D01*
G01X12272Y-7565D02*
G01X12295Y-7588D01*
G01X12295Y-7588D02*
G01X12318Y-7633D01*
G01X12318Y-7633D02*
G01X12318Y-7679D01*
G01X12318Y-7679D02*
G01X12295Y-7724D01*
G01X12295Y-7724D02*
G01X12272Y-7747D01*
G01X12272Y-7747D02*
G01X12204Y-7770D01*
G01X12000Y-7770D02*
G01X12204Y-7770D01*
G01X12159Y-7770D02*
G01X12318Y-8020D01*
G01X12522Y-7633D02*
G01X12522Y-7656D01*
G01X12545Y-7588D02*
G01X12522Y-7633D01*
G01X12568Y-7565D02*
G01X12545Y-7588D01*
G01X12613Y-7542D02*
G01X12568Y-7565D01*
G01X12704Y-7542D02*
G01X12613Y-7542D01*
G01X12704Y-7542D02*
G01X12750Y-7565D01*
G01X12750Y-7565D02*
G01X12772Y-7588D01*
G01X12772Y-7588D02*
G01X12795Y-7633D01*
G01X12795Y-7633D02*
G01X12795Y-7679D01*
G01X12795Y-7679D02*
G01X12772Y-7724D01*
G01X12772Y-7724D02*
G01X12727Y-7792D01*
G01X12727Y-7792D02*
G01X12500Y-8020D01*
G01X12818Y-8020D02*
G01X12500Y-8020D01*
G01X13045Y-7610D02*
G01X13000Y-7633D01*
G01X13113Y-7542D02*
G01X13045Y-7610D01*
G01X13113Y-7542D02*
G01X13113Y-8020D01*
G04 Draw part R22*
G04 draw part outline for part R22*
G01X13250Y-8500D02*
G01X10750Y-8500D01*
G01X10750Y-8500D02*
G01X10750Y-7500D01*
G01X10750Y-7500D02*
G01X13250Y-7500D01*
G01X13250Y-7500D02*
G01X13250Y-8500D01*
G04 draw reference designator for part R22*
G01X12000Y-9457D02*
G01X12000Y-8980D01*
G01X11795Y-9457D02*
G01X12000Y-9457D01*
G01X11795Y-9457D02*
G01X11727Y-9434D01*
G01X11727Y-9434D02*
G01X11704Y-9411D01*
G01X11704Y-9411D02*
G01X11681Y-9366D01*
G01X11681Y-9366D02*
G01X11681Y-9320D01*
G01X11681Y-9320D02*
G01X11704Y-9275D01*
G01X11704Y-9275D02*
G01X11727Y-9252D01*
G01X11727Y-9252D02*
G01X11795Y-9230D01*
G01X12000Y-9230D02*
G01X11795Y-9230D01*
G01X11840Y-9230D02*
G01X11681Y-8980D01*
G01X11477Y-9366D02*
G01X11477Y-9343D01*
G01X11454Y-9411D02*
G01X11477Y-9366D01*
G01X11431Y-9434D02*
G01X11454Y-9411D01*
G01X11386Y-9457D02*
G01X11431Y-9434D01*
G01X11295Y-9457D02*
G01X11386Y-9457D01*
G01X11295Y-9457D02*
G01X11250Y-9434D01*
G01X11250Y-9434D02*
G01X11227Y-9411D01*
G01X11227Y-9411D02*
G01X11204Y-9366D01*
G01X11204Y-9366D02*
G01X11204Y-9320D01*
G01X11204Y-9320D02*
G01X11227Y-9275D01*
G01X11227Y-9275D02*
G01X11272Y-9207D01*
G01X11272Y-9207D02*
G01X11500Y-8980D01*
G01X11181Y-8980D02*
G01X11500Y-8980D01*
G01X10977Y-9366D02*
G01X10977Y-9343D01*
G01X10954Y-9411D02*
G01X10977Y-9366D01*
G01X10931Y-9434D02*
G01X10954Y-9411D01*
G01X10886Y-9457D02*
G01X10931Y-9434D01*
G01X10795Y-9457D02*
G01X10886Y-9457D01*
G01X10795Y-9457D02*
G01X10750Y-9434D01*
G01X10750Y-9434D02*
G01X10727Y-9411D01*
G01X10727Y-9411D02*
G01X10704Y-9366D01*
G01X10704Y-9366D02*
G01X10704Y-9320D01*
G01X10704Y-9320D02*
G01X10727Y-9275D01*
G01X10727Y-9275D02*
G01X10772Y-9207D01*
G01X10772Y-9207D02*
G01X11000Y-8980D01*
G01X10681Y-8980D02*
G01X11000Y-8980D01*
G04 Draw part C23*
G04 draw part outline for part C23*
G01X9500Y-6500D02*
G01X12500Y-6500D01*
G01X12500Y-6500D02*
G01X12500Y-7500D01*
G01X12500Y-7500D02*
G01X9500Y-7500D01*
G01X9500Y-7500D02*
G01X9500Y-6500D01*
G04 draw reference designator for part C23*
G01X11318Y-5790D02*
G01X11340Y-5836D01*
G01X11272Y-5745D02*
G01X11318Y-5790D01*
G01X11227Y-5722D02*
G01X11272Y-5745D01*
G01X11136Y-5722D02*
G01X11227Y-5722D01*
G01X11136Y-5722D02*
G01X11090Y-5745D01*
G01X11090Y-5745D02*
G01X11045Y-5790D01*
G01X11045Y-5790D02*
G01X11022Y-5836D01*
G01X11022Y-5836D02*
G01X11000Y-5904D01*
G01X11000Y-5904D02*
G01X11000Y-6018D01*
G01X11000Y-6018D02*
G01X11022Y-6086D01*
G01X11022Y-6086D02*
G01X11045Y-6131D01*
G01X11045Y-6131D02*
G01X11090Y-6177D01*
G01X11090Y-6177D02*
G01X11136Y-6200D01*
G01X11227Y-6200D02*
G01X11136Y-6200D01*
G01X11272Y-6177D02*
G01X11227Y-6200D01*
G01X11318Y-6131D02*
G01X11272Y-6177D01*
G01X11340Y-6086D02*
G01X11318Y-6131D01*
G01X11545Y-5813D02*
G01X11545Y-5836D01*
G01X11568Y-5768D02*
G01X11545Y-5813D01*
G01X11590Y-5745D02*
G01X11568Y-5768D01*
G01X11636Y-5722D02*
G01X11590Y-5745D01*
G01X11727Y-5722D02*
G01X11636Y-5722D01*
G01X11727Y-5722D02*
G01X11772Y-5745D01*
G01X11772Y-5745D02*
G01X11795Y-5768D01*
G01X11795Y-5768D02*
G01X11818Y-5813D01*
G01X11818Y-5813D02*
G01X11818Y-5859D01*
G01X11818Y-5859D02*
G01X11795Y-5904D01*
G01X11795Y-5904D02*
G01X11750Y-5972D01*
G01X11750Y-5972D02*
G01X11522Y-6200D01*
G01X11840Y-6200D02*
G01X11522Y-6200D01*
G01X12318Y-5722D02*
G01X12068Y-5722D01*
G01X12318Y-5722D02*
G01X12181Y-5904D01*
G01X12250Y-5904D02*
G01X12181Y-5904D01*
G01X12250Y-5904D02*
G01X12295Y-5927D01*
G01X12295Y-5927D02*
G01X12318Y-5950D01*
G01X12318Y-5950D02*
G01X12340Y-6018D01*
G01X12340Y-6018D02*
G01X12340Y-6063D01*
G01X12340Y-6063D02*
G01X12318Y-6131D01*
G01X12318Y-6131D02*
G01X12272Y-6177D01*
G01X12272Y-6177D02*
G01X12204Y-6200D01*
G01X12136Y-6200D02*
G01X12204Y-6200D01*
G01X12068Y-6177D02*
G01X12136Y-6200D01*
G01X12045Y-6154D02*
G01X12068Y-6177D01*
G01X12022Y-6109D02*
G01X12045Y-6154D01*
G04 Draw part C22*
G04 draw part outline for part C22*
G01X12500Y-10500D02*
G01X9500Y-10500D01*
G01X9500Y-10500D02*
G01X9500Y-9500D01*
G01X9500Y-9500D02*
G01X12500Y-9500D01*
G01X12500Y-9500D02*
G01X12500Y-10500D01*
G04 draw reference designator for part C22*
G01X10681Y-11209D02*
G01X10659Y-11163D01*
G01X10727Y-11254D02*
G01X10681Y-11209D01*
G01X10772Y-11277D02*
G01X10727Y-11254D01*
G01X10863Y-11277D02*
G01X10772Y-11277D01*
G01X10863Y-11277D02*
G01X10909Y-11254D01*
G01X10909Y-11254D02*
G01X10954Y-11209D01*
G01X10954Y-11209D02*
G01X10977Y-11163D01*
G01X10977Y-11163D02*
G01X11000Y-11095D01*
G01X11000Y-11095D02*
G01X11000Y-10981D01*
G01X11000Y-10981D02*
G01X10977Y-10913D01*
G01X10977Y-10913D02*
G01X10954Y-10868D01*
G01X10954Y-10868D02*
G01X10909Y-10822D01*
G01X10909Y-10822D02*
G01X10863Y-10800D01*
G01X10772Y-10800D02*
G01X10863Y-10800D01*
G01X10727Y-10822D02*
G01X10772Y-10800D01*
G01X10681Y-10868D02*
G01X10727Y-10822D01*
G01X10659Y-10913D02*
G01X10681Y-10868D01*
G01X10454Y-11186D02*
G01X10454Y-11163D01*
G01X10431Y-11231D02*
G01X10454Y-11186D01*
G01X10409Y-11254D02*
G01X10431Y-11231D01*
G01X10363Y-11277D02*
G01X10409Y-11254D01*
G01X10272Y-11277D02*
G01X10363Y-11277D01*
G01X10272Y-11277D02*
G01X10227Y-11254D01*
G01X10227Y-11254D02*
G01X10204Y-11231D01*
G01X10204Y-11231D02*
G01X10181Y-11186D01*
G01X10181Y-11186D02*
G01X10181Y-11140D01*
G01X10181Y-11140D02*
G01X10204Y-11095D01*
G01X10204Y-11095D02*
G01X10250Y-11027D01*
G01X10250Y-11027D02*
G01X10477Y-10800D01*
G01X10159Y-10800D02*
G01X10477Y-10800D01*
G01X9954Y-11186D02*
G01X9954Y-11163D01*
G01X9931Y-11231D02*
G01X9954Y-11186D01*
G01X9909Y-11254D02*
G01X9931Y-11231D01*
G01X9863Y-11277D02*
G01X9909Y-11254D01*
G01X9772Y-11277D02*
G01X9863Y-11277D01*
G01X9772Y-11277D02*
G01X9727Y-11254D01*
G01X9727Y-11254D02*
G01X9704Y-11231D01*
G01X9704Y-11231D02*
G01X9681Y-11186D01*
G01X9681Y-11186D02*
G01X9681Y-11140D01*
G01X9681Y-11140D02*
G01X9704Y-11095D01*
G01X9704Y-11095D02*
G01X9750Y-11027D01*
G01X9750Y-11027D02*
G01X9977Y-10800D01*
G01X9659Y-10800D02*
G01X9977Y-10800D01*
G04 Draw part R13*
G04 draw part outline for part R13*
G54D12*
G01X14100Y-4900D02*
G01X14100Y-1100D01*
G01X14100Y-1100D02*
G01X17900Y-1100D01*
G01X17900Y-1100D02*
G01X17900Y-4900D01*
G01X17900Y-4900D02*
G01X14100Y-4900D01*
G04 draw reference designator for part R13*
G01X15000Y-5045D02*
G01X15000Y-6000D01*
G01X15409Y-5045D02*
G01X15000Y-5045D01*
G01X15409Y-5045D02*
G01X15545Y-5090D01*
G01X15545Y-5090D02*
G01X15590Y-5136D01*
G01X15590Y-5136D02*
G01X15636Y-5227D01*
G01X15636Y-5227D02*
G01X15636Y-5318D01*
G01X15636Y-5318D02*
G01X15590Y-5409D01*
G01X15590Y-5409D02*
G01X15545Y-5454D01*
G01X15545Y-5454D02*
G01X15409Y-5500D01*
G01X15000Y-5500D02*
G01X15409Y-5500D01*
G01X15318Y-5500D02*
G01X15636Y-6000D01*
G01X16090Y-5181D02*
G01X16000Y-5227D01*
G01X16227Y-5045D02*
G01X16090Y-5181D01*
G01X16227Y-5045D02*
G01X16227Y-6000D01*
G01X17181Y-5045D02*
G01X16681Y-5045D01*
G01X17181Y-5045D02*
G01X16909Y-5409D01*
G01X17045Y-5409D02*
G01X16909Y-5409D01*
G01X17045Y-5409D02*
G01X17136Y-5454D01*
G01X17136Y-5454D02*
G01X17181Y-5500D01*
G01X17181Y-5500D02*
G01X17227Y-5636D01*
G01X17227Y-5636D02*
G01X17227Y-5727D01*
G01X17227Y-5727D02*
G01X17181Y-5863D01*
G01X17181Y-5863D02*
G01X17090Y-5954D01*
G01X17090Y-5954D02*
G01X16954Y-6000D01*
G01X16818Y-6000D02*
G01X16954Y-6000D01*
G01X16681Y-5954D02*
G01X16818Y-6000D01*
G01X16636Y-5909D02*
G01X16681Y-5954D01*
G01X16590Y-5818D02*
G01X16636Y-5909D01*
G04 Draw part CONN1*
G04 draw part outline for part CONN1*
G54D11*
G01X-2500Y-9500D02*
G01X-6500Y-9500D01*
G01X-6500Y-9500D02*
G01X-6500Y-8500D01*
G01X-6500Y-8500D02*
G01X-2500Y-8500D01*
G01X-2500Y-8500D02*
G01X-2500Y-9500D01*
G04 draw reference designator for part CONN1*
G01X-5681Y-7590D02*
G01X-5659Y-7636D01*
G01X-5727Y-7545D02*
G01X-5681Y-7590D01*
G01X-5772Y-7522D02*
G01X-5727Y-7545D01*
G01X-5863Y-7522D02*
G01X-5772Y-7522D01*
G01X-5863Y-7522D02*
G01X-5909Y-7545D01*
G01X-5909Y-7545D02*
G01X-5954Y-7590D01*
G01X-5954Y-7590D02*
G01X-5977Y-7636D01*
G01X-5977Y-7636D02*
G01X-6000Y-7704D01*
G01X-6000Y-7704D02*
G01X-6000Y-7818D01*
G01X-6000Y-7818D02*
G01X-5977Y-7886D01*
G01X-5977Y-7886D02*
G01X-5954Y-7931D01*
G01X-5954Y-7931D02*
G01X-5909Y-7977D01*
G01X-5909Y-7977D02*
G01X-5863Y-8000D01*
G01X-5772Y-8000D02*
G01X-5863Y-8000D01*
G01X-5727Y-7977D02*
G01X-5772Y-8000D01*
G01X-5681Y-7931D02*
G01X-5727Y-7977D01*
G01X-5659Y-7886D02*
G01X-5681Y-7931D01*
G01X-5340Y-7522D02*
G01X-5386Y-7545D01*
G01X-5386Y-7545D02*
G01X-5431Y-7590D01*
G01X-5431Y-7590D02*
G01X-5454Y-7636D01*
G01X-5454Y-7636D02*
G01X-5477Y-7704D01*
G01X-5477Y-7704D02*
G01X-5477Y-7818D01*
G01X-5477Y-7818D02*
G01X-5454Y-7886D01*
G01X-5454Y-7886D02*
G01X-5431Y-7931D01*
G01X-5431Y-7931D02*
G01X-5386Y-7977D01*
G01X-5386Y-7977D02*
G01X-5340Y-8000D01*
G01X-5250Y-8000D02*
G01X-5340Y-8000D01*
G01X-5204Y-7977D02*
G01X-5250Y-8000D01*
G01X-5159Y-7931D02*
G01X-5204Y-7977D01*
G01X-5136Y-7886D02*
G01X-5159Y-7931D01*
G01X-5113Y-7818D02*
G01X-5136Y-7886D01*
G01X-5113Y-7704D02*
G01X-5113Y-7818D01*
G01X-5136Y-7636D02*
G01X-5113Y-7704D01*
G01X-5159Y-7590D02*
G01X-5136Y-7636D01*
G01X-5204Y-7545D02*
G01X-5159Y-7590D01*
G01X-5250Y-7522D02*
G01X-5204Y-7545D01*
G01X-5340Y-7522D02*
G01X-5250Y-7522D01*
G01X-4931Y-7522D02*
G01X-4931Y-8000D01*
G01X-4931Y-7522D02*
G01X-4613Y-8000D01*
G01X-4613Y-7522D02*
G01X-4613Y-8000D01*
G01X-4431Y-7522D02*
G01X-4431Y-8000D01*
G01X-4431Y-7522D02*
G01X-4113Y-8000D01*
G01X-4113Y-7522D02*
G01X-4113Y-8000D01*
G01X-3886Y-7590D02*
G01X-3931Y-7613D01*
G01X-3818Y-7522D02*
G01X-3886Y-7590D01*
G01X-3818Y-7522D02*
G01X-3818Y-8000D01*
G04 Draw part R29*
G04 draw part outline for part R29*
G54D12*
G01X2500Y-17750D02*
G01X7000Y-17750D01*
G01X7000Y-17750D02*
G01X7000Y-12250D01*
G01X7000Y-12250D02*
G01X2500Y-12250D01*
G01X2500Y-12250D02*
G01X2500Y-17750D01*
G04 draw reference designator for part R29*
G01X5000Y-13065D02*
G01X5000Y-14020D01*
G01X5409Y-13065D02*
G01X5000Y-13065D01*
G01X5409Y-13065D02*
G01X5545Y-13110D01*
G01X5545Y-13110D02*
G01X5590Y-13156D01*
G01X5590Y-13156D02*
G01X5636Y-13247D01*
G01X5636Y-13247D02*
G01X5636Y-13338D01*
G01X5636Y-13338D02*
G01X5590Y-13429D01*
G01X5590Y-13429D02*
G01X5545Y-13474D01*
G01X5545Y-13474D02*
G01X5409Y-13520D01*
G01X5000Y-13520D02*
G01X5409Y-13520D01*
G01X5318Y-13520D02*
G01X5636Y-14020D01*
G01X6045Y-13247D02*
G01X6045Y-13292D01*
G01X6090Y-13156D02*
G01X6045Y-13247D01*
G01X6136Y-13110D02*
G01X6090Y-13156D01*
G01X6227Y-13065D02*
G01X6136Y-13110D01*
G01X6409Y-13065D02*
G01X6227Y-13065D01*
G01X6409Y-13065D02*
G01X6500Y-13110D01*
G01X6500Y-13110D02*
G01X6545Y-13156D01*
G01X6545Y-13156D02*
G01X6590Y-13247D01*
G01X6590Y-13247D02*
G01X6590Y-13338D01*
G01X6590Y-13338D02*
G01X6545Y-13429D01*
G01X6545Y-13429D02*
G01X6454Y-13565D01*
G01X6454Y-13565D02*
G01X6000Y-14020D01*
G01X6636Y-14020D02*
G01X6000Y-14020D01*
G01X7590Y-13383D02*
G01X7545Y-13520D01*
G01X7545Y-13520D02*
G01X7454Y-13610D01*
G01X7454Y-13610D02*
G01X7318Y-13656D01*
G01X7272Y-13656D02*
G01X7318Y-13656D01*
G01X7136Y-13610D02*
G01X7272Y-13656D01*
G01X7045Y-13520D02*
G01X7136Y-13610D01*
G01X7000Y-13383D02*
G01X7045Y-13520D01*
G01X7000Y-13338D02*
G01X7000Y-13383D01*
G01X7045Y-13201D02*
G01X7000Y-13338D01*
G01X7136Y-13110D02*
G01X7045Y-13201D01*
G01X7272Y-13065D02*
G01X7136Y-13110D01*
G01X7318Y-13065D02*
G01X7272Y-13065D01*
G01X7318Y-13065D02*
G01X7454Y-13110D01*
G01X7454Y-13110D02*
G01X7545Y-13201D01*
G01X7545Y-13201D02*
G01X7590Y-13383D01*
G01X7590Y-13383D02*
G01X7590Y-13610D01*
G01X7590Y-13610D02*
G01X7545Y-13838D01*
G01X7545Y-13838D02*
G01X7454Y-13974D01*
G01X7454Y-13974D02*
G01X7318Y-14020D01*
G01X7227Y-14020D02*
G01X7318Y-14020D01*
G01X7090Y-13974D02*
G01X7227Y-14020D01*
G01X7045Y-13883D02*
G01X7090Y-13974D01*
G04 Draw part R30*
G04 draw part outline for part R30*
G01X7500Y-17750D02*
G01X12000Y-17750D01*
G01X12000Y-17750D02*
G01X12000Y-12250D01*
G01X12000Y-12250D02*
G01X7500Y-12250D01*
G01X7500Y-12250D02*
G01X7500Y-17750D01*
G04 draw reference designator for part R30*
G01X10000Y-13065D02*
G01X10000Y-14020D01*
G01X10409Y-13065D02*
G01X10000Y-13065D01*
G01X10409Y-13065D02*
G01X10545Y-13110D01*
G01X10545Y-13110D02*
G01X10590Y-13156D01*
G01X10590Y-13156D02*
G01X10636Y-13247D01*
G01X10636Y-13247D02*
G01X10636Y-13338D01*
G01X10636Y-13338D02*
G01X10590Y-13429D01*
G01X10590Y-13429D02*
G01X10545Y-13474D01*
G01X10545Y-13474D02*
G01X10409Y-13520D01*
G01X10000Y-13520D02*
G01X10409Y-13520D01*
G01X10318Y-13520D02*
G01X10636Y-14020D01*
G01X11590Y-13065D02*
G01X11090Y-13065D01*
G01X11590Y-13065D02*
G01X11318Y-13429D01*
G01X11454Y-13429D02*
G01X11318Y-13429D01*
G01X11454Y-13429D02*
G01X11545Y-13474D01*
G01X11545Y-13474D02*
G01X11590Y-13520D01*
G01X11590Y-13520D02*
G01X11636Y-13656D01*
G01X11636Y-13656D02*
G01X11636Y-13747D01*
G01X11636Y-13747D02*
G01X11590Y-13883D01*
G01X11590Y-13883D02*
G01X11500Y-13974D01*
G01X11500Y-13974D02*
G01X11363Y-14020D01*
G01X11227Y-14020D02*
G01X11363Y-14020D01*
G01X11090Y-13974D02*
G01X11227Y-14020D01*
G01X11045Y-13929D02*
G01X11090Y-13974D01*
G01X11000Y-13838D02*
G01X11045Y-13929D01*
G01X12272Y-13065D02*
G01X12136Y-13110D01*
G01X12136Y-13110D02*
G01X12045Y-13247D01*
G01X12045Y-13247D02*
G01X12000Y-13474D01*
G01X12000Y-13474D02*
G01X12000Y-13610D01*
G01X12000Y-13610D02*
G01X12045Y-13838D01*
G01X12045Y-13838D02*
G01X12136Y-13974D01*
G01X12136Y-13974D02*
G01X12272Y-14020D01*
G01X12363Y-14020D02*
G01X12272Y-14020D01*
G01X12500Y-13974D02*
G01X12363Y-14020D01*
G01X12590Y-13838D02*
G01X12500Y-13974D01*
G01X12636Y-13610D02*
G01X12590Y-13838D01*
G01X12636Y-13474D02*
G01X12636Y-13610D01*
G01X12590Y-13247D02*
G01X12636Y-13474D01*
G01X12500Y-13110D02*
G01X12590Y-13247D01*
G01X12363Y-13065D02*
G01X12500Y-13110D01*
G01X12272Y-13065D02*
G01X12363Y-13065D01*
G04 Draw part R31*
G04 draw part outline for part R31*
G01X-2500Y-17750D02*
G01X2000Y-17750D01*
G01X2000Y-17750D02*
G01X2000Y-12250D01*
G01X2000Y-12250D02*
G01X-2500Y-12250D01*
G01X-2500Y-12250D02*
G01X-2500Y-17750D01*
G04 draw reference designator for part R31*
G01X0Y-13065D02*
G01X0Y-14020D01*
G01X409Y-13065D02*
G01X0Y-13065D01*
G01X409Y-13065D02*
G01X545Y-13110D01*
G01X545Y-13110D02*
G01X590Y-13156D01*
G01X590Y-13156D02*
G01X636Y-13247D01*
G01X636Y-13247D02*
G01X636Y-13338D01*
G01X636Y-13338D02*
G01X590Y-13429D01*
G01X590Y-13429D02*
G01X545Y-13474D01*
G01X545Y-13474D02*
G01X409Y-13520D01*
G01X0Y-13520D02*
G01X409Y-13520D01*
G01X318Y-13520D02*
G01X636Y-14020D01*
G01X1590Y-13065D02*
G01X1090Y-13065D01*
G01X1590Y-13065D02*
G01X1318Y-13429D01*
G01X1454Y-13429D02*
G01X1318Y-13429D01*
G01X1454Y-13429D02*
G01X1545Y-13474D01*
G01X1545Y-13474D02*
G01X1590Y-13520D01*
G01X1590Y-13520D02*
G01X1636Y-13656D01*
G01X1636Y-13656D02*
G01X1636Y-13747D01*
G01X1636Y-13747D02*
G01X1590Y-13883D01*
G01X1590Y-13883D02*
G01X1500Y-13974D01*
G01X1500Y-13974D02*
G01X1363Y-14020D01*
G01X1227Y-14020D02*
G01X1363Y-14020D01*
G01X1090Y-13974D02*
G01X1227Y-14020D01*
G01X1045Y-13929D02*
G01X1090Y-13974D01*
G01X1000Y-13838D02*
G01X1045Y-13929D01*
G01X2090Y-13201D02*
G01X2000Y-13247D01*
G01X2227Y-13065D02*
G01X2090Y-13201D01*
G01X2227Y-13065D02*
G01X2227Y-14020D01*
G04 Draw part R32*
G04 draw part outline for part R32*
G01X12500Y-17750D02*
G01X17000Y-17750D01*
G01X17000Y-17750D02*
G01X17000Y-12250D01*
G01X17000Y-12250D02*
G01X12500Y-12250D01*
G01X12500Y-12250D02*
G01X12500Y-17750D01*
G04 draw reference designator for part R32*
G01X15000Y-13065D02*
G01X15000Y-14020D01*
G01X15409Y-13065D02*
G01X15000Y-13065D01*
G01X15409Y-13065D02*
G01X15545Y-13110D01*
G01X15545Y-13110D02*
G01X15590Y-13156D01*
G01X15590Y-13156D02*
G01X15636Y-13247D01*
G01X15636Y-13247D02*
G01X15636Y-13338D01*
G01X15636Y-13338D02*
G01X15590Y-13429D01*
G01X15590Y-13429D02*
G01X15545Y-13474D01*
G01X15545Y-13474D02*
G01X15409Y-13520D01*
G01X15000Y-13520D02*
G01X15409Y-13520D01*
G01X15318Y-13520D02*
G01X15636Y-14020D01*
G01X16590Y-13065D02*
G01X16090Y-13065D01*
G01X16590Y-13065D02*
G01X16318Y-13429D01*
G01X16454Y-13429D02*
G01X16318Y-13429D01*
G01X16454Y-13429D02*
G01X16545Y-13474D01*
G01X16545Y-13474D02*
G01X16590Y-13520D01*
G01X16590Y-13520D02*
G01X16636Y-13656D01*
G01X16636Y-13656D02*
G01X16636Y-13747D01*
G01X16636Y-13747D02*
G01X16590Y-13883D01*
G01X16590Y-13883D02*
G01X16500Y-13974D01*
G01X16500Y-13974D02*
G01X16363Y-14020D01*
G01X16227Y-14020D02*
G01X16363Y-14020D01*
G01X16090Y-13974D02*
G01X16227Y-14020D01*
G01X16045Y-13929D02*
G01X16090Y-13974D01*
G01X16000Y-13838D02*
G01X16045Y-13929D01*
G01X17045Y-13247D02*
G01X17045Y-13292D01*
G01X17090Y-13156D02*
G01X17045Y-13247D01*
G01X17136Y-13110D02*
G01X17090Y-13156D01*
G01X17227Y-13065D02*
G01X17136Y-13110D01*
G01X17409Y-13065D02*
G01X17227Y-13065D01*
G01X17409Y-13065D02*
G01X17500Y-13110D01*
G01X17500Y-13110D02*
G01X17545Y-13156D01*
G01X17545Y-13156D02*
G01X17590Y-13247D01*
G01X17590Y-13247D02*
G01X17590Y-13338D01*
G01X17590Y-13338D02*
G01X17545Y-13429D01*
G01X17545Y-13429D02*
G01X17454Y-13565D01*
G01X17454Y-13565D02*
G01X17000Y-14020D01*
G01X17636Y-14020D02*
G01X17000Y-14020D01*
G04 Draw part R33*
G04 draw part outline for part R33*
G54D11*
G01X-9750Y-13500D02*
G01X-12250Y-13500D01*
G01X-12250Y-13500D02*
G01X-12250Y-12500D01*
G01X-12250Y-12500D02*
G01X-9750Y-12500D01*
G01X-9750Y-12500D02*
G01X-9750Y-13500D01*
G04 draw reference designator for part R33*
G01X-12000Y-12522D02*
G01X-12000Y-13000D01*
G01X-11795Y-12522D02*
G01X-12000Y-12522D01*
G01X-11795Y-12522D02*
G01X-11727Y-12545D01*
G01X-11727Y-12545D02*
G01X-11704Y-12568D01*
G01X-11704Y-12568D02*
G01X-11681Y-12613D01*
G01X-11681Y-12613D02*
G01X-11681Y-12659D01*
G01X-11681Y-12659D02*
G01X-11704Y-12704D01*
G01X-11704Y-12704D02*
G01X-11727Y-12727D01*
G01X-11727Y-12727D02*
G01X-11795Y-12750D01*
G01X-12000Y-12750D02*
G01X-11795Y-12750D01*
G01X-11840Y-12750D02*
G01X-11681Y-13000D01*
G01X-11204Y-12522D02*
G01X-11454Y-12522D01*
G01X-11204Y-12522D02*
G01X-11340Y-12704D01*
G01X-11272Y-12704D02*
G01X-11340Y-12704D01*
G01X-11272Y-12704D02*
G01X-11227Y-12727D01*
G01X-11227Y-12727D02*
G01X-11204Y-12750D01*
G01X-11204Y-12750D02*
G01X-11181Y-12818D01*
G01X-11181Y-12818D02*
G01X-11181Y-12863D01*
G01X-11181Y-12863D02*
G01X-11204Y-12931D01*
G01X-11204Y-12931D02*
G01X-11250Y-12977D01*
G01X-11250Y-12977D02*
G01X-11318Y-13000D01*
G01X-11386Y-13000D02*
G01X-11318Y-13000D01*
G01X-11454Y-12977D02*
G01X-11386Y-13000D01*
G01X-11477Y-12954D02*
G01X-11454Y-12977D01*
G01X-11500Y-12909D02*
G01X-11477Y-12954D01*
G01X-10704Y-12522D02*
G01X-10954Y-12522D01*
G01X-10704Y-12522D02*
G01X-10840Y-12704D01*
G01X-10772Y-12704D02*
G01X-10840Y-12704D01*
G01X-10772Y-12704D02*
G01X-10727Y-12727D01*
G01X-10727Y-12727D02*
G01X-10704Y-12750D01*
G01X-10704Y-12750D02*
G01X-10681Y-12818D01*
G01X-10681Y-12818D02*
G01X-10681Y-12863D01*
G01X-10681Y-12863D02*
G01X-10704Y-12931D01*
G01X-10704Y-12931D02*
G01X-10750Y-12977D01*
G01X-10750Y-12977D02*
G01X-10818Y-13000D01*
G01X-10886Y-13000D02*
G01X-10818Y-13000D01*
G01X-10954Y-12977D02*
G01X-10886Y-13000D01*
G01X-10977Y-12954D02*
G01X-10954Y-12977D01*
G01X-11000Y-12909D02*
G01X-10977Y-12954D01*
G04 Draw part D7*
G04 draw part outline for part D7*
G01X-9000Y-16400D02*
G01X-8960Y-16399D01*
G01X-8921Y-16396D01*
G01X-8882Y-16392D01*
G01X-8843Y-16386D01*
G01X-8805Y-16378D01*
G01X-8767Y-16369D01*
G01X-8729Y-16358D01*
G01X-8692Y-16345D01*
G01X-8655Y-16331D01*
G01X-8619Y-16315D01*
G01X-8584Y-16298D01*
G01X-8549Y-16279D01*
G01X-8516Y-16259D01*
G01X-8483Y-16237D01*
G01X-8452Y-16214D01*
G01X-8421Y-16189D01*
G01X-8391Y-16163D01*
G01X-8363Y-16136D01*
G01X-8336Y-16108D01*
G01X-8310Y-16078D01*
G01X-8285Y-16047D01*
G01X-8262Y-16016D01*
G01X-8240Y-15983D01*
G01X-8220Y-15949D01*
G01X-8201Y-15915D01*
G01X-8184Y-15880D01*
G01X-8168Y-15844D01*
G01X-8154Y-15807D01*
G01X-8141Y-15770D01*
G01X-8130Y-15732D01*
G01X-8121Y-15694D01*
G01X-8113Y-15656D01*
G01X-8107Y-15617D01*
G01X-8103Y-15578D01*
G01X-8100Y-15539D01*
G01X-8100Y-15500D01*
G01X-8100Y-15500D02*
G01X-8100Y-15460D01*
G01X-8103Y-15421D01*
G01X-8107Y-15382D01*
G01X-8113Y-15343D01*
G01X-8121Y-15305D01*
G01X-8130Y-15267D01*
G01X-8141Y-15229D01*
G01X-8154Y-15192D01*
G01X-8168Y-15155D01*
G01X-8184Y-15119D01*
G01X-8201Y-15084D01*
G01X-8220Y-15049D01*
G01X-8240Y-15016D01*
G01X-8262Y-14983D01*
G01X-8285Y-14952D01*
G01X-8310Y-14921D01*
G01X-8336Y-14891D01*
G01X-8363Y-14863D01*
G01X-8391Y-14836D01*
G01X-8421Y-14810D01*
G01X-8452Y-14785D01*
G01X-8483Y-14762D01*
G01X-8516Y-14740D01*
G01X-8550Y-14720D01*
G01X-8584Y-14701D01*
G01X-8619Y-14684D01*
G01X-8655Y-14668D01*
G01X-8692Y-14654D01*
G01X-8729Y-14641D01*
G01X-8767Y-14630D01*
G01X-8805Y-14621D01*
G01X-8843Y-14613D01*
G01X-8882Y-14607D01*
G01X-8921Y-14603D01*
G01X-8960Y-14600D01*
G01X-9000Y-14600D01*
G01X-9000Y-14600D02*
G01X-9039Y-14600D01*
G01X-9078Y-14603D01*
G01X-9117Y-14607D01*
G01X-9156Y-14613D01*
G01X-9194Y-14621D01*
G01X-9232Y-14630D01*
G01X-9270Y-14641D01*
G01X-9307Y-14654D01*
G01X-9344Y-14668D01*
G01X-9380Y-14684D01*
G01X-9415Y-14701D01*
G01X-9450Y-14720D01*
G01X-9483Y-14740D01*
G01X-9516Y-14762D01*
G01X-9547Y-14785D01*
G01X-9578Y-14810D01*
G01X-9608Y-14836D01*
G01X-9636Y-14863D01*
G01X-9663Y-14891D01*
G01X-9689Y-14921D01*
G01X-9714Y-14952D01*
G01X-9737Y-14983D01*
G01X-9759Y-15016D01*
G01X-9779Y-15050D01*
G01X-9798Y-15084D01*
G01X-9815Y-15119D01*
G01X-9831Y-15155D01*
G01X-9845Y-15192D01*
G01X-9858Y-15229D01*
G01X-9869Y-15267D01*
G01X-9878Y-15305D01*
G01X-9886Y-15343D01*
G01X-9892Y-15382D01*
G01X-9896Y-15421D01*
G01X-9899Y-15460D01*
G01X-9900Y-15500D01*
G01X-9900Y-15500D02*
G01X-9899Y-15539D01*
G01X-9896Y-15578D01*
G01X-9892Y-15617D01*
G01X-9886Y-15656D01*
G01X-9878Y-15694D01*
G01X-9869Y-15732D01*
G01X-9858Y-15770D01*
G01X-9845Y-15807D01*
G01X-9831Y-15844D01*
G01X-9815Y-15880D01*
G01X-9798Y-15915D01*
G01X-9779Y-15950D01*
G01X-9759Y-15983D01*
G01X-9737Y-16016D01*
G01X-9714Y-16047D01*
G01X-9689Y-16078D01*
G01X-9663Y-16108D01*
G01X-9636Y-16136D01*
G01X-9608Y-16163D01*
G01X-9578Y-16189D01*
G01X-9547Y-16214D01*
G01X-9516Y-16237D01*
G01X-9483Y-16259D01*
G01X-9449Y-16279D01*
G01X-9415Y-16298D01*
G01X-9380Y-16315D01*
G01X-9344Y-16331D01*
G01X-9307Y-16345D01*
G01X-9270Y-16358D01*
G01X-9232Y-16369D01*
G01X-9194Y-16378D01*
G01X-9156Y-16386D01*
G01X-9117Y-16392D01*
G01X-9078Y-16396D01*
G01X-9039Y-16399D01*
G01X-9000Y-16400D01*
G54D12*
G01X-9000Y-15250D02*
G01X-8500Y-15750D01*
G01X-8500Y-15750D02*
G01X-9500Y-15750D01*
G01X-9500Y-15750D02*
G01X-9000Y-15250D01*
G01X-8600Y-15300D02*
G01X-7900Y-14800D01*
G01X-7900Y-14800D02*
G01X-8300Y-14800D01*
G01X-7900Y-14800D02*
G01X-8000Y-15200D01*
G04 draw reference designator for part D7*
G54D11*
G01X-7622Y-16500D02*
G01X-8100Y-16500D01*
G01X-7622Y-16659D02*
G01X-7622Y-16500D01*
G01X-7622Y-16659D02*
G01X-7645Y-16727D01*
G01X-7645Y-16727D02*
G01X-7690Y-16772D01*
G01X-7690Y-16772D02*
G01X-7736Y-16795D01*
G01X-7736Y-16795D02*
G01X-7804Y-16818D01*
G01X-7804Y-16818D02*
G01X-7918Y-16818D01*
G01X-7918Y-16818D02*
G01X-7986Y-16795D01*
G01X-7986Y-16795D02*
G01X-8031Y-16772D01*
G01X-8031Y-16772D02*
G01X-8077Y-16727D01*
G01X-8077Y-16727D02*
G01X-8100Y-16659D01*
G01X-8100Y-16500D02*
G01X-8100Y-16659D01*
G01X-7622Y-17318D02*
G01X-8100Y-17090D01*
G01X-7622Y-17318D02*
G01X-7622Y-17000D01*
G04 Draw part R34*
G04 draw part outline for part R34*
G01X-9750Y-12500D02*
G01X-12250Y-12500D01*
G01X-12250Y-12500D02*
G01X-12250Y-11500D01*
G01X-12250Y-11500D02*
G01X-9750Y-11500D01*
G01X-9750Y-11500D02*
G01X-9750Y-12500D01*
G04 draw reference designator for part R34*
G01X-12000Y-11522D02*
G01X-12000Y-12000D01*
G01X-11795Y-11522D02*
G01X-12000Y-11522D01*
G01X-11795Y-11522D02*
G01X-11727Y-11545D01*
G01X-11727Y-11545D02*
G01X-11704Y-11568D01*
G01X-11704Y-11568D02*
G01X-11681Y-11613D01*
G01X-11681Y-11613D02*
G01X-11681Y-11659D01*
G01X-11681Y-11659D02*
G01X-11704Y-11704D01*
G01X-11704Y-11704D02*
G01X-11727Y-11727D01*
G01X-11727Y-11727D02*
G01X-11795Y-11750D01*
G01X-12000Y-11750D02*
G01X-11795Y-11750D01*
G01X-11840Y-11750D02*
G01X-11681Y-12000D01*
G01X-11204Y-11522D02*
G01X-11454Y-11522D01*
G01X-11204Y-11522D02*
G01X-11340Y-11704D01*
G01X-11272Y-11704D02*
G01X-11340Y-11704D01*
G01X-11272Y-11704D02*
G01X-11227Y-11727D01*
G01X-11227Y-11727D02*
G01X-11204Y-11750D01*
G01X-11204Y-11750D02*
G01X-11181Y-11818D01*
G01X-11181Y-11818D02*
G01X-11181Y-11863D01*
G01X-11181Y-11863D02*
G01X-11204Y-11931D01*
G01X-11204Y-11931D02*
G01X-11250Y-11977D01*
G01X-11250Y-11977D02*
G01X-11318Y-12000D01*
G01X-11386Y-12000D02*
G01X-11318Y-12000D01*
G01X-11454Y-11977D02*
G01X-11386Y-12000D01*
G01X-11477Y-11954D02*
G01X-11454Y-11977D01*
G01X-11500Y-11909D02*
G01X-11477Y-11954D01*
G01X-10772Y-11522D02*
G01X-11000Y-11840D01*
G01X-10659Y-11840D02*
G01X-11000Y-11840D01*
G01X-10772Y-11522D02*
G01X-10772Y-12000D01*
G04 Draw part D8*
G04 draw part outline for part D8*
G01X-13000Y-16400D02*
G01X-12960Y-16399D01*
G01X-12921Y-16396D01*
G01X-12882Y-16392D01*
G01X-12843Y-16386D01*
G01X-12805Y-16378D01*
G01X-12767Y-16369D01*
G01X-12729Y-16358D01*
G01X-12692Y-16345D01*
G01X-12655Y-16331D01*
G01X-12619Y-16315D01*
G01X-12584Y-16298D01*
G01X-12549Y-16279D01*
G01X-12516Y-16259D01*
G01X-12483Y-16237D01*
G01X-12452Y-16214D01*
G01X-12421Y-16189D01*
G01X-12391Y-16163D01*
G01X-12363Y-16136D01*
G01X-12336Y-16108D01*
G01X-12310Y-16078D01*
G01X-12285Y-16047D01*
G01X-12262Y-16016D01*
G01X-12240Y-15983D01*
G01X-12220Y-15949D01*
G01X-12201Y-15915D01*
G01X-12184Y-15880D01*
G01X-12168Y-15844D01*
G01X-12154Y-15807D01*
G01X-12141Y-15770D01*
G01X-12130Y-15732D01*
G01X-12121Y-15694D01*
G01X-12113Y-15656D01*
G01X-12107Y-15617D01*
G01X-12103Y-15578D01*
G01X-12100Y-15539D01*
G01X-12100Y-15500D01*
G01X-12100Y-15500D02*
G01X-12100Y-15460D01*
G01X-12103Y-15421D01*
G01X-12107Y-15382D01*
G01X-12113Y-15343D01*
G01X-12121Y-15305D01*
G01X-12130Y-15267D01*
G01X-12141Y-15229D01*
G01X-12154Y-15192D01*
G01X-12168Y-15155D01*
G01X-12184Y-15119D01*
G01X-12201Y-15084D01*
G01X-12220Y-15049D01*
G01X-12240Y-15016D01*
G01X-12262Y-14983D01*
G01X-12285Y-14952D01*
G01X-12310Y-14921D01*
G01X-12336Y-14891D01*
G01X-12363Y-14863D01*
G01X-12391Y-14836D01*
G01X-12421Y-14810D01*
G01X-12452Y-14785D01*
G01X-12483Y-14762D01*
G01X-12516Y-14740D01*
G01X-12550Y-14720D01*
G01X-12584Y-14701D01*
G01X-12619Y-14684D01*
G01X-12655Y-14668D01*
G01X-12692Y-14654D01*
G01X-12729Y-14641D01*
G01X-12767Y-14630D01*
G01X-12805Y-14621D01*
G01X-12843Y-14613D01*
G01X-12882Y-14607D01*
G01X-12921Y-14603D01*
G01X-12960Y-14600D01*
G01X-13000Y-14600D01*
G01X-13000Y-14600D02*
G01X-13039Y-14600D01*
G01X-13078Y-14603D01*
G01X-13117Y-14607D01*
G01X-13156Y-14613D01*
G01X-13194Y-14621D01*
G01X-13232Y-14630D01*
G01X-13270Y-14641D01*
G01X-13307Y-14654D01*
G01X-13344Y-14668D01*
G01X-13380Y-14684D01*
G01X-13415Y-14701D01*
G01X-13450Y-14720D01*
G01X-13483Y-14740D01*
G01X-13516Y-14762D01*
G01X-13547Y-14785D01*
G01X-13578Y-14810D01*
G01X-13608Y-14836D01*
G01X-13636Y-14863D01*
G01X-13663Y-14891D01*
G01X-13689Y-14921D01*
G01X-13714Y-14952D01*
G01X-13737Y-14983D01*
G01X-13759Y-15016D01*
G01X-13779Y-15050D01*
G01X-13798Y-15084D01*
G01X-13815Y-15119D01*
G01X-13831Y-15155D01*
G01X-13845Y-15192D01*
G01X-13858Y-15229D01*
G01X-13869Y-15267D01*
G01X-13878Y-15305D01*
G01X-13886Y-15343D01*
G01X-13892Y-15382D01*
G01X-13896Y-15421D01*
G01X-13899Y-15460D01*
G01X-13900Y-15500D01*
G01X-13900Y-15500D02*
G01X-13899Y-15539D01*
G01X-13896Y-15578D01*
G01X-13892Y-15617D01*
G01X-13886Y-15656D01*
G01X-13878Y-15694D01*
G01X-13869Y-15732D01*
G01X-13858Y-15770D01*
G01X-13845Y-15807D01*
G01X-13831Y-15844D01*
G01X-13815Y-15880D01*
G01X-13798Y-15915D01*
G01X-13779Y-15950D01*
G01X-13759Y-15983D01*
G01X-13737Y-16016D01*
G01X-13714Y-16047D01*
G01X-13689Y-16078D01*
G01X-13663Y-16108D01*
G01X-13636Y-16136D01*
G01X-13608Y-16163D01*
G01X-13578Y-16189D01*
G01X-13547Y-16214D01*
G01X-13516Y-16237D01*
G01X-13483Y-16259D01*
G01X-13449Y-16279D01*
G01X-13415Y-16298D01*
G01X-13380Y-16315D01*
G01X-13344Y-16331D01*
G01X-13307Y-16345D01*
G01X-13270Y-16358D01*
G01X-13232Y-16369D01*
G01X-13194Y-16378D01*
G01X-13156Y-16386D01*
G01X-13117Y-16392D01*
G01X-13078Y-16396D01*
G01X-13039Y-16399D01*
G01X-13000Y-16400D01*
G54D12*
G01X-13000Y-15250D02*
G01X-12500Y-15750D01*
G01X-12500Y-15750D02*
G01X-13500Y-15750D01*
G01X-13500Y-15750D02*
G01X-13000Y-15250D01*
G01X-12600Y-15300D02*
G01X-11900Y-14800D01*
G01X-11900Y-14800D02*
G01X-12300Y-14800D01*
G01X-11900Y-14800D02*
G01X-12000Y-15200D01*
G04 draw reference designator for part D8*
G54D11*
G01X-11622Y-16500D02*
G01X-12100Y-16500D01*
G01X-11622Y-16659D02*
G01X-11622Y-16500D01*
G01X-11622Y-16659D02*
G01X-11645Y-16727D01*
G01X-11645Y-16727D02*
G01X-11690Y-16772D01*
G01X-11690Y-16772D02*
G01X-11736Y-16795D01*
G01X-11736Y-16795D02*
G01X-11804Y-16818D01*
G01X-11804Y-16818D02*
G01X-11918Y-16818D01*
G01X-11918Y-16818D02*
G01X-11986Y-16795D01*
G01X-11986Y-16795D02*
G01X-12031Y-16772D01*
G01X-12031Y-16772D02*
G01X-12077Y-16727D01*
G01X-12077Y-16727D02*
G01X-12100Y-16659D01*
G01X-12100Y-16500D02*
G01X-12100Y-16659D01*
G01X-11622Y-17113D02*
G01X-11645Y-17045D01*
G01X-11645Y-17045D02*
G01X-11690Y-17022D01*
G01X-11690Y-17022D02*
G01X-11736Y-17022D01*
G01X-11736Y-17022D02*
G01X-11781Y-17045D01*
G01X-11781Y-17045D02*
G01X-11804Y-17090D01*
G01X-11804Y-17090D02*
G01X-11827Y-17181D01*
G01X-11827Y-17181D02*
G01X-11850Y-17250D01*
G01X-11850Y-17250D02*
G01X-11895Y-17295D01*
G01X-11895Y-17295D02*
G01X-11940Y-17318D01*
G01X-11940Y-17318D02*
G01X-12009Y-17318D01*
G01X-12009Y-17318D02*
G01X-12054Y-17295D01*
G01X-12054Y-17295D02*
G01X-12077Y-17272D01*
G01X-12077Y-17272D02*
G01X-12100Y-17204D01*
G01X-12100Y-17113D02*
G01X-12100Y-17204D01*
G01X-12077Y-17045D02*
G01X-12100Y-17113D01*
G01X-12054Y-17022D02*
G01X-12077Y-17045D01*
G01X-12009Y-17000D02*
G01X-12054Y-17022D01*
G01X-11940Y-17000D02*
G01X-12009Y-17000D01*
G01X-11895Y-17022D02*
G01X-11940Y-17000D01*
G01X-11850Y-17068D02*
G01X-11895Y-17022D01*
G01X-11827Y-17136D02*
G01X-11850Y-17068D01*
G01X-11804Y-17227D02*
G01X-11827Y-17136D01*
G01X-11781Y-17272D02*
G01X-11804Y-17227D01*
G01X-11736Y-17295D02*
G01X-11781Y-17272D01*
G01X-11690Y-17295D02*
G01X-11736Y-17295D01*
G01X-11645Y-17272D02*
G01X-11690Y-17295D01*
G01X-11622Y-17204D02*
G01X-11645Y-17272D01*
G01X-11622Y-17113D02*
G01X-11622Y-17204D01*
G04 Draw part R25*
G04 draw part outline for part R25*
G01X4250Y-15250D02*
G01X4250Y-12750D01*
G01X4250Y-12750D02*
G01X5250Y-12750D01*
G01X5250Y-12750D02*
G01X5250Y-15250D01*
G01X5250Y-15250D02*
G01X4250Y-15250D01*
G04 draw reference designator for part R25*
G01X3292Y-14000D02*
G01X3770Y-14000D01*
G01X3292Y-13795D02*
G01X3292Y-14000D01*
G01X3292Y-13795D02*
G01X3315Y-13727D01*
G01X3315Y-13727D02*
G01X3338Y-13704D01*
G01X3338Y-13704D02*
G01X3383Y-13681D01*
G01X3383Y-13681D02*
G01X3429Y-13681D01*
G01X3429Y-13681D02*
G01X3474Y-13704D01*
G01X3474Y-13704D02*
G01X3497Y-13727D01*
G01X3497Y-13727D02*
G01X3520Y-13795D01*
G01X3520Y-14000D02*
G01X3520Y-13795D01*
G01X3520Y-13840D02*
G01X3770Y-13681D01*
G01X3383Y-13477D02*
G01X3406Y-13477D01*
G01X3338Y-13454D02*
G01X3383Y-13477D01*
G01X3315Y-13431D02*
G01X3338Y-13454D01*
G01X3292Y-13386D02*
G01X3315Y-13431D01*
G01X3292Y-13295D02*
G01X3292Y-13386D01*
G01X3292Y-13295D02*
G01X3315Y-13250D01*
G01X3315Y-13250D02*
G01X3338Y-13227D01*
G01X3338Y-13227D02*
G01X3383Y-13204D01*
G01X3383Y-13204D02*
G01X3429Y-13204D01*
G01X3429Y-13204D02*
G01X3474Y-13227D01*
G01X3474Y-13227D02*
G01X3542Y-13272D01*
G01X3542Y-13272D02*
G01X3770Y-13500D01*
G01X3770Y-13181D02*
G01X3770Y-13500D01*
G01X3292Y-12954D02*
G01X3292Y-12727D01*
G01X3292Y-12954D02*
G01X3497Y-12977D01*
G01X3474Y-12954D02*
G01X3497Y-12977D01*
G01X3451Y-12886D02*
G01X3474Y-12954D01*
G01X3451Y-12818D02*
G01X3451Y-12886D01*
G01X3451Y-12818D02*
G01X3474Y-12750D01*
G01X3474Y-12750D02*
G01X3520Y-12704D01*
G01X3520Y-12704D02*
G01X3588Y-12681D01*
G01X3588Y-12681D02*
G01X3633Y-12681D01*
G01X3633Y-12681D02*
G01X3701Y-12704D01*
G01X3701Y-12704D02*
G01X3747Y-12750D01*
G01X3747Y-12750D02*
G01X3770Y-12818D01*
G01X3770Y-12886D02*
G01X3770Y-12818D01*
G01X3747Y-12954D02*
G01X3770Y-12886D01*
G01X3724Y-12977D02*
G01X3747Y-12954D01*
G01X3679Y-13000D02*
G01X3724Y-12977D01*
G04 Draw part R26*
G04 draw part outline for part R26*
G01X9250Y-15250D02*
G01X9250Y-12750D01*
G01X9250Y-12750D02*
G01X10250Y-12750D01*
G01X10250Y-12750D02*
G01X10250Y-15250D01*
G01X10250Y-15250D02*
G01X9250Y-15250D01*
G04 draw reference designator for part R26*
G01X8292Y-14000D02*
G01X8770Y-14000D01*
G01X8292Y-13795D02*
G01X8292Y-14000D01*
G01X8292Y-13795D02*
G01X8315Y-13727D01*
G01X8315Y-13727D02*
G01X8338Y-13704D01*
G01X8338Y-13704D02*
G01X8383Y-13681D01*
G01X8383Y-13681D02*
G01X8429Y-13681D01*
G01X8429Y-13681D02*
G01X8474Y-13704D01*
G01X8474Y-13704D02*
G01X8497Y-13727D01*
G01X8497Y-13727D02*
G01X8520Y-13795D01*
G01X8520Y-14000D02*
G01X8520Y-13795D01*
G01X8520Y-13840D02*
G01X8770Y-13681D01*
G01X8383Y-13477D02*
G01X8406Y-13477D01*
G01X8338Y-13454D02*
G01X8383Y-13477D01*
G01X8315Y-13431D02*
G01X8338Y-13454D01*
G01X8292Y-13386D02*
G01X8315Y-13431D01*
G01X8292Y-13295D02*
G01X8292Y-13386D01*
G01X8292Y-13295D02*
G01X8315Y-13250D01*
G01X8315Y-13250D02*
G01X8338Y-13227D01*
G01X8338Y-13227D02*
G01X8383Y-13204D01*
G01X8383Y-13204D02*
G01X8429Y-13204D01*
G01X8429Y-13204D02*
G01X8474Y-13227D01*
G01X8474Y-13227D02*
G01X8542Y-13272D01*
G01X8542Y-13272D02*
G01X8770Y-13500D01*
G01X8770Y-13181D02*
G01X8770Y-13500D01*
G01X8315Y-12750D02*
G01X8360Y-12727D01*
G01X8292Y-12818D02*
G01X8315Y-12750D01*
G01X8292Y-12863D02*
G01X8292Y-12818D01*
G01X8292Y-12863D02*
G01X8315Y-12931D01*
G01X8315Y-12931D02*
G01X8383Y-12977D01*
G01X8383Y-12977D02*
G01X8497Y-13000D01*
G01X8497Y-13000D02*
G01X8610Y-13000D01*
G01X8610Y-13000D02*
G01X8701Y-12977D01*
G01X8701Y-12977D02*
G01X8747Y-12931D01*
G01X8747Y-12931D02*
G01X8770Y-12863D01*
G01X8770Y-12840D02*
G01X8770Y-12863D01*
G01X8747Y-12772D02*
G01X8770Y-12840D01*
G01X8701Y-12727D02*
G01X8747Y-12772D01*
G01X8633Y-12704D02*
G01X8701Y-12727D01*
G01X8610Y-12704D02*
G01X8633Y-12704D01*
G01X8542Y-12727D02*
G01X8610Y-12704D01*
G01X8497Y-12772D02*
G01X8542Y-12727D01*
G01X8474Y-12840D02*
G01X8497Y-12772D01*
G01X8474Y-12863D02*
G01X8474Y-12840D01*
G01X8474Y-12863D02*
G01X8497Y-12931D01*
G01X8497Y-12931D02*
G01X8542Y-12977D01*
G01X8542Y-12977D02*
G01X8610Y-13000D01*
G04 Draw part R27*
G04 draw part outline for part R27*
G01X-750Y-15250D02*
G01X-750Y-12750D01*
G01X-750Y-12750D02*
G01X250Y-12750D01*
G01X250Y-12750D02*
G01X250Y-15250D01*
G01X250Y-15250D02*
G01X-750Y-15250D01*
G04 draw reference designator for part R27*
G01X-1707Y-14000D02*
G01X-1230Y-14000D01*
G01X-1707Y-13795D02*
G01X-1707Y-14000D01*
G01X-1707Y-13795D02*
G01X-1684Y-13727D01*
G01X-1684Y-13727D02*
G01X-1661Y-13704D01*
G01X-1661Y-13704D02*
G01X-1616Y-13681D01*
G01X-1616Y-13681D02*
G01X-1570Y-13681D01*
G01X-1570Y-13681D02*
G01X-1525Y-13704D01*
G01X-1525Y-13704D02*
G01X-1502Y-13727D01*
G01X-1502Y-13727D02*
G01X-1480Y-13795D01*
G01X-1480Y-14000D02*
G01X-1480Y-13795D01*
G01X-1480Y-13840D02*
G01X-1230Y-13681D01*
G01X-1616Y-13477D02*
G01X-1593Y-13477D01*
G01X-1661Y-13454D02*
G01X-1616Y-13477D01*
G01X-1684Y-13431D02*
G01X-1661Y-13454D01*
G01X-1707Y-13386D02*
G01X-1684Y-13431D01*
G01X-1707Y-13295D02*
G01X-1707Y-13386D01*
G01X-1707Y-13295D02*
G01X-1684Y-13250D01*
G01X-1684Y-13250D02*
G01X-1661Y-13227D01*
G01X-1661Y-13227D02*
G01X-1616Y-13204D01*
G01X-1616Y-13204D02*
G01X-1570Y-13204D01*
G01X-1570Y-13204D02*
G01X-1525Y-13227D01*
G01X-1525Y-13227D02*
G01X-1457Y-13272D01*
G01X-1457Y-13272D02*
G01X-1230Y-13500D01*
G01X-1230Y-13181D02*
G01X-1230Y-13500D01*
G01X-1707Y-12681D02*
G01X-1230Y-12909D01*
G01X-1707Y-12681D02*
G01X-1707Y-13000D01*
G04 Draw part R28*
G04 draw part outline for part R28*
G01X14250Y-15250D02*
G01X14250Y-12750D01*
G01X14250Y-12750D02*
G01X15250Y-12750D01*
G01X15250Y-12750D02*
G01X15250Y-15250D01*
G01X15250Y-15250D02*
G01X14250Y-15250D01*
G04 draw reference designator for part R28*
G01X13292Y-14000D02*
G01X13770Y-14000D01*
G01X13292Y-13795D02*
G01X13292Y-14000D01*
G01X13292Y-13795D02*
G01X13315Y-13727D01*
G01X13315Y-13727D02*
G01X13338Y-13704D01*
G01X13338Y-13704D02*
G01X13383Y-13681D01*
G01X13383Y-13681D02*
G01X13429Y-13681D01*
G01X13429Y-13681D02*
G01X13474Y-13704D01*
G01X13474Y-13704D02*
G01X13497Y-13727D01*
G01X13497Y-13727D02*
G01X13520Y-13795D01*
G01X13520Y-14000D02*
G01X13520Y-13795D01*
G01X13520Y-13840D02*
G01X13770Y-13681D01*
G01X13383Y-13477D02*
G01X13406Y-13477D01*
G01X13338Y-13454D02*
G01X13383Y-13477D01*
G01X13315Y-13431D02*
G01X13338Y-13454D01*
G01X13292Y-13386D02*
G01X13315Y-13431D01*
G01X13292Y-13295D02*
G01X13292Y-13386D01*
G01X13292Y-13295D02*
G01X13315Y-13250D01*
G01X13315Y-13250D02*
G01X13338Y-13227D01*
G01X13338Y-13227D02*
G01X13383Y-13204D01*
G01X13383Y-13204D02*
G01X13429Y-13204D01*
G01X13429Y-13204D02*
G01X13474Y-13227D01*
G01X13474Y-13227D02*
G01X13542Y-13272D01*
G01X13542Y-13272D02*
G01X13770Y-13500D01*
G01X13770Y-13181D02*
G01X13770Y-13500D01*
G01X13292Y-12886D02*
G01X13315Y-12954D01*
G01X13315Y-12954D02*
G01X13360Y-12977D01*
G01X13360Y-12977D02*
G01X13406Y-12977D01*
G01X13406Y-12977D02*
G01X13451Y-12954D01*
G01X13451Y-12954D02*
G01X13474Y-12909D01*
G01X13474Y-12909D02*
G01X13497Y-12818D01*
G01X13497Y-12818D02*
G01X13520Y-12750D01*
G01X13520Y-12750D02*
G01X13565Y-12704D01*
G01X13565Y-12704D02*
G01X13610Y-12681D01*
G01X13610Y-12681D02*
G01X13679Y-12681D01*
G01X13679Y-12681D02*
G01X13724Y-12704D01*
G01X13724Y-12704D02*
G01X13747Y-12727D01*
G01X13747Y-12727D02*
G01X13770Y-12795D01*
G01X13770Y-12886D02*
G01X13770Y-12795D01*
G01X13747Y-12954D02*
G01X13770Y-12886D01*
G01X13724Y-12977D02*
G01X13747Y-12954D01*
G01X13679Y-13000D02*
G01X13724Y-12977D01*
G01X13610Y-13000D02*
G01X13679Y-13000D01*
G01X13565Y-12977D02*
G01X13610Y-13000D01*
G01X13520Y-12931D02*
G01X13565Y-12977D01*
G01X13497Y-12863D02*
G01X13520Y-12931D01*
G01X13474Y-12772D02*
G01X13497Y-12863D01*
G01X13451Y-12727D02*
G01X13474Y-12772D01*
G01X13406Y-12704D02*
G01X13451Y-12727D01*
G01X13360Y-12704D02*
G01X13406Y-12704D01*
G01X13315Y-12727D02*
G01X13360Y-12704D01*
G01X13292Y-12795D02*
G01X13315Y-12727D01*
G01X13292Y-12886D02*
G01X13292Y-12795D01*
G04 Draw part R37*
G04 draw part outline for part R37*
G01X-2750Y-11500D02*
G01X-5250Y-11500D01*
G01X-5250Y-11500D02*
G01X-5250Y-10500D01*
G01X-5250Y-10500D02*
G01X-2750Y-10500D01*
G01X-2750Y-10500D02*
G01X-2750Y-11500D01*
G04 draw reference designator for part R37*
G01X-4000Y-12457D02*
G01X-4000Y-11980D01*
G01X-4204Y-12457D02*
G01X-4000Y-12457D01*
G01X-4204Y-12457D02*
G01X-4272Y-12434D01*
G01X-4272Y-12434D02*
G01X-4295Y-12411D01*
G01X-4295Y-12411D02*
G01X-4318Y-12366D01*
G01X-4318Y-12366D02*
G01X-4318Y-12320D01*
G01X-4318Y-12320D02*
G01X-4295Y-12275D01*
G01X-4295Y-12275D02*
G01X-4272Y-12252D01*
G01X-4272Y-12252D02*
G01X-4204Y-12230D01*
G01X-4000Y-12230D02*
G01X-4204Y-12230D01*
G01X-4159Y-12230D02*
G01X-4318Y-11980D01*
G01X-4795Y-12457D02*
G01X-4545Y-12457D01*
G01X-4795Y-12457D02*
G01X-4659Y-12275D01*
G01X-4727Y-12275D02*
G01X-4659Y-12275D01*
G01X-4727Y-12275D02*
G01X-4772Y-12252D01*
G01X-4772Y-12252D02*
G01X-4795Y-12230D01*
G01X-4795Y-12230D02*
G01X-4818Y-12161D01*
G01X-4818Y-12161D02*
G01X-4818Y-12116D01*
G01X-4818Y-12116D02*
G01X-4795Y-12048D01*
G01X-4795Y-12048D02*
G01X-4750Y-12002D01*
G01X-4750Y-12002D02*
G01X-4681Y-11980D01*
G01X-4613Y-11980D02*
G01X-4681Y-11980D01*
G01X-4545Y-12002D02*
G01X-4613Y-11980D01*
G01X-4522Y-12025D02*
G01X-4545Y-12002D01*
G01X-4500Y-12070D02*
G01X-4522Y-12025D01*
G01X-5318Y-12457D02*
G01X-5090Y-11980D01*
G01X-5318Y-12457D02*
G01X-5000Y-12457D01*
G04 Draw part R35*
G04 draw part outline for part R35*
G01X13750Y4500D02*
G01X16250Y4500D01*
G01X16250Y4500D02*
G01X16250Y3500D01*
G01X16250Y3500D02*
G01X13750Y3500D01*
G01X13750Y3500D02*
G01X13750Y4500D01*
G04 draw reference designator for part R35*
G01X15000Y4477D02*
G01X15000Y4000D01*
G01X15204Y4477D02*
G01X15000Y4477D01*
G01X15204Y4477D02*
G01X15272Y4454D01*
G01X15272Y4454D02*
G01X15295Y4431D01*
G01X15295Y4431D02*
G01X15318Y4386D01*
G01X15318Y4386D02*
G01X15318Y4340D01*
G01X15318Y4340D02*
G01X15295Y4295D01*
G01X15295Y4295D02*
G01X15272Y4272D01*
G01X15272Y4272D02*
G01X15204Y4250D01*
G01X15000Y4250D02*
G01X15204Y4250D01*
G01X15159Y4250D02*
G01X15318Y4000D01*
G01X15795Y4477D02*
G01X15545Y4477D01*
G01X15795Y4477D02*
G01X15659Y4295D01*
G01X15727Y4295D02*
G01X15659Y4295D01*
G01X15727Y4295D02*
G01X15772Y4272D01*
G01X15772Y4272D02*
G01X15795Y4250D01*
G01X15795Y4250D02*
G01X15818Y4181D01*
G01X15818Y4181D02*
G01X15818Y4136D01*
G01X15818Y4136D02*
G01X15795Y4068D01*
G01X15795Y4068D02*
G01X15750Y4022D01*
G01X15750Y4022D02*
G01X15681Y4000D01*
G01X15613Y4000D02*
G01X15681Y4000D01*
G01X15545Y4022D02*
G01X15613Y4000D01*
G01X15522Y4045D02*
G01X15545Y4022D01*
G01X15500Y4090D02*
G01X15522Y4045D01*
G01X16045Y4477D02*
G01X16272Y4477D01*
G01X16045Y4477D02*
G01X16022Y4272D01*
G01X16045Y4295D02*
G01X16022Y4272D01*
G01X16113Y4318D02*
G01X16045Y4295D01*
G01X16181Y4318D02*
G01X16113Y4318D01*
G01X16181Y4318D02*
G01X16250Y4295D01*
G01X16250Y4295D02*
G01X16295Y4250D01*
G01X16295Y4250D02*
G01X16318Y4181D01*
G01X16318Y4181D02*
G01X16318Y4136D01*
G01X16318Y4136D02*
G01X16295Y4068D01*
G01X16295Y4068D02*
G01X16250Y4022D01*
G01X16250Y4022D02*
G01X16181Y4000D01*
G01X16113Y4000D02*
G01X16181Y4000D01*
G01X16045Y4022D02*
G01X16113Y4000D01*
G01X16022Y4045D02*
G01X16045Y4022D01*
G01X16000Y4090D02*
G01X16022Y4045D01*
G04 Draw part D9*
G04 draw part outline for part D9*
G01X13000Y1900D02*
G01X12960Y1899D01*
G01X12921Y1896D01*
G01X12882Y1892D01*
G01X12843Y1886D01*
G01X12805Y1878D01*
G01X12767Y1869D01*
G01X12729Y1858D01*
G01X12692Y1845D01*
G01X12655Y1831D01*
G01X12619Y1815D01*
G01X12584Y1798D01*
G01X12549Y1779D01*
G01X12516Y1759D01*
G01X12483Y1737D01*
G01X12452Y1714D01*
G01X12421Y1689D01*
G01X12391Y1663D01*
G01X12363Y1636D01*
G01X12336Y1608D01*
G01X12310Y1578D01*
G01X12285Y1547D01*
G01X12262Y1516D01*
G01X12240Y1483D01*
G01X12220Y1449D01*
G01X12201Y1415D01*
G01X12184Y1380D01*
G01X12168Y1344D01*
G01X12154Y1307D01*
G01X12141Y1270D01*
G01X12130Y1232D01*
G01X12121Y1194D01*
G01X12113Y1156D01*
G01X12107Y1117D01*
G01X12103Y1078D01*
G01X12100Y1039D01*
G01X12100Y1000D01*
G01X12100Y1000D02*
G01X12100Y960D01*
G01X12103Y921D01*
G01X12107Y882D01*
G01X12113Y843D01*
G01X12121Y805D01*
G01X12130Y767D01*
G01X12141Y729D01*
G01X12154Y692D01*
G01X12168Y655D01*
G01X12184Y619D01*
G01X12201Y584D01*
G01X12220Y549D01*
G01X12240Y516D01*
G01X12262Y483D01*
G01X12285Y452D01*
G01X12310Y421D01*
G01X12336Y391D01*
G01X12363Y363D01*
G01X12391Y336D01*
G01X12421Y310D01*
G01X12452Y285D01*
G01X12483Y262D01*
G01X12516Y240D01*
G01X12550Y220D01*
G01X12584Y201D01*
G01X12619Y184D01*
G01X12655Y168D01*
G01X12692Y154D01*
G01X12729Y141D01*
G01X12767Y130D01*
G01X12805Y121D01*
G01X12843Y113D01*
G01X12882Y107D01*
G01X12921Y103D01*
G01X12960Y100D01*
G01X13000Y100D01*
G01X13000Y100D02*
G01X13039Y100D01*
G01X13078Y103D01*
G01X13117Y107D01*
G01X13156Y113D01*
G01X13194Y121D01*
G01X13232Y130D01*
G01X13270Y141D01*
G01X13307Y154D01*
G01X13344Y168D01*
G01X13380Y184D01*
G01X13415Y201D01*
G01X13450Y220D01*
G01X13483Y240D01*
G01X13516Y262D01*
G01X13547Y285D01*
G01X13578Y310D01*
G01X13608Y336D01*
G01X13636Y363D01*
G01X13663Y391D01*
G01X13689Y421D01*
G01X13714Y452D01*
G01X13737Y483D01*
G01X13759Y516D01*
G01X13779Y550D01*
G01X13798Y584D01*
G01X13815Y619D01*
G01X13831Y655D01*
G01X13845Y692D01*
G01X13858Y729D01*
G01X13869Y767D01*
G01X13878Y805D01*
G01X13886Y843D01*
G01X13892Y882D01*
G01X13896Y921D01*
G01X13899Y960D01*
G01X13900Y1000D01*
G01X13900Y1000D02*
G01X13899Y1039D01*
G01X13896Y1078D01*
G01X13892Y1117D01*
G01X13886Y1156D01*
G01X13878Y1194D01*
G01X13869Y1232D01*
G01X13858Y1270D01*
G01X13845Y1307D01*
G01X13831Y1344D01*
G01X13815Y1380D01*
G01X13798Y1415D01*
G01X13779Y1450D01*
G01X13759Y1483D01*
G01X13737Y1516D01*
G01X13714Y1547D01*
G01X13689Y1578D01*
G01X13663Y1608D01*
G01X13636Y1636D01*
G01X13608Y1663D01*
G01X13578Y1689D01*
G01X13547Y1714D01*
G01X13516Y1737D01*
G01X13483Y1759D01*
G01X13449Y1779D01*
G01X13415Y1798D01*
G01X13380Y1815D01*
G01X13344Y1831D01*
G01X13307Y1845D01*
G01X13270Y1858D01*
G01X13232Y1869D01*
G01X13194Y1878D01*
G01X13156Y1886D01*
G01X13117Y1892D01*
G01X13078Y1896D01*
G01X13039Y1899D01*
G01X13000Y1900D01*
G54D12*
G01X13000Y750D02*
G01X12500Y1250D01*
G01X12500Y1250D02*
G01X13500Y1250D01*
G01X13500Y1250D02*
G01X13000Y750D01*
G01X12600Y800D02*
G01X11900Y300D01*
G01X11900Y300D02*
G01X12300Y300D01*
G01X11900Y300D02*
G01X12000Y700D01*
G04 draw reference designator for part D9*
G54D11*
G01X11622Y2000D02*
G01X12100Y2000D01*
G01X11622Y2159D02*
G01X11622Y2000D01*
G01X11622Y2159D02*
G01X11645Y2227D01*
G01X11645Y2227D02*
G01X11690Y2272D01*
G01X11690Y2272D02*
G01X11736Y2295D01*
G01X11736Y2295D02*
G01X11804Y2318D01*
G01X11804Y2318D02*
G01X11918Y2318D01*
G01X11918Y2318D02*
G01X11986Y2295D01*
G01X11986Y2295D02*
G01X12031Y2272D01*
G01X12031Y2272D02*
G01X12077Y2227D01*
G01X12077Y2227D02*
G01X12100Y2159D01*
G01X12100Y2000D02*
G01X12100Y2159D01*
G01X11781Y2795D02*
G01X11850Y2772D01*
G01X11850Y2772D02*
G01X11895Y2727D01*
G01X11895Y2727D02*
G01X11918Y2659D01*
G01X11918Y2636D02*
G01X11918Y2659D01*
G01X11895Y2568D02*
G01X11918Y2636D01*
G01X11850Y2522D02*
G01X11895Y2568D01*
G01X11781Y2500D02*
G01X11850Y2522D01*
G01X11759Y2500D02*
G01X11781Y2500D01*
G01X11690Y2522D02*
G01X11759Y2500D01*
G01X11645Y2568D02*
G01X11690Y2522D01*
G01X11622Y2636D02*
G01X11645Y2568D01*
G01X11622Y2659D02*
G01X11622Y2636D01*
G01X11622Y2659D02*
G01X11645Y2727D01*
G01X11645Y2727D02*
G01X11690Y2772D01*
G01X11690Y2772D02*
G01X11781Y2795D01*
G01X11781Y2795D02*
G01X11895Y2795D01*
G01X11895Y2795D02*
G01X12009Y2772D01*
G01X12009Y2772D02*
G01X12077Y2727D01*
G01X12077Y2727D02*
G01X12100Y2659D01*
G01X12100Y2613D02*
G01X12100Y2659D01*
G01X12077Y2545D02*
G01X12100Y2613D01*
G01X12031Y2522D02*
G01X12077Y2545D01*
G04 Draw part R36*
G04 draw part outline for part R36*
G01X13750Y3500D02*
G01X16250Y3500D01*
G01X16250Y3500D02*
G01X16250Y2500D01*
G01X16250Y2500D02*
G01X13750Y2500D01*
G01X13750Y2500D02*
G01X13750Y3500D01*
G04 draw reference designator for part R36*
G01X15000Y3477D02*
G01X15000Y3000D01*
G01X15204Y3477D02*
G01X15000Y3477D01*
G01X15204Y3477D02*
G01X15272Y3454D01*
G01X15272Y3454D02*
G01X15295Y3431D01*
G01X15295Y3431D02*
G01X15318Y3386D01*
G01X15318Y3386D02*
G01X15318Y3340D01*
G01X15318Y3340D02*
G01X15295Y3295D01*
G01X15295Y3295D02*
G01X15272Y3272D01*
G01X15272Y3272D02*
G01X15204Y3250D01*
G01X15000Y3250D02*
G01X15204Y3250D01*
G01X15159Y3250D02*
G01X15318Y3000D01*
G01X15795Y3477D02*
G01X15545Y3477D01*
G01X15795Y3477D02*
G01X15659Y3295D01*
G01X15727Y3295D02*
G01X15659Y3295D01*
G01X15727Y3295D02*
G01X15772Y3272D01*
G01X15772Y3272D02*
G01X15795Y3250D01*
G01X15795Y3250D02*
G01X15818Y3181D01*
G01X15818Y3181D02*
G01X15818Y3136D01*
G01X15818Y3136D02*
G01X15795Y3068D01*
G01X15795Y3068D02*
G01X15750Y3022D01*
G01X15750Y3022D02*
G01X15681Y3000D01*
G01X15613Y3000D02*
G01X15681Y3000D01*
G01X15545Y3022D02*
G01X15613Y3000D01*
G01X15522Y3045D02*
G01X15545Y3022D01*
G01X15500Y3090D02*
G01X15522Y3045D01*
G01X16250Y3454D02*
G01X16272Y3409D01*
G01X16181Y3477D02*
G01X16250Y3454D01*
G01X16136Y3477D02*
G01X16181Y3477D01*
G01X16136Y3477D02*
G01X16068Y3454D01*
G01X16068Y3454D02*
G01X16022Y3386D01*
G01X16022Y3386D02*
G01X16000Y3272D01*
G01X16000Y3272D02*
G01X16000Y3159D01*
G01X16000Y3159D02*
G01X16022Y3068D01*
G01X16022Y3068D02*
G01X16068Y3022D01*
G01X16068Y3022D02*
G01X16136Y3000D01*
G01X16159Y3000D02*
G01X16136Y3000D01*
G01X16227Y3022D02*
G01X16159Y3000D01*
G01X16272Y3068D02*
G01X16227Y3022D01*
G01X16295Y3136D02*
G01X16272Y3068D01*
G01X16295Y3159D02*
G01X16295Y3136D01*
G01X16272Y3227D02*
G01X16295Y3159D01*
G01X16227Y3272D02*
G01X16272Y3227D01*
G01X16159Y3295D02*
G01X16227Y3272D01*
G01X16136Y3295D02*
G01X16159Y3295D01*
G01X16136Y3295D02*
G01X16068Y3272D01*
G01X16068Y3272D02*
G01X16022Y3227D01*
G01X16022Y3227D02*
G01X16000Y3159D01*
G04 Draw part D10*
G04 draw part outline for part D10*
G01X17000Y1900D02*
G01X16960Y1899D01*
G01X16921Y1896D01*
G01X16882Y1892D01*
G01X16843Y1886D01*
G01X16805Y1878D01*
G01X16767Y1869D01*
G01X16729Y1858D01*
G01X16692Y1845D01*
G01X16655Y1831D01*
G01X16619Y1815D01*
G01X16584Y1798D01*
G01X16549Y1779D01*
G01X16516Y1759D01*
G01X16483Y1737D01*
G01X16452Y1714D01*
G01X16421Y1689D01*
G01X16391Y1663D01*
G01X16363Y1636D01*
G01X16336Y1608D01*
G01X16310Y1578D01*
G01X16285Y1547D01*
G01X16262Y1516D01*
G01X16240Y1483D01*
G01X16220Y1449D01*
G01X16201Y1415D01*
G01X16184Y1380D01*
G01X16168Y1344D01*
G01X16154Y1307D01*
G01X16141Y1270D01*
G01X16130Y1232D01*
G01X16121Y1194D01*
G01X16113Y1156D01*
G01X16107Y1117D01*
G01X16103Y1078D01*
G01X16100Y1039D01*
G01X16100Y1000D01*
G01X16100Y1000D02*
G01X16100Y960D01*
G01X16103Y921D01*
G01X16107Y882D01*
G01X16113Y843D01*
G01X16121Y805D01*
G01X16130Y767D01*
G01X16141Y729D01*
G01X16154Y692D01*
G01X16168Y655D01*
G01X16184Y619D01*
G01X16201Y584D01*
G01X16220Y549D01*
G01X16240Y516D01*
G01X16262Y483D01*
G01X16285Y452D01*
G01X16310Y421D01*
G01X16336Y391D01*
G01X16363Y363D01*
G01X16391Y336D01*
G01X16421Y310D01*
G01X16452Y285D01*
G01X16483Y262D01*
G01X16516Y240D01*
G01X16550Y220D01*
G01X16584Y201D01*
G01X16619Y184D01*
G01X16655Y168D01*
G01X16692Y154D01*
G01X16729Y141D01*
G01X16767Y130D01*
G01X16805Y121D01*
G01X16843Y113D01*
G01X16882Y107D01*
G01X16921Y103D01*
G01X16960Y100D01*
G01X17000Y100D01*
G01X17000Y100D02*
G01X17039Y100D01*
G01X17078Y103D01*
G01X17117Y107D01*
G01X17156Y113D01*
G01X17194Y121D01*
G01X17232Y130D01*
G01X17270Y141D01*
G01X17307Y154D01*
G01X17344Y168D01*
G01X17380Y184D01*
G01X17415Y201D01*
G01X17450Y220D01*
G01X17483Y240D01*
G01X17516Y262D01*
G01X17547Y285D01*
G01X17578Y310D01*
G01X17608Y336D01*
G01X17636Y363D01*
G01X17663Y391D01*
G01X17689Y421D01*
G01X17714Y452D01*
G01X17737Y483D01*
G01X17759Y516D01*
G01X17779Y550D01*
G01X17798Y584D01*
G01X17815Y619D01*
G01X17831Y655D01*
G01X17845Y692D01*
G01X17858Y729D01*
G01X17869Y767D01*
G01X17878Y805D01*
G01X17886Y843D01*
G01X17892Y882D01*
G01X17896Y921D01*
G01X17899Y960D01*
G01X17900Y1000D01*
G01X17900Y1000D02*
G01X17899Y1039D01*
G01X17896Y1078D01*
G01X17892Y1117D01*
G01X17886Y1156D01*
G01X17878Y1194D01*
G01X17869Y1232D01*
G01X17858Y1270D01*
G01X17845Y1307D01*
G01X17831Y1344D01*
G01X17815Y1380D01*
G01X17798Y1415D01*
G01X17779Y1450D01*
G01X17759Y1483D01*
G01X17737Y1516D01*
G01X17714Y1547D01*
G01X17689Y1578D01*
G01X17663Y1608D01*
G01X17636Y1636D01*
G01X17608Y1663D01*
G01X17578Y1689D01*
G01X17547Y1714D01*
G01X17516Y1737D01*
G01X17483Y1759D01*
G01X17449Y1779D01*
G01X17415Y1798D01*
G01X17380Y1815D01*
G01X17344Y1831D01*
G01X17307Y1845D01*
G01X17270Y1858D01*
G01X17232Y1869D01*
G01X17194Y1878D01*
G01X17156Y1886D01*
G01X17117Y1892D01*
G01X17078Y1896D01*
G01X17039Y1899D01*
G01X17000Y1900D01*
G54D12*
G01X17000Y750D02*
G01X16500Y1250D01*
G01X16500Y1250D02*
G01X17500Y1250D01*
G01X17500Y1250D02*
G01X17000Y750D01*
G01X16600Y800D02*
G01X15900Y300D01*
G01X15900Y300D02*
G01X16300Y300D01*
G01X15900Y300D02*
G01X16000Y700D01*
G04 draw reference designator for part D10*
G54D11*
G01X18000Y977D02*
G01X18000Y500D01*
G01X18159Y977D02*
G01X18000Y977D01*
G01X18159Y977D02*
G01X18227Y954D01*
G01X18227Y954D02*
G01X18272Y909D01*
G01X18272Y909D02*
G01X18295Y863D01*
G01X18295Y863D02*
G01X18318Y795D01*
G01X18318Y795D02*
G01X18318Y681D01*
G01X18318Y681D02*
G01X18295Y613D01*
G01X18295Y613D02*
G01X18272Y568D01*
G01X18272Y568D02*
G01X18227Y522D01*
G01X18227Y522D02*
G01X18159Y500D01*
G01X18000Y500D02*
G01X18159Y500D01*
G01X18545Y909D02*
G01X18500Y886D01*
G01X18613Y977D02*
G01X18545Y909D01*
G01X18613Y977D02*
G01X18613Y500D01*
G01X18931Y977D02*
G01X18863Y954D01*
G01X18863Y954D02*
G01X18818Y886D01*
G01X18818Y886D02*
G01X18795Y772D01*
G01X18795Y772D02*
G01X18795Y704D01*
G01X18795Y704D02*
G01X18818Y590D01*
G01X18818Y590D02*
G01X18863Y522D01*
G01X18863Y522D02*
G01X18931Y500D01*
G01X18977Y500D02*
G01X18931Y500D01*
G01X19045Y522D02*
G01X18977Y500D01*
G01X19090Y590D02*
G01X19045Y522D01*
G01X19113Y704D02*
G01X19090Y590D01*
G01X19113Y772D02*
G01X19113Y704D01*
G01X19090Y886D02*
G01X19113Y772D01*
G01X19045Y954D02*
G01X19090Y886D01*
G01X18977Y977D02*
G01X19045Y954D01*
G01X18931Y977D02*
G01X18977Y977D01*
G04 Draw part K1*
G04 draw part outline for part K1*
G54D12*
G01X-6000Y13000D02*
G01X6000Y13000D01*
G01X6000Y13000D02*
G01X6000Y17500D01*
G01X6000Y17500D02*
G01X-6000Y17500D01*
G01X-6000Y17500D02*
G01X-6000Y13000D01*
G01X-3000Y17500D02*
G01X-3000Y19500D01*
G01X-3000Y19500D02*
G01X3000Y19500D01*
G01X3000Y19500D02*
G01X3000Y17500D01*
G04 draw reference designator for part K1*
G01X-3000Y22454D02*
G01X-3000Y21500D01*
G01X-2363Y22454D02*
G01X-3000Y21818D01*
G01X-2772Y22045D02*
G01X-2363Y21500D01*
G01X-1909Y22318D02*
G01X-2000Y22272D01*
G01X-1772Y22454D02*
G01X-1909Y22318D01*
G01X-1772Y22454D02*
G01X-1772Y21500D01*
G04 Draw part K2*
G04 draw part outline for part K2*
G01X9750Y17750D02*
G01X9750Y13750D01*
G01X9750Y13750D02*
G01X14500Y13750D01*
G01X14500Y13750D02*
G01X14500Y17750D01*
G01X14500Y17750D02*
G01X9750Y17750D01*
G04 draw reference designator for part K2*
G01X11000Y16704D02*
G01X11000Y15750D01*
G01X11636Y16704D02*
G01X11000Y16068D01*
G01X11227Y16295D02*
G01X11636Y15750D01*
G01X12045Y16522D02*
G01X12045Y16477D01*
G01X12090Y16613D02*
G01X12045Y16522D01*
G01X12136Y16659D02*
G01X12090Y16613D01*
G01X12227Y16704D02*
G01X12136Y16659D01*
G01X12409Y16704D02*
G01X12227Y16704D01*
G01X12409Y16704D02*
G01X12500Y16659D01*
G01X12500Y16659D02*
G01X12545Y16613D01*
G01X12545Y16613D02*
G01X12590Y16522D01*
G01X12590Y16522D02*
G01X12590Y16431D01*
G01X12590Y16431D02*
G01X12545Y16340D01*
G01X12545Y16340D02*
G01X12454Y16204D01*
G01X12454Y16204D02*
G01X12000Y15750D01*
G01X12636Y15750D02*
G01X12000Y15750D01*
G04 Draw part MH*
G04 draw part outline for part MH*
G04 draw reference designator for part MH*
G54D10*
G01X-16000Y16477D02*
G01X-16000Y16000D01*
G01X-16000Y16477D02*
G01X-15818Y16000D01*
G01X-15636Y16477D02*
G01X-15818Y16000D01*
G01X-15636Y16477D02*
G01X-15636Y16000D01*
G01X-15454Y16477D02*
G01X-15454Y16000D01*
G01X-15136Y16477D02*
G01X-15136Y16000D01*
G01X-15136Y16250D02*
G01X-15454Y16250D01*
G04 Draw part MH2*
G04 draw part outline for part MH2*
G04 draw reference designator for part MH2*
G01X17000Y16477D02*
G01X17000Y16000D01*
G01X17000Y16477D02*
G01X17181Y16000D01*
G01X17363Y16477D02*
G01X17181Y16000D01*
G01X17363Y16477D02*
G01X17363Y16000D01*
G01X17545Y16477D02*
G01X17545Y16000D01*
G01X17863Y16477D02*
G01X17863Y16000D01*
G01X17863Y16250D02*
G01X17545Y16250D01*
G01X18068Y16386D02*
G01X18068Y16363D01*
G01X18090Y16431D02*
G01X18068Y16386D01*
G01X18113Y16454D02*
G01X18090Y16431D01*
G01X18159Y16477D02*
G01X18113Y16454D01*
G01X18250Y16477D02*
G01X18159Y16477D01*
G01X18250Y16477D02*
G01X18295Y16454D01*
G01X18295Y16454D02*
G01X18318Y16431D01*
G01X18318Y16431D02*
G01X18340Y16386D01*
G01X18340Y16386D02*
G01X18340Y16340D01*
G01X18340Y16340D02*
G01X18318Y16295D01*
G01X18318Y16295D02*
G01X18272Y16227D01*
G01X18272Y16227D02*
G01X18045Y16000D01*
G01X18363Y16000D02*
G01X18045Y16000D01*
G04 Draw part MH3*
G04 draw part outline for part MH3*
G04 draw reference designator for part MH3*
G01X17000Y-8522D02*
G01X17000Y-9000D01*
G01X17000Y-8522D02*
G01X17181Y-9000D01*
G01X17363Y-8522D02*
G01X17181Y-9000D01*
G01X17363Y-8522D02*
G01X17363Y-9000D01*
G01X17545Y-8522D02*
G01X17545Y-9000D01*
G01X17863Y-8522D02*
G01X17863Y-9000D01*
G01X17863Y-8750D02*
G01X17545Y-8750D01*
G01X18340Y-8522D02*
G01X18090Y-8522D01*
G01X18340Y-8522D02*
G01X18204Y-8704D01*
G01X18272Y-8704D02*
G01X18204Y-8704D01*
G01X18272Y-8704D02*
G01X18318Y-8727D01*
G01X18318Y-8727D02*
G01X18340Y-8750D01*
G01X18340Y-8750D02*
G01X18363Y-8818D01*
G01X18363Y-8818D02*
G01X18363Y-8863D01*
G01X18363Y-8863D02*
G01X18340Y-8931D01*
G01X18340Y-8931D02*
G01X18295Y-8977D01*
G01X18295Y-8977D02*
G01X18227Y-9000D01*
G01X18159Y-9000D02*
G01X18227Y-9000D01*
G01X18090Y-8977D02*
G01X18159Y-9000D01*
G01X18068Y-8954D02*
G01X18090Y-8977D01*
G01X18045Y-8909D02*
G01X18068Y-8954D01*
G04 Draw part MH4*
G04 draw part outline for part MH4*
G04 draw reference designator for part MH4*
G01X-16000Y-15522D02*
G01X-16000Y-16000D01*
G01X-16000Y-15522D02*
G01X-15818Y-16000D01*
G01X-15636Y-15522D02*
G01X-15818Y-16000D01*
G01X-15636Y-15522D02*
G01X-15636Y-16000D01*
G01X-15454Y-15522D02*
G01X-15454Y-16000D01*
G01X-15136Y-15522D02*
G01X-15136Y-16000D01*
G01X-15136Y-15750D02*
G01X-15454Y-15750D01*
G01X-14727Y-15522D02*
G01X-14954Y-15840D01*
G01X-14613Y-15840D02*
G01X-14954Y-15840D01*
G01X-14727Y-15522D02*
G01X-14727Y-16000D01*
G04 Draw part S1*
G04 draw part outline for part S1*
G54D12*
G01X-3750Y-16250D02*
G01X-3750Y-13250D01*
G01X-3750Y-13250D02*
G01X-7000Y-13250D01*
G01X-7000Y-13250D02*
G01X-7000Y-16250D01*
G01X-7000Y-16250D02*
G01X-3750Y-16250D01*
G01X-5100Y-15300D02*
G01X-5700Y-15300D01*
G01X-5700Y-15300D02*
G01X-6100Y-14900D01*
G01X-6100Y-14900D02*
G01X-5700Y-14500D01*
G01X-5700Y-14500D02*
G01X-5100Y-14500D01*
G01X-5100Y-14500D02*
G01X-4700Y-14900D01*
G01X-4700Y-14900D02*
G01X-5100Y-15300D01*
G04 draw reference designator for part S1*
G54D10*
G01X-3927Y-16945D02*
G01X-3981Y-16890D01*
G01X-3845Y-16972D02*
G01X-3927Y-16945D01*
G01X-3736Y-16972D02*
G01X-3845Y-16972D01*
G01X-3736Y-16972D02*
G01X-3654Y-16945D01*
G01X-3654Y-16945D02*
G01X-3600Y-16890D01*
G01X-3600Y-16890D02*
G01X-3600Y-16836D01*
G01X-3600Y-16836D02*
G01X-3627Y-16781D01*
G01X-3627Y-16781D02*
G01X-3654Y-16754D01*
G01X-3654Y-16754D02*
G01X-3709Y-16727D01*
G01X-3709Y-16727D02*
G01X-3872Y-16672D01*
G01X-3872Y-16672D02*
G01X-3927Y-16645D01*
G01X-3927Y-16645D02*
G01X-3954Y-16618D01*
G01X-3954Y-16618D02*
G01X-3981Y-16563D01*
G01X-3981Y-16563D02*
G01X-3981Y-16481D01*
G01X-3981Y-16481D02*
G01X-3927Y-16427D01*
G01X-3927Y-16427D02*
G01X-3845Y-16400D01*
G01X-3736Y-16400D02*
G01X-3845Y-16400D01*
G01X-3654Y-16427D02*
G01X-3736Y-16400D01*
G01X-3600Y-16481D02*
G01X-3654Y-16427D01*
G01X-4254Y-16890D02*
G01X-4200Y-16863D01*
G01X-4336Y-16972D02*
G01X-4254Y-16890D01*
G01X-4336Y-16972D02*
G01X-4336Y-16400D01*

G04 Draw traces*

G04 Draw Text*
M00*
M02*
