;Holesize 1 =   28.0 PLATED MILS
;Holesize 2 =   45.0 PLATED MILS
;Holesize 3 =   31.0 PLATED MILS
;Holesize 4 =   47.0 PLATED MILS
;Holesize 5 =   91.0 PLATED MILS
;Holesize 6 =   39.0 PLATED MILS
;Holesize 7 =   98.0 PLATED MILS
;Holesize 8 =  156.0 PLATED MILS
;Holesize 9 =   51.0 PLATED MILS
;Holesize 10 =  125.0 PLATED MILS
M48
INCH,00.0000
T01C0.028
T02C0.045
T03C0.031
T04C0.047
T05C0.091
T06C0.039
T07C0.098
T08C0.156
T09C0.051
T10C0.125
%
G05
G90
T01
X-011000Y-001000
X-011000Y-002000
X-011000Y-003000
X-011000Y-004000
X-011000Y-005000
X-011000Y-006000
X-011000Y-007000
X-011000Y-008000
X-011000Y-009000
X-011000Y-010000
X-008000Y-010000
X-008000Y-009000
X-008000Y-008000
X-008000Y-007000
X-008000Y-006000
X-008000Y-005000
X-008000Y-004000
X-008000Y-003000
X-008000Y-002000
X-008000Y-001000
X-014000Y-001000
X-014000Y-005000
X-016000Y-005000
X-016000Y-004000
X-016000Y-003000
X-016000Y-002000
X-016000Y-001000
X-016000Y000000
X-015000Y004000
X-015000Y008000
X-016000Y004000
X-016000Y008000
X-016500Y013500
X-015500Y013500
X-016500Y011000
X-015500Y011000
X-011000Y001000
X-014000Y001000
X-011000Y010000
X-015000Y010000
X-011000Y009000
X-015000Y009000
X-011000Y002000
X-015000Y002000
X006000Y010790
X006000Y010000
X009000Y012000
X012000Y012000
X-005000Y003000
X-005000Y007000
X-006000Y003000
X-006000Y007000
X-008000Y007000
X-008000Y004000
X-007000Y007000
X-007000Y004000
X017000Y011020
X017000Y012000
X003000Y002000
X-001000Y002000
X004790Y004000
X004000Y004000
X012000Y010000
X008000Y010000
X012000Y007790
X012000Y007000
X012000Y004210
X012000Y005000
X008000Y016000
X008000Y012000
X-003000Y007000
X-003000Y006000
X-003000Y005000
X-003000Y004000
X009000Y007000
X009000Y006000
X009000Y005000
X009000Y004000
X002000Y-005000
X003000Y-005000
X004000Y-005000
X005000Y-005000
X006000Y-005000
X007000Y-005000
X008000Y-005000
X008000Y-002000
X007000Y-002000
X006000Y-002000
X005000Y-002000
X004000Y-002000
X003000Y-002000
X002000Y-002000
X007000Y-007000
X007000Y-011000
X-005000Y-006000
X-006000Y-006000
X-005000Y-005000
X-006000Y-005000
X006000Y000000
X002000Y000000
X005000Y002000
X009000Y002000
X010000Y-001000
X010000Y-005000
X011000Y-001000
X011000Y-005000
X006000Y-007000
X006000Y-011000
X-005000Y-004000
X-006000Y-004000
X013000Y-001000
X013000Y-005000
X-005000Y-003000
X-006000Y-003000
X002000Y-011000
X002000Y-007000
X003000Y-011000
X003000Y-007000
X010000Y-009000
X014000Y-009000
X014000Y-008000
X010000Y-008000
X-003000Y-009000
X-004000Y-009000
X-005000Y-009000
X-006000Y-009000
X-009000Y-013000
X-013000Y-013000
X-009000Y-015000
X-009000Y-016000
X-009000Y-012000
X-013000Y-012000
X-013000Y-015000
X-013000Y-016000
X004750Y-016000
X004750Y-012000
X009750Y-016000
X009750Y-012000
X-000250Y-016000
X-000250Y-012000
X014750Y-016000
X014750Y-012000
X-002000Y-011000
X-006000Y-011000
X013000Y004000
X017000Y004000
X013000Y000500
X013000Y001500
X013000Y003000
X017000Y003000
X017000Y000500
X017000Y001500
X-002000Y014000
X-001500Y015000
X-001000Y014000
X-000500Y015000
X000000Y014000
X000500Y015000
X001000Y014000
X001500Y015000
X002000Y014000
T02
X-006000Y-001000
X-004000Y-001000
X-015000Y-011000
X-013000Y-011000
X-015000Y-009000
X-015000Y-007000
X-008000Y001000
X-006000Y001000
X-006000Y-007000
X-004000Y-007000
X-009000Y010000
X-007000Y010000
X-009000Y009000
X-007000Y009000
X004000Y011000
X004000Y009000
X007000Y006000
X007000Y004000
X014000Y012000
X014000Y010000
X-004000Y009000
X-004000Y011000
X-005000Y009000
X-005000Y011000
X014000Y006000
X014000Y008000
X017000Y008000
X017000Y007000
X017000Y006000
X015000Y008000
X015000Y006000
X000000Y009000
X002000Y009000
X000000Y-005000
X000000Y-003000
X001000Y-009000
X001000Y-007000
X004000Y-009000
X004000Y-007000
X010000Y-007000
X012000Y-007000
X012000Y-010000
X010000Y-010000
T03
X-013000Y-007000
X-013000Y-009000
T04
X-010000Y012000
X-011000Y012000
X-010000Y013000
X-011000Y013000
T05
X-008250Y014000
X-012750Y014000
T06
X000000Y005000
X002000Y006000
X000000Y007000
X017000Y-002000
X015000Y-003000
X017000Y-004000
X003750Y-018000
X004750Y-018000
X005750Y-018000
X008750Y-018000
X009750Y-018000
X010750Y-018000
X-001250Y-018000
X-000250Y-018000
X000750Y-018000
X013750Y-018000
X014750Y-018000
X015750Y-018000
X-004500Y-013500
X-006250Y-013500
X-006250Y-016000
X-004500Y-016000
T07
X003000Y-015000
X006500Y-015000
X008000Y-015000
X011500Y-015000
X-002000Y-015000
X001500Y-015000
X013000Y-015000
X016500Y-015000
T08
X-004750Y014500
X004750Y014500
T09
X013750Y015250
X012750Y015000
X011000Y014000
T10
X-016000Y016000
X017000Y016000
X017000Y-009000
X-016000Y-016000
M30
