G04 FreePCB version 1.359*
G04 D:\INSA\Projet pluri\svn\Carte\PCB\CAM\top_silk.grb*
G04 top silk layer *
G04 Scale: 100 percent, Rotated: No, Reflected: No *
%FSLAX24Y24*%
%MOIN*%
%LN top silk *%
G04 Rounded Rectangle Macro, params: W/2, H/2, R *
%AMRNDREC*
21,1,$1+$1,$2+$2-$3-$3,0,0,0*
21,1,$1+$1-$3-$3,$2+$2,0,0,0*
1,1,$3+$3,$1-$3,$2-$3*
1,1,$3+$3,$3-$1,$2-$3*
1,1,$3+$3,$1-$3,$3-$2*
1,1,$3+$3,$3-$1,$3-$2*%
G04 Rectangular Thermal Macro, params: W/2, H/2, T/2 *
%AMRECTHERM*
$4=$3/2*
21,1,$1-$3,$2-$3,0-$1/2-$4,0-$2/2-$4,0*
21,1,$1-$3,$2-$3,0-$1/2-$4,$2/2+$4,0*
21,1,$1-$3,$2-$3,$1/2+$4,0-$2/2-$4,0*
21,1,$1-$3,$2-$3,$1/2+$4,$2/2+$4,0*%
%ADD10C,0.005000*%
%ADD11C,0.007000*%
%ADD12C,0.010000*%
G90*
G70D02*

G04 Step and Repeat for panelization *

G04 ----------------------- Draw board outline (positive)*
%LPD*%
G54D10*
G01X0Y37000D02*
G01X37000Y37000D01*
G04 end of side 1*
G01X37000Y-1000D01*
G04 end of side 2*
G01X0Y-1000D01*
G04 end of side 3*
G01X0Y37000D01*

G04 -------------- Draw Parts, Pads, Traces, Vias and Text (positive)*
%LPD*%
G04 Draw part U1*
G04 draw part outline for part U1*
G54D11*
G01X7500Y18500D02*
G01X7500Y8500D01*
G01X7500Y8500D02*
G01X9500Y8500D01*
G01X9500Y8500D02*
G01X9500Y18500D01*
G01X9500Y18500D02*
G01X7500Y18500D01*
G01X8000Y18500D02*
G01X8000Y18000D01*
G01X8000Y18000D02*
G01X9000Y18000D01*
G01X9000Y18000D02*
G01X9000Y18500D01*
G01X9000Y18500D02*
G01X8000Y18500D01*
G04 draw reference designator for part U1*
G01X8500Y19477D02*
G01X8500Y19136D01*
G01X8500Y19136D02*
G01X8522Y19068D01*
G01X8522Y19068D02*
G01X8568Y19022D01*
G01X8568Y19022D02*
G01X8636Y19000D01*
G01X8681Y19000D02*
G01X8636Y19000D01*
G01X8750Y19022D02*
G01X8681Y19000D01*
G01X8795Y19068D02*
G01X8750Y19022D01*
G01X8818Y19136D02*
G01X8795Y19068D01*
G01X8818Y19477D02*
G01X8818Y19136D01*
G01X9045Y19409D02*
G01X9000Y19386D01*
G01X9113Y19477D02*
G01X9045Y19409D01*
G01X9113Y19477D02*
G01X9113Y19000D01*
G04 Draw part C1*
G04 draw part outline for part C1*
G01X11500Y18500D02*
G01X14500Y18500D01*
G01X14500Y18500D02*
G01X14500Y17500D01*
G01X14500Y17500D02*
G01X11500Y17500D01*
G01X11500Y17500D02*
G01X11500Y18500D01*
G04 draw reference designator for part C1*
G01X13068Y18159D02*
G01X13090Y18113D01*
G01X13022Y18204D02*
G01X13068Y18159D01*
G01X12977Y18227D02*
G01X13022Y18204D01*
G01X12886Y18227D02*
G01X12977Y18227D01*
G01X12886Y18227D02*
G01X12840Y18204D01*
G01X12840Y18204D02*
G01X12795Y18159D01*
G01X12795Y18159D02*
G01X12772Y18113D01*
G01X12772Y18113D02*
G01X12750Y18045D01*
G01X12750Y18045D02*
G01X12750Y17931D01*
G01X12750Y17931D02*
G01X12772Y17863D01*
G01X12772Y17863D02*
G01X12795Y17818D01*
G01X12795Y17818D02*
G01X12840Y17772D01*
G01X12840Y17772D02*
G01X12886Y17750D01*
G01X12977Y17750D02*
G01X12886Y17750D01*
G01X13022Y17772D02*
G01X12977Y17750D01*
G01X13068Y17818D02*
G01X13022Y17772D01*
G01X13090Y17863D02*
G01X13068Y17818D01*
G01X13318Y18159D02*
G01X13272Y18136D01*
G01X13386Y18227D02*
G01X13318Y18159D01*
G01X13386Y18227D02*
G01X13386Y17750D01*
G04 Draw part R1*
G04 draw part outline for part R1*
G01X4500Y17250D02*
G01X4500Y14750D01*
G01X4500Y14750D02*
G01X3500Y14750D01*
G01X3500Y14750D02*
G01X3500Y17250D01*
G01X3500Y17250D02*
G01X4500Y17250D01*
G04 draw reference designator for part R1*
G01X3772Y15750D02*
G01X4250Y15750D01*
G01X3772Y15954D02*
G01X3772Y15750D01*
G01X3772Y15954D02*
G01X3795Y16022D01*
G01X3795Y16022D02*
G01X3818Y16045D01*
G01X3818Y16045D02*
G01X3863Y16068D01*
G01X3863Y16068D02*
G01X3909Y16068D01*
G01X3909Y16068D02*
G01X3954Y16045D01*
G01X3954Y16045D02*
G01X3977Y16022D01*
G01X3977Y16022D02*
G01X4000Y15954D01*
G01X4000Y15750D02*
G01X4000Y15954D01*
G01X4000Y15909D02*
G01X4250Y16068D01*
G01X3840Y16295D02*
G01X3863Y16250D01*
G01X3772Y16363D02*
G01X3840Y16295D01*
G01X3772Y16363D02*
G01X4250Y16363D01*
G04 Draw part X1*
G04 draw part outline for part X1*
G54D12*
G01X5750Y12500D02*
G01X5000Y13250D01*
G01X5000Y13250D02*
G01X4250Y12500D01*
G01X4250Y12500D02*
G01X4250Y9500D01*
G01X4250Y9500D02*
G01X5000Y8750D01*
G01X5000Y8750D02*
G01X5750Y9500D01*
G01X5750Y9500D02*
G01X5750Y12500D01*
G04 draw reference designator for part X1*
G01X4736Y10500D02*
G01X5500Y11009D01*
G01X4736Y11009D02*
G01X5500Y10500D01*
G01X4845Y11372D02*
G01X4881Y11300D01*
G01X4736Y11481D02*
G01X4845Y11372D01*
G01X4736Y11481D02*
G01X5500Y11481D01*
G04 Draw part C3*
G04 draw part outline for part C3*
G54D11*
G01X2500Y8500D02*
G01X5500Y8500D01*
G01X5500Y8500D02*
G01X5500Y7500D01*
G01X5500Y7500D02*
G01X2500Y7500D01*
G01X2500Y7500D02*
G01X2500Y8500D01*
G04 draw reference designator for part C3*
G01X3818Y8159D02*
G01X3840Y8113D01*
G01X3772Y8204D02*
G01X3818Y8159D01*
G01X3727Y8227D02*
G01X3772Y8204D01*
G01X3636Y8227D02*
G01X3727Y8227D01*
G01X3636Y8227D02*
G01X3590Y8204D01*
G01X3590Y8204D02*
G01X3545Y8159D01*
G01X3545Y8159D02*
G01X3522Y8113D01*
G01X3522Y8113D02*
G01X3500Y8045D01*
G01X3500Y8045D02*
G01X3500Y7931D01*
G01X3500Y7931D02*
G01X3522Y7863D01*
G01X3522Y7863D02*
G01X3545Y7818D01*
G01X3545Y7818D02*
G01X3590Y7772D01*
G01X3590Y7772D02*
G01X3636Y7750D01*
G01X3727Y7750D02*
G01X3636Y7750D01*
G01X3772Y7772D02*
G01X3727Y7750D01*
G01X3818Y7818D02*
G01X3772Y7772D01*
G01X3840Y7863D02*
G01X3818Y7818D01*
G01X4318Y8227D02*
G01X4068Y8227D01*
G01X4318Y8227D02*
G01X4181Y8045D01*
G01X4250Y8045D02*
G01X4181Y8045D01*
G01X4250Y8045D02*
G01X4295Y8022D01*
G01X4295Y8022D02*
G01X4318Y8000D01*
G01X4318Y8000D02*
G01X4340Y7931D01*
G01X4340Y7931D02*
G01X4340Y7886D01*
G01X4340Y7886D02*
G01X4318Y7818D01*
G01X4318Y7818D02*
G01X4272Y7772D01*
G01X4272Y7772D02*
G01X4204Y7750D01*
G01X4136Y7750D02*
G01X4204Y7750D01*
G01X4068Y7772D02*
G01X4136Y7750D01*
G01X4045Y7795D02*
G01X4068Y7772D01*
G01X4022Y7840D02*
G01X4045Y7795D01*
G04 Draw part C4*
G04 draw part outline for part C4*
G01X2500Y9500D02*
G01X2500Y12500D01*
G01X2500Y12500D02*
G01X3500Y12500D01*
G01X3500Y12500D02*
G01X3500Y9500D01*
G01X3500Y9500D02*
G01X2500Y9500D01*
G04 draw reference designator for part C4*
G01X2840Y10818D02*
G01X2886Y10840D01*
G01X2795Y10772D02*
G01X2840Y10818D01*
G01X2772Y10727D02*
G01X2795Y10772D01*
G01X2772Y10636D02*
G01X2772Y10727D01*
G01X2772Y10636D02*
G01X2795Y10590D01*
G01X2795Y10590D02*
G01X2840Y10545D01*
G01X2840Y10545D02*
G01X2886Y10522D01*
G01X2886Y10522D02*
G01X2954Y10500D01*
G01X2954Y10500D02*
G01X3068Y10500D01*
G01X3068Y10500D02*
G01X3136Y10522D01*
G01X3136Y10522D02*
G01X3181Y10545D01*
G01X3181Y10545D02*
G01X3227Y10590D01*
G01X3227Y10590D02*
G01X3250Y10636D01*
G01X3250Y10727D02*
G01X3250Y10636D01*
G01X3227Y10772D02*
G01X3250Y10727D01*
G01X3181Y10818D02*
G01X3227Y10772D01*
G01X3136Y10840D02*
G01X3181Y10818D01*
G01X2772Y11250D02*
G01X3090Y11022D01*
G01X3090Y11363D02*
G01X3090Y11022D01*
G01X2772Y11250D02*
G01X3250Y11250D01*
G04 Draw part J1*
G04 draw part outline for part J1*
G01X1500Y13500D02*
G01X1500Y19500D01*
G01X1500Y19500D02*
G01X2500Y19500D01*
G01X2500Y19500D02*
G01X2500Y13500D01*
G01X2500Y13500D02*
G01X1500Y13500D01*
G04 draw reference designator for part J1*
G01X1977Y20477D02*
G01X1977Y20113D01*
G01X1977Y20113D02*
G01X1954Y20045D01*
G01X1954Y20045D02*
G01X1931Y20022D01*
G01X1931Y20022D02*
G01X1886Y20000D01*
G01X1840Y20000D02*
G01X1886Y20000D01*
G01X1795Y20022D02*
G01X1840Y20000D01*
G01X1772Y20045D02*
G01X1795Y20022D01*
G01X1750Y20113D02*
G01X1772Y20045D01*
G01X1750Y20159D02*
G01X1750Y20113D01*
G01X2204Y20409D02*
G01X2159Y20386D01*
G01X2272Y20477D02*
G01X2204Y20409D01*
G01X2272Y20477D02*
G01X2272Y20000D01*
G04 Draw part C2*
G04 draw part outline for part C2*
G01X9500Y20500D02*
G01X12500Y20500D01*
G01X12500Y20500D02*
G01X12500Y19500D01*
G01X12500Y19500D02*
G01X9500Y19500D01*
G01X9500Y19500D02*
G01X9500Y20500D01*
G04 draw reference designator for part C2*
G01X10818Y20159D02*
G01X10840Y20113D01*
G01X10772Y20204D02*
G01X10818Y20159D01*
G01X10727Y20227D02*
G01X10772Y20204D01*
G01X10636Y20227D02*
G01X10727Y20227D01*
G01X10636Y20227D02*
G01X10590Y20204D01*
G01X10590Y20204D02*
G01X10545Y20159D01*
G01X10545Y20159D02*
G01X10522Y20113D01*
G01X10522Y20113D02*
G01X10500Y20045D01*
G01X10500Y20045D02*
G01X10500Y19931D01*
G01X10500Y19931D02*
G01X10522Y19863D01*
G01X10522Y19863D02*
G01X10545Y19818D01*
G01X10545Y19818D02*
G01X10590Y19772D01*
G01X10590Y19772D02*
G01X10636Y19750D01*
G01X10727Y19750D02*
G01X10636Y19750D01*
G01X10772Y19772D02*
G01X10727Y19750D01*
G01X10818Y19818D02*
G01X10772Y19772D01*
G01X10840Y19863D02*
G01X10818Y19818D01*
G01X11045Y20136D02*
G01X11045Y20113D01*
G01X11068Y20181D02*
G01X11045Y20136D01*
G01X11090Y20204D02*
G01X11068Y20181D01*
G01X11136Y20227D02*
G01X11090Y20204D01*
G01X11227Y20227D02*
G01X11136Y20227D01*
G01X11227Y20227D02*
G01X11272Y20204D01*
G01X11272Y20204D02*
G01X11295Y20181D01*
G01X11295Y20181D02*
G01X11318Y20136D01*
G01X11318Y20136D02*
G01X11318Y20090D01*
G01X11318Y20090D02*
G01X11295Y20045D01*
G01X11295Y20045D02*
G01X11250Y19977D01*
G01X11250Y19977D02*
G01X11022Y19750D01*
G01X11340Y19750D02*
G01X11022Y19750D01*
G04 Draw part USB1*
G04 draw part outline for part USB1*
G54D12*
G01X5000Y38250D02*
G01X5000Y31750D01*
G01X5000Y31750D02*
G01X10000Y31750D01*
G01X10000Y31750D02*
G01X10000Y38250D01*
G01X10000Y38250D02*
G01X5000Y38250D01*
G01X10000Y37500D02*
G01X5000Y37500D01*
G04 draw reference designator for part USB1*
G01X6000Y36454D02*
G01X6000Y35772D01*
G01X6000Y35772D02*
G01X6045Y35636D01*
G01X6045Y35636D02*
G01X6136Y35545D01*
G01X6136Y35545D02*
G01X6272Y35500D01*
G01X6363Y35500D02*
G01X6272Y35500D01*
G01X6500Y35545D02*
G01X6363Y35500D01*
G01X6590Y35636D02*
G01X6500Y35545D01*
G01X6636Y35772D02*
G01X6590Y35636D01*
G01X6636Y36454D02*
G01X6636Y35772D01*
G01X7545Y36409D02*
G01X7636Y36318D01*
G01X7409Y36454D02*
G01X7545Y36409D01*
G01X7227Y36454D02*
G01X7409Y36454D01*
G01X7227Y36454D02*
G01X7090Y36409D01*
G01X7090Y36409D02*
G01X7000Y36318D01*
G01X7000Y36318D02*
G01X7000Y36227D01*
G01X7000Y36227D02*
G01X7045Y36136D01*
G01X7045Y36136D02*
G01X7090Y36090D01*
G01X7090Y36090D02*
G01X7181Y36045D01*
G01X7181Y36045D02*
G01X7454Y35954D01*
G01X7454Y35954D02*
G01X7545Y35909D01*
G01X7545Y35909D02*
G01X7590Y35863D01*
G01X7590Y35863D02*
G01X7636Y35772D01*
G01X7636Y35772D02*
G01X7636Y35636D01*
G01X7636Y35636D02*
G01X7545Y35545D01*
G01X7545Y35545D02*
G01X7409Y35500D01*
G01X7227Y35500D02*
G01X7409Y35500D01*
G01X7090Y35545D02*
G01X7227Y35500D01*
G01X7000Y35636D02*
G01X7090Y35545D01*
G01X8000Y36454D02*
G01X8000Y35500D01*
G01X8409Y36454D02*
G01X8000Y36454D01*
G01X8409Y36454D02*
G01X8545Y36409D01*
G01X8545Y36409D02*
G01X8590Y36363D01*
G01X8590Y36363D02*
G01X8636Y36272D01*
G01X8636Y36272D02*
G01X8636Y36181D01*
G01X8636Y36181D02*
G01X8590Y36090D01*
G01X8590Y36090D02*
G01X8545Y36045D01*
G01X8545Y36045D02*
G01X8409Y36000D01*
G01X8409Y36000D02*
G01X8000Y36000D01*
G01X8409Y36000D02*
G01X8545Y35954D01*
G01X8545Y35954D02*
G01X8590Y35909D01*
G01X8590Y35909D02*
G01X8636Y35818D01*
G01X8636Y35818D02*
G01X8636Y35681D01*
G01X8636Y35681D02*
G01X8590Y35590D01*
G01X8590Y35590D02*
G01X8545Y35545D01*
G01X8545Y35545D02*
G01X8409Y35500D01*
G01X8000Y35500D02*
G01X8409Y35500D01*
G01X9090Y36318D02*
G01X9000Y36272D01*
G01X9227Y36454D02*
G01X9090Y36318D01*
G01X9227Y36454D02*
G01X9227Y35500D01*
G04 Draw part C5*
G04 draw part outline for part C5*
G54D11*
G01X11500Y12500D02*
G01X14500Y12500D01*
G01X14500Y12500D02*
G01X14500Y11500D01*
G01X14500Y11500D02*
G01X11500Y11500D01*
G01X11500Y11500D02*
G01X11500Y12500D01*
G04 draw reference designator for part C5*
G01X12818Y12159D02*
G01X12840Y12113D01*
G01X12772Y12204D02*
G01X12818Y12159D01*
G01X12727Y12227D02*
G01X12772Y12204D01*
G01X12636Y12227D02*
G01X12727Y12227D01*
G01X12636Y12227D02*
G01X12590Y12204D01*
G01X12590Y12204D02*
G01X12545Y12159D01*
G01X12545Y12159D02*
G01X12522Y12113D01*
G01X12522Y12113D02*
G01X12500Y12045D01*
G01X12500Y12045D02*
G01X12500Y11931D01*
G01X12500Y11931D02*
G01X12522Y11863D01*
G01X12522Y11863D02*
G01X12545Y11818D01*
G01X12545Y11818D02*
G01X12590Y11772D01*
G01X12590Y11772D02*
G01X12636Y11750D01*
G01X12727Y11750D02*
G01X12636Y11750D01*
G01X12772Y11772D02*
G01X12727Y11750D01*
G01X12818Y11818D02*
G01X12772Y11772D01*
G01X12840Y11863D02*
G01X12818Y11818D01*
G01X13068Y12227D02*
G01X13295Y12227D01*
G01X13068Y12227D02*
G01X13045Y12022D01*
G01X13068Y12045D02*
G01X13045Y12022D01*
G01X13136Y12068D02*
G01X13068Y12045D01*
G01X13204Y12068D02*
G01X13136Y12068D01*
G01X13204Y12068D02*
G01X13272Y12045D01*
G01X13272Y12045D02*
G01X13318Y12000D01*
G01X13318Y12000D02*
G01X13340Y11931D01*
G01X13340Y11931D02*
G01X13340Y11886D01*
G01X13340Y11886D02*
G01X13318Y11818D01*
G01X13318Y11818D02*
G01X13272Y11772D01*
G01X13272Y11772D02*
G01X13204Y11750D01*
G01X13136Y11750D02*
G01X13204Y11750D01*
G01X13068Y11772D02*
G01X13136Y11750D01*
G01X13045Y11795D02*
G01X13068Y11772D01*
G01X13022Y11840D02*
G01X13045Y11795D01*
G04 Draw part U2*
G04 draw part outline for part U2*
G01X5000Y23475D02*
G01X8326Y23475D01*
G01X8326Y23475D02*
G01X8326Y25398D01*
G01X8326Y25398D02*
G01X5000Y25398D01*
G01X5000Y25398D02*
G01X5000Y24676D01*
G01X5000Y24676D02*
G01X5063Y24676D01*
G01X5063Y24676D02*
G01X5063Y24197D01*
G01X5063Y24197D02*
G01X5000Y24197D01*
G01X5000Y24197D02*
G01X5000Y23475D01*
G04 draw reference designator for part U2*
G54D10*
G01X4272Y24000D02*
G01X4613Y24000D01*
G01X4613Y24000D02*
G01X4681Y24022D01*
G01X4681Y24022D02*
G01X4727Y24068D01*
G01X4727Y24068D02*
G01X4750Y24136D01*
G01X4750Y24181D02*
G01X4750Y24136D01*
G01X4727Y24250D02*
G01X4750Y24181D01*
G01X4681Y24295D02*
G01X4727Y24250D01*
G01X4613Y24318D02*
G01X4681Y24295D01*
G01X4272Y24318D02*
G01X4613Y24318D01*
G01X4363Y24522D02*
G01X4386Y24522D01*
G01X4318Y24545D02*
G01X4363Y24522D01*
G01X4295Y24568D02*
G01X4318Y24545D01*
G01X4272Y24613D02*
G01X4295Y24568D01*
G01X4272Y24704D02*
G01X4272Y24613D01*
G01X4272Y24704D02*
G01X4295Y24750D01*
G01X4295Y24750D02*
G01X4318Y24772D01*
G01X4318Y24772D02*
G01X4363Y24795D01*
G01X4363Y24795D02*
G01X4409Y24795D01*
G01X4409Y24795D02*
G01X4454Y24772D01*
G01X4454Y24772D02*
G01X4522Y24727D01*
G01X4522Y24727D02*
G01X4750Y24500D01*
G01X4750Y24818D02*
G01X4750Y24500D01*
G04 Draw part C6*
G04 draw part outline for part C6*
G54D11*
G01X12500Y29500D02*
G01X9500Y29500D01*
G01X9500Y29500D02*
G01X9500Y30500D01*
G01X9500Y30500D02*
G01X12500Y30500D01*
G01X12500Y30500D02*
G01X12500Y29500D01*
G04 draw reference designator for part C6*
G01X10818Y30159D02*
G01X10840Y30113D01*
G01X10772Y30204D02*
G01X10818Y30159D01*
G01X10727Y30227D02*
G01X10772Y30204D01*
G01X10636Y30227D02*
G01X10727Y30227D01*
G01X10636Y30227D02*
G01X10590Y30204D01*
G01X10590Y30204D02*
G01X10545Y30159D01*
G01X10545Y30159D02*
G01X10522Y30113D01*
G01X10522Y30113D02*
G01X10500Y30045D01*
G01X10500Y30045D02*
G01X10500Y29931D01*
G01X10500Y29931D02*
G01X10522Y29863D01*
G01X10522Y29863D02*
G01X10545Y29818D01*
G01X10545Y29818D02*
G01X10590Y29772D01*
G01X10590Y29772D02*
G01X10636Y29750D01*
G01X10727Y29750D02*
G01X10636Y29750D01*
G01X10772Y29772D02*
G01X10727Y29750D01*
G01X10818Y29818D02*
G01X10772Y29772D01*
G01X10840Y29863D02*
G01X10818Y29818D01*
G01X11272Y30204D02*
G01X11295Y30159D01*
G01X11204Y30227D02*
G01X11272Y30204D01*
G01X11159Y30227D02*
G01X11204Y30227D01*
G01X11159Y30227D02*
G01X11090Y30204D01*
G01X11090Y30204D02*
G01X11045Y30136D01*
G01X11045Y30136D02*
G01X11022Y30022D01*
G01X11022Y30022D02*
G01X11022Y29909D01*
G01X11022Y29909D02*
G01X11045Y29818D01*
G01X11045Y29818D02*
G01X11090Y29772D01*
G01X11090Y29772D02*
G01X11159Y29750D01*
G01X11181Y29750D02*
G01X11159Y29750D01*
G01X11250Y29772D02*
G01X11181Y29750D01*
G01X11295Y29818D02*
G01X11250Y29772D01*
G01X11318Y29886D02*
G01X11295Y29818D01*
G01X11318Y29909D02*
G01X11318Y29886D01*
G01X11295Y29977D02*
G01X11318Y29909D01*
G01X11250Y30022D02*
G01X11295Y29977D01*
G01X11181Y30045D02*
G01X11250Y30022D01*
G01X11159Y30045D02*
G01X11181Y30045D01*
G01X11159Y30045D02*
G01X11090Y30022D01*
G01X11090Y30022D02*
G01X11045Y29977D01*
G01X11045Y29977D02*
G01X11022Y29909D01*
G04 Draw part C7*
G04 draw part outline for part C7*
G01X12500Y27500D02*
G01X9500Y27500D01*
G01X9500Y27500D02*
G01X9500Y28500D01*
G01X9500Y28500D02*
G01X12500Y28500D01*
G01X12500Y28500D02*
G01X12500Y27500D01*
G04 draw reference designator for part C7*
G01X10818Y28159D02*
G01X10840Y28113D01*
G01X10772Y28204D02*
G01X10818Y28159D01*
G01X10727Y28227D02*
G01X10772Y28204D01*
G01X10636Y28227D02*
G01X10727Y28227D01*
G01X10636Y28227D02*
G01X10590Y28204D01*
G01X10590Y28204D02*
G01X10545Y28159D01*
G01X10545Y28159D02*
G01X10522Y28113D01*
G01X10522Y28113D02*
G01X10500Y28045D01*
G01X10500Y28045D02*
G01X10500Y27931D01*
G01X10500Y27931D02*
G01X10522Y27863D01*
G01X10522Y27863D02*
G01X10545Y27818D01*
G01X10545Y27818D02*
G01X10590Y27772D01*
G01X10590Y27772D02*
G01X10636Y27750D01*
G01X10727Y27750D02*
G01X10636Y27750D01*
G01X10772Y27772D02*
G01X10727Y27750D01*
G01X10818Y27818D02*
G01X10772Y27772D01*
G01X10840Y27863D02*
G01X10818Y27818D01*
G01X11340Y28227D02*
G01X11113Y27750D01*
G01X11340Y28227D02*
G01X11022Y28227D01*
G04 Draw part R6*
G04 draw part outline for part R6*
G01X2500Y22750D02*
G01X2500Y25250D01*
G01X2500Y25250D02*
G01X3500Y25250D01*
G01X3500Y25250D02*
G01X3500Y22750D01*
G01X3500Y22750D02*
G01X2500Y22750D01*
G04 draw reference designator for part R6*
G01X2772Y23500D02*
G01X3250Y23500D01*
G01X2772Y23704D02*
G01X2772Y23500D01*
G01X2772Y23704D02*
G01X2795Y23772D01*
G01X2795Y23772D02*
G01X2818Y23795D01*
G01X2818Y23795D02*
G01X2863Y23818D01*
G01X2863Y23818D02*
G01X2909Y23818D01*
G01X2909Y23818D02*
G01X2954Y23795D01*
G01X2954Y23795D02*
G01X2977Y23772D01*
G01X2977Y23772D02*
G01X3000Y23704D01*
G01X3000Y23500D02*
G01X3000Y23704D01*
G01X3000Y23659D02*
G01X3250Y23818D01*
G01X2795Y24250D02*
G01X2840Y24272D01*
G01X2772Y24181D02*
G01X2795Y24250D01*
G01X2772Y24136D02*
G01X2772Y24181D01*
G01X2772Y24136D02*
G01X2795Y24068D01*
G01X2795Y24068D02*
G01X2863Y24022D01*
G01X2863Y24022D02*
G01X2977Y24000D01*
G01X2977Y24000D02*
G01X3090Y24000D01*
G01X3090Y24000D02*
G01X3181Y24022D01*
G01X3181Y24022D02*
G01X3227Y24068D01*
G01X3227Y24068D02*
G01X3250Y24136D01*
G01X3250Y24159D02*
G01X3250Y24136D01*
G01X3227Y24227D02*
G01X3250Y24159D01*
G01X3181Y24272D02*
G01X3227Y24227D01*
G01X3113Y24295D02*
G01X3181Y24272D01*
G01X3090Y24295D02*
G01X3113Y24295D01*
G01X3022Y24272D02*
G01X3090Y24295D01*
G01X2977Y24227D02*
G01X3022Y24272D01*
G01X2954Y24159D02*
G01X2977Y24227D01*
G01X2954Y24136D02*
G01X2954Y24159D01*
G01X2954Y24136D02*
G01X2977Y24068D01*
G01X2977Y24068D02*
G01X3022Y24022D01*
G01X3022Y24022D02*
G01X3090Y24000D01*
G04 Draw part R5*
G04 draw part outline for part R5*
G01X1000Y22750D02*
G01X1000Y25250D01*
G01X1000Y25250D02*
G01X2000Y25250D01*
G01X2000Y25250D02*
G01X2000Y22750D01*
G01X2000Y22750D02*
G01X1000Y22750D01*
G04 draw reference designator for part R5*
G01X1272Y23500D02*
G01X1750Y23500D01*
G01X1272Y23704D02*
G01X1272Y23500D01*
G01X1272Y23704D02*
G01X1295Y23772D01*
G01X1295Y23772D02*
G01X1318Y23795D01*
G01X1318Y23795D02*
G01X1363Y23818D01*
G01X1363Y23818D02*
G01X1409Y23818D01*
G01X1409Y23818D02*
G01X1454Y23795D01*
G01X1454Y23795D02*
G01X1477Y23772D01*
G01X1477Y23772D02*
G01X1500Y23704D01*
G01X1500Y23500D02*
G01X1500Y23704D01*
G01X1500Y23659D02*
G01X1750Y23818D01*
G01X1272Y24045D02*
G01X1272Y24272D01*
G01X1272Y24045D02*
G01X1477Y24022D01*
G01X1454Y24045D02*
G01X1477Y24022D01*
G01X1431Y24113D02*
G01X1454Y24045D01*
G01X1431Y24181D02*
G01X1431Y24113D01*
G01X1431Y24181D02*
G01X1454Y24250D01*
G01X1454Y24250D02*
G01X1500Y24295D01*
G01X1500Y24295D02*
G01X1568Y24318D01*
G01X1568Y24318D02*
G01X1613Y24318D01*
G01X1613Y24318D02*
G01X1681Y24295D01*
G01X1681Y24295D02*
G01X1727Y24250D01*
G01X1727Y24250D02*
G01X1750Y24181D01*
G01X1750Y24113D02*
G01X1750Y24181D01*
G01X1727Y24045D02*
G01X1750Y24113D01*
G01X1704Y24022D02*
G01X1727Y24045D01*
G01X1659Y24000D02*
G01X1704Y24022D01*
G04 Draw part D2*
G04 draw part outline for part D2*
G01X2900Y32500D02*
G01X2899Y32539D01*
G01X2896Y32578D01*
G01X2892Y32617D01*
G01X2886Y32656D01*
G01X2878Y32694D01*
G01X2869Y32732D01*
G01X2858Y32770D01*
G01X2845Y32807D01*
G01X2831Y32844D01*
G01X2815Y32880D01*
G01X2798Y32915D01*
G01X2779Y32950D01*
G01X2759Y32983D01*
G01X2737Y33016D01*
G01X2714Y33047D01*
G01X2689Y33078D01*
G01X2663Y33108D01*
G01X2636Y33136D01*
G01X2608Y33163D01*
G01X2578Y33189D01*
G01X2547Y33214D01*
G01X2516Y33237D01*
G01X2483Y33259D01*
G01X2449Y33279D01*
G01X2415Y33298D01*
G01X2380Y33315D01*
G01X2344Y33331D01*
G01X2307Y33345D01*
G01X2270Y33358D01*
G01X2232Y33369D01*
G01X2194Y33378D01*
G01X2156Y33386D01*
G01X2117Y33392D01*
G01X2078Y33396D01*
G01X2039Y33399D01*
G01X2000Y33400D01*
G01X2000Y33400D02*
G01X1960Y33399D01*
G01X1921Y33396D01*
G01X1882Y33392D01*
G01X1843Y33386D01*
G01X1805Y33378D01*
G01X1767Y33369D01*
G01X1729Y33358D01*
G01X1692Y33345D01*
G01X1655Y33331D01*
G01X1619Y33315D01*
G01X1584Y33298D01*
G01X1549Y33279D01*
G01X1516Y33259D01*
G01X1483Y33237D01*
G01X1452Y33214D01*
G01X1421Y33189D01*
G01X1391Y33163D01*
G01X1363Y33136D01*
G01X1336Y33108D01*
G01X1310Y33078D01*
G01X1285Y33047D01*
G01X1262Y33016D01*
G01X1240Y32983D01*
G01X1220Y32949D01*
G01X1201Y32915D01*
G01X1184Y32880D01*
G01X1168Y32844D01*
G01X1154Y32807D01*
G01X1141Y32770D01*
G01X1130Y32732D01*
G01X1121Y32694D01*
G01X1113Y32656D01*
G01X1107Y32617D01*
G01X1103Y32578D01*
G01X1100Y32539D01*
G01X1100Y32500D01*
G01X1100Y32500D02*
G01X1100Y32460D01*
G01X1103Y32421D01*
G01X1107Y32382D01*
G01X1113Y32343D01*
G01X1121Y32305D01*
G01X1130Y32267D01*
G01X1141Y32229D01*
G01X1154Y32192D01*
G01X1168Y32155D01*
G01X1184Y32119D01*
G01X1201Y32084D01*
G01X1220Y32049D01*
G01X1240Y32016D01*
G01X1262Y31983D01*
G01X1285Y31952D01*
G01X1310Y31921D01*
G01X1336Y31891D01*
G01X1363Y31863D01*
G01X1391Y31836D01*
G01X1421Y31810D01*
G01X1452Y31785D01*
G01X1483Y31762D01*
G01X1516Y31740D01*
G01X1550Y31720D01*
G01X1584Y31701D01*
G01X1619Y31684D01*
G01X1655Y31668D01*
G01X1692Y31654D01*
G01X1729Y31641D01*
G01X1767Y31630D01*
G01X1805Y31621D01*
G01X1843Y31613D01*
G01X1882Y31607D01*
G01X1921Y31603D01*
G01X1960Y31600D01*
G01X2000Y31600D01*
G01X2000Y31600D02*
G01X2039Y31600D01*
G01X2078Y31603D01*
G01X2117Y31607D01*
G01X2156Y31613D01*
G01X2194Y31621D01*
G01X2232Y31630D01*
G01X2270Y31641D01*
G01X2307Y31654D01*
G01X2344Y31668D01*
G01X2380Y31684D01*
G01X2415Y31701D01*
G01X2450Y31720D01*
G01X2483Y31740D01*
G01X2516Y31762D01*
G01X2547Y31785D01*
G01X2578Y31810D01*
G01X2608Y31836D01*
G01X2636Y31863D01*
G01X2663Y31891D01*
G01X2689Y31921D01*
G01X2714Y31952D01*
G01X2737Y31983D01*
G01X2759Y32016D01*
G01X2779Y32050D01*
G01X2798Y32084D01*
G01X2815Y32119D01*
G01X2831Y32155D01*
G01X2845Y32192D01*
G01X2858Y32229D01*
G01X2869Y32267D01*
G01X2878Y32305D01*
G01X2886Y32343D01*
G01X2892Y32382D01*
G01X2896Y32421D01*
G01X2899Y32460D01*
G01X2900Y32500D01*
G54D12*
G01X1750Y32500D02*
G01X2250Y33000D01*
G01X2250Y33000D02*
G01X2250Y32000D01*
G01X2250Y32000D02*
G01X1750Y32500D01*
G01X1800Y32900D02*
G01X1300Y33600D01*
G01X1300Y33600D02*
G01X1300Y33200D01*
G01X1300Y33600D02*
G01X1700Y33500D01*
G04 draw reference designator for part D2*
G54D11*
G01X3000Y33477D02*
G01X3000Y33000D01*
G01X3159Y33477D02*
G01X3000Y33477D01*
G01X3159Y33477D02*
G01X3227Y33454D01*
G01X3227Y33454D02*
G01X3272Y33409D01*
G01X3272Y33409D02*
G01X3295Y33363D01*
G01X3295Y33363D02*
G01X3318Y33295D01*
G01X3318Y33295D02*
G01X3318Y33181D01*
G01X3318Y33181D02*
G01X3295Y33113D01*
G01X3295Y33113D02*
G01X3272Y33068D01*
G01X3272Y33068D02*
G01X3227Y33022D01*
G01X3227Y33022D02*
G01X3159Y33000D01*
G01X3000Y33000D02*
G01X3159Y33000D01*
G01X3522Y33386D02*
G01X3522Y33363D01*
G01X3545Y33431D02*
G01X3522Y33386D01*
G01X3568Y33454D02*
G01X3545Y33431D01*
G01X3613Y33477D02*
G01X3568Y33454D01*
G01X3704Y33477D02*
G01X3613Y33477D01*
G01X3704Y33477D02*
G01X3750Y33454D01*
G01X3750Y33454D02*
G01X3772Y33431D01*
G01X3772Y33431D02*
G01X3795Y33386D01*
G01X3795Y33386D02*
G01X3795Y33340D01*
G01X3795Y33340D02*
G01X3772Y33295D01*
G01X3772Y33295D02*
G01X3727Y33227D01*
G01X3727Y33227D02*
G01X3500Y33000D01*
G01X3818Y33000D02*
G01X3500Y33000D01*
G04 Draw part D3*
G04 draw part outline for part D3*
G01X2900Y30000D02*
G01X2899Y30039D01*
G01X2896Y30078D01*
G01X2892Y30117D01*
G01X2886Y30156D01*
G01X2878Y30194D01*
G01X2869Y30232D01*
G01X2858Y30270D01*
G01X2845Y30307D01*
G01X2831Y30344D01*
G01X2815Y30380D01*
G01X2798Y30415D01*
G01X2779Y30450D01*
G01X2759Y30483D01*
G01X2737Y30516D01*
G01X2714Y30547D01*
G01X2689Y30578D01*
G01X2663Y30608D01*
G01X2636Y30636D01*
G01X2608Y30663D01*
G01X2578Y30689D01*
G01X2547Y30714D01*
G01X2516Y30737D01*
G01X2483Y30759D01*
G01X2449Y30779D01*
G01X2415Y30798D01*
G01X2380Y30815D01*
G01X2344Y30831D01*
G01X2307Y30845D01*
G01X2270Y30858D01*
G01X2232Y30869D01*
G01X2194Y30878D01*
G01X2156Y30886D01*
G01X2117Y30892D01*
G01X2078Y30896D01*
G01X2039Y30899D01*
G01X2000Y30900D01*
G01X2000Y30900D02*
G01X1960Y30899D01*
G01X1921Y30896D01*
G01X1882Y30892D01*
G01X1843Y30886D01*
G01X1805Y30878D01*
G01X1767Y30869D01*
G01X1729Y30858D01*
G01X1692Y30845D01*
G01X1655Y30831D01*
G01X1619Y30815D01*
G01X1584Y30798D01*
G01X1549Y30779D01*
G01X1516Y30759D01*
G01X1483Y30737D01*
G01X1452Y30714D01*
G01X1421Y30689D01*
G01X1391Y30663D01*
G01X1363Y30636D01*
G01X1336Y30608D01*
G01X1310Y30578D01*
G01X1285Y30547D01*
G01X1262Y30516D01*
G01X1240Y30483D01*
G01X1220Y30449D01*
G01X1201Y30415D01*
G01X1184Y30380D01*
G01X1168Y30344D01*
G01X1154Y30307D01*
G01X1141Y30270D01*
G01X1130Y30232D01*
G01X1121Y30194D01*
G01X1113Y30156D01*
G01X1107Y30117D01*
G01X1103Y30078D01*
G01X1100Y30039D01*
G01X1100Y30000D01*
G01X1100Y30000D02*
G01X1100Y29960D01*
G01X1103Y29921D01*
G01X1107Y29882D01*
G01X1113Y29843D01*
G01X1121Y29805D01*
G01X1130Y29767D01*
G01X1141Y29729D01*
G01X1154Y29692D01*
G01X1168Y29655D01*
G01X1184Y29619D01*
G01X1201Y29584D01*
G01X1220Y29549D01*
G01X1240Y29516D01*
G01X1262Y29483D01*
G01X1285Y29452D01*
G01X1310Y29421D01*
G01X1336Y29391D01*
G01X1363Y29363D01*
G01X1391Y29336D01*
G01X1421Y29310D01*
G01X1452Y29285D01*
G01X1483Y29262D01*
G01X1516Y29240D01*
G01X1550Y29220D01*
G01X1584Y29201D01*
G01X1619Y29184D01*
G01X1655Y29168D01*
G01X1692Y29154D01*
G01X1729Y29141D01*
G01X1767Y29130D01*
G01X1805Y29121D01*
G01X1843Y29113D01*
G01X1882Y29107D01*
G01X1921Y29103D01*
G01X1960Y29100D01*
G01X2000Y29100D01*
G01X2000Y29100D02*
G01X2039Y29100D01*
G01X2078Y29103D01*
G01X2117Y29107D01*
G01X2156Y29113D01*
G01X2194Y29121D01*
G01X2232Y29130D01*
G01X2270Y29141D01*
G01X2307Y29154D01*
G01X2344Y29168D01*
G01X2380Y29184D01*
G01X2415Y29201D01*
G01X2450Y29220D01*
G01X2483Y29240D01*
G01X2516Y29262D01*
G01X2547Y29285D01*
G01X2578Y29310D01*
G01X2608Y29336D01*
G01X2636Y29363D01*
G01X2663Y29391D01*
G01X2689Y29421D01*
G01X2714Y29452D01*
G01X2737Y29483D01*
G01X2759Y29516D01*
G01X2779Y29550D01*
G01X2798Y29584D01*
G01X2815Y29619D01*
G01X2831Y29655D01*
G01X2845Y29692D01*
G01X2858Y29729D01*
G01X2869Y29767D01*
G01X2878Y29805D01*
G01X2886Y29843D01*
G01X2892Y29882D01*
G01X2896Y29921D01*
G01X2899Y29960D01*
G01X2900Y30000D01*
G54D12*
G01X1750Y30000D02*
G01X2250Y30500D01*
G01X2250Y30500D02*
G01X2250Y29500D01*
G01X2250Y29500D02*
G01X1750Y30000D01*
G01X1800Y30400D02*
G01X1300Y31100D01*
G01X1300Y31100D02*
G01X1300Y30700D01*
G01X1300Y31100D02*
G01X1700Y31000D01*
G04 draw reference designator for part D3*
G54D11*
G01X3000Y30977D02*
G01X3000Y30500D01*
G01X3159Y30977D02*
G01X3000Y30977D01*
G01X3159Y30977D02*
G01X3227Y30954D01*
G01X3227Y30954D02*
G01X3272Y30909D01*
G01X3272Y30909D02*
G01X3295Y30863D01*
G01X3295Y30863D02*
G01X3318Y30795D01*
G01X3318Y30795D02*
G01X3318Y30681D01*
G01X3318Y30681D02*
G01X3295Y30613D01*
G01X3295Y30613D02*
G01X3272Y30568D01*
G01X3272Y30568D02*
G01X3227Y30522D01*
G01X3227Y30522D02*
G01X3159Y30500D01*
G01X3000Y30500D02*
G01X3159Y30500D01*
G01X3795Y30977D02*
G01X3545Y30977D01*
G01X3795Y30977D02*
G01X3659Y30795D01*
G01X3727Y30795D02*
G01X3659Y30795D01*
G01X3727Y30795D02*
G01X3772Y30772D01*
G01X3772Y30772D02*
G01X3795Y30750D01*
G01X3795Y30750D02*
G01X3818Y30681D01*
G01X3818Y30681D02*
G01X3818Y30636D01*
G01X3818Y30636D02*
G01X3795Y30568D01*
G01X3795Y30568D02*
G01X3750Y30522D01*
G01X3750Y30522D02*
G01X3681Y30500D01*
G01X3613Y30500D02*
G01X3681Y30500D01*
G01X3545Y30522D02*
G01X3613Y30500D01*
G01X3522Y30545D02*
G01X3545Y30522D01*
G01X3500Y30590D02*
G01X3522Y30545D01*
G04 Draw part D1*
G04 draw part outline for part D1*
G01X6500Y19050D02*
G01X4500Y19050D01*
G01X4500Y19050D02*
G01X4500Y19950D01*
G01X4500Y19950D02*
G01X6500Y19950D01*
G01X6500Y19950D02*
G01X6500Y19050D01*
G01X4750Y19050D02*
G01X4750Y19950D01*
G04 draw reference designator for part D1*
G01X5250Y19727D02*
G01X5250Y19250D01*
G01X5409Y19727D02*
G01X5250Y19727D01*
G01X5409Y19727D02*
G01X5477Y19704D01*
G01X5477Y19704D02*
G01X5522Y19659D01*
G01X5522Y19659D02*
G01X5545Y19613D01*
G01X5545Y19613D02*
G01X5568Y19545D01*
G01X5568Y19545D02*
G01X5568Y19431D01*
G01X5568Y19431D02*
G01X5545Y19363D01*
G01X5545Y19363D02*
G01X5522Y19318D01*
G01X5522Y19318D02*
G01X5477Y19272D01*
G01X5477Y19272D02*
G01X5409Y19250D01*
G01X5250Y19250D02*
G01X5409Y19250D01*
G01X5795Y19659D02*
G01X5750Y19636D01*
G01X5863Y19727D02*
G01X5795Y19659D01*
G01X5863Y19727D02*
G01X5863Y19250D01*
G04 Draw part R3*
G04 draw part outline for part R3*
G01X6250Y28500D02*
G01X3750Y28500D01*
G01X3750Y28500D02*
G01X3750Y29500D01*
G01X3750Y29500D02*
G01X6250Y29500D01*
G01X6250Y29500D02*
G01X6250Y28500D01*
G04 draw reference designator for part R3*
G01X4500Y29227D02*
G01X4500Y28750D01*
G01X4704Y29227D02*
G01X4500Y29227D01*
G01X4704Y29227D02*
G01X4772Y29204D01*
G01X4772Y29204D02*
G01X4795Y29181D01*
G01X4795Y29181D02*
G01X4818Y29136D01*
G01X4818Y29136D02*
G01X4818Y29090D01*
G01X4818Y29090D02*
G01X4795Y29045D01*
G01X4795Y29045D02*
G01X4772Y29022D01*
G01X4772Y29022D02*
G01X4704Y29000D01*
G01X4500Y29000D02*
G01X4704Y29000D01*
G01X4659Y29000D02*
G01X4818Y28750D01*
G01X5295Y29227D02*
G01X5045Y29227D01*
G01X5295Y29227D02*
G01X5159Y29045D01*
G01X5227Y29045D02*
G01X5159Y29045D01*
G01X5227Y29045D02*
G01X5272Y29022D01*
G01X5272Y29022D02*
G01X5295Y29000D01*
G01X5295Y29000D02*
G01X5318Y28931D01*
G01X5318Y28931D02*
G01X5318Y28886D01*
G01X5318Y28886D02*
G01X5295Y28818D01*
G01X5295Y28818D02*
G01X5250Y28772D01*
G01X5250Y28772D02*
G01X5181Y28750D01*
G01X5113Y28750D02*
G01X5181Y28750D01*
G01X5045Y28772D02*
G01X5113Y28750D01*
G01X5022Y28795D02*
G01X5045Y28772D01*
G01X5000Y28840D02*
G01X5022Y28795D01*
G04 Draw part R4*
G04 draw part outline for part R4*
G01X6250Y27500D02*
G01X3750Y27500D01*
G01X3750Y27500D02*
G01X3750Y28500D01*
G01X3750Y28500D02*
G01X6250Y28500D01*
G01X6250Y28500D02*
G01X6250Y27500D01*
G04 draw reference designator for part R4*
G01X4500Y28227D02*
G01X4500Y27750D01*
G01X4704Y28227D02*
G01X4500Y28227D01*
G01X4704Y28227D02*
G01X4772Y28204D01*
G01X4772Y28204D02*
G01X4795Y28181D01*
G01X4795Y28181D02*
G01X4818Y28136D01*
G01X4818Y28136D02*
G01X4818Y28090D01*
G01X4818Y28090D02*
G01X4795Y28045D01*
G01X4795Y28045D02*
G01X4772Y28022D01*
G01X4772Y28022D02*
G01X4704Y28000D01*
G01X4500Y28000D02*
G01X4704Y28000D01*
G01X4659Y28000D02*
G01X4818Y27750D01*
G01X5227Y28227D02*
G01X5000Y27909D01*
G01X5340Y27909D02*
G01X5000Y27909D01*
G01X5227Y28227D02*
G01X5227Y27750D01*
G04 Draw part R2*
G04 draw part outline for part R2*
G01X6250Y20000D02*
G01X3750Y20000D01*
G01X3750Y20000D02*
G01X3750Y21000D01*
G01X3750Y21000D02*
G01X6250Y21000D01*
G01X6250Y21000D02*
G01X6250Y20000D01*
G04 draw reference designator for part R2*
G01X4500Y20727D02*
G01X4500Y20250D01*
G01X4704Y20727D02*
G01X4500Y20727D01*
G01X4704Y20727D02*
G01X4772Y20704D01*
G01X4772Y20704D02*
G01X4795Y20681D01*
G01X4795Y20681D02*
G01X4818Y20636D01*
G01X4818Y20636D02*
G01X4818Y20590D01*
G01X4818Y20590D02*
G01X4795Y20545D01*
G01X4795Y20545D02*
G01X4772Y20522D01*
G01X4772Y20522D02*
G01X4704Y20500D01*
G01X4500Y20500D02*
G01X4704Y20500D01*
G01X4659Y20500D02*
G01X4818Y20250D01*
G01X5022Y20636D02*
G01X5022Y20613D01*
G01X5045Y20681D02*
G01X5022Y20636D01*
G01X5068Y20704D02*
G01X5045Y20681D01*
G01X5113Y20727D02*
G01X5068Y20704D01*
G01X5204Y20727D02*
G01X5113Y20727D01*
G01X5204Y20727D02*
G01X5250Y20704D01*
G01X5250Y20704D02*
G01X5272Y20681D01*
G01X5272Y20681D02*
G01X5295Y20636D01*
G01X5295Y20636D02*
G01X5295Y20590D01*
G01X5295Y20590D02*
G01X5272Y20545D01*
G01X5272Y20545D02*
G01X5227Y20477D01*
G01X5227Y20477D02*
G01X5000Y20250D01*
G01X5318Y20250D02*
G01X5000Y20250D01*
G04 Draw part C13*
G04 draw part outline for part C13*
G01X24500Y29700D02*
G01X24500Y29900D01*
G01X24400Y29800D02*
G01X24600Y29800D01*
G01X24000Y30380D02*
G01X23960Y30379D01*
G01X23921Y30376D01*
G01X23881Y30372D01*
G01X23842Y30367D01*
G01X23803Y30359D01*
G01X23765Y30351D01*
G01X23727Y30340D01*
G01X23689Y30329D01*
G01X23652Y30315D01*
G01X23615Y30300D01*
G01X23579Y30284D01*
G01X23544Y30266D01*
G01X23509Y30247D01*
G01X23476Y30226D01*
G01X23443Y30204D01*
G01X23411Y30181D01*
G01X23380Y30156D01*
G01X23350Y30131D01*
G01X23321Y30103D01*
G01X23293Y30075D01*
G01X23266Y30046D01*
G01X23240Y30016D01*
G01X23216Y29984D01*
G01X23193Y29952D01*
G01X23171Y29919D01*
G01X23151Y29884D01*
G01X23132Y29850D01*
G01X23114Y29814D01*
G01X23098Y29778D01*
G01X23083Y29741D01*
G01X23070Y29703D01*
G01X23058Y29665D01*
G01X23048Y29626D01*
G01X23039Y29588D01*
G01X23032Y29548D01*
G01X23027Y29509D01*
G01X23023Y29469D01*
G01X23020Y29429D01*
G01X23020Y29390D01*
G01X23020Y29390D02*
G01X23020Y29350D01*
G01X23023Y29311D01*
G01X23027Y29271D01*
G01X23032Y29232D01*
G01X23039Y29193D01*
G01X23048Y29155D01*
G01X23058Y29117D01*
G01X23070Y29079D01*
G01X23083Y29042D01*
G01X23098Y29005D01*
G01X23114Y28969D01*
G01X23132Y28934D01*
G01X23151Y28899D01*
G01X23171Y28866D01*
G01X23193Y28833D01*
G01X23216Y28801D01*
G01X23240Y28770D01*
G01X23266Y28740D01*
G01X23293Y28711D01*
G01X23321Y28683D01*
G01X23350Y28656D01*
G01X23380Y28630D01*
G01X23411Y28606D01*
G01X23443Y28583D01*
G01X23476Y28561D01*
G01X23510Y28541D01*
G01X23544Y28522D01*
G01X23579Y28504D01*
G01X23615Y28488D01*
G01X23652Y28473D01*
G01X23689Y28460D01*
G01X23727Y28448D01*
G01X23765Y28438D01*
G01X23803Y28429D01*
G01X23842Y28422D01*
G01X23881Y28417D01*
G01X23921Y28413D01*
G01X23960Y28410D01*
G01X24000Y28410D01*
G01X24000Y28410D02*
G01X24039Y28410D01*
G01X24078Y28413D01*
G01X24118Y28417D01*
G01X24157Y28422D01*
G01X24196Y28429D01*
G01X24234Y28438D01*
G01X24272Y28448D01*
G01X24310Y28460D01*
G01X24347Y28473D01*
G01X24384Y28488D01*
G01X24420Y28504D01*
G01X24455Y28522D01*
G01X24490Y28541D01*
G01X24523Y28561D01*
G01X24556Y28583D01*
G01X24588Y28606D01*
G01X24619Y28630D01*
G01X24649Y28656D01*
G01X24678Y28683D01*
G01X24706Y28711D01*
G01X24733Y28740D01*
G01X24759Y28770D01*
G01X24783Y28801D01*
G01X24806Y28833D01*
G01X24828Y28866D01*
G01X24848Y28900D01*
G01X24867Y28934D01*
G01X24885Y28969D01*
G01X24901Y29005D01*
G01X24916Y29042D01*
G01X24929Y29079D01*
G01X24941Y29117D01*
G01X24951Y29155D01*
G01X24960Y29193D01*
G01X24967Y29232D01*
G01X24972Y29271D01*
G01X24976Y29311D01*
G01X24979Y29350D01*
G01X24980Y29390D01*
G01X24980Y29390D02*
G01X24979Y29429D01*
G01X24976Y29469D01*
G01X24972Y29509D01*
G01X24967Y29548D01*
G01X24960Y29588D01*
G01X24951Y29626D01*
G01X24941Y29665D01*
G01X24929Y29703D01*
G01X24916Y29741D01*
G01X24901Y29778D01*
G01X24885Y29814D01*
G01X24867Y29850D01*
G01X24848Y29885D01*
G01X24828Y29919D01*
G01X24806Y29952D01*
G01X24783Y29984D01*
G01X24759Y30016D01*
G01X24733Y30046D01*
G01X24706Y30075D01*
G01X24678Y30103D01*
G01X24649Y30131D01*
G01X24619Y30156D01*
G01X24588Y30181D01*
G01X24556Y30204D01*
G01X24523Y30226D01*
G01X24489Y30247D01*
G01X24455Y30266D01*
G01X24420Y30284D01*
G01X24384Y30300D01*
G01X24347Y30315D01*
G01X24310Y30329D01*
G01X24272Y30340D01*
G01X24234Y30351D01*
G01X24196Y30359D01*
G01X24157Y30367D01*
G01X24118Y30372D01*
G01X24078Y30376D01*
G01X24039Y30379D01*
G01X24000Y30380D01*
G04 draw reference designator for part C13*
G01X22790Y30318D02*
G01X22836Y30340D01*
G01X22745Y30272D02*
G01X22790Y30318D01*
G01X22722Y30227D02*
G01X22745Y30272D01*
G01X22722Y30136D02*
G01X22722Y30227D01*
G01X22722Y30136D02*
G01X22745Y30090D01*
G01X22745Y30090D02*
G01X22790Y30045D01*
G01X22790Y30045D02*
G01X22836Y30022D01*
G01X22836Y30022D02*
G01X22904Y30000D01*
G01X22904Y30000D02*
G01X23018Y30000D01*
G01X23018Y30000D02*
G01X23086Y30022D01*
G01X23086Y30022D02*
G01X23131Y30045D01*
G01X23131Y30045D02*
G01X23177Y30090D01*
G01X23177Y30090D02*
G01X23200Y30136D01*
G01X23200Y30227D02*
G01X23200Y30136D01*
G01X23177Y30272D02*
G01X23200Y30227D01*
G01X23131Y30318D02*
G01X23177Y30272D01*
G01X23086Y30340D02*
G01X23131Y30318D01*
G01X22790Y30568D02*
G01X22813Y30522D01*
G01X22722Y30636D02*
G01X22790Y30568D01*
G01X22722Y30636D02*
G01X23200Y30636D01*
G01X22722Y31113D02*
G01X22722Y30863D01*
G01X22722Y31113D02*
G01X22904Y30977D01*
G01X22904Y31045D02*
G01X22904Y30977D01*
G01X22904Y31045D02*
G01X22927Y31090D01*
G01X22927Y31090D02*
G01X22950Y31113D01*
G01X22950Y31113D02*
G01X23018Y31136D01*
G01X23018Y31136D02*
G01X23063Y31136D01*
G01X23063Y31136D02*
G01X23131Y31113D01*
G01X23131Y31113D02*
G01X23177Y31068D01*
G01X23177Y31068D02*
G01X23200Y31000D01*
G01X23200Y30931D02*
G01X23200Y31000D01*
G01X23177Y30863D02*
G01X23200Y30931D01*
G01X23154Y30840D02*
G01X23177Y30863D01*
G01X23109Y30818D02*
G01X23154Y30840D01*
G04 Draw part C11*
G04 draw part outline for part C11*
G01X22500Y30500D02*
G01X22500Y27500D01*
G01X22500Y27500D02*
G01X21500Y27500D01*
G01X21500Y27500D02*
G01X21500Y30500D01*
G01X21500Y30500D02*
G01X22500Y30500D01*
G04 draw reference designator for part C11*
G01X21840Y28818D02*
G01X21886Y28840D01*
G01X21795Y28772D02*
G01X21840Y28818D01*
G01X21772Y28727D02*
G01X21795Y28772D01*
G01X21772Y28636D02*
G01X21772Y28727D01*
G01X21772Y28636D02*
G01X21795Y28590D01*
G01X21795Y28590D02*
G01X21840Y28545D01*
G01X21840Y28545D02*
G01X21886Y28522D01*
G01X21886Y28522D02*
G01X21954Y28500D01*
G01X21954Y28500D02*
G01X22068Y28500D01*
G01X22068Y28500D02*
G01X22136Y28522D01*
G01X22136Y28522D02*
G01X22181Y28545D01*
G01X22181Y28545D02*
G01X22227Y28590D01*
G01X22227Y28590D02*
G01X22250Y28636D01*
G01X22250Y28727D02*
G01X22250Y28636D01*
G01X22227Y28772D02*
G01X22250Y28727D01*
G01X22181Y28818D02*
G01X22227Y28772D01*
G01X22136Y28840D02*
G01X22181Y28818D01*
G01X21840Y29068D02*
G01X21863Y29022D01*
G01X21772Y29136D02*
G01X21840Y29068D01*
G01X21772Y29136D02*
G01X22250Y29136D01*
G01X21840Y29363D02*
G01X21863Y29318D01*
G01X21772Y29431D02*
G01X21840Y29363D01*
G01X21772Y29431D02*
G01X22250Y29431D01*
G04 Draw part D6*
G04 draw part outline for part D6*
G01X27500Y31500D02*
G01X30500Y31500D01*
G01X30500Y31500D02*
G01X30500Y30500D01*
G01X30500Y30500D02*
G01X27500Y30500D01*
G01X27500Y30500D02*
G01X27500Y31500D01*
G01X30250Y31500D02*
G01X30250Y30500D01*
G04 draw reference designator for part D6*
G01X28000Y31227D02*
G01X28000Y30750D01*
G01X28159Y31227D02*
G01X28000Y31227D01*
G01X28159Y31227D02*
G01X28227Y31204D01*
G01X28227Y31204D02*
G01X28272Y31159D01*
G01X28272Y31159D02*
G01X28295Y31113D01*
G01X28295Y31113D02*
G01X28318Y31045D01*
G01X28318Y31045D02*
G01X28318Y30931D01*
G01X28318Y30931D02*
G01X28295Y30863D01*
G01X28295Y30863D02*
G01X28272Y30818D01*
G01X28272Y30818D02*
G01X28227Y30772D01*
G01X28227Y30772D02*
G01X28159Y30750D01*
G01X28000Y30750D02*
G01X28159Y30750D01*
G01X28750Y31204D02*
G01X28772Y31159D01*
G01X28681Y31227D02*
G01X28750Y31204D01*
G01X28636Y31227D02*
G01X28681Y31227D01*
G01X28636Y31227D02*
G01X28568Y31204D01*
G01X28568Y31204D02*
G01X28522Y31136D01*
G01X28522Y31136D02*
G01X28500Y31022D01*
G01X28500Y31022D02*
G01X28500Y30909D01*
G01X28500Y30909D02*
G01X28522Y30818D01*
G01X28522Y30818D02*
G01X28568Y30772D01*
G01X28568Y30772D02*
G01X28636Y30750D01*
G01X28659Y30750D02*
G01X28636Y30750D01*
G01X28727Y30772D02*
G01X28659Y30750D01*
G01X28772Y30818D02*
G01X28727Y30772D01*
G01X28795Y30886D02*
G01X28772Y30818D01*
G01X28795Y30909D02*
G01X28795Y30886D01*
G01X28772Y30977D02*
G01X28795Y30909D01*
G01X28727Y31022D02*
G01X28772Y30977D01*
G01X28659Y31045D02*
G01X28727Y31022D01*
G01X28636Y31045D02*
G01X28659Y31045D01*
G01X28636Y31045D02*
G01X28568Y31022D01*
G01X28568Y31022D02*
G01X28522Y30977D01*
G01X28522Y30977D02*
G01X28500Y30909D01*
G04 Draw part C8*
G04 draw part outline for part C8*
G01X25500Y25500D02*
G01X25500Y22500D01*
G01X25500Y22500D02*
G01X24500Y22500D01*
G01X24500Y22500D02*
G01X24500Y25500D01*
G01X24500Y25500D02*
G01X25500Y25500D01*
G04 draw reference designator for part C8*
G01X24840Y23818D02*
G01X24886Y23840D01*
G01X24795Y23772D02*
G01X24840Y23818D01*
G01X24772Y23727D02*
G01X24795Y23772D01*
G01X24772Y23636D02*
G01X24772Y23727D01*
G01X24772Y23636D02*
G01X24795Y23590D01*
G01X24795Y23590D02*
G01X24840Y23545D01*
G01X24840Y23545D02*
G01X24886Y23522D01*
G01X24886Y23522D02*
G01X24954Y23500D01*
G01X24954Y23500D02*
G01X25068Y23500D01*
G01X25068Y23500D02*
G01X25136Y23522D01*
G01X25136Y23522D02*
G01X25181Y23545D01*
G01X25181Y23545D02*
G01X25227Y23590D01*
G01X25227Y23590D02*
G01X25250Y23636D01*
G01X25250Y23727D02*
G01X25250Y23636D01*
G01X25227Y23772D02*
G01X25250Y23727D01*
G01X25181Y23818D02*
G01X25227Y23772D01*
G01X25136Y23840D02*
G01X25181Y23818D01*
G01X24772Y24136D02*
G01X24795Y24068D01*
G01X24795Y24068D02*
G01X24840Y24045D01*
G01X24840Y24045D02*
G01X24886Y24045D01*
G01X24886Y24045D02*
G01X24931Y24068D01*
G01X24931Y24068D02*
G01X24954Y24113D01*
G01X24954Y24113D02*
G01X24977Y24204D01*
G01X24977Y24204D02*
G01X25000Y24272D01*
G01X25000Y24272D02*
G01X25045Y24318D01*
G01X25045Y24318D02*
G01X25090Y24340D01*
G01X25090Y24340D02*
G01X25159Y24340D01*
G01X25159Y24340D02*
G01X25204Y24318D01*
G01X25204Y24318D02*
G01X25227Y24295D01*
G01X25227Y24295D02*
G01X25250Y24227D01*
G01X25250Y24136D02*
G01X25250Y24227D01*
G01X25227Y24068D02*
G01X25250Y24136D01*
G01X25204Y24045D02*
G01X25227Y24068D01*
G01X25159Y24022D02*
G01X25204Y24045D01*
G01X25090Y24022D02*
G01X25159Y24022D01*
G01X25045Y24045D02*
G01X25090Y24022D01*
G01X25000Y24090D02*
G01X25045Y24045D01*
G01X24977Y24159D02*
G01X25000Y24090D01*
G01X24954Y24250D02*
G01X24977Y24159D01*
G01X24931Y24295D02*
G01X24954Y24250D01*
G01X24886Y24318D02*
G01X24931Y24295D01*
G01X24840Y24318D02*
G01X24886Y24318D01*
G01X24795Y24295D02*
G01X24840Y24318D01*
G01X24772Y24227D02*
G01X24795Y24295D01*
G01X24772Y24136D02*
G01X24772Y24227D01*
G04 Draw part R7*
G04 draw part outline for part R7*
G01X13000Y22750D02*
G01X13000Y25250D01*
G01X13000Y25250D02*
G01X14000Y25250D01*
G01X14000Y25250D02*
G01X14000Y22750D01*
G01X14000Y22750D02*
G01X13000Y22750D01*
G04 draw reference designator for part R7*
G01X13272Y23750D02*
G01X13750Y23750D01*
G01X13272Y23954D02*
G01X13272Y23750D01*
G01X13272Y23954D02*
G01X13295Y24022D01*
G01X13295Y24022D02*
G01X13318Y24045D01*
G01X13318Y24045D02*
G01X13363Y24068D01*
G01X13363Y24068D02*
G01X13409Y24068D01*
G01X13409Y24068D02*
G01X13454Y24045D01*
G01X13454Y24045D02*
G01X13477Y24022D01*
G01X13477Y24022D02*
G01X13500Y23954D01*
G01X13500Y23750D02*
G01X13500Y23954D01*
G01X13500Y23909D02*
G01X13750Y24068D01*
G01X13272Y24568D02*
G01X13750Y24340D01*
G01X13272Y24568D02*
G01X13272Y24250D01*
G04 Draw part R8*
G04 draw part outline for part R8*
G01X12000Y22750D02*
G01X12000Y25250D01*
G01X12000Y25250D02*
G01X13000Y25250D01*
G01X13000Y25250D02*
G01X13000Y22750D01*
G01X13000Y22750D02*
G01X12000Y22750D01*
G04 draw reference designator for part R8*
G01X12272Y23750D02*
G01X12750Y23750D01*
G01X12272Y23954D02*
G01X12272Y23750D01*
G01X12272Y23954D02*
G01X12295Y24022D01*
G01X12295Y24022D02*
G01X12318Y24045D01*
G01X12318Y24045D02*
G01X12363Y24068D01*
G01X12363Y24068D02*
G01X12409Y24068D01*
G01X12409Y24068D02*
G01X12454Y24045D01*
G01X12454Y24045D02*
G01X12477Y24022D01*
G01X12477Y24022D02*
G01X12500Y23954D01*
G01X12500Y23750D02*
G01X12500Y23954D01*
G01X12500Y23909D02*
G01X12750Y24068D01*
G01X12272Y24363D02*
G01X12295Y24295D01*
G01X12295Y24295D02*
G01X12340Y24272D01*
G01X12340Y24272D02*
G01X12386Y24272D01*
G01X12386Y24272D02*
G01X12431Y24295D01*
G01X12431Y24295D02*
G01X12454Y24340D01*
G01X12454Y24340D02*
G01X12477Y24431D01*
G01X12477Y24431D02*
G01X12500Y24500D01*
G01X12500Y24500D02*
G01X12545Y24545D01*
G01X12545Y24545D02*
G01X12590Y24568D01*
G01X12590Y24568D02*
G01X12659Y24568D01*
G01X12659Y24568D02*
G01X12704Y24545D01*
G01X12704Y24545D02*
G01X12727Y24522D01*
G01X12727Y24522D02*
G01X12750Y24454D01*
G01X12750Y24363D02*
G01X12750Y24454D01*
G01X12727Y24295D02*
G01X12750Y24363D01*
G01X12704Y24272D02*
G01X12727Y24295D01*
G01X12659Y24250D02*
G01X12704Y24272D01*
G01X12590Y24250D02*
G01X12659Y24250D01*
G01X12545Y24272D02*
G01X12590Y24250D01*
G01X12500Y24318D02*
G01X12545Y24272D01*
G01X12477Y24386D02*
G01X12500Y24318D01*
G01X12454Y24477D02*
G01X12477Y24386D01*
G01X12431Y24522D02*
G01X12454Y24477D01*
G01X12386Y24545D02*
G01X12431Y24522D01*
G01X12340Y24545D02*
G01X12386Y24545D01*
G01X12295Y24522D02*
G01X12340Y24545D01*
G01X12272Y24454D02*
G01X12295Y24522D01*
G01X12272Y24363D02*
G01X12272Y24454D01*
G04 Draw part D4*
G04 draw part outline for part D4*
G01X10450Y25500D02*
G01X10450Y23500D01*
G01X10450Y23500D02*
G01X9550Y23500D01*
G01X9550Y23500D02*
G01X9550Y25500D01*
G01X9550Y25500D02*
G01X10450Y25500D01*
G01X10450Y23750D02*
G01X9550Y23750D01*
G04 draw reference designator for part D4*
G01X9772Y24250D02*
G01X10250Y24250D01*
G01X9772Y24409D02*
G01X9772Y24250D01*
G01X9772Y24409D02*
G01X9795Y24477D01*
G01X9795Y24477D02*
G01X9840Y24522D01*
G01X9840Y24522D02*
G01X9886Y24545D01*
G01X9886Y24545D02*
G01X9954Y24568D01*
G01X9954Y24568D02*
G01X10068Y24568D01*
G01X10068Y24568D02*
G01X10136Y24545D01*
G01X10136Y24545D02*
G01X10181Y24522D01*
G01X10181Y24522D02*
G01X10227Y24477D01*
G01X10227Y24477D02*
G01X10250Y24409D01*
G01X10250Y24250D02*
G01X10250Y24409D01*
G01X9772Y24977D02*
G01X10090Y24750D01*
G01X10090Y25090D02*
G01X10090Y24750D01*
G01X9772Y24977D02*
G01X10250Y24977D01*
G04 Draw part D5*
G04 draw part outline for part D5*
G01X11450Y25500D02*
G01X11450Y23500D01*
G01X11450Y23500D02*
G01X10550Y23500D01*
G01X10550Y23500D02*
G01X10550Y25500D01*
G01X10550Y25500D02*
G01X11450Y25500D01*
G01X11450Y23750D02*
G01X10550Y23750D01*
G04 draw reference designator for part D5*
G01X10772Y24250D02*
G01X11250Y24250D01*
G01X10772Y24409D02*
G01X10772Y24250D01*
G01X10772Y24409D02*
G01X10795Y24477D01*
G01X10795Y24477D02*
G01X10840Y24522D01*
G01X10840Y24522D02*
G01X10886Y24545D01*
G01X10886Y24545D02*
G01X10954Y24568D01*
G01X10954Y24568D02*
G01X11068Y24568D01*
G01X11068Y24568D02*
G01X11136Y24545D01*
G01X11136Y24545D02*
G01X11181Y24522D01*
G01X11181Y24522D02*
G01X11227Y24477D01*
G01X11227Y24477D02*
G01X11250Y24409D01*
G01X11250Y24250D02*
G01X11250Y24409D01*
G01X10772Y24795D02*
G01X10772Y25022D01*
G01X10772Y24795D02*
G01X10977Y24772D01*
G01X10954Y24795D02*
G01X10977Y24772D01*
G01X10931Y24863D02*
G01X10954Y24795D01*
G01X10931Y24931D02*
G01X10931Y24863D01*
G01X10931Y24931D02*
G01X10954Y25000D01*
G01X10954Y25000D02*
G01X11000Y25045D01*
G01X11000Y25045D02*
G01X11068Y25068D01*
G01X11068Y25068D02*
G01X11113Y25068D01*
G01X11113Y25068D02*
G01X11181Y25045D01*
G01X11181Y25045D02*
G01X11227Y25000D01*
G01X11227Y25000D02*
G01X11250Y24931D01*
G01X11250Y24863D02*
G01X11250Y24931D01*
G01X11227Y24795D02*
G01X11250Y24863D01*
G01X11204Y24772D02*
G01X11227Y24795D01*
G01X11159Y24750D02*
G01X11204Y24772D01*
G04 Draw part C20*
G04 draw part outline for part C20*
G01X34500Y30100D02*
G01X34500Y29900D01*
G01X34600Y30000D02*
G01X34400Y30000D01*
G01X35000Y29270D02*
G01X35039Y29270D01*
G01X35079Y29272D01*
G01X35119Y29275D01*
G01X35158Y29280D01*
G01X35197Y29285D01*
G01X35237Y29292D01*
G01X35275Y29301D01*
G01X35314Y29310D01*
G01X35352Y29321D01*
G01X35390Y29333D01*
G01X35428Y29346D01*
G01X35465Y29360D01*
G01X35501Y29376D01*
G01X35538Y29392D01*
G01X35573Y29410D01*
G01X35608Y29429D01*
G01X35642Y29449D01*
G01X35676Y29470D01*
G01X35709Y29492D01*
G01X35741Y29516D01*
G01X35773Y29540D01*
G01X35803Y29565D01*
G01X35833Y29592D01*
G01X35862Y29619D01*
G01X35890Y29647D01*
G01X35917Y29676D01*
G01X35944Y29706D01*
G01X35969Y29736D01*
G01X35993Y29768D01*
G01X36017Y29800D01*
G01X36039Y29833D01*
G01X36060Y29867D01*
G01X36080Y29901D01*
G01X36099Y29936D01*
G01X36117Y29971D01*
G01X36133Y30008D01*
G01X36149Y30044D01*
G01X36163Y30081D01*
G01X36176Y30119D01*
G01X36188Y30157D01*
G01X36199Y30195D01*
G01X36208Y30234D01*
G01X36217Y30272D01*
G01X36224Y30312D01*
G01X36229Y30351D01*
G01X36234Y30390D01*
G01X36237Y30430D01*
G01X36239Y30470D01*
G01X36240Y30510D01*
G01X36240Y30510D02*
G01X36239Y30549D01*
G01X36237Y30589D01*
G01X36234Y30629D01*
G01X36229Y30668D01*
G01X36224Y30707D01*
G01X36217Y30747D01*
G01X36208Y30785D01*
G01X36199Y30824D01*
G01X36188Y30862D01*
G01X36176Y30900D01*
G01X36163Y30938D01*
G01X36149Y30975D01*
G01X36133Y31011D01*
G01X36117Y31048D01*
G01X36099Y31083D01*
G01X36080Y31118D01*
G01X36060Y31152D01*
G01X36039Y31186D01*
G01X36017Y31219D01*
G01X35993Y31251D01*
G01X35969Y31283D01*
G01X35944Y31313D01*
G01X35917Y31343D01*
G01X35890Y31372D01*
G01X35862Y31400D01*
G01X35833Y31427D01*
G01X35803Y31454D01*
G01X35773Y31479D01*
G01X35741Y31503D01*
G01X35709Y31527D01*
G01X35676Y31549D01*
G01X35642Y31570D01*
G01X35608Y31590D01*
G01X35573Y31609D01*
G01X35538Y31627D01*
G01X35501Y31643D01*
G01X35465Y31659D01*
G01X35428Y31673D01*
G01X35390Y31686D01*
G01X35352Y31698D01*
G01X35314Y31709D01*
G01X35275Y31718D01*
G01X35237Y31727D01*
G01X35197Y31734D01*
G01X35158Y31739D01*
G01X35119Y31744D01*
G01X35079Y31747D01*
G01X35039Y31749D01*
G01X35000Y31750D01*
G01X35000Y31750D02*
G01X34960Y31749D01*
G01X34920Y31747D01*
G01X34880Y31744D01*
G01X34841Y31739D01*
G01X34802Y31734D01*
G01X34762Y31727D01*
G01X34724Y31718D01*
G01X34685Y31709D01*
G01X34647Y31698D01*
G01X34609Y31686D01*
G01X34571Y31673D01*
G01X34534Y31659D01*
G01X34498Y31643D01*
G01X34461Y31627D01*
G01X34426Y31609D01*
G01X34391Y31590D01*
G01X34357Y31570D01*
G01X34323Y31549D01*
G01X34290Y31527D01*
G01X34258Y31503D01*
G01X34226Y31479D01*
G01X34196Y31454D01*
G01X34166Y31427D01*
G01X34137Y31400D01*
G01X34109Y31372D01*
G01X34082Y31343D01*
G01X34055Y31313D01*
G01X34030Y31283D01*
G01X34006Y31251D01*
G01X33982Y31219D01*
G01X33960Y31186D01*
G01X33939Y31152D01*
G01X33919Y31118D01*
G01X33900Y31083D01*
G01X33882Y31048D01*
G01X33866Y31011D01*
G01X33850Y30975D01*
G01X33836Y30938D01*
G01X33823Y30900D01*
G01X33811Y30862D01*
G01X33800Y30824D01*
G01X33791Y30785D01*
G01X33782Y30747D01*
G01X33775Y30707D01*
G01X33770Y30668D01*
G01X33765Y30629D01*
G01X33762Y30589D01*
G01X33760Y30549D01*
G01X33760Y30510D01*
G01X33760Y30510D02*
G01X33760Y30470D01*
G01X33762Y30430D01*
G01X33765Y30390D01*
G01X33770Y30351D01*
G01X33775Y30312D01*
G01X33782Y30272D01*
G01X33791Y30234D01*
G01X33800Y30195D01*
G01X33811Y30157D01*
G01X33823Y30119D01*
G01X33836Y30081D01*
G01X33850Y30044D01*
G01X33866Y30008D01*
G01X33882Y29971D01*
G01X33900Y29936D01*
G01X33919Y29901D01*
G01X33939Y29867D01*
G01X33960Y29833D01*
G01X33982Y29800D01*
G01X34006Y29768D01*
G01X34030Y29736D01*
G01X34055Y29706D01*
G01X34082Y29676D01*
G01X34109Y29647D01*
G01X34137Y29619D01*
G01X34166Y29592D01*
G01X34196Y29565D01*
G01X34226Y29540D01*
G01X34258Y29516D01*
G01X34290Y29492D01*
G01X34323Y29470D01*
G01X34357Y29449D01*
G01X34391Y29429D01*
G01X34426Y29410D01*
G01X34461Y29392D01*
G01X34498Y29376D01*
G01X34534Y29360D01*
G01X34571Y29346D01*
G01X34609Y29333D01*
G01X34647Y29321D01*
G01X34685Y29310D01*
G01X34724Y29301D01*
G01X34762Y29292D01*
G01X34802Y29285D01*
G01X34841Y29280D01*
G01X34880Y29275D01*
G01X34920Y29272D01*
G01X34960Y29270D01*
G01X35000Y29270D01*
G04 draw reference designator for part C20*
G01X34568Y32659D02*
G01X34590Y32613D01*
G01X34522Y32704D02*
G01X34568Y32659D01*
G01X34477Y32727D02*
G01X34522Y32704D01*
G01X34386Y32727D02*
G01X34477Y32727D01*
G01X34386Y32727D02*
G01X34340Y32704D01*
G01X34340Y32704D02*
G01X34295Y32659D01*
G01X34295Y32659D02*
G01X34272Y32613D01*
G01X34272Y32613D02*
G01X34250Y32545D01*
G01X34250Y32545D02*
G01X34250Y32431D01*
G01X34250Y32431D02*
G01X34272Y32363D01*
G01X34272Y32363D02*
G01X34295Y32318D01*
G01X34295Y32318D02*
G01X34340Y32272D01*
G01X34340Y32272D02*
G01X34386Y32250D01*
G01X34477Y32250D02*
G01X34386Y32250D01*
G01X34522Y32272D02*
G01X34477Y32250D01*
G01X34568Y32318D02*
G01X34522Y32272D01*
G01X34590Y32363D02*
G01X34568Y32318D01*
G01X34795Y32636D02*
G01X34795Y32613D01*
G01X34818Y32681D02*
G01X34795Y32636D01*
G01X34840Y32704D02*
G01X34818Y32681D01*
G01X34886Y32727D02*
G01X34840Y32704D01*
G01X34977Y32727D02*
G01X34886Y32727D01*
G01X34977Y32727D02*
G01X35022Y32704D01*
G01X35022Y32704D02*
G01X35045Y32681D01*
G01X35045Y32681D02*
G01X35068Y32636D01*
G01X35068Y32636D02*
G01X35068Y32590D01*
G01X35068Y32590D02*
G01X35045Y32545D01*
G01X35045Y32545D02*
G01X35000Y32477D01*
G01X35000Y32477D02*
G01X34772Y32250D01*
G01X35090Y32250D02*
G01X34772Y32250D01*
G01X35409Y32727D02*
G01X35340Y32704D01*
G01X35340Y32704D02*
G01X35295Y32636D01*
G01X35295Y32636D02*
G01X35272Y32522D01*
G01X35272Y32522D02*
G01X35272Y32454D01*
G01X35272Y32454D02*
G01X35295Y32340D01*
G01X35295Y32340D02*
G01X35340Y32272D01*
G01X35340Y32272D02*
G01X35409Y32250D01*
G01X35454Y32250D02*
G01X35409Y32250D01*
G01X35522Y32272D02*
G01X35454Y32250D01*
G01X35568Y32340D02*
G01X35522Y32272D01*
G01X35590Y32454D02*
G01X35568Y32340D01*
G01X35590Y32522D02*
G01X35590Y32454D01*
G01X35568Y32636D02*
G01X35590Y32522D01*
G01X35522Y32704D02*
G01X35568Y32636D01*
G01X35454Y32727D02*
G01X35522Y32704D01*
G01X35409Y32727D02*
G01X35454Y32727D01*
G04 Draw part C16*
G04 draw part outline for part C16*
G01X32500Y31500D02*
G01X32500Y28500D01*
G01X32500Y28500D02*
G01X31500Y28500D01*
G01X31500Y28500D02*
G01X31500Y31500D01*
G01X31500Y31500D02*
G01X32500Y31500D01*
G04 draw reference designator for part C16*
G01X31840Y29818D02*
G01X31886Y29840D01*
G01X31795Y29772D02*
G01X31840Y29818D01*
G01X31772Y29727D02*
G01X31795Y29772D01*
G01X31772Y29636D02*
G01X31772Y29727D01*
G01X31772Y29636D02*
G01X31795Y29590D01*
G01X31795Y29590D02*
G01X31840Y29545D01*
G01X31840Y29545D02*
G01X31886Y29522D01*
G01X31886Y29522D02*
G01X31954Y29500D01*
G01X31954Y29500D02*
G01X32068Y29500D01*
G01X32068Y29500D02*
G01X32136Y29522D01*
G01X32136Y29522D02*
G01X32181Y29545D01*
G01X32181Y29545D02*
G01X32227Y29590D01*
G01X32227Y29590D02*
G01X32250Y29636D01*
G01X32250Y29727D02*
G01X32250Y29636D01*
G01X32227Y29772D02*
G01X32250Y29727D01*
G01X32181Y29818D02*
G01X32227Y29772D01*
G01X32136Y29840D02*
G01X32181Y29818D01*
G01X31840Y30068D02*
G01X31863Y30022D01*
G01X31772Y30136D02*
G01X31840Y30068D01*
G01X31772Y30136D02*
G01X32250Y30136D01*
G01X31795Y30568D02*
G01X31840Y30590D01*
G01X31772Y30500D02*
G01X31795Y30568D01*
G01X31772Y30454D02*
G01X31772Y30500D01*
G01X31772Y30454D02*
G01X31795Y30386D01*
G01X31795Y30386D02*
G01X31863Y30340D01*
G01X31863Y30340D02*
G01X31977Y30318D01*
G01X31977Y30318D02*
G01X32090Y30318D01*
G01X32090Y30318D02*
G01X32181Y30340D01*
G01X32181Y30340D02*
G01X32227Y30386D01*
G01X32227Y30386D02*
G01X32250Y30454D01*
G01X32250Y30477D02*
G01X32250Y30454D01*
G01X32227Y30545D02*
G01X32250Y30477D01*
G01X32181Y30590D02*
G01X32227Y30545D01*
G01X32113Y30613D02*
G01X32181Y30590D01*
G01X32090Y30613D02*
G01X32113Y30613D01*
G01X32022Y30590D02*
G01X32090Y30613D01*
G01X31977Y30545D02*
G01X32022Y30590D01*
G01X31954Y30477D02*
G01X31977Y30545D01*
G01X31954Y30454D02*
G01X31954Y30477D01*
G01X31954Y30454D02*
G01X31977Y30386D01*
G01X31977Y30386D02*
G01X32022Y30340D01*
G01X32022Y30340D02*
G01X32090Y30318D01*
G04 Draw part R9*
G04 draw part outline for part R9*
G54D12*
G01X20900Y26900D02*
G01X20900Y23100D01*
G01X20900Y23100D02*
G01X17100Y23100D01*
G01X17100Y23100D02*
G01X17100Y26900D01*
G01X17100Y26900D02*
G01X20900Y26900D01*
G04 draw reference designator for part R9*
G01X18750Y24454D02*
G01X18750Y23500D01*
G01X19159Y24454D02*
G01X18750Y24454D01*
G01X19159Y24454D02*
G01X19295Y24409D01*
G01X19295Y24409D02*
G01X19340Y24363D01*
G01X19340Y24363D02*
G01X19386Y24272D01*
G01X19386Y24272D02*
G01X19386Y24181D01*
G01X19386Y24181D02*
G01X19340Y24090D01*
G01X19340Y24090D02*
G01X19295Y24045D01*
G01X19295Y24045D02*
G01X19159Y24000D01*
G01X18750Y24000D02*
G01X19159Y24000D01*
G01X19068Y24000D02*
G01X19386Y23500D01*
G01X20340Y24136D02*
G01X20295Y24000D01*
G01X20295Y24000D02*
G01X20204Y23909D01*
G01X20204Y23909D02*
G01X20068Y23863D01*
G01X20022Y23863D02*
G01X20068Y23863D01*
G01X19886Y23909D02*
G01X20022Y23863D01*
G01X19795Y24000D02*
G01X19886Y23909D01*
G01X19750Y24136D02*
G01X19795Y24000D01*
G01X19750Y24181D02*
G01X19750Y24136D01*
G01X19795Y24318D02*
G01X19750Y24181D01*
G01X19886Y24409D02*
G01X19795Y24318D01*
G01X20022Y24454D02*
G01X19886Y24409D01*
G01X20068Y24454D02*
G01X20022Y24454D01*
G01X20068Y24454D02*
G01X20204Y24409D01*
G01X20204Y24409D02*
G01X20295Y24318D01*
G01X20295Y24318D02*
G01X20340Y24136D01*
G01X20340Y24136D02*
G01X20340Y23909D01*
G01X20340Y23909D02*
G01X20295Y23681D01*
G01X20295Y23681D02*
G01X20204Y23545D01*
G01X20204Y23545D02*
G01X20068Y23500D01*
G01X19977Y23500D02*
G01X20068Y23500D01*
G01X19840Y23545D02*
G01X19977Y23500D01*
G01X19795Y23636D02*
G01X19840Y23545D01*
G04 Draw part R10*
G04 draw part outline for part R10*
G54D11*
G01X21250Y20500D02*
G01X18750Y20500D01*
G01X18750Y20500D02*
G01X18750Y21500D01*
G01X18750Y21500D02*
G01X21250Y21500D01*
G01X21250Y21500D02*
G01X21250Y20500D01*
G04 draw reference designator for part R10*
G01X19500Y21227D02*
G01X19500Y20750D01*
G01X19704Y21227D02*
G01X19500Y21227D01*
G01X19704Y21227D02*
G01X19772Y21204D01*
G01X19772Y21204D02*
G01X19795Y21181D01*
G01X19795Y21181D02*
G01X19818Y21136D01*
G01X19818Y21136D02*
G01X19818Y21090D01*
G01X19818Y21090D02*
G01X19795Y21045D01*
G01X19795Y21045D02*
G01X19772Y21022D01*
G01X19772Y21022D02*
G01X19704Y21000D01*
G01X19500Y21000D02*
G01X19704Y21000D01*
G01X19659Y21000D02*
G01X19818Y20750D01*
G01X20045Y21159D02*
G01X20000Y21136D01*
G01X20113Y21227D02*
G01X20045Y21159D01*
G01X20113Y21227D02*
G01X20113Y20750D01*
G01X20431Y21227D02*
G01X20363Y21204D01*
G01X20363Y21204D02*
G01X20318Y21136D01*
G01X20318Y21136D02*
G01X20295Y21022D01*
G01X20295Y21022D02*
G01X20295Y20954D01*
G01X20295Y20954D02*
G01X20318Y20840D01*
G01X20318Y20840D02*
G01X20363Y20772D01*
G01X20363Y20772D02*
G01X20431Y20750D01*
G01X20477Y20750D02*
G01X20431Y20750D01*
G01X20545Y20772D02*
G01X20477Y20750D01*
G01X20590Y20840D02*
G01X20545Y20772D01*
G01X20613Y20954D02*
G01X20590Y20840D01*
G01X20613Y21022D02*
G01X20613Y20954D01*
G01X20590Y21136D02*
G01X20613Y21022D01*
G01X20545Y21204D02*
G01X20590Y21136D01*
G01X20477Y21227D02*
G01X20545Y21204D01*
G01X20431Y21227D02*
G01X20477Y21227D01*
G04 Draw part C9*
G04 draw part outline for part C9*
G01X22700Y22500D02*
G01X22900Y22500D01*
G01X22800Y22600D02*
G01X22800Y22400D01*
G01X23380Y23000D02*
G01X23379Y23039D01*
G01X23376Y23078D01*
G01X23372Y23118D01*
G01X23367Y23157D01*
G01X23359Y23196D01*
G01X23351Y23234D01*
G01X23340Y23272D01*
G01X23329Y23310D01*
G01X23315Y23347D01*
G01X23300Y23384D01*
G01X23284Y23420D01*
G01X23266Y23455D01*
G01X23247Y23490D01*
G01X23226Y23523D01*
G01X23204Y23556D01*
G01X23181Y23588D01*
G01X23156Y23619D01*
G01X23131Y23649D01*
G01X23103Y23678D01*
G01X23075Y23706D01*
G01X23046Y23733D01*
G01X23016Y23759D01*
G01X22984Y23783D01*
G01X22952Y23806D01*
G01X22919Y23828D01*
G01X22884Y23848D01*
G01X22850Y23867D01*
G01X22814Y23885D01*
G01X22778Y23901D01*
G01X22741Y23916D01*
G01X22703Y23929D01*
G01X22665Y23941D01*
G01X22626Y23951D01*
G01X22588Y23960D01*
G01X22548Y23967D01*
G01X22509Y23972D01*
G01X22469Y23976D01*
G01X22429Y23979D01*
G01X22390Y23980D01*
G01X22390Y23980D02*
G01X22350Y23979D01*
G01X22311Y23976D01*
G01X22271Y23972D01*
G01X22232Y23967D01*
G01X22193Y23960D01*
G01X22155Y23951D01*
G01X22117Y23941D01*
G01X22079Y23929D01*
G01X22042Y23916D01*
G01X22005Y23901D01*
G01X21969Y23885D01*
G01X21934Y23867D01*
G01X21899Y23848D01*
G01X21866Y23828D01*
G01X21833Y23806D01*
G01X21801Y23783D01*
G01X21770Y23759D01*
G01X21740Y23733D01*
G01X21711Y23706D01*
G01X21683Y23678D01*
G01X21656Y23649D01*
G01X21630Y23619D01*
G01X21606Y23588D01*
G01X21583Y23556D01*
G01X21561Y23523D01*
G01X21541Y23489D01*
G01X21522Y23455D01*
G01X21504Y23420D01*
G01X21488Y23384D01*
G01X21473Y23347D01*
G01X21460Y23310D01*
G01X21448Y23272D01*
G01X21438Y23234D01*
G01X21429Y23196D01*
G01X21422Y23157D01*
G01X21417Y23118D01*
G01X21413Y23078D01*
G01X21410Y23039D01*
G01X21410Y23000D01*
G01X21410Y23000D02*
G01X21410Y22960D01*
G01X21413Y22921D01*
G01X21417Y22881D01*
G01X21422Y22842D01*
G01X21429Y22803D01*
G01X21438Y22765D01*
G01X21448Y22727D01*
G01X21460Y22689D01*
G01X21473Y22652D01*
G01X21488Y22615D01*
G01X21504Y22579D01*
G01X21522Y22544D01*
G01X21541Y22509D01*
G01X21561Y22476D01*
G01X21583Y22443D01*
G01X21606Y22411D01*
G01X21630Y22380D01*
G01X21656Y22350D01*
G01X21683Y22321D01*
G01X21711Y22293D01*
G01X21740Y22266D01*
G01X21770Y22240D01*
G01X21801Y22216D01*
G01X21833Y22193D01*
G01X21866Y22171D01*
G01X21900Y22151D01*
G01X21934Y22132D01*
G01X21969Y22114D01*
G01X22005Y22098D01*
G01X22042Y22083D01*
G01X22079Y22070D01*
G01X22117Y22058D01*
G01X22155Y22048D01*
G01X22193Y22039D01*
G01X22232Y22032D01*
G01X22271Y22027D01*
G01X22311Y22023D01*
G01X22350Y22020D01*
G01X22390Y22020D01*
G01X22390Y22020D02*
G01X22429Y22020D01*
G01X22469Y22023D01*
G01X22509Y22027D01*
G01X22548Y22032D01*
G01X22588Y22039D01*
G01X22626Y22048D01*
G01X22665Y22058D01*
G01X22703Y22070D01*
G01X22741Y22083D01*
G01X22778Y22098D01*
G01X22814Y22114D01*
G01X22850Y22132D01*
G01X22885Y22151D01*
G01X22919Y22171D01*
G01X22952Y22193D01*
G01X22984Y22216D01*
G01X23016Y22240D01*
G01X23046Y22266D01*
G01X23075Y22293D01*
G01X23103Y22321D01*
G01X23131Y22350D01*
G01X23156Y22380D01*
G01X23181Y22411D01*
G01X23204Y22443D01*
G01X23226Y22476D01*
G01X23247Y22510D01*
G01X23266Y22544D01*
G01X23284Y22579D01*
G01X23300Y22615D01*
G01X23315Y22652D01*
G01X23329Y22689D01*
G01X23340Y22727D01*
G01X23351Y22765D01*
G01X23359Y22803D01*
G01X23367Y22842D01*
G01X23372Y22881D01*
G01X23376Y22921D01*
G01X23379Y22960D01*
G01X23380Y23000D01*
G04 draw reference designator for part C9*
G01X22318Y24659D02*
G01X22340Y24613D01*
G01X22272Y24704D02*
G01X22318Y24659D01*
G01X22227Y24727D02*
G01X22272Y24704D01*
G01X22136Y24727D02*
G01X22227Y24727D01*
G01X22136Y24727D02*
G01X22090Y24704D01*
G01X22090Y24704D02*
G01X22045Y24659D01*
G01X22045Y24659D02*
G01X22022Y24613D01*
G01X22022Y24613D02*
G01X22000Y24545D01*
G01X22000Y24545D02*
G01X22000Y24431D01*
G01X22000Y24431D02*
G01X22022Y24363D01*
G01X22022Y24363D02*
G01X22045Y24318D01*
G01X22045Y24318D02*
G01X22090Y24272D01*
G01X22090Y24272D02*
G01X22136Y24250D01*
G01X22227Y24250D02*
G01X22136Y24250D01*
G01X22272Y24272D02*
G01X22227Y24250D01*
G01X22318Y24318D02*
G01X22272Y24272D01*
G01X22340Y24363D02*
G01X22318Y24318D01*
G01X22818Y24568D02*
G01X22795Y24500D01*
G01X22795Y24500D02*
G01X22750Y24454D01*
G01X22750Y24454D02*
G01X22681Y24431D01*
G01X22659Y24431D02*
G01X22681Y24431D01*
G01X22590Y24454D02*
G01X22659Y24431D01*
G01X22545Y24500D02*
G01X22590Y24454D01*
G01X22522Y24568D02*
G01X22545Y24500D01*
G01X22522Y24590D02*
G01X22522Y24568D01*
G01X22545Y24659D02*
G01X22522Y24590D01*
G01X22590Y24704D02*
G01X22545Y24659D01*
G01X22659Y24727D02*
G01X22590Y24704D01*
G01X22681Y24727D02*
G01X22659Y24727D01*
G01X22681Y24727D02*
G01X22750Y24704D01*
G01X22750Y24704D02*
G01X22795Y24659D01*
G01X22795Y24659D02*
G01X22818Y24568D01*
G01X22818Y24568D02*
G01X22818Y24454D01*
G01X22818Y24454D02*
G01X22795Y24340D01*
G01X22795Y24340D02*
G01X22750Y24272D01*
G01X22750Y24272D02*
G01X22681Y24250D01*
G01X22636Y24250D02*
G01X22681Y24250D01*
G01X22568Y24272D02*
G01X22636Y24250D01*
G01X22545Y24318D02*
G01X22568Y24272D01*
G04 Draw part C10*
G04 draw part outline for part C10*
G01X12500Y27500D02*
G01X12500Y30500D01*
G01X12500Y30500D02*
G01X13500Y30500D01*
G01X13500Y30500D02*
G01X13500Y27500D01*
G01X13500Y27500D02*
G01X12500Y27500D01*
G04 draw reference designator for part C10*
G01X12840Y28818D02*
G01X12886Y28840D01*
G01X12795Y28772D02*
G01X12840Y28818D01*
G01X12772Y28727D02*
G01X12795Y28772D01*
G01X12772Y28636D02*
G01X12772Y28727D01*
G01X12772Y28636D02*
G01X12795Y28590D01*
G01X12795Y28590D02*
G01X12840Y28545D01*
G01X12840Y28545D02*
G01X12886Y28522D01*
G01X12886Y28522D02*
G01X12954Y28500D01*
G01X12954Y28500D02*
G01X13068Y28500D01*
G01X13068Y28500D02*
G01X13136Y28522D01*
G01X13136Y28522D02*
G01X13181Y28545D01*
G01X13181Y28545D02*
G01X13227Y28590D01*
G01X13227Y28590D02*
G01X13250Y28636D01*
G01X13250Y28727D02*
G01X13250Y28636D01*
G01X13227Y28772D02*
G01X13250Y28727D01*
G01X13181Y28818D02*
G01X13227Y28772D01*
G01X13136Y28840D02*
G01X13181Y28818D01*
G01X12840Y29068D02*
G01X12863Y29022D01*
G01X12772Y29136D02*
G01X12840Y29068D01*
G01X12772Y29136D02*
G01X13250Y29136D01*
G01X12772Y29454D02*
G01X12795Y29386D01*
G01X12795Y29386D02*
G01X12863Y29340D01*
G01X12863Y29340D02*
G01X12977Y29318D01*
G01X12977Y29318D02*
G01X13045Y29318D01*
G01X13045Y29318D02*
G01X13159Y29340D01*
G01X13159Y29340D02*
G01X13227Y29386D01*
G01X13227Y29386D02*
G01X13250Y29454D01*
G01X13250Y29500D02*
G01X13250Y29454D01*
G01X13227Y29568D02*
G01X13250Y29500D01*
G01X13159Y29613D02*
G01X13227Y29568D01*
G01X13045Y29636D02*
G01X13159Y29613D01*
G01X12977Y29636D02*
G01X13045Y29636D01*
G01X12863Y29613D02*
G01X12977Y29636D01*
G01X12795Y29568D02*
G01X12863Y29613D01*
G01X12772Y29500D02*
G01X12795Y29568D01*
G01X12772Y29454D02*
G01X12772Y29500D01*
G04 Draw part C12*
G04 draw part outline for part C12*
G01X14500Y27500D02*
G01X14500Y30500D01*
G01X14500Y30500D02*
G01X15500Y30500D01*
G01X15500Y30500D02*
G01X15500Y27500D01*
G01X15500Y27500D02*
G01X14500Y27500D01*
G04 draw reference designator for part C12*
G01X14840Y28818D02*
G01X14886Y28840D01*
G01X14795Y28772D02*
G01X14840Y28818D01*
G01X14772Y28727D02*
G01X14795Y28772D01*
G01X14772Y28636D02*
G01X14772Y28727D01*
G01X14772Y28636D02*
G01X14795Y28590D01*
G01X14795Y28590D02*
G01X14840Y28545D01*
G01X14840Y28545D02*
G01X14886Y28522D01*
G01X14886Y28522D02*
G01X14954Y28500D01*
G01X14954Y28500D02*
G01X15068Y28500D01*
G01X15068Y28500D02*
G01X15136Y28522D01*
G01X15136Y28522D02*
G01X15181Y28545D01*
G01X15181Y28545D02*
G01X15227Y28590D01*
G01X15227Y28590D02*
G01X15250Y28636D01*
G01X15250Y28727D02*
G01X15250Y28636D01*
G01X15227Y28772D02*
G01X15250Y28727D01*
G01X15181Y28818D02*
G01X15227Y28772D01*
G01X15136Y28840D02*
G01X15181Y28818D01*
G01X14840Y29068D02*
G01X14863Y29022D01*
G01X14772Y29136D02*
G01X14840Y29068D01*
G01X14772Y29136D02*
G01X15250Y29136D01*
G01X14863Y29340D02*
G01X14886Y29340D01*
G01X14818Y29363D02*
G01X14863Y29340D01*
G01X14795Y29386D02*
G01X14818Y29363D01*
G01X14772Y29431D02*
G01X14795Y29386D01*
G01X14772Y29522D02*
G01X14772Y29431D01*
G01X14772Y29522D02*
G01X14795Y29568D01*
G01X14795Y29568D02*
G01X14818Y29590D01*
G01X14818Y29590D02*
G01X14863Y29613D01*
G01X14863Y29613D02*
G01X14909Y29613D01*
G01X14909Y29613D02*
G01X14954Y29590D01*
G01X14954Y29590D02*
G01X15022Y29545D01*
G01X15022Y29545D02*
G01X15250Y29318D01*
G01X15250Y29636D02*
G01X15250Y29318D01*
G04 Draw part R11*
G04 draw part outline for part R11*
G01X26620Y29500D02*
G01X29380Y29500D01*
G01X29380Y29500D02*
G01X29380Y28500D01*
G01X29380Y28500D02*
G01X26620Y28500D01*
G01X26620Y28500D02*
G01X26620Y29500D01*
G04 draw reference designator for part R11*
G01X27500Y29227D02*
G01X27500Y28750D01*
G01X27704Y29227D02*
G01X27500Y29227D01*
G01X27704Y29227D02*
G01X27772Y29204D01*
G01X27772Y29204D02*
G01X27795Y29181D01*
G01X27795Y29181D02*
G01X27818Y29136D01*
G01X27818Y29136D02*
G01X27818Y29090D01*
G01X27818Y29090D02*
G01X27795Y29045D01*
G01X27795Y29045D02*
G01X27772Y29022D01*
G01X27772Y29022D02*
G01X27704Y29000D01*
G01X27500Y29000D02*
G01X27704Y29000D01*
G01X27659Y29000D02*
G01X27818Y28750D01*
G01X28045Y29159D02*
G01X28000Y29136D01*
G01X28113Y29227D02*
G01X28045Y29159D01*
G01X28113Y29227D02*
G01X28113Y28750D01*
G01X28340Y29159D02*
G01X28295Y29136D01*
G01X28409Y29227D02*
G01X28340Y29159D01*
G01X28409Y29227D02*
G01X28409Y28750D01*
G04 Draw part C15*
G04 draw part outline for part C15*
G01X31000Y24500D02*
G01X31000Y27500D01*
G01X31000Y27500D02*
G01X32000Y27500D01*
G01X32000Y27500D02*
G01X32000Y24500D01*
G01X32000Y24500D02*
G01X31000Y24500D01*
G04 draw reference designator for part C15*
G01X31340Y25818D02*
G01X31386Y25840D01*
G01X31295Y25772D02*
G01X31340Y25818D01*
G01X31272Y25727D02*
G01X31295Y25772D01*
G01X31272Y25636D02*
G01X31272Y25727D01*
G01X31272Y25636D02*
G01X31295Y25590D01*
G01X31295Y25590D02*
G01X31340Y25545D01*
G01X31340Y25545D02*
G01X31386Y25522D01*
G01X31386Y25522D02*
G01X31454Y25500D01*
G01X31454Y25500D02*
G01X31568Y25500D01*
G01X31568Y25500D02*
G01X31636Y25522D01*
G01X31636Y25522D02*
G01X31681Y25545D01*
G01X31681Y25545D02*
G01X31727Y25590D01*
G01X31727Y25590D02*
G01X31750Y25636D01*
G01X31750Y25727D02*
G01X31750Y25636D01*
G01X31727Y25772D02*
G01X31750Y25727D01*
G01X31681Y25818D02*
G01X31727Y25772D01*
G01X31636Y25840D02*
G01X31681Y25818D01*
G01X31340Y26068D02*
G01X31363Y26022D01*
G01X31272Y26136D02*
G01X31340Y26068D01*
G01X31272Y26136D02*
G01X31750Y26136D01*
G01X31272Y26363D02*
G01X31272Y26590D01*
G01X31272Y26363D02*
G01X31477Y26340D01*
G01X31454Y26363D02*
G01X31477Y26340D01*
G01X31431Y26431D02*
G01X31454Y26363D01*
G01X31431Y26500D02*
G01X31431Y26431D01*
G01X31431Y26500D02*
G01X31454Y26568D01*
G01X31454Y26568D02*
G01X31500Y26613D01*
G01X31500Y26613D02*
G01X31568Y26636D01*
G01X31568Y26636D02*
G01X31613Y26636D01*
G01X31613Y26636D02*
G01X31681Y26613D01*
G01X31681Y26613D02*
G01X31727Y26568D01*
G01X31727Y26568D02*
G01X31750Y26500D01*
G01X31750Y26431D02*
G01X31750Y26500D01*
G01X31727Y26363D02*
G01X31750Y26431D01*
G01X31704Y26340D02*
G01X31727Y26363D01*
G01X31659Y26318D02*
G01X31704Y26340D01*
G04 Draw part C19*
G04 draw part outline for part C19*
G01X29500Y26700D02*
G01X29500Y26900D01*
G01X29400Y26800D02*
G01X29600Y26800D01*
G01X29000Y27380D02*
G01X28960Y27379D01*
G01X28921Y27376D01*
G01X28881Y27372D01*
G01X28842Y27367D01*
G01X28803Y27359D01*
G01X28765Y27351D01*
G01X28727Y27340D01*
G01X28689Y27329D01*
G01X28652Y27315D01*
G01X28615Y27300D01*
G01X28579Y27284D01*
G01X28544Y27266D01*
G01X28509Y27247D01*
G01X28476Y27226D01*
G01X28443Y27204D01*
G01X28411Y27181D01*
G01X28380Y27156D01*
G01X28350Y27131D01*
G01X28321Y27103D01*
G01X28293Y27075D01*
G01X28266Y27046D01*
G01X28240Y27016D01*
G01X28216Y26984D01*
G01X28193Y26952D01*
G01X28171Y26919D01*
G01X28151Y26884D01*
G01X28132Y26850D01*
G01X28114Y26814D01*
G01X28098Y26778D01*
G01X28083Y26741D01*
G01X28070Y26703D01*
G01X28058Y26665D01*
G01X28048Y26626D01*
G01X28039Y26588D01*
G01X28032Y26548D01*
G01X28027Y26509D01*
G01X28023Y26469D01*
G01X28020Y26429D01*
G01X28020Y26390D01*
G01X28020Y26390D02*
G01X28020Y26350D01*
G01X28023Y26311D01*
G01X28027Y26271D01*
G01X28032Y26232D01*
G01X28039Y26193D01*
G01X28048Y26155D01*
G01X28058Y26117D01*
G01X28070Y26079D01*
G01X28083Y26042D01*
G01X28098Y26005D01*
G01X28114Y25969D01*
G01X28132Y25934D01*
G01X28151Y25899D01*
G01X28171Y25866D01*
G01X28193Y25833D01*
G01X28216Y25801D01*
G01X28240Y25770D01*
G01X28266Y25740D01*
G01X28293Y25711D01*
G01X28321Y25683D01*
G01X28350Y25656D01*
G01X28380Y25630D01*
G01X28411Y25606D01*
G01X28443Y25583D01*
G01X28476Y25561D01*
G01X28510Y25541D01*
G01X28544Y25522D01*
G01X28579Y25504D01*
G01X28615Y25488D01*
G01X28652Y25473D01*
G01X28689Y25460D01*
G01X28727Y25448D01*
G01X28765Y25438D01*
G01X28803Y25429D01*
G01X28842Y25422D01*
G01X28881Y25417D01*
G01X28921Y25413D01*
G01X28960Y25410D01*
G01X29000Y25410D01*
G01X29000Y25410D02*
G01X29039Y25410D01*
G01X29078Y25413D01*
G01X29118Y25417D01*
G01X29157Y25422D01*
G01X29196Y25429D01*
G01X29234Y25438D01*
G01X29272Y25448D01*
G01X29310Y25460D01*
G01X29347Y25473D01*
G01X29384Y25488D01*
G01X29420Y25504D01*
G01X29455Y25522D01*
G01X29490Y25541D01*
G01X29523Y25561D01*
G01X29556Y25583D01*
G01X29588Y25606D01*
G01X29619Y25630D01*
G01X29649Y25656D01*
G01X29678Y25683D01*
G01X29706Y25711D01*
G01X29733Y25740D01*
G01X29759Y25770D01*
G01X29783Y25801D01*
G01X29806Y25833D01*
G01X29828Y25866D01*
G01X29848Y25900D01*
G01X29867Y25934D01*
G01X29885Y25969D01*
G01X29901Y26005D01*
G01X29916Y26042D01*
G01X29929Y26079D01*
G01X29941Y26117D01*
G01X29951Y26155D01*
G01X29960Y26193D01*
G01X29967Y26232D01*
G01X29972Y26271D01*
G01X29976Y26311D01*
G01X29979Y26350D01*
G01X29980Y26390D01*
G01X29980Y26390D02*
G01X29979Y26429D01*
G01X29976Y26469D01*
G01X29972Y26509D01*
G01X29967Y26548D01*
G01X29960Y26588D01*
G01X29951Y26626D01*
G01X29941Y26665D01*
G01X29929Y26703D01*
G01X29916Y26741D01*
G01X29901Y26778D01*
G01X29885Y26814D01*
G01X29867Y26850D01*
G01X29848Y26885D01*
G01X29828Y26919D01*
G01X29806Y26952D01*
G01X29783Y26984D01*
G01X29759Y27016D01*
G01X29733Y27046D01*
G01X29706Y27075D01*
G01X29678Y27103D01*
G01X29649Y27131D01*
G01X29619Y27156D01*
G01X29588Y27181D01*
G01X29556Y27204D01*
G01X29523Y27226D01*
G01X29489Y27247D01*
G01X29455Y27266D01*
G01X29420Y27284D01*
G01X29384Y27300D01*
G01X29347Y27315D01*
G01X29310Y27329D01*
G01X29272Y27340D01*
G01X29234Y27351D01*
G01X29196Y27359D01*
G01X29157Y27367D01*
G01X29118Y27372D01*
G01X29078Y27376D01*
G01X29039Y27379D01*
G01X29000Y27380D01*
G04 draw reference designator for part C19*
G01X28818Y27909D02*
G01X28840Y27863D01*
G01X28772Y27954D02*
G01X28818Y27909D01*
G01X28727Y27977D02*
G01X28772Y27954D01*
G01X28636Y27977D02*
G01X28727Y27977D01*
G01X28636Y27977D02*
G01X28590Y27954D01*
G01X28590Y27954D02*
G01X28545Y27909D01*
G01X28545Y27909D02*
G01X28522Y27863D01*
G01X28522Y27863D02*
G01X28500Y27795D01*
G01X28500Y27795D02*
G01X28500Y27681D01*
G01X28500Y27681D02*
G01X28522Y27613D01*
G01X28522Y27613D02*
G01X28545Y27568D01*
G01X28545Y27568D02*
G01X28590Y27522D01*
G01X28590Y27522D02*
G01X28636Y27500D01*
G01X28727Y27500D02*
G01X28636Y27500D01*
G01X28772Y27522D02*
G01X28727Y27500D01*
G01X28818Y27568D02*
G01X28772Y27522D01*
G01X28840Y27613D02*
G01X28818Y27568D01*
G01X29068Y27909D02*
G01X29022Y27886D01*
G01X29136Y27977D02*
G01X29068Y27909D01*
G01X29136Y27977D02*
G01X29136Y27500D01*
G01X29613Y27818D02*
G01X29590Y27750D01*
G01X29590Y27750D02*
G01X29545Y27704D01*
G01X29545Y27704D02*
G01X29477Y27681D01*
G01X29454Y27681D02*
G01X29477Y27681D01*
G01X29386Y27704D02*
G01X29454Y27681D01*
G01X29340Y27750D02*
G01X29386Y27704D01*
G01X29318Y27818D02*
G01X29340Y27750D01*
G01X29318Y27840D02*
G01X29318Y27818D01*
G01X29340Y27909D02*
G01X29318Y27840D01*
G01X29386Y27954D02*
G01X29340Y27909D01*
G01X29454Y27977D02*
G01X29386Y27954D01*
G01X29477Y27977D02*
G01X29454Y27977D01*
G01X29477Y27977D02*
G01X29545Y27954D01*
G01X29545Y27954D02*
G01X29590Y27909D01*
G01X29590Y27909D02*
G01X29613Y27818D01*
G01X29613Y27818D02*
G01X29613Y27704D01*
G01X29613Y27704D02*
G01X29590Y27590D01*
G01X29590Y27590D02*
G01X29545Y27522D01*
G01X29545Y27522D02*
G01X29477Y27500D01*
G01X29431Y27500D02*
G01X29477Y27500D01*
G01X29363Y27522D02*
G01X29431Y27500D01*
G01X29340Y27568D02*
G01X29363Y27522D01*
G04 Draw part REG1*
G04 draw part outline for part REG1*
G01X34300Y27700D02*
G01X34300Y24300D01*
G01X34300Y24300D02*
G01X35900Y24300D01*
G01X35900Y24300D02*
G01X35900Y27700D01*
G01X35900Y27700D02*
G01X34300Y27700D01*
G01X35700Y27700D02*
G01X35700Y24300D01*
G04 draw reference designator for part REG1*
G01X34250Y28477D02*
G01X34250Y28000D01*
G01X34454Y28477D02*
G01X34250Y28477D01*
G01X34454Y28477D02*
G01X34522Y28454D01*
G01X34522Y28454D02*
G01X34545Y28431D01*
G01X34545Y28431D02*
G01X34568Y28386D01*
G01X34568Y28386D02*
G01X34568Y28340D01*
G01X34568Y28340D02*
G01X34545Y28295D01*
G01X34545Y28295D02*
G01X34522Y28272D01*
G01X34522Y28272D02*
G01X34454Y28250D01*
G01X34250Y28250D02*
G01X34454Y28250D01*
G01X34409Y28250D02*
G01X34568Y28000D01*
G01X34750Y28477D02*
G01X34750Y28000D01*
G01X35045Y28477D02*
G01X34750Y28477D01*
G01X34931Y28250D02*
G01X34750Y28250D01*
G01X35045Y28000D02*
G01X34750Y28000D01*
G01X35545Y28409D02*
G01X35568Y28363D01*
G01X35500Y28454D02*
G01X35545Y28409D01*
G01X35454Y28477D02*
G01X35500Y28454D01*
G01X35363Y28477D02*
G01X35454Y28477D01*
G01X35363Y28477D02*
G01X35318Y28454D01*
G01X35318Y28454D02*
G01X35272Y28409D01*
G01X35272Y28409D02*
G01X35250Y28363D01*
G01X35250Y28363D02*
G01X35227Y28295D01*
G01X35227Y28295D02*
G01X35227Y28181D01*
G01X35227Y28181D02*
G01X35250Y28113D01*
G01X35250Y28113D02*
G01X35272Y28068D01*
G01X35272Y28068D02*
G01X35318Y28022D01*
G01X35318Y28022D02*
G01X35363Y28000D01*
G01X35454Y28000D02*
G01X35363Y28000D01*
G01X35500Y28022D02*
G01X35454Y28000D01*
G01X35545Y28068D02*
G01X35500Y28022D01*
G01X35568Y28113D02*
G01X35545Y28068D01*
G01X35568Y28181D02*
G01X35568Y28113D01*
G01X35568Y28181D02*
G01X35454Y28181D01*
G01X35795Y28409D02*
G01X35750Y28386D01*
G01X35863Y28477D02*
G01X35795Y28409D01*
G01X35863Y28477D02*
G01X35863Y28000D01*
G04 Draw part C17*
G04 draw part outline for part C17*
G01X28500Y23300D02*
G01X28500Y23100D01*
G01X28600Y23200D02*
G01X28400Y23200D01*
G01X29000Y22620D02*
G01X29039Y22620D01*
G01X29078Y22623D01*
G01X29118Y22627D01*
G01X29157Y22632D01*
G01X29196Y22640D01*
G01X29234Y22648D01*
G01X29272Y22659D01*
G01X29310Y22670D01*
G01X29347Y22684D01*
G01X29384Y22699D01*
G01X29420Y22715D01*
G01X29455Y22733D01*
G01X29490Y22752D01*
G01X29523Y22773D01*
G01X29556Y22795D01*
G01X29588Y22818D01*
G01X29619Y22843D01*
G01X29649Y22868D01*
G01X29678Y22896D01*
G01X29706Y22924D01*
G01X29733Y22953D01*
G01X29759Y22983D01*
G01X29783Y23015D01*
G01X29806Y23047D01*
G01X29828Y23080D01*
G01X29848Y23115D01*
G01X29867Y23149D01*
G01X29885Y23185D01*
G01X29901Y23221D01*
G01X29916Y23258D01*
G01X29929Y23296D01*
G01X29941Y23334D01*
G01X29951Y23373D01*
G01X29960Y23411D01*
G01X29967Y23451D01*
G01X29972Y23490D01*
G01X29976Y23530D01*
G01X29979Y23570D01*
G01X29980Y23610D01*
G01X29980Y23610D02*
G01X29979Y23649D01*
G01X29976Y23688D01*
G01X29972Y23728D01*
G01X29967Y23767D01*
G01X29960Y23806D01*
G01X29951Y23844D01*
G01X29941Y23882D01*
G01X29929Y23920D01*
G01X29916Y23957D01*
G01X29901Y23994D01*
G01X29885Y24030D01*
G01X29867Y24065D01*
G01X29848Y24100D01*
G01X29828Y24133D01*
G01X29806Y24166D01*
G01X29783Y24198D01*
G01X29759Y24229D01*
G01X29733Y24259D01*
G01X29706Y24288D01*
G01X29678Y24316D01*
G01X29649Y24343D01*
G01X29619Y24369D01*
G01X29588Y24393D01*
G01X29556Y24416D01*
G01X29523Y24438D01*
G01X29489Y24458D01*
G01X29455Y24477D01*
G01X29420Y24495D01*
G01X29384Y24511D01*
G01X29347Y24526D01*
G01X29310Y24539D01*
G01X29272Y24551D01*
G01X29234Y24561D01*
G01X29196Y24570D01*
G01X29157Y24577D01*
G01X29118Y24582D01*
G01X29078Y24586D01*
G01X29039Y24589D01*
G01X29000Y24590D01*
G01X29000Y24590D02*
G01X28960Y24589D01*
G01X28921Y24586D01*
G01X28881Y24582D01*
G01X28842Y24577D01*
G01X28803Y24570D01*
G01X28765Y24561D01*
G01X28727Y24551D01*
G01X28689Y24539D01*
G01X28652Y24526D01*
G01X28615Y24511D01*
G01X28579Y24495D01*
G01X28544Y24477D01*
G01X28509Y24458D01*
G01X28476Y24438D01*
G01X28443Y24416D01*
G01X28411Y24393D01*
G01X28380Y24369D01*
G01X28350Y24343D01*
G01X28321Y24316D01*
G01X28293Y24288D01*
G01X28266Y24259D01*
G01X28240Y24229D01*
G01X28216Y24198D01*
G01X28193Y24166D01*
G01X28171Y24133D01*
G01X28151Y24099D01*
G01X28132Y24065D01*
G01X28114Y24030D01*
G01X28098Y23994D01*
G01X28083Y23957D01*
G01X28070Y23920D01*
G01X28058Y23882D01*
G01X28048Y23844D01*
G01X28039Y23806D01*
G01X28032Y23767D01*
G01X28027Y23728D01*
G01X28023Y23688D01*
G01X28020Y23649D01*
G01X28020Y23610D01*
G01X28020Y23610D02*
G01X28020Y23570D01*
G01X28023Y23530D01*
G01X28027Y23490D01*
G01X28032Y23451D01*
G01X28039Y23411D01*
G01X28048Y23373D01*
G01X28058Y23334D01*
G01X28070Y23296D01*
G01X28083Y23258D01*
G01X28098Y23221D01*
G01X28114Y23185D01*
G01X28132Y23149D01*
G01X28151Y23114D01*
G01X28171Y23080D01*
G01X28193Y23047D01*
G01X28216Y23015D01*
G01X28240Y22983D01*
G01X28266Y22953D01*
G01X28293Y22924D01*
G01X28321Y22896D01*
G01X28350Y22868D01*
G01X28380Y22843D01*
G01X28411Y22818D01*
G01X28443Y22795D01*
G01X28476Y22773D01*
G01X28510Y22752D01*
G01X28544Y22733D01*
G01X28579Y22715D01*
G01X28615Y22699D01*
G01X28652Y22684D01*
G01X28689Y22670D01*
G01X28727Y22659D01*
G01X28765Y22648D01*
G01X28803Y22640D01*
G01X28842Y22632D01*
G01X28881Y22627D01*
G01X28921Y22623D01*
G01X28960Y22620D01*
G01X29000Y22620D01*
G04 draw reference designator for part C17*
G01X28818Y25159D02*
G01X28840Y25113D01*
G01X28772Y25204D02*
G01X28818Y25159D01*
G01X28727Y25227D02*
G01X28772Y25204D01*
G01X28636Y25227D02*
G01X28727Y25227D01*
G01X28636Y25227D02*
G01X28590Y25204D01*
G01X28590Y25204D02*
G01X28545Y25159D01*
G01X28545Y25159D02*
G01X28522Y25113D01*
G01X28522Y25113D02*
G01X28500Y25045D01*
G01X28500Y25045D02*
G01X28500Y24931D01*
G01X28500Y24931D02*
G01X28522Y24863D01*
G01X28522Y24863D02*
G01X28545Y24818D01*
G01X28545Y24818D02*
G01X28590Y24772D01*
G01X28590Y24772D02*
G01X28636Y24750D01*
G01X28727Y24750D02*
G01X28636Y24750D01*
G01X28772Y24772D02*
G01X28727Y24750D01*
G01X28818Y24818D02*
G01X28772Y24772D01*
G01X28840Y24863D02*
G01X28818Y24818D01*
G01X29068Y25159D02*
G01X29022Y25136D01*
G01X29136Y25227D02*
G01X29068Y25159D01*
G01X29136Y25227D02*
G01X29136Y24750D01*
G01X29636Y25227D02*
G01X29409Y24750D01*
G01X29636Y25227D02*
G01X29318Y25227D01*
G04 Draw part C18*
G04 draw part outline for part C18*
G01X33500Y27500D02*
G01X33500Y24500D01*
G01X33500Y24500D02*
G01X32500Y24500D01*
G01X32500Y24500D02*
G01X32500Y27500D01*
G01X32500Y27500D02*
G01X33500Y27500D01*
G04 draw reference designator for part C18*
G01X32840Y25818D02*
G01X32886Y25840D01*
G01X32795Y25772D02*
G01X32840Y25818D01*
G01X32772Y25727D02*
G01X32795Y25772D01*
G01X32772Y25636D02*
G01X32772Y25727D01*
G01X32772Y25636D02*
G01X32795Y25590D01*
G01X32795Y25590D02*
G01X32840Y25545D01*
G01X32840Y25545D02*
G01X32886Y25522D01*
G01X32886Y25522D02*
G01X32954Y25500D01*
G01X32954Y25500D02*
G01X33068Y25500D01*
G01X33068Y25500D02*
G01X33136Y25522D01*
G01X33136Y25522D02*
G01X33181Y25545D01*
G01X33181Y25545D02*
G01X33227Y25590D01*
G01X33227Y25590D02*
G01X33250Y25636D01*
G01X33250Y25727D02*
G01X33250Y25636D01*
G01X33227Y25772D02*
G01X33250Y25727D01*
G01X33181Y25818D02*
G01X33227Y25772D01*
G01X33136Y25840D02*
G01X33181Y25818D01*
G01X32840Y26068D02*
G01X32863Y26022D01*
G01X32772Y26136D02*
G01X32840Y26068D01*
G01X32772Y26136D02*
G01X33250Y26136D01*
G01X32772Y26431D02*
G01X32795Y26363D01*
G01X32795Y26363D02*
G01X32840Y26340D01*
G01X32840Y26340D02*
G01X32886Y26340D01*
G01X32886Y26340D02*
G01X32931Y26363D01*
G01X32931Y26363D02*
G01X32954Y26409D01*
G01X32954Y26409D02*
G01X32977Y26500D01*
G01X32977Y26500D02*
G01X33000Y26568D01*
G01X33000Y26568D02*
G01X33045Y26613D01*
G01X33045Y26613D02*
G01X33090Y26636D01*
G01X33090Y26636D02*
G01X33159Y26636D01*
G01X33159Y26636D02*
G01X33204Y26613D01*
G01X33204Y26613D02*
G01X33227Y26590D01*
G01X33227Y26590D02*
G01X33250Y26522D01*
G01X33250Y26431D02*
G01X33250Y26522D01*
G01X33227Y26363D02*
G01X33250Y26431D01*
G01X33204Y26340D02*
G01X33227Y26363D01*
G01X33159Y26318D02*
G01X33204Y26340D01*
G01X33090Y26318D02*
G01X33159Y26318D01*
G01X33045Y26340D02*
G01X33090Y26318D01*
G01X33000Y26386D02*
G01X33045Y26340D01*
G01X32977Y26454D02*
G01X33000Y26386D01*
G01X32954Y26545D02*
G01X32977Y26454D01*
G01X32931Y26590D02*
G01X32954Y26545D01*
G01X32886Y26613D02*
G01X32931Y26590D01*
G01X32840Y26613D02*
G01X32886Y26613D01*
G01X32795Y26590D02*
G01X32840Y26613D01*
G01X32772Y26522D02*
G01X32795Y26590D01*
G01X32772Y26431D02*
G01X32772Y26522D01*
G04 Draw part R12*
G04 draw part outline for part R12*
G01X27500Y35250D02*
G01X27500Y32750D01*
G01X27500Y32750D02*
G01X26500Y32750D01*
G01X26500Y32750D02*
G01X26500Y35250D01*
G01X26500Y35250D02*
G01X27500Y35250D01*
G04 draw reference designator for part R12*
G01X26772Y33500D02*
G01X27250Y33500D01*
G01X26772Y33704D02*
G01X26772Y33500D01*
G01X26772Y33704D02*
G01X26795Y33772D01*
G01X26795Y33772D02*
G01X26818Y33795D01*
G01X26818Y33795D02*
G01X26863Y33818D01*
G01X26863Y33818D02*
G01X26909Y33818D01*
G01X26909Y33818D02*
G01X26954Y33795D01*
G01X26954Y33795D02*
G01X26977Y33772D01*
G01X26977Y33772D02*
G01X27000Y33704D01*
G01X27000Y33500D02*
G01X27000Y33704D01*
G01X27000Y33659D02*
G01X27250Y33818D01*
G01X26840Y34045D02*
G01X26863Y34000D01*
G01X26772Y34113D02*
G01X26840Y34045D01*
G01X26772Y34113D02*
G01X27250Y34113D01*
G01X26863Y34318D02*
G01X26886Y34318D01*
G01X26818Y34340D02*
G01X26863Y34318D01*
G01X26795Y34363D02*
G01X26818Y34340D01*
G01X26772Y34409D02*
G01X26795Y34363D01*
G01X26772Y34500D02*
G01X26772Y34409D01*
G01X26772Y34500D02*
G01X26795Y34545D01*
G01X26795Y34545D02*
G01X26818Y34568D01*
G01X26818Y34568D02*
G01X26863Y34590D01*
G01X26863Y34590D02*
G01X26909Y34590D01*
G01X26909Y34590D02*
G01X26954Y34568D01*
G01X26954Y34568D02*
G01X27022Y34522D01*
G01X27022Y34522D02*
G01X27250Y34295D01*
G01X27250Y34613D02*
G01X27250Y34295D01*
G04 Draw part J2*
G04 draw part outline for part J2*
G01X15500Y26500D02*
G01X15500Y22500D01*
G01X15500Y22500D02*
G01X14500Y22500D01*
G01X14500Y22500D02*
G01X14500Y26500D01*
G01X14500Y26500D02*
G01X15500Y26500D01*
G04 draw reference designator for part J2*
G01X14727Y27227D02*
G01X14727Y26863D01*
G01X14727Y26863D02*
G01X14704Y26795D01*
G01X14704Y26795D02*
G01X14681Y26772D01*
G01X14681Y26772D02*
G01X14636Y26750D01*
G01X14590Y26750D02*
G01X14636Y26750D01*
G01X14545Y26772D02*
G01X14590Y26750D01*
G01X14522Y26795D02*
G01X14545Y26772D01*
G01X14500Y26863D02*
G01X14522Y26795D01*
G01X14500Y26909D02*
G01X14500Y26863D01*
G01X14931Y27136D02*
G01X14931Y27113D01*
G01X14954Y27181D02*
G01X14931Y27136D01*
G01X14977Y27204D02*
G01X14954Y27181D01*
G01X15022Y27227D02*
G01X14977Y27204D01*
G01X15113Y27227D02*
G01X15022Y27227D01*
G01X15113Y27227D02*
G01X15159Y27204D01*
G01X15159Y27204D02*
G01X15181Y27181D01*
G01X15181Y27181D02*
G01X15204Y27136D01*
G01X15204Y27136D02*
G01X15204Y27090D01*
G01X15204Y27090D02*
G01X15181Y27045D01*
G01X15181Y27045D02*
G01X15136Y26977D01*
G01X15136Y26977D02*
G01X14909Y26750D01*
G01X15227Y26750D02*
G01X14909Y26750D01*
G04 Draw part J3*
G04 draw part outline for part J3*
G01X27500Y26500D02*
G01X27500Y22500D01*
G01X27500Y22500D02*
G01X26500Y22500D01*
G01X26500Y22500D02*
G01X26500Y26500D01*
G01X26500Y26500D02*
G01X27500Y26500D01*
G04 draw reference designator for part J3*
G01X26727Y27227D02*
G01X26727Y26863D01*
G01X26727Y26863D02*
G01X26704Y26795D01*
G01X26704Y26795D02*
G01X26681Y26772D01*
G01X26681Y26772D02*
G01X26636Y26750D01*
G01X26590Y26750D02*
G01X26636Y26750D01*
G01X26545Y26772D02*
G01X26590Y26750D01*
G01X26522Y26795D02*
G01X26545Y26772D01*
G01X26500Y26863D02*
G01X26522Y26795D01*
G01X26500Y26909D02*
G01X26500Y26863D01*
G01X27204Y27227D02*
G01X26954Y27227D01*
G01X27204Y27227D02*
G01X27068Y27045D01*
G01X27136Y27045D02*
G01X27068Y27045D01*
G01X27136Y27045D02*
G01X27181Y27022D01*
G01X27181Y27022D02*
G01X27204Y27000D01*
G01X27204Y27000D02*
G01X27227Y26931D01*
G01X27227Y26931D02*
G01X27227Y26886D01*
G01X27227Y26886D02*
G01X27204Y26818D01*
G01X27204Y26818D02*
G01X27159Y26772D01*
G01X27159Y26772D02*
G01X27090Y26750D01*
G01X27022Y26750D02*
G01X27090Y26750D01*
G01X26954Y26772D02*
G01X27022Y26750D01*
G01X26931Y26795D02*
G01X26954Y26772D01*
G01X26909Y26840D02*
G01X26931Y26795D01*
G04 Draw part C14*
G04 draw part outline for part C14*
G01X17500Y28500D02*
G01X20500Y28500D01*
G01X20500Y28500D02*
G01X20500Y27500D01*
G01X20500Y27500D02*
G01X17500Y27500D01*
G01X17500Y27500D02*
G01X17500Y28500D01*
G04 draw reference designator for part C14*
G01X18818Y28159D02*
G01X18840Y28113D01*
G01X18772Y28204D02*
G01X18818Y28159D01*
G01X18727Y28227D02*
G01X18772Y28204D01*
G01X18636Y28227D02*
G01X18727Y28227D01*
G01X18636Y28227D02*
G01X18590Y28204D01*
G01X18590Y28204D02*
G01X18545Y28159D01*
G01X18545Y28159D02*
G01X18522Y28113D01*
G01X18522Y28113D02*
G01X18500Y28045D01*
G01X18500Y28045D02*
G01X18500Y27931D01*
G01X18500Y27931D02*
G01X18522Y27863D01*
G01X18522Y27863D02*
G01X18545Y27818D01*
G01X18545Y27818D02*
G01X18590Y27772D01*
G01X18590Y27772D02*
G01X18636Y27750D01*
G01X18727Y27750D02*
G01X18636Y27750D01*
G01X18772Y27772D02*
G01X18727Y27750D01*
G01X18818Y27818D02*
G01X18772Y27772D01*
G01X18840Y27863D02*
G01X18818Y27818D01*
G01X19068Y28159D02*
G01X19022Y28136D01*
G01X19136Y28227D02*
G01X19068Y28159D01*
G01X19136Y28227D02*
G01X19136Y27750D01*
G01X19545Y28227D02*
G01X19318Y27909D01*
G01X19659Y27909D02*
G01X19318Y27909D01*
G01X19545Y28227D02*
G01X19545Y27750D01*
G04 Draw part U3*
G04 draw part outline for part U3*
G01X19500Y14500D02*
G01X26500Y14500D01*
G01X26500Y14500D02*
G01X26500Y16500D01*
G01X26500Y16500D02*
G01X19500Y16500D01*
G01X19500Y16500D02*
G01X19500Y14500D01*
G01X19500Y15000D02*
G01X20000Y15000D01*
G01X20000Y15000D02*
G01X20000Y16000D01*
G01X20000Y16000D02*
G01X19500Y16000D01*
G01X19500Y16000D02*
G01X19500Y15000D01*
G04 draw reference designator for part U3*
G01X18772Y15000D02*
G01X19113Y15000D01*
G01X19113Y15000D02*
G01X19181Y15022D01*
G01X19181Y15022D02*
G01X19227Y15068D01*
G01X19227Y15068D02*
G01X19250Y15136D01*
G01X19250Y15181D02*
G01X19250Y15136D01*
G01X19227Y15250D02*
G01X19250Y15181D01*
G01X19181Y15295D02*
G01X19227Y15250D01*
G01X19113Y15318D02*
G01X19181Y15295D01*
G01X18772Y15318D02*
G01X19113Y15318D01*
G01X18772Y15795D02*
G01X18772Y15545D01*
G01X18772Y15795D02*
G01X18954Y15659D01*
G01X18954Y15727D02*
G01X18954Y15659D01*
G01X18954Y15727D02*
G01X18977Y15772D01*
G01X18977Y15772D02*
G01X19000Y15795D01*
G01X19000Y15795D02*
G01X19068Y15818D01*
G01X19068Y15818D02*
G01X19113Y15818D01*
G01X19113Y15818D02*
G01X19181Y15795D01*
G01X19181Y15795D02*
G01X19227Y15750D01*
G01X19227Y15750D02*
G01X19250Y15681D01*
G01X19250Y15613D02*
G01X19250Y15681D01*
G01X19227Y15545D02*
G01X19250Y15613D01*
G01X19204Y15522D02*
G01X19227Y15545D01*
G01X19159Y15500D02*
G01X19204Y15522D01*
G04 Draw part R20*
G04 draw part outline for part R20*
G01X25500Y11750D02*
G01X25500Y9250D01*
G01X25500Y9250D02*
G01X24500Y9250D01*
G01X24500Y9250D02*
G01X24500Y11750D01*
G01X24500Y11750D02*
G01X25500Y11750D01*
G04 draw reference designator for part R20*
G01X24772Y9750D02*
G01X25250Y9750D01*
G01X24772Y9954D02*
G01X24772Y9750D01*
G01X24772Y9954D02*
G01X24795Y10022D01*
G01X24795Y10022D02*
G01X24818Y10045D01*
G01X24818Y10045D02*
G01X24863Y10068D01*
G01X24863Y10068D02*
G01X24909Y10068D01*
G01X24909Y10068D02*
G01X24954Y10045D01*
G01X24954Y10045D02*
G01X24977Y10022D01*
G01X24977Y10022D02*
G01X25000Y9954D01*
G01X25000Y9750D02*
G01X25000Y9954D01*
G01X25000Y9909D02*
G01X25250Y10068D01*
G01X24863Y10272D02*
G01X24886Y10272D01*
G01X24818Y10295D02*
G01X24863Y10272D01*
G01X24795Y10318D02*
G01X24818Y10295D01*
G01X24772Y10363D02*
G01X24795Y10318D01*
G01X24772Y10454D02*
G01X24772Y10363D01*
G01X24772Y10454D02*
G01X24795Y10500D01*
G01X24795Y10500D02*
G01X24818Y10522D01*
G01X24818Y10522D02*
G01X24863Y10545D01*
G01X24863Y10545D02*
G01X24909Y10545D01*
G01X24909Y10545D02*
G01X24954Y10522D01*
G01X24954Y10522D02*
G01X25022Y10477D01*
G01X25022Y10477D02*
G01X25250Y10250D01*
G01X25250Y10568D02*
G01X25250Y10250D01*
G01X24772Y10886D02*
G01X24795Y10818D01*
G01X24795Y10818D02*
G01X24863Y10772D01*
G01X24863Y10772D02*
G01X24977Y10750D01*
G01X24977Y10750D02*
G01X25045Y10750D01*
G01X25045Y10750D02*
G01X25159Y10772D01*
G01X25159Y10772D02*
G01X25227Y10818D01*
G01X25227Y10818D02*
G01X25250Y10886D01*
G01X25250Y10931D02*
G01X25250Y10886D01*
G01X25227Y11000D02*
G01X25250Y10931D01*
G01X25159Y11045D02*
G01X25227Y11000D01*
G01X25045Y11068D02*
G01X25159Y11045D01*
G01X24977Y11068D02*
G01X25045Y11068D01*
G01X24863Y11045D02*
G01X24977Y11068D01*
G01X24795Y11000D02*
G01X24863Y11045D01*
G01X24772Y10931D02*
G01X24795Y11000D01*
G01X24772Y10886D02*
G01X24772Y10931D01*
G04 Draw part C21*
G04 draw part outline for part C21*
G01X17500Y13500D02*
G01X17500Y16500D01*
G01X17500Y16500D02*
G01X18500Y16500D01*
G01X18500Y16500D02*
G01X18500Y13500D01*
G01X18500Y13500D02*
G01X17500Y13500D01*
G04 draw reference designator for part C21*
G01X17840Y14818D02*
G01X17886Y14840D01*
G01X17795Y14772D02*
G01X17840Y14818D01*
G01X17772Y14727D02*
G01X17795Y14772D01*
G01X17772Y14636D02*
G01X17772Y14727D01*
G01X17772Y14636D02*
G01X17795Y14590D01*
G01X17795Y14590D02*
G01X17840Y14545D01*
G01X17840Y14545D02*
G01X17886Y14522D01*
G01X17886Y14522D02*
G01X17954Y14500D01*
G01X17954Y14500D02*
G01X18068Y14500D01*
G01X18068Y14500D02*
G01X18136Y14522D01*
G01X18136Y14522D02*
G01X18181Y14545D01*
G01X18181Y14545D02*
G01X18227Y14590D01*
G01X18227Y14590D02*
G01X18250Y14636D01*
G01X18250Y14727D02*
G01X18250Y14636D01*
G01X18227Y14772D02*
G01X18250Y14727D01*
G01X18181Y14818D02*
G01X18227Y14772D01*
G01X18136Y14840D02*
G01X18181Y14818D01*
G01X17863Y15045D02*
G01X17886Y15045D01*
G01X17818Y15068D02*
G01X17863Y15045D01*
G01X17795Y15090D02*
G01X17818Y15068D01*
G01X17772Y15136D02*
G01X17795Y15090D01*
G01X17772Y15227D02*
G01X17772Y15136D01*
G01X17772Y15227D02*
G01X17795Y15272D01*
G01X17795Y15272D02*
G01X17818Y15295D01*
G01X17818Y15295D02*
G01X17863Y15318D01*
G01X17863Y15318D02*
G01X17909Y15318D01*
G01X17909Y15318D02*
G01X17954Y15295D01*
G01X17954Y15295D02*
G01X18022Y15250D01*
G01X18022Y15250D02*
G01X18250Y15022D01*
G01X18250Y15340D02*
G01X18250Y15022D01*
G01X17840Y15568D02*
G01X17863Y15522D01*
G01X17772Y15636D02*
G01X17840Y15568D01*
G01X17772Y15636D02*
G01X18250Y15636D01*
G04 Draw part J6*
G04 draw part outline for part J6*
G04 draw reference designator for part J6*
G01X12477Y16977D02*
G01X12477Y16613D01*
G01X12477Y16613D02*
G01X12454Y16545D01*
G01X12454Y16545D02*
G01X12431Y16522D01*
G01X12431Y16522D02*
G01X12386Y16500D01*
G01X12340Y16500D02*
G01X12386Y16500D01*
G01X12295Y16522D02*
G01X12340Y16500D01*
G01X12272Y16545D02*
G01X12295Y16522D01*
G01X12250Y16613D02*
G01X12272Y16545D01*
G01X12250Y16659D02*
G01X12250Y16613D01*
G01X12909Y16954D02*
G01X12931Y16909D01*
G01X12840Y16977D02*
G01X12909Y16954D01*
G01X12795Y16977D02*
G01X12840Y16977D01*
G01X12795Y16977D02*
G01X12727Y16954D01*
G01X12727Y16954D02*
G01X12681Y16886D01*
G01X12681Y16886D02*
G01X12659Y16772D01*
G01X12659Y16772D02*
G01X12659Y16659D01*
G01X12659Y16659D02*
G01X12681Y16568D01*
G01X12681Y16568D02*
G01X12727Y16522D01*
G01X12727Y16522D02*
G01X12795Y16500D01*
G01X12818Y16500D02*
G01X12795Y16500D01*
G01X12886Y16522D02*
G01X12818Y16500D01*
G01X12931Y16568D02*
G01X12886Y16522D01*
G01X12954Y16636D02*
G01X12931Y16568D01*
G01X12954Y16659D02*
G01X12954Y16636D01*
G01X12931Y16727D02*
G01X12954Y16659D01*
G01X12886Y16772D02*
G01X12931Y16727D01*
G01X12818Y16795D02*
G01X12886Y16772D01*
G01X12795Y16795D02*
G01X12818Y16795D01*
G01X12795Y16795D02*
G01X12727Y16772D01*
G01X12727Y16772D02*
G01X12681Y16727D01*
G01X12681Y16727D02*
G01X12659Y16659D01*
G04 Draw part J4*
G04 draw part outline for part J4*
G04 draw reference designator for part J4*
G01X12477Y15727D02*
G01X12477Y15363D01*
G01X12477Y15363D02*
G01X12454Y15295D01*
G01X12454Y15295D02*
G01X12431Y15272D01*
G01X12431Y15272D02*
G01X12386Y15250D01*
G01X12340Y15250D02*
G01X12386Y15250D01*
G01X12295Y15272D02*
G01X12340Y15250D01*
G01X12272Y15295D02*
G01X12295Y15272D01*
G01X12250Y15363D02*
G01X12272Y15295D01*
G01X12250Y15409D02*
G01X12250Y15363D01*
G01X12886Y15727D02*
G01X12659Y15409D01*
G01X13000Y15409D02*
G01X12659Y15409D01*
G01X12886Y15727D02*
G01X12886Y15250D01*
G04 Draw part R17*
G04 draw part outline for part R17*
G01X22250Y19000D02*
G01X19750Y19000D01*
G01X19750Y19000D02*
G01X19750Y20000D01*
G01X19750Y20000D02*
G01X22250Y20000D01*
G01X22250Y20000D02*
G01X22250Y19000D01*
G04 draw reference designator for part R17*
G01X20500Y19727D02*
G01X20500Y19250D01*
G01X20704Y19727D02*
G01X20500Y19727D01*
G01X20704Y19727D02*
G01X20772Y19704D01*
G01X20772Y19704D02*
G01X20795Y19681D01*
G01X20795Y19681D02*
G01X20818Y19636D01*
G01X20818Y19636D02*
G01X20818Y19590D01*
G01X20818Y19590D02*
G01X20795Y19545D01*
G01X20795Y19545D02*
G01X20772Y19522D01*
G01X20772Y19522D02*
G01X20704Y19500D01*
G01X20500Y19500D02*
G01X20704Y19500D01*
G01X20659Y19500D02*
G01X20818Y19250D01*
G01X21045Y19659D02*
G01X21000Y19636D01*
G01X21113Y19727D02*
G01X21045Y19659D01*
G01X21113Y19727D02*
G01X21113Y19250D01*
G01X21613Y19727D02*
G01X21386Y19250D01*
G01X21613Y19727D02*
G01X21295Y19727D01*
G04 Draw part R18*
G04 draw part outline for part R18*
G01X25750Y20000D02*
G01X28250Y20000D01*
G01X28250Y20000D02*
G01X28250Y19000D01*
G01X28250Y19000D02*
G01X25750Y19000D01*
G01X25750Y19000D02*
G01X25750Y20000D01*
G04 draw reference designator for part R18*
G01X26250Y19727D02*
G01X26250Y19250D01*
G01X26454Y19727D02*
G01X26250Y19727D01*
G01X26454Y19727D02*
G01X26522Y19704D01*
G01X26522Y19704D02*
G01X26545Y19681D01*
G01X26545Y19681D02*
G01X26568Y19636D01*
G01X26568Y19636D02*
G01X26568Y19590D01*
G01X26568Y19590D02*
G01X26545Y19545D01*
G01X26545Y19545D02*
G01X26522Y19522D01*
G01X26522Y19522D02*
G01X26454Y19500D01*
G01X26250Y19500D02*
G01X26454Y19500D01*
G01X26409Y19500D02*
G01X26568Y19250D01*
G01X26795Y19659D02*
G01X26750Y19636D01*
G01X26863Y19727D02*
G01X26795Y19659D01*
G01X26863Y19727D02*
G01X26863Y19250D01*
G01X27159Y19727D02*
G01X27090Y19704D01*
G01X27090Y19704D02*
G01X27068Y19659D01*
G01X27068Y19659D02*
G01X27068Y19613D01*
G01X27068Y19613D02*
G01X27090Y19568D01*
G01X27090Y19568D02*
G01X27136Y19545D01*
G01X27136Y19545D02*
G01X27227Y19522D01*
G01X27227Y19522D02*
G01X27295Y19500D01*
G01X27295Y19500D02*
G01X27340Y19454D01*
G01X27340Y19454D02*
G01X27363Y19409D01*
G01X27363Y19409D02*
G01X27363Y19340D01*
G01X27363Y19340D02*
G01X27340Y19295D01*
G01X27340Y19295D02*
G01X27318Y19272D01*
G01X27318Y19272D02*
G01X27250Y19250D01*
G01X27159Y19250D02*
G01X27250Y19250D01*
G01X27090Y19272D02*
G01X27159Y19250D01*
G01X27068Y19295D02*
G01X27090Y19272D01*
G01X27045Y19340D02*
G01X27068Y19295D01*
G01X27045Y19409D02*
G01X27045Y19340D01*
G01X27068Y19454D02*
G01X27045Y19409D01*
G01X27113Y19500D02*
G01X27068Y19454D01*
G01X27181Y19522D02*
G01X27113Y19500D01*
G01X27272Y19545D02*
G01X27181Y19522D01*
G01X27318Y19568D02*
G01X27272Y19545D01*
G01X27340Y19613D02*
G01X27318Y19568D01*
G01X27340Y19659D02*
G01X27340Y19613D01*
G01X27318Y19704D02*
G01X27340Y19659D01*
G01X27250Y19727D02*
G01X27318Y19704D01*
G01X27159Y19727D02*
G01X27250Y19727D01*
G04 Draw part R16*
G04 draw part outline for part R16*
G01X28000Y17250D02*
G01X28000Y14750D01*
G01X28000Y14750D02*
G01X27000Y14750D01*
G01X27000Y14750D02*
G01X27000Y17250D01*
G01X27000Y17250D02*
G01X28000Y17250D01*
G04 draw reference designator for part R16*
G01X27272Y15500D02*
G01X27750Y15500D01*
G01X27272Y15704D02*
G01X27272Y15500D01*
G01X27272Y15704D02*
G01X27295Y15772D01*
G01X27295Y15772D02*
G01X27318Y15795D01*
G01X27318Y15795D02*
G01X27363Y15818D01*
G01X27363Y15818D02*
G01X27409Y15818D01*
G01X27409Y15818D02*
G01X27454Y15795D01*
G01X27454Y15795D02*
G01X27477Y15772D01*
G01X27477Y15772D02*
G01X27500Y15704D01*
G01X27500Y15500D02*
G01X27500Y15704D01*
G01X27500Y15659D02*
G01X27750Y15818D01*
G01X27340Y16045D02*
G01X27363Y16000D01*
G01X27272Y16113D02*
G01X27340Y16045D01*
G01X27272Y16113D02*
G01X27750Y16113D01*
G01X27295Y16545D02*
G01X27340Y16568D01*
G01X27272Y16477D02*
G01X27295Y16545D01*
G01X27272Y16431D02*
G01X27272Y16477D01*
G01X27272Y16431D02*
G01X27295Y16363D01*
G01X27295Y16363D02*
G01X27363Y16318D01*
G01X27363Y16318D02*
G01X27477Y16295D01*
G01X27477Y16295D02*
G01X27590Y16295D01*
G01X27590Y16295D02*
G01X27681Y16318D01*
G01X27681Y16318D02*
G01X27727Y16363D01*
G01X27727Y16363D02*
G01X27750Y16431D01*
G01X27750Y16454D02*
G01X27750Y16431D01*
G01X27727Y16522D02*
G01X27750Y16454D01*
G01X27681Y16568D02*
G01X27727Y16522D01*
G01X27613Y16590D02*
G01X27681Y16568D01*
G01X27590Y16590D02*
G01X27613Y16590D01*
G01X27522Y16568D02*
G01X27590Y16590D01*
G01X27477Y16522D02*
G01X27522Y16568D01*
G01X27454Y16454D02*
G01X27477Y16522D01*
G01X27454Y16431D02*
G01X27454Y16454D01*
G01X27454Y16431D02*
G01X27477Y16363D01*
G01X27477Y16363D02*
G01X27522Y16318D01*
G01X27522Y16318D02*
G01X27590Y16295D01*
G04 Draw part R19*
G04 draw part outline for part R19*
G01X29500Y17250D02*
G01X29500Y14750D01*
G01X29500Y14750D02*
G01X28500Y14750D01*
G01X28500Y14750D02*
G01X28500Y17250D01*
G01X28500Y17250D02*
G01X29500Y17250D01*
G04 draw reference designator for part R19*
G01X28772Y15500D02*
G01X29250Y15500D01*
G01X28772Y15704D02*
G01X28772Y15500D01*
G01X28772Y15704D02*
G01X28795Y15772D01*
G01X28795Y15772D02*
G01X28818Y15795D01*
G01X28818Y15795D02*
G01X28863Y15818D01*
G01X28863Y15818D02*
G01X28909Y15818D01*
G01X28909Y15818D02*
G01X28954Y15795D01*
G01X28954Y15795D02*
G01X28977Y15772D01*
G01X28977Y15772D02*
G01X29000Y15704D01*
G01X29000Y15500D02*
G01X29000Y15704D01*
G01X29000Y15659D02*
G01X29250Y15818D01*
G01X28840Y16045D02*
G01X28863Y16000D01*
G01X28772Y16113D02*
G01X28840Y16045D01*
G01X28772Y16113D02*
G01X29250Y16113D01*
G01X28931Y16590D02*
G01X29000Y16568D01*
G01X29000Y16568D02*
G01X29045Y16522D01*
G01X29045Y16522D02*
G01X29068Y16454D01*
G01X29068Y16431D02*
G01X29068Y16454D01*
G01X29045Y16363D02*
G01X29068Y16431D01*
G01X29000Y16318D02*
G01X29045Y16363D01*
G01X28931Y16295D02*
G01X29000Y16318D01*
G01X28909Y16295D02*
G01X28931Y16295D01*
G01X28840Y16318D02*
G01X28909Y16295D01*
G01X28795Y16363D02*
G01X28840Y16318D01*
G01X28772Y16431D02*
G01X28795Y16363D01*
G01X28772Y16454D02*
G01X28772Y16431D01*
G01X28772Y16454D02*
G01X28795Y16522D01*
G01X28795Y16522D02*
G01X28840Y16568D01*
G01X28840Y16568D02*
G01X28931Y16590D01*
G01X28931Y16590D02*
G01X29045Y16590D01*
G01X29045Y16590D02*
G01X29159Y16568D01*
G01X29159Y16568D02*
G01X29227Y16522D01*
G01X29227Y16522D02*
G01X29250Y16454D01*
G01X29250Y16409D02*
G01X29250Y16454D01*
G01X29227Y16340D02*
G01X29250Y16409D01*
G01X29181Y16318D02*
G01X29227Y16340D01*
G04 Draw part R15*
G04 draw part outline for part R15*
G01X24500Y11750D02*
G01X24500Y9250D01*
G01X24500Y9250D02*
G01X23500Y9250D01*
G01X23500Y9250D02*
G01X23500Y11750D01*
G01X23500Y11750D02*
G01X24500Y11750D01*
G04 draw reference designator for part R15*
G01X23772Y9750D02*
G01X24250Y9750D01*
G01X23772Y9954D02*
G01X23772Y9750D01*
G01X23772Y9954D02*
G01X23795Y10022D01*
G01X23795Y10022D02*
G01X23818Y10045D01*
G01X23818Y10045D02*
G01X23863Y10068D01*
G01X23863Y10068D02*
G01X23909Y10068D01*
G01X23909Y10068D02*
G01X23954Y10045D01*
G01X23954Y10045D02*
G01X23977Y10022D01*
G01X23977Y10022D02*
G01X24000Y9954D01*
G01X24000Y9750D02*
G01X24000Y9954D01*
G01X24000Y9909D02*
G01X24250Y10068D01*
G01X23840Y10295D02*
G01X23863Y10250D01*
G01X23772Y10363D02*
G01X23840Y10295D01*
G01X23772Y10363D02*
G01X24250Y10363D01*
G01X23772Y10590D02*
G01X23772Y10818D01*
G01X23772Y10590D02*
G01X23977Y10568D01*
G01X23954Y10590D02*
G01X23977Y10568D01*
G01X23931Y10659D02*
G01X23954Y10590D01*
G01X23931Y10727D02*
G01X23931Y10659D01*
G01X23931Y10727D02*
G01X23954Y10795D01*
G01X23954Y10795D02*
G01X24000Y10840D01*
G01X24000Y10840D02*
G01X24068Y10863D01*
G01X24068Y10863D02*
G01X24113Y10863D01*
G01X24113Y10863D02*
G01X24181Y10840D01*
G01X24181Y10840D02*
G01X24227Y10795D01*
G01X24227Y10795D02*
G01X24250Y10727D01*
G01X24250Y10659D02*
G01X24250Y10727D01*
G01X24227Y10590D02*
G01X24250Y10659D01*
G01X24204Y10568D02*
G01X24227Y10590D01*
G01X24159Y10545D02*
G01X24204Y10568D01*
G04 Draw part J5*
G04 draw part outline for part J5*
G04 draw reference designator for part J5*
G01X12477Y14727D02*
G01X12477Y14363D01*
G01X12477Y14363D02*
G01X12454Y14295D01*
G01X12454Y14295D02*
G01X12431Y14272D01*
G01X12431Y14272D02*
G01X12386Y14250D01*
G01X12340Y14250D02*
G01X12386Y14250D01*
G01X12295Y14272D02*
G01X12340Y14250D01*
G01X12272Y14295D02*
G01X12295Y14272D01*
G01X12250Y14363D02*
G01X12272Y14295D01*
G01X12250Y14409D02*
G01X12250Y14363D01*
G01X12704Y14727D02*
G01X12931Y14727D01*
G01X12704Y14727D02*
G01X12681Y14522D01*
G01X12704Y14545D02*
G01X12681Y14522D01*
G01X12772Y14568D02*
G01X12704Y14545D01*
G01X12840Y14568D02*
G01X12772Y14568D01*
G01X12840Y14568D02*
G01X12909Y14545D01*
G01X12909Y14545D02*
G01X12954Y14500D01*
G01X12954Y14500D02*
G01X12977Y14431D01*
G01X12977Y14431D02*
G01X12977Y14386D01*
G01X12977Y14386D02*
G01X12954Y14318D01*
G01X12954Y14318D02*
G01X12909Y14272D01*
G01X12909Y14272D02*
G01X12840Y14250D01*
G01X12772Y14250D02*
G01X12840Y14250D01*
G01X12704Y14272D02*
G01X12772Y14250D01*
G01X12681Y14295D02*
G01X12704Y14272D01*
G01X12659Y14340D02*
G01X12681Y14295D01*
G04 Draw part R14*
G04 draw part outline for part R14*
G01X31500Y17250D02*
G01X31500Y14750D01*
G01X31500Y14750D02*
G01X30500Y14750D01*
G01X30500Y14750D02*
G01X30500Y17250D01*
G01X30500Y17250D02*
G01X31500Y17250D01*
G04 draw reference designator for part R14*
G01X30772Y15500D02*
G01X31250Y15500D01*
G01X30772Y15704D02*
G01X30772Y15500D01*
G01X30772Y15704D02*
G01X30795Y15772D01*
G01X30795Y15772D02*
G01X30818Y15795D01*
G01X30818Y15795D02*
G01X30863Y15818D01*
G01X30863Y15818D02*
G01X30909Y15818D01*
G01X30909Y15818D02*
G01X30954Y15795D01*
G01X30954Y15795D02*
G01X30977Y15772D01*
G01X30977Y15772D02*
G01X31000Y15704D01*
G01X31000Y15500D02*
G01X31000Y15704D01*
G01X31000Y15659D02*
G01X31250Y15818D01*
G01X30840Y16045D02*
G01X30863Y16000D01*
G01X30772Y16113D02*
G01X30840Y16045D01*
G01X30772Y16113D02*
G01X31250Y16113D01*
G01X30772Y16522D02*
G01X31090Y16295D01*
G01X31090Y16636D02*
G01X31090Y16295D01*
G01X30772Y16522D02*
G01X31250Y16522D01*
G04 Draw part J7*
G04 draw part outline for part J7*
G04 draw reference designator for part J7*
G01X12477Y13727D02*
G01X12477Y13363D01*
G01X12477Y13363D02*
G01X12454Y13295D01*
G01X12454Y13295D02*
G01X12431Y13272D01*
G01X12431Y13272D02*
G01X12386Y13250D01*
G01X12340Y13250D02*
G01X12386Y13250D01*
G01X12295Y13272D02*
G01X12340Y13250D01*
G01X12272Y13295D02*
G01X12295Y13272D01*
G01X12250Y13363D02*
G01X12272Y13295D01*
G01X12250Y13409D02*
G01X12250Y13363D01*
G01X12977Y13727D02*
G01X12750Y13250D01*
G01X12977Y13727D02*
G01X12659Y13727D01*
G04 Draw part R24*
G04 draw part outline for part R24*
G01X19500Y9250D02*
G01X19500Y11750D01*
G01X19500Y11750D02*
G01X20500Y11750D01*
G01X20500Y11750D02*
G01X20500Y9250D01*
G01X20500Y9250D02*
G01X19500Y9250D01*
G04 draw reference designator for part R24*
G01X19772Y9750D02*
G01X20250Y9750D01*
G01X19772Y9954D02*
G01X19772Y9750D01*
G01X19772Y9954D02*
G01X19795Y10022D01*
G01X19795Y10022D02*
G01X19818Y10045D01*
G01X19818Y10045D02*
G01X19863Y10068D01*
G01X19863Y10068D02*
G01X19909Y10068D01*
G01X19909Y10068D02*
G01X19954Y10045D01*
G01X19954Y10045D02*
G01X19977Y10022D01*
G01X19977Y10022D02*
G01X20000Y9954D01*
G01X20000Y9750D02*
G01X20000Y9954D01*
G01X20000Y9909D02*
G01X20250Y10068D01*
G01X19863Y10272D02*
G01X19886Y10272D01*
G01X19818Y10295D02*
G01X19863Y10272D01*
G01X19795Y10318D02*
G01X19818Y10295D01*
G01X19772Y10363D02*
G01X19795Y10318D01*
G01X19772Y10454D02*
G01X19772Y10363D01*
G01X19772Y10454D02*
G01X19795Y10500D01*
G01X19795Y10500D02*
G01X19818Y10522D01*
G01X19818Y10522D02*
G01X19863Y10545D01*
G01X19863Y10545D02*
G01X19909Y10545D01*
G01X19909Y10545D02*
G01X19954Y10522D01*
G01X19954Y10522D02*
G01X20022Y10477D01*
G01X20022Y10477D02*
G01X20250Y10250D01*
G01X20250Y10568D02*
G01X20250Y10250D01*
G01X19772Y10977D02*
G01X20090Y10750D01*
G01X20090Y11090D02*
G01X20090Y10750D01*
G01X19772Y10977D02*
G01X20250Y10977D01*
G04 Draw part C25*
G04 draw part outline for part C25*
G01X18000Y10000D02*
G01X18000Y13000D01*
G01X18000Y13000D02*
G01X19000Y13000D01*
G01X19000Y13000D02*
G01X19000Y10000D01*
G01X19000Y10000D02*
G01X18000Y10000D01*
G04 draw reference designator for part C25*
G01X18340Y11068D02*
G01X18386Y11090D01*
G01X18295Y11022D02*
G01X18340Y11068D01*
G01X18272Y10977D02*
G01X18295Y11022D01*
G01X18272Y10886D02*
G01X18272Y10977D01*
G01X18272Y10886D02*
G01X18295Y10840D01*
G01X18295Y10840D02*
G01X18340Y10795D01*
G01X18340Y10795D02*
G01X18386Y10772D01*
G01X18386Y10772D02*
G01X18454Y10750D01*
G01X18454Y10750D02*
G01X18568Y10750D01*
G01X18568Y10750D02*
G01X18636Y10772D01*
G01X18636Y10772D02*
G01X18681Y10795D01*
G01X18681Y10795D02*
G01X18727Y10840D01*
G01X18727Y10840D02*
G01X18750Y10886D01*
G01X18750Y10977D02*
G01X18750Y10886D01*
G01X18727Y11022D02*
G01X18750Y10977D01*
G01X18681Y11068D02*
G01X18727Y11022D01*
G01X18636Y11090D02*
G01X18681Y11068D01*
G01X18363Y11295D02*
G01X18386Y11295D01*
G01X18318Y11318D02*
G01X18363Y11295D01*
G01X18295Y11340D02*
G01X18318Y11318D01*
G01X18272Y11386D02*
G01X18295Y11340D01*
G01X18272Y11477D02*
G01X18272Y11386D01*
G01X18272Y11477D02*
G01X18295Y11522D01*
G01X18295Y11522D02*
G01X18318Y11545D01*
G01X18318Y11545D02*
G01X18363Y11568D01*
G01X18363Y11568D02*
G01X18409Y11568D01*
G01X18409Y11568D02*
G01X18454Y11545D01*
G01X18454Y11545D02*
G01X18522Y11500D01*
G01X18522Y11500D02*
G01X18750Y11272D01*
G01X18750Y11590D02*
G01X18750Y11272D01*
G01X18272Y11818D02*
G01X18272Y12045D01*
G01X18272Y11818D02*
G01X18477Y11795D01*
G01X18454Y11818D02*
G01X18477Y11795D01*
G01X18431Y11886D02*
G01X18454Y11818D01*
G01X18431Y11954D02*
G01X18431Y11886D01*
G01X18431Y11954D02*
G01X18454Y12022D01*
G01X18454Y12022D02*
G01X18500Y12068D01*
G01X18500Y12068D02*
G01X18568Y12090D01*
G01X18568Y12090D02*
G01X18613Y12090D01*
G01X18613Y12090D02*
G01X18681Y12068D01*
G01X18681Y12068D02*
G01X18727Y12022D01*
G01X18727Y12022D02*
G01X18750Y11954D01*
G01X18750Y11886D02*
G01X18750Y11954D01*
G01X18727Y11818D02*
G01X18750Y11886D01*
G01X18704Y11795D02*
G01X18727Y11818D01*
G01X18659Y11772D02*
G01X18704Y11795D01*
G04 Draw part R23*
G04 draw part outline for part R23*
G01X20500Y9250D02*
G01X20500Y11750D01*
G01X20500Y11750D02*
G01X21500Y11750D01*
G01X21500Y11750D02*
G01X21500Y9250D01*
G01X21500Y9250D02*
G01X20500Y9250D01*
G04 draw reference designator for part R23*
G01X20772Y9750D02*
G01X21250Y9750D01*
G01X20772Y9954D02*
G01X20772Y9750D01*
G01X20772Y9954D02*
G01X20795Y10022D01*
G01X20795Y10022D02*
G01X20818Y10045D01*
G01X20818Y10045D02*
G01X20863Y10068D01*
G01X20863Y10068D02*
G01X20909Y10068D01*
G01X20909Y10068D02*
G01X20954Y10045D01*
G01X20954Y10045D02*
G01X20977Y10022D01*
G01X20977Y10022D02*
G01X21000Y9954D01*
G01X21000Y9750D02*
G01X21000Y9954D01*
G01X21000Y9909D02*
G01X21250Y10068D01*
G01X20863Y10272D02*
G01X20886Y10272D01*
G01X20818Y10295D02*
G01X20863Y10272D01*
G01X20795Y10318D02*
G01X20818Y10295D01*
G01X20772Y10363D02*
G01X20795Y10318D01*
G01X20772Y10454D02*
G01X20772Y10363D01*
G01X20772Y10454D02*
G01X20795Y10500D01*
G01X20795Y10500D02*
G01X20818Y10522D01*
G01X20818Y10522D02*
G01X20863Y10545D01*
G01X20863Y10545D02*
G01X20909Y10545D01*
G01X20909Y10545D02*
G01X20954Y10522D01*
G01X20954Y10522D02*
G01X21022Y10477D01*
G01X21022Y10477D02*
G01X21250Y10250D01*
G01X21250Y10568D02*
G01X21250Y10250D01*
G01X20772Y11045D02*
G01X20772Y10795D01*
G01X20772Y11045D02*
G01X20954Y10909D01*
G01X20954Y10977D02*
G01X20954Y10909D01*
G01X20954Y10977D02*
G01X20977Y11022D01*
G01X20977Y11022D02*
G01X21000Y11045D01*
G01X21000Y11045D02*
G01X21068Y11068D01*
G01X21068Y11068D02*
G01X21113Y11068D01*
G01X21113Y11068D02*
G01X21181Y11045D01*
G01X21181Y11045D02*
G01X21227Y11000D01*
G01X21227Y11000D02*
G01X21250Y10931D01*
G01X21250Y10863D02*
G01X21250Y10931D01*
G01X21227Y10795D02*
G01X21250Y10863D01*
G01X21204Y10772D02*
G01X21227Y10795D01*
G01X21159Y10750D02*
G01X21204Y10772D01*
G04 Draw part C24*
G04 draw part outline for part C24*
G01X21500Y10000D02*
G01X21500Y13000D01*
G01X21500Y13000D02*
G01X22500Y13000D01*
G01X22500Y13000D02*
G01X22500Y10000D01*
G01X22500Y10000D02*
G01X21500Y10000D01*
G04 draw reference designator for part C24*
G01X21840Y11068D02*
G01X21886Y11090D01*
G01X21795Y11022D02*
G01X21840Y11068D01*
G01X21772Y10977D02*
G01X21795Y11022D01*
G01X21772Y10886D02*
G01X21772Y10977D01*
G01X21772Y10886D02*
G01X21795Y10840D01*
G01X21795Y10840D02*
G01X21840Y10795D01*
G01X21840Y10795D02*
G01X21886Y10772D01*
G01X21886Y10772D02*
G01X21954Y10750D01*
G01X21954Y10750D02*
G01X22068Y10750D01*
G01X22068Y10750D02*
G01X22136Y10772D01*
G01X22136Y10772D02*
G01X22181Y10795D01*
G01X22181Y10795D02*
G01X22227Y10840D01*
G01X22227Y10840D02*
G01X22250Y10886D01*
G01X22250Y10977D02*
G01X22250Y10886D01*
G01X22227Y11022D02*
G01X22250Y10977D01*
G01X22181Y11068D02*
G01X22227Y11022D01*
G01X22136Y11090D02*
G01X22181Y11068D01*
G01X21863Y11295D02*
G01X21886Y11295D01*
G01X21818Y11318D02*
G01X21863Y11295D01*
G01X21795Y11340D02*
G01X21818Y11318D01*
G01X21772Y11386D02*
G01X21795Y11340D01*
G01X21772Y11477D02*
G01X21772Y11386D01*
G01X21772Y11477D02*
G01X21795Y11522D01*
G01X21795Y11522D02*
G01X21818Y11545D01*
G01X21818Y11545D02*
G01X21863Y11568D01*
G01X21863Y11568D02*
G01X21909Y11568D01*
G01X21909Y11568D02*
G01X21954Y11545D01*
G01X21954Y11545D02*
G01X22022Y11500D01*
G01X22022Y11500D02*
G01X22250Y11272D01*
G01X22250Y11590D02*
G01X22250Y11272D01*
G01X21772Y12000D02*
G01X22090Y11772D01*
G01X22090Y12113D02*
G01X22090Y11772D01*
G01X21772Y12000D02*
G01X22250Y12000D01*
G04 Draw part R21*
G04 draw part outline for part R21*
G01X31250Y9500D02*
G01X28750Y9500D01*
G01X28750Y9500D02*
G01X28750Y10500D01*
G01X28750Y10500D02*
G01X31250Y10500D01*
G01X31250Y10500D02*
G01X31250Y9500D01*
G04 draw reference designator for part R21*
G01X29250Y10227D02*
G01X29250Y9750D01*
G01X29454Y10227D02*
G01X29250Y10227D01*
G01X29454Y10227D02*
G01X29522Y10204D01*
G01X29522Y10204D02*
G01X29545Y10181D01*
G01X29545Y10181D02*
G01X29568Y10136D01*
G01X29568Y10136D02*
G01X29568Y10090D01*
G01X29568Y10090D02*
G01X29545Y10045D01*
G01X29545Y10045D02*
G01X29522Y10022D01*
G01X29522Y10022D02*
G01X29454Y10000D01*
G01X29250Y10000D02*
G01X29454Y10000D01*
G01X29409Y10000D02*
G01X29568Y9750D01*
G01X29772Y10136D02*
G01X29772Y10113D01*
G01X29795Y10181D02*
G01X29772Y10136D01*
G01X29818Y10204D02*
G01X29795Y10181D01*
G01X29863Y10227D02*
G01X29818Y10204D01*
G01X29954Y10227D02*
G01X29863Y10227D01*
G01X29954Y10227D02*
G01X30000Y10204D01*
G01X30000Y10204D02*
G01X30022Y10181D01*
G01X30022Y10181D02*
G01X30045Y10136D01*
G01X30045Y10136D02*
G01X30045Y10090D01*
G01X30045Y10090D02*
G01X30022Y10045D01*
G01X30022Y10045D02*
G01X29977Y9977D01*
G01X29977Y9977D02*
G01X29750Y9750D01*
G01X30068Y9750D02*
G01X29750Y9750D01*
G01X30295Y10159D02*
G01X30250Y10136D01*
G01X30363Y10227D02*
G01X30295Y10159D01*
G01X30363Y10227D02*
G01X30363Y9750D01*
G04 Draw part R22*
G04 draw part outline for part R22*
G01X28750Y11500D02*
G01X31250Y11500D01*
G01X31250Y11500D02*
G01X31250Y10500D01*
G01X31250Y10500D02*
G01X28750Y10500D01*
G01X28750Y10500D02*
G01X28750Y11500D01*
G04 draw reference designator for part R22*
G01X29250Y11227D02*
G01X29250Y10750D01*
G01X29454Y11227D02*
G01X29250Y11227D01*
G01X29454Y11227D02*
G01X29522Y11204D01*
G01X29522Y11204D02*
G01X29545Y11181D01*
G01X29545Y11181D02*
G01X29568Y11136D01*
G01X29568Y11136D02*
G01X29568Y11090D01*
G01X29568Y11090D02*
G01X29545Y11045D01*
G01X29545Y11045D02*
G01X29522Y11022D01*
G01X29522Y11022D02*
G01X29454Y11000D01*
G01X29250Y11000D02*
G01X29454Y11000D01*
G01X29409Y11000D02*
G01X29568Y10750D01*
G01X29772Y11136D02*
G01X29772Y11113D01*
G01X29795Y11181D02*
G01X29772Y11136D01*
G01X29818Y11204D02*
G01X29795Y11181D01*
G01X29863Y11227D02*
G01X29818Y11204D01*
G01X29954Y11227D02*
G01X29863Y11227D01*
G01X29954Y11227D02*
G01X30000Y11204D01*
G01X30000Y11204D02*
G01X30022Y11181D01*
G01X30022Y11181D02*
G01X30045Y11136D01*
G01X30045Y11136D02*
G01X30045Y11090D01*
G01X30045Y11090D02*
G01X30022Y11045D01*
G01X30022Y11045D02*
G01X29977Y10977D01*
G01X29977Y10977D02*
G01X29750Y10750D01*
G01X30068Y10750D02*
G01X29750Y10750D01*
G01X30272Y11136D02*
G01X30272Y11113D01*
G01X30295Y11181D02*
G01X30272Y11136D01*
G01X30318Y11204D02*
G01X30295Y11181D01*
G01X30363Y11227D02*
G01X30318Y11204D01*
G01X30454Y11227D02*
G01X30363Y11227D01*
G01X30454Y11227D02*
G01X30500Y11204D01*
G01X30500Y11204D02*
G01X30522Y11181D01*
G01X30522Y11181D02*
G01X30545Y11136D01*
G01X30545Y11136D02*
G01X30545Y11090D01*
G01X30545Y11090D02*
G01X30522Y11045D01*
G01X30522Y11045D02*
G01X30477Y10977D01*
G01X30477Y10977D02*
G01X30250Y10750D01*
G01X30568Y10750D02*
G01X30250Y10750D01*
G04 Draw part C23*
G04 draw part outline for part C23*
G01X30500Y12000D02*
G01X27500Y12000D01*
G01X27500Y12000D02*
G01X27500Y13000D01*
G01X27500Y13000D02*
G01X30500Y13000D01*
G01X30500Y13000D02*
G01X30500Y12000D01*
G04 draw reference designator for part C23*
G01X28568Y12659D02*
G01X28590Y12613D01*
G01X28522Y12704D02*
G01X28568Y12659D01*
G01X28477Y12727D02*
G01X28522Y12704D01*
G01X28386Y12727D02*
G01X28477Y12727D01*
G01X28386Y12727D02*
G01X28340Y12704D01*
G01X28340Y12704D02*
G01X28295Y12659D01*
G01X28295Y12659D02*
G01X28272Y12613D01*
G01X28272Y12613D02*
G01X28250Y12545D01*
G01X28250Y12545D02*
G01X28250Y12431D01*
G01X28250Y12431D02*
G01X28272Y12363D01*
G01X28272Y12363D02*
G01X28295Y12318D01*
G01X28295Y12318D02*
G01X28340Y12272D01*
G01X28340Y12272D02*
G01X28386Y12250D01*
G01X28477Y12250D02*
G01X28386Y12250D01*
G01X28522Y12272D02*
G01X28477Y12250D01*
G01X28568Y12318D02*
G01X28522Y12272D01*
G01X28590Y12363D02*
G01X28568Y12318D01*
G01X28795Y12636D02*
G01X28795Y12613D01*
G01X28818Y12681D02*
G01X28795Y12636D01*
G01X28840Y12704D02*
G01X28818Y12681D01*
G01X28886Y12727D02*
G01X28840Y12704D01*
G01X28977Y12727D02*
G01X28886Y12727D01*
G01X28977Y12727D02*
G01X29022Y12704D01*
G01X29022Y12704D02*
G01X29045Y12681D01*
G01X29045Y12681D02*
G01X29068Y12636D01*
G01X29068Y12636D02*
G01X29068Y12590D01*
G01X29068Y12590D02*
G01X29045Y12545D01*
G01X29045Y12545D02*
G01X29000Y12477D01*
G01X29000Y12477D02*
G01X28772Y12250D01*
G01X29090Y12250D02*
G01X28772Y12250D01*
G01X29568Y12727D02*
G01X29318Y12727D01*
G01X29568Y12727D02*
G01X29431Y12545D01*
G01X29500Y12545D02*
G01X29431Y12545D01*
G01X29500Y12545D02*
G01X29545Y12522D01*
G01X29545Y12522D02*
G01X29568Y12500D01*
G01X29568Y12500D02*
G01X29590Y12431D01*
G01X29590Y12431D02*
G01X29590Y12386D01*
G01X29590Y12386D02*
G01X29568Y12318D01*
G01X29568Y12318D02*
G01X29522Y12272D01*
G01X29522Y12272D02*
G01X29454Y12250D01*
G01X29386Y12250D02*
G01X29454Y12250D01*
G01X29318Y12272D02*
G01X29386Y12250D01*
G01X29295Y12295D02*
G01X29318Y12272D01*
G01X29272Y12340D02*
G01X29295Y12295D01*
G04 Draw part C22*
G04 draw part outline for part C22*
G01X27500Y9000D02*
G01X30500Y9000D01*
G01X30500Y9000D02*
G01X30500Y8000D01*
G01X30500Y8000D02*
G01X27500Y8000D01*
G01X27500Y8000D02*
G01X27500Y9000D01*
G04 draw reference designator for part C22*
G01X28568Y8659D02*
G01X28590Y8613D01*
G01X28522Y8704D02*
G01X28568Y8659D01*
G01X28477Y8727D02*
G01X28522Y8704D01*
G01X28386Y8727D02*
G01X28477Y8727D01*
G01X28386Y8727D02*
G01X28340Y8704D01*
G01X28340Y8704D02*
G01X28295Y8659D01*
G01X28295Y8659D02*
G01X28272Y8613D01*
G01X28272Y8613D02*
G01X28250Y8545D01*
G01X28250Y8545D02*
G01X28250Y8431D01*
G01X28250Y8431D02*
G01X28272Y8363D01*
G01X28272Y8363D02*
G01X28295Y8318D01*
G01X28295Y8318D02*
G01X28340Y8272D01*
G01X28340Y8272D02*
G01X28386Y8250D01*
G01X28477Y8250D02*
G01X28386Y8250D01*
G01X28522Y8272D02*
G01X28477Y8250D01*
G01X28568Y8318D02*
G01X28522Y8272D01*
G01X28590Y8363D02*
G01X28568Y8318D01*
G01X28795Y8636D02*
G01X28795Y8613D01*
G01X28818Y8681D02*
G01X28795Y8636D01*
G01X28840Y8704D02*
G01X28818Y8681D01*
G01X28886Y8727D02*
G01X28840Y8704D01*
G01X28977Y8727D02*
G01X28886Y8727D01*
G01X28977Y8727D02*
G01X29022Y8704D01*
G01X29022Y8704D02*
G01X29045Y8681D01*
G01X29045Y8681D02*
G01X29068Y8636D01*
G01X29068Y8636D02*
G01X29068Y8590D01*
G01X29068Y8590D02*
G01X29045Y8545D01*
G01X29045Y8545D02*
G01X29000Y8477D01*
G01X29000Y8477D02*
G01X28772Y8250D01*
G01X29090Y8250D02*
G01X28772Y8250D01*
G01X29295Y8636D02*
G01X29295Y8613D01*
G01X29318Y8681D02*
G01X29295Y8636D01*
G01X29340Y8704D02*
G01X29318Y8681D01*
G01X29386Y8727D02*
G01X29340Y8704D01*
G01X29477Y8727D02*
G01X29386Y8727D01*
G01X29477Y8727D02*
G01X29522Y8704D01*
G01X29522Y8704D02*
G01X29545Y8681D01*
G01X29545Y8681D02*
G01X29568Y8636D01*
G01X29568Y8636D02*
G01X29568Y8590D01*
G01X29568Y8590D02*
G01X29545Y8545D01*
G01X29545Y8545D02*
G01X29500Y8477D01*
G01X29500Y8477D02*
G01X29272Y8250D01*
G01X29590Y8250D02*
G01X29272Y8250D01*
G04 Draw part R13*
G04 draw part outline for part R13*
G54D12*
G01X32100Y14100D02*
G01X32100Y17900D01*
G01X32100Y17900D02*
G01X35900Y17900D01*
G01X35900Y17900D02*
G01X35900Y14100D01*
G01X35900Y14100D02*
G01X32100Y14100D01*
G04 draw reference designator for part R13*
G01X32250Y17704D02*
G01X32250Y16750D01*
G01X32659Y17704D02*
G01X32250Y17704D01*
G01X32659Y17704D02*
G01X32795Y17659D01*
G01X32795Y17659D02*
G01X32840Y17613D01*
G01X32840Y17613D02*
G01X32886Y17522D01*
G01X32886Y17522D02*
G01X32886Y17431D01*
G01X32886Y17431D02*
G01X32840Y17340D01*
G01X32840Y17340D02*
G01X32795Y17295D01*
G01X32795Y17295D02*
G01X32659Y17250D01*
G01X32250Y17250D02*
G01X32659Y17250D01*
G01X32568Y17250D02*
G01X32886Y16750D01*
G01X33340Y17568D02*
G01X33250Y17522D01*
G01X33477Y17704D02*
G01X33340Y17568D01*
G01X33477Y17704D02*
G01X33477Y16750D01*
G01X34431Y17704D02*
G01X33931Y17704D01*
G01X34431Y17704D02*
G01X34159Y17340D01*
G01X34295Y17340D02*
G01X34159Y17340D01*
G01X34295Y17340D02*
G01X34386Y17295D01*
G01X34386Y17295D02*
G01X34431Y17250D01*
G01X34431Y17250D02*
G01X34477Y17113D01*
G01X34477Y17113D02*
G01X34477Y17022D01*
G01X34477Y17022D02*
G01X34431Y16886D01*
G01X34431Y16886D02*
G01X34340Y16795D01*
G01X34340Y16795D02*
G01X34204Y16750D01*
G01X34068Y16750D02*
G01X34204Y16750D01*
G01X33931Y16795D02*
G01X34068Y16750D01*
G01X33886Y16840D02*
G01X33931Y16795D01*
G01X33840Y16931D02*
G01X33886Y16840D01*
G04 Draw part CONN1*
G04 draw part outline for part CONN1*
G54D11*
G01X15500Y9500D02*
G01X11500Y9500D01*
G01X11500Y9500D02*
G01X11500Y10500D01*
G01X11500Y10500D02*
G01X15500Y10500D01*
G01X15500Y10500D02*
G01X15500Y9500D01*
G04 draw reference designator for part CONN1*
G01X12568Y11159D02*
G01X12590Y11113D01*
G01X12522Y11204D02*
G01X12568Y11159D01*
G01X12477Y11227D02*
G01X12522Y11204D01*
G01X12386Y11227D02*
G01X12477Y11227D01*
G01X12386Y11227D02*
G01X12340Y11204D01*
G01X12340Y11204D02*
G01X12295Y11159D01*
G01X12295Y11159D02*
G01X12272Y11113D01*
G01X12272Y11113D02*
G01X12250Y11045D01*
G01X12250Y11045D02*
G01X12250Y10931D01*
G01X12250Y10931D02*
G01X12272Y10863D01*
G01X12272Y10863D02*
G01X12295Y10818D01*
G01X12295Y10818D02*
G01X12340Y10772D01*
G01X12340Y10772D02*
G01X12386Y10750D01*
G01X12477Y10750D02*
G01X12386Y10750D01*
G01X12522Y10772D02*
G01X12477Y10750D01*
G01X12568Y10818D02*
G01X12522Y10772D01*
G01X12590Y10863D02*
G01X12568Y10818D01*
G01X12909Y11227D02*
G01X12863Y11204D01*
G01X12863Y11204D02*
G01X12818Y11159D01*
G01X12818Y11159D02*
G01X12795Y11113D01*
G01X12795Y11113D02*
G01X12772Y11045D01*
G01X12772Y11045D02*
G01X12772Y10931D01*
G01X12772Y10931D02*
G01X12795Y10863D01*
G01X12795Y10863D02*
G01X12818Y10818D01*
G01X12818Y10818D02*
G01X12863Y10772D01*
G01X12863Y10772D02*
G01X12909Y10750D01*
G01X13000Y10750D02*
G01X12909Y10750D01*
G01X13045Y10772D02*
G01X13000Y10750D01*
G01X13090Y10818D02*
G01X13045Y10772D01*
G01X13113Y10863D02*
G01X13090Y10818D01*
G01X13136Y10931D02*
G01X13113Y10863D01*
G01X13136Y11045D02*
G01X13136Y10931D01*
G01X13113Y11113D02*
G01X13136Y11045D01*
G01X13090Y11159D02*
G01X13113Y11113D01*
G01X13045Y11204D02*
G01X13090Y11159D01*
G01X13000Y11227D02*
G01X13045Y11204D01*
G01X12909Y11227D02*
G01X13000Y11227D01*
G01X13318Y11227D02*
G01X13318Y10750D01*
G01X13318Y11227D02*
G01X13636Y10750D01*
G01X13636Y11227D02*
G01X13636Y10750D01*
G01X13818Y11227D02*
G01X13818Y10750D01*
G01X13818Y11227D02*
G01X14136Y10750D01*
G01X14136Y11227D02*
G01X14136Y10750D01*
G01X14363Y11159D02*
G01X14318Y11136D01*
G01X14431Y11227D02*
G01X14363Y11159D01*
G01X14431Y11227D02*
G01X14431Y10750D01*
G04 Draw part R29*
G04 draw part outline for part R29*
G54D12*
G01X15500Y1250D02*
G01X20000Y1250D01*
G01X20000Y1250D02*
G01X20000Y6750D01*
G01X20000Y6750D02*
G01X15500Y6750D01*
G01X15500Y6750D02*
G01X15500Y1250D01*
G04 draw reference designator for part R29*
G01X16500Y2454D02*
G01X16500Y1500D01*
G01X16909Y2454D02*
G01X16500Y2454D01*
G01X16909Y2454D02*
G01X17045Y2409D01*
G01X17045Y2409D02*
G01X17090Y2363D01*
G01X17090Y2363D02*
G01X17136Y2272D01*
G01X17136Y2272D02*
G01X17136Y2181D01*
G01X17136Y2181D02*
G01X17090Y2090D01*
G01X17090Y2090D02*
G01X17045Y2045D01*
G01X17045Y2045D02*
G01X16909Y2000D01*
G01X16500Y2000D02*
G01X16909Y2000D01*
G01X16818Y2000D02*
G01X17136Y1500D01*
G01X17545Y2272D02*
G01X17545Y2227D01*
G01X17590Y2363D02*
G01X17545Y2272D01*
G01X17636Y2409D02*
G01X17590Y2363D01*
G01X17727Y2454D02*
G01X17636Y2409D01*
G01X17909Y2454D02*
G01X17727Y2454D01*
G01X17909Y2454D02*
G01X18000Y2409D01*
G01X18000Y2409D02*
G01X18045Y2363D01*
G01X18045Y2363D02*
G01X18090Y2272D01*
G01X18090Y2272D02*
G01X18090Y2181D01*
G01X18090Y2181D02*
G01X18045Y2090D01*
G01X18045Y2090D02*
G01X17954Y1954D01*
G01X17954Y1954D02*
G01X17500Y1500D01*
G01X18136Y1500D02*
G01X17500Y1500D01*
G01X19090Y2136D02*
G01X19045Y2000D01*
G01X19045Y2000D02*
G01X18954Y1909D01*
G01X18954Y1909D02*
G01X18818Y1863D01*
G01X18772Y1863D02*
G01X18818Y1863D01*
G01X18636Y1909D02*
G01X18772Y1863D01*
G01X18545Y2000D02*
G01X18636Y1909D01*
G01X18500Y2136D02*
G01X18545Y2000D01*
G01X18500Y2181D02*
G01X18500Y2136D01*
G01X18545Y2318D02*
G01X18500Y2181D01*
G01X18636Y2409D02*
G01X18545Y2318D01*
G01X18772Y2454D02*
G01X18636Y2409D01*
G01X18818Y2454D02*
G01X18772Y2454D01*
G01X18818Y2454D02*
G01X18954Y2409D01*
G01X18954Y2409D02*
G01X19045Y2318D01*
G01X19045Y2318D02*
G01X19090Y2136D01*
G01X19090Y2136D02*
G01X19090Y1909D01*
G01X19090Y1909D02*
G01X19045Y1681D01*
G01X19045Y1681D02*
G01X18954Y1545D01*
G01X18954Y1545D02*
G01X18818Y1500D01*
G01X18727Y1500D02*
G01X18818Y1500D01*
G01X18590Y1545D02*
G01X18727Y1500D01*
G01X18545Y1636D02*
G01X18590Y1545D01*
G04 Draw part R30*
G04 draw part outline for part R30*
G01X20500Y1250D02*
G01X25000Y1250D01*
G01X25000Y1250D02*
G01X25000Y6750D01*
G01X25000Y6750D02*
G01X20500Y6750D01*
G01X20500Y6750D02*
G01X20500Y1250D01*
G04 draw reference designator for part R30*
G01X21500Y2454D02*
G01X21500Y1500D01*
G01X21909Y2454D02*
G01X21500Y2454D01*
G01X21909Y2454D02*
G01X22045Y2409D01*
G01X22045Y2409D02*
G01X22090Y2363D01*
G01X22090Y2363D02*
G01X22136Y2272D01*
G01X22136Y2272D02*
G01X22136Y2181D01*
G01X22136Y2181D02*
G01X22090Y2090D01*
G01X22090Y2090D02*
G01X22045Y2045D01*
G01X22045Y2045D02*
G01X21909Y2000D01*
G01X21500Y2000D02*
G01X21909Y2000D01*
G01X21818Y2000D02*
G01X22136Y1500D01*
G01X23090Y2454D02*
G01X22590Y2454D01*
G01X23090Y2454D02*
G01X22818Y2090D01*
G01X22954Y2090D02*
G01X22818Y2090D01*
G01X22954Y2090D02*
G01X23045Y2045D01*
G01X23045Y2045D02*
G01X23090Y2000D01*
G01X23090Y2000D02*
G01X23136Y1863D01*
G01X23136Y1863D02*
G01X23136Y1772D01*
G01X23136Y1772D02*
G01X23090Y1636D01*
G01X23090Y1636D02*
G01X23000Y1545D01*
G01X23000Y1545D02*
G01X22863Y1500D01*
G01X22727Y1500D02*
G01X22863Y1500D01*
G01X22590Y1545D02*
G01X22727Y1500D01*
G01X22545Y1590D02*
G01X22590Y1545D01*
G01X22500Y1681D02*
G01X22545Y1590D01*
G01X23772Y2454D02*
G01X23636Y2409D01*
G01X23636Y2409D02*
G01X23545Y2272D01*
G01X23545Y2272D02*
G01X23500Y2045D01*
G01X23500Y2045D02*
G01X23500Y1909D01*
G01X23500Y1909D02*
G01X23545Y1681D01*
G01X23545Y1681D02*
G01X23636Y1545D01*
G01X23636Y1545D02*
G01X23772Y1500D01*
G01X23863Y1500D02*
G01X23772Y1500D01*
G01X24000Y1545D02*
G01X23863Y1500D01*
G01X24090Y1681D02*
G01X24000Y1545D01*
G01X24136Y1909D02*
G01X24090Y1681D01*
G01X24136Y2045D02*
G01X24136Y1909D01*
G01X24090Y2272D02*
G01X24136Y2045D01*
G01X24000Y2409D02*
G01X24090Y2272D01*
G01X23863Y2454D02*
G01X24000Y2409D01*
G01X23772Y2454D02*
G01X23863Y2454D01*
G04 Draw part R31*
G04 draw part outline for part R31*
G01X25500Y1250D02*
G01X30000Y1250D01*
G01X30000Y1250D02*
G01X30000Y6750D01*
G01X30000Y6750D02*
G01X25500Y6750D01*
G01X25500Y6750D02*
G01X25500Y1250D01*
G04 draw reference designator for part R31*
G01X26500Y2454D02*
G01X26500Y1500D01*
G01X26909Y2454D02*
G01X26500Y2454D01*
G01X26909Y2454D02*
G01X27045Y2409D01*
G01X27045Y2409D02*
G01X27090Y2363D01*
G01X27090Y2363D02*
G01X27136Y2272D01*
G01X27136Y2272D02*
G01X27136Y2181D01*
G01X27136Y2181D02*
G01X27090Y2090D01*
G01X27090Y2090D02*
G01X27045Y2045D01*
G01X27045Y2045D02*
G01X26909Y2000D01*
G01X26500Y2000D02*
G01X26909Y2000D01*
G01X26818Y2000D02*
G01X27136Y1500D01*
G01X28090Y2454D02*
G01X27590Y2454D01*
G01X28090Y2454D02*
G01X27818Y2090D01*
G01X27954Y2090D02*
G01X27818Y2090D01*
G01X27954Y2090D02*
G01X28045Y2045D01*
G01X28045Y2045D02*
G01X28090Y2000D01*
G01X28090Y2000D02*
G01X28136Y1863D01*
G01X28136Y1863D02*
G01X28136Y1772D01*
G01X28136Y1772D02*
G01X28090Y1636D01*
G01X28090Y1636D02*
G01X28000Y1545D01*
G01X28000Y1545D02*
G01X27863Y1500D01*
G01X27727Y1500D02*
G01X27863Y1500D01*
G01X27590Y1545D02*
G01X27727Y1500D01*
G01X27545Y1590D02*
G01X27590Y1545D01*
G01X27500Y1681D02*
G01X27545Y1590D01*
G01X28590Y2318D02*
G01X28500Y2272D01*
G01X28727Y2454D02*
G01X28590Y2318D01*
G01X28727Y2454D02*
G01X28727Y1500D01*
G04 Draw part R32*
G04 draw part outline for part R32*
G01X30500Y1250D02*
G01X35000Y1250D01*
G01X35000Y1250D02*
G01X35000Y6750D01*
G01X35000Y6750D02*
G01X30500Y6750D01*
G01X30500Y6750D02*
G01X30500Y1250D01*
G04 draw reference designator for part R32*
G01X31250Y2454D02*
G01X31250Y1500D01*
G01X31659Y2454D02*
G01X31250Y2454D01*
G01X31659Y2454D02*
G01X31795Y2409D01*
G01X31795Y2409D02*
G01X31840Y2363D01*
G01X31840Y2363D02*
G01X31886Y2272D01*
G01X31886Y2272D02*
G01X31886Y2181D01*
G01X31886Y2181D02*
G01X31840Y2090D01*
G01X31840Y2090D02*
G01X31795Y2045D01*
G01X31795Y2045D02*
G01X31659Y2000D01*
G01X31250Y2000D02*
G01X31659Y2000D01*
G01X31568Y2000D02*
G01X31886Y1500D01*
G01X32840Y2454D02*
G01X32340Y2454D01*
G01X32840Y2454D02*
G01X32568Y2090D01*
G01X32704Y2090D02*
G01X32568Y2090D01*
G01X32704Y2090D02*
G01X32795Y2045D01*
G01X32795Y2045D02*
G01X32840Y2000D01*
G01X32840Y2000D02*
G01X32886Y1863D01*
G01X32886Y1863D02*
G01X32886Y1772D01*
G01X32886Y1772D02*
G01X32840Y1636D01*
G01X32840Y1636D02*
G01X32750Y1545D01*
G01X32750Y1545D02*
G01X32613Y1500D01*
G01X32477Y1500D02*
G01X32613Y1500D01*
G01X32340Y1545D02*
G01X32477Y1500D01*
G01X32295Y1590D02*
G01X32340Y1545D01*
G01X32250Y1681D02*
G01X32295Y1590D01*
G01X33295Y2272D02*
G01X33295Y2227D01*
G01X33340Y2363D02*
G01X33295Y2272D01*
G01X33386Y2409D02*
G01X33340Y2363D01*
G01X33477Y2454D02*
G01X33386Y2409D01*
G01X33659Y2454D02*
G01X33477Y2454D01*
G01X33659Y2454D02*
G01X33750Y2409D01*
G01X33750Y2409D02*
G01X33795Y2363D01*
G01X33795Y2363D02*
G01X33840Y2272D01*
G01X33840Y2272D02*
G01X33840Y2181D01*
G01X33840Y2181D02*
G01X33795Y2090D01*
G01X33795Y2090D02*
G01X33704Y1954D01*
G01X33704Y1954D02*
G01X33250Y1500D01*
G01X33886Y1500D02*
G01X33250Y1500D01*
G04 Draw part R33*
G04 draw part outline for part R33*
G54D11*
G01X8250Y4500D02*
G01X5750Y4500D01*
G01X5750Y4500D02*
G01X5750Y5500D01*
G01X5750Y5500D02*
G01X8250Y5500D01*
G01X8250Y5500D02*
G01X8250Y4500D01*
G04 draw reference designator for part R33*
G01X6250Y5227D02*
G01X6250Y4750D01*
G01X6454Y5227D02*
G01X6250Y5227D01*
G01X6454Y5227D02*
G01X6522Y5204D01*
G01X6522Y5204D02*
G01X6545Y5181D01*
G01X6545Y5181D02*
G01X6568Y5136D01*
G01X6568Y5136D02*
G01X6568Y5090D01*
G01X6568Y5090D02*
G01X6545Y5045D01*
G01X6545Y5045D02*
G01X6522Y5022D01*
G01X6522Y5022D02*
G01X6454Y5000D01*
G01X6250Y5000D02*
G01X6454Y5000D01*
G01X6409Y5000D02*
G01X6568Y4750D01*
G01X7045Y5227D02*
G01X6795Y5227D01*
G01X7045Y5227D02*
G01X6909Y5045D01*
G01X6977Y5045D02*
G01X6909Y5045D01*
G01X6977Y5045D02*
G01X7022Y5022D01*
G01X7022Y5022D02*
G01X7045Y5000D01*
G01X7045Y5000D02*
G01X7068Y4931D01*
G01X7068Y4931D02*
G01X7068Y4886D01*
G01X7068Y4886D02*
G01X7045Y4818D01*
G01X7045Y4818D02*
G01X7000Y4772D01*
G01X7000Y4772D02*
G01X6931Y4750D01*
G01X6863Y4750D02*
G01X6931Y4750D01*
G01X6795Y4772D02*
G01X6863Y4750D01*
G01X6772Y4795D02*
G01X6795Y4772D01*
G01X6750Y4840D02*
G01X6772Y4795D01*
G01X7545Y5227D02*
G01X7295Y5227D01*
G01X7545Y5227D02*
G01X7409Y5045D01*
G01X7477Y5045D02*
G01X7409Y5045D01*
G01X7477Y5045D02*
G01X7522Y5022D01*
G01X7522Y5022D02*
G01X7545Y5000D01*
G01X7545Y5000D02*
G01X7568Y4931D01*
G01X7568Y4931D02*
G01X7568Y4886D01*
G01X7568Y4886D02*
G01X7545Y4818D01*
G01X7545Y4818D02*
G01X7500Y4772D01*
G01X7500Y4772D02*
G01X7431Y4750D01*
G01X7363Y4750D02*
G01X7431Y4750D01*
G01X7295Y4772D02*
G01X7363Y4750D01*
G01X7272Y4795D02*
G01X7295Y4772D01*
G01X7250Y4840D02*
G01X7272Y4795D01*
G04 Draw part D7*
G04 draw part outline for part D7*
G01X9000Y2100D02*
G01X9039Y2100D01*
G01X9078Y2103D01*
G01X9117Y2107D01*
G01X9156Y2113D01*
G01X9194Y2121D01*
G01X9232Y2130D01*
G01X9270Y2141D01*
G01X9307Y2154D01*
G01X9344Y2168D01*
G01X9380Y2184D01*
G01X9415Y2201D01*
G01X9450Y2220D01*
G01X9483Y2240D01*
G01X9516Y2262D01*
G01X9547Y2285D01*
G01X9578Y2310D01*
G01X9608Y2336D01*
G01X9636Y2363D01*
G01X9663Y2391D01*
G01X9689Y2421D01*
G01X9714Y2452D01*
G01X9737Y2483D01*
G01X9759Y2516D01*
G01X9779Y2550D01*
G01X9798Y2584D01*
G01X9815Y2619D01*
G01X9831Y2655D01*
G01X9845Y2692D01*
G01X9858Y2729D01*
G01X9869Y2767D01*
G01X9878Y2805D01*
G01X9886Y2843D01*
G01X9892Y2882D01*
G01X9896Y2921D01*
G01X9899Y2960D01*
G01X9900Y3000D01*
G01X9900Y3000D02*
G01X9899Y3039D01*
G01X9896Y3078D01*
G01X9892Y3117D01*
G01X9886Y3156D01*
G01X9878Y3194D01*
G01X9869Y3232D01*
G01X9858Y3270D01*
G01X9845Y3307D01*
G01X9831Y3344D01*
G01X9815Y3380D01*
G01X9798Y3415D01*
G01X9779Y3450D01*
G01X9759Y3483D01*
G01X9737Y3516D01*
G01X9714Y3547D01*
G01X9689Y3578D01*
G01X9663Y3608D01*
G01X9636Y3636D01*
G01X9608Y3663D01*
G01X9578Y3689D01*
G01X9547Y3714D01*
G01X9516Y3737D01*
G01X9483Y3759D01*
G01X9449Y3779D01*
G01X9415Y3798D01*
G01X9380Y3815D01*
G01X9344Y3831D01*
G01X9307Y3845D01*
G01X9270Y3858D01*
G01X9232Y3869D01*
G01X9194Y3878D01*
G01X9156Y3886D01*
G01X9117Y3892D01*
G01X9078Y3896D01*
G01X9039Y3899D01*
G01X9000Y3900D01*
G01X9000Y3900D02*
G01X8960Y3899D01*
G01X8921Y3896D01*
G01X8882Y3892D01*
G01X8843Y3886D01*
G01X8805Y3878D01*
G01X8767Y3869D01*
G01X8729Y3858D01*
G01X8692Y3845D01*
G01X8655Y3831D01*
G01X8619Y3815D01*
G01X8584Y3798D01*
G01X8549Y3779D01*
G01X8516Y3759D01*
G01X8483Y3737D01*
G01X8452Y3714D01*
G01X8421Y3689D01*
G01X8391Y3663D01*
G01X8363Y3636D01*
G01X8336Y3608D01*
G01X8310Y3578D01*
G01X8285Y3547D01*
G01X8262Y3516D01*
G01X8240Y3483D01*
G01X8220Y3449D01*
G01X8201Y3415D01*
G01X8184Y3380D01*
G01X8168Y3344D01*
G01X8154Y3307D01*
G01X8141Y3270D01*
G01X8130Y3232D01*
G01X8121Y3194D01*
G01X8113Y3156D01*
G01X8107Y3117D01*
G01X8103Y3078D01*
G01X8100Y3039D01*
G01X8100Y3000D01*
G01X8100Y3000D02*
G01X8100Y2960D01*
G01X8103Y2921D01*
G01X8107Y2882D01*
G01X8113Y2843D01*
G01X8121Y2805D01*
G01X8130Y2767D01*
G01X8141Y2729D01*
G01X8154Y2692D01*
G01X8168Y2655D01*
G01X8184Y2619D01*
G01X8201Y2584D01*
G01X8220Y2549D01*
G01X8240Y2516D01*
G01X8262Y2483D01*
G01X8285Y2452D01*
G01X8310Y2421D01*
G01X8336Y2391D01*
G01X8363Y2363D01*
G01X8391Y2336D01*
G01X8421Y2310D01*
G01X8452Y2285D01*
G01X8483Y2262D01*
G01X8516Y2240D01*
G01X8550Y2220D01*
G01X8584Y2201D01*
G01X8619Y2184D01*
G01X8655Y2168D01*
G01X8692Y2154D01*
G01X8729Y2141D01*
G01X8767Y2130D01*
G01X8805Y2121D01*
G01X8843Y2113D01*
G01X8882Y2107D01*
G01X8921Y2103D01*
G01X8960Y2100D01*
G01X9000Y2100D01*
G54D12*
G01X9000Y3250D02*
G01X9500Y2750D01*
G01X9500Y2750D02*
G01X8500Y2750D01*
G01X8500Y2750D02*
G01X9000Y3250D01*
G01X9400Y3200D02*
G01X10100Y3700D01*
G01X10100Y3700D02*
G01X9700Y3700D01*
G01X10100Y3700D02*
G01X10000Y3300D01*
G04 draw reference designator for part D7*
G54D11*
G01X7250Y4227D02*
G01X7250Y3750D01*
G01X7409Y4227D02*
G01X7250Y4227D01*
G01X7409Y4227D02*
G01X7477Y4204D01*
G01X7477Y4204D02*
G01X7522Y4159D01*
G01X7522Y4159D02*
G01X7545Y4113D01*
G01X7545Y4113D02*
G01X7568Y4045D01*
G01X7568Y4045D02*
G01X7568Y3931D01*
G01X7568Y3931D02*
G01X7545Y3863D01*
G01X7545Y3863D02*
G01X7522Y3818D01*
G01X7522Y3818D02*
G01X7477Y3772D01*
G01X7477Y3772D02*
G01X7409Y3750D01*
G01X7250Y3750D02*
G01X7409Y3750D01*
G01X8068Y4227D02*
G01X7840Y3750D01*
G01X8068Y4227D02*
G01X7750Y4227D01*
G04 Draw part R34*
G04 draw part outline for part R34*
G01X8250Y6000D02*
G01X5750Y6000D01*
G01X5750Y6000D02*
G01X5750Y7000D01*
G01X5750Y7000D02*
G01X8250Y7000D01*
G01X8250Y7000D02*
G01X8250Y6000D01*
G04 draw reference designator for part R34*
G01X6250Y6727D02*
G01X6250Y6250D01*
G01X6454Y6727D02*
G01X6250Y6727D01*
G01X6454Y6727D02*
G01X6522Y6704D01*
G01X6522Y6704D02*
G01X6545Y6681D01*
G01X6545Y6681D02*
G01X6568Y6636D01*
G01X6568Y6636D02*
G01X6568Y6590D01*
G01X6568Y6590D02*
G01X6545Y6545D01*
G01X6545Y6545D02*
G01X6522Y6522D01*
G01X6522Y6522D02*
G01X6454Y6500D01*
G01X6250Y6500D02*
G01X6454Y6500D01*
G01X6409Y6500D02*
G01X6568Y6250D01*
G01X7045Y6727D02*
G01X6795Y6727D01*
G01X7045Y6727D02*
G01X6909Y6545D01*
G01X6977Y6545D02*
G01X6909Y6545D01*
G01X6977Y6545D02*
G01X7022Y6522D01*
G01X7022Y6522D02*
G01X7045Y6500D01*
G01X7045Y6500D02*
G01X7068Y6431D01*
G01X7068Y6431D02*
G01X7068Y6386D01*
G01X7068Y6386D02*
G01X7045Y6318D01*
G01X7045Y6318D02*
G01X7000Y6272D01*
G01X7000Y6272D02*
G01X6931Y6250D01*
G01X6863Y6250D02*
G01X6931Y6250D01*
G01X6795Y6272D02*
G01X6863Y6250D01*
G01X6772Y6295D02*
G01X6795Y6272D01*
G01X6750Y6340D02*
G01X6772Y6295D01*
G01X7477Y6727D02*
G01X7250Y6409D01*
G01X7590Y6409D02*
G01X7250Y6409D01*
G01X7477Y6727D02*
G01X7477Y6250D01*
G04 Draw part D8*
G04 draw part outline for part D8*
G01X5000Y2100D02*
G01X5039Y2100D01*
G01X5078Y2103D01*
G01X5117Y2107D01*
G01X5156Y2113D01*
G01X5194Y2121D01*
G01X5232Y2130D01*
G01X5270Y2141D01*
G01X5307Y2154D01*
G01X5344Y2168D01*
G01X5380Y2184D01*
G01X5415Y2201D01*
G01X5450Y2220D01*
G01X5483Y2240D01*
G01X5516Y2262D01*
G01X5547Y2285D01*
G01X5578Y2310D01*
G01X5608Y2336D01*
G01X5636Y2363D01*
G01X5663Y2391D01*
G01X5689Y2421D01*
G01X5714Y2452D01*
G01X5737Y2483D01*
G01X5759Y2516D01*
G01X5779Y2550D01*
G01X5798Y2584D01*
G01X5815Y2619D01*
G01X5831Y2655D01*
G01X5845Y2692D01*
G01X5858Y2729D01*
G01X5869Y2767D01*
G01X5878Y2805D01*
G01X5886Y2843D01*
G01X5892Y2882D01*
G01X5896Y2921D01*
G01X5899Y2960D01*
G01X5900Y3000D01*
G01X5900Y3000D02*
G01X5899Y3039D01*
G01X5896Y3078D01*
G01X5892Y3117D01*
G01X5886Y3156D01*
G01X5878Y3194D01*
G01X5869Y3232D01*
G01X5858Y3270D01*
G01X5845Y3307D01*
G01X5831Y3344D01*
G01X5815Y3380D01*
G01X5798Y3415D01*
G01X5779Y3450D01*
G01X5759Y3483D01*
G01X5737Y3516D01*
G01X5714Y3547D01*
G01X5689Y3578D01*
G01X5663Y3608D01*
G01X5636Y3636D01*
G01X5608Y3663D01*
G01X5578Y3689D01*
G01X5547Y3714D01*
G01X5516Y3737D01*
G01X5483Y3759D01*
G01X5449Y3779D01*
G01X5415Y3798D01*
G01X5380Y3815D01*
G01X5344Y3831D01*
G01X5307Y3845D01*
G01X5270Y3858D01*
G01X5232Y3869D01*
G01X5194Y3878D01*
G01X5156Y3886D01*
G01X5117Y3892D01*
G01X5078Y3896D01*
G01X5039Y3899D01*
G01X5000Y3900D01*
G01X5000Y3900D02*
G01X4960Y3899D01*
G01X4921Y3896D01*
G01X4882Y3892D01*
G01X4843Y3886D01*
G01X4805Y3878D01*
G01X4767Y3869D01*
G01X4729Y3858D01*
G01X4692Y3845D01*
G01X4655Y3831D01*
G01X4619Y3815D01*
G01X4584Y3798D01*
G01X4549Y3779D01*
G01X4516Y3759D01*
G01X4483Y3737D01*
G01X4452Y3714D01*
G01X4421Y3689D01*
G01X4391Y3663D01*
G01X4363Y3636D01*
G01X4336Y3608D01*
G01X4310Y3578D01*
G01X4285Y3547D01*
G01X4262Y3516D01*
G01X4240Y3483D01*
G01X4220Y3449D01*
G01X4201Y3415D01*
G01X4184Y3380D01*
G01X4168Y3344D01*
G01X4154Y3307D01*
G01X4141Y3270D01*
G01X4130Y3232D01*
G01X4121Y3194D01*
G01X4113Y3156D01*
G01X4107Y3117D01*
G01X4103Y3078D01*
G01X4100Y3039D01*
G01X4100Y3000D01*
G01X4100Y3000D02*
G01X4100Y2960D01*
G01X4103Y2921D01*
G01X4107Y2882D01*
G01X4113Y2843D01*
G01X4121Y2805D01*
G01X4130Y2767D01*
G01X4141Y2729D01*
G01X4154Y2692D01*
G01X4168Y2655D01*
G01X4184Y2619D01*
G01X4201Y2584D01*
G01X4220Y2549D01*
G01X4240Y2516D01*
G01X4262Y2483D01*
G01X4285Y2452D01*
G01X4310Y2421D01*
G01X4336Y2391D01*
G01X4363Y2363D01*
G01X4391Y2336D01*
G01X4421Y2310D01*
G01X4452Y2285D01*
G01X4483Y2262D01*
G01X4516Y2240D01*
G01X4550Y2220D01*
G01X4584Y2201D01*
G01X4619Y2184D01*
G01X4655Y2168D01*
G01X4692Y2154D01*
G01X4729Y2141D01*
G01X4767Y2130D01*
G01X4805Y2121D01*
G01X4843Y2113D01*
G01X4882Y2107D01*
G01X4921Y2103D01*
G01X4960Y2100D01*
G01X5000Y2100D01*
G54D12*
G01X5000Y3250D02*
G01X5500Y2750D01*
G01X5500Y2750D02*
G01X4500Y2750D01*
G01X4500Y2750D02*
G01X5000Y3250D01*
G01X5400Y3200D02*
G01X6100Y3700D01*
G01X6100Y3700D02*
G01X5700Y3700D01*
G01X6100Y3700D02*
G01X6000Y3300D01*
G04 draw reference designator for part D8*
G54D11*
G01X3250Y4227D02*
G01X3250Y3750D01*
G01X3409Y4227D02*
G01X3250Y4227D01*
G01X3409Y4227D02*
G01X3477Y4204D01*
G01X3477Y4204D02*
G01X3522Y4159D01*
G01X3522Y4159D02*
G01X3545Y4113D01*
G01X3545Y4113D02*
G01X3568Y4045D01*
G01X3568Y4045D02*
G01X3568Y3931D01*
G01X3568Y3931D02*
G01X3545Y3863D01*
G01X3545Y3863D02*
G01X3522Y3818D01*
G01X3522Y3818D02*
G01X3477Y3772D01*
G01X3477Y3772D02*
G01X3409Y3750D01*
G01X3250Y3750D02*
G01X3409Y3750D01*
G01X3863Y4227D02*
G01X3795Y4204D01*
G01X3795Y4204D02*
G01X3772Y4159D01*
G01X3772Y4159D02*
G01X3772Y4113D01*
G01X3772Y4113D02*
G01X3795Y4068D01*
G01X3795Y4068D02*
G01X3840Y4045D01*
G01X3840Y4045D02*
G01X3931Y4022D01*
G01X3931Y4022D02*
G01X4000Y4000D01*
G01X4000Y4000D02*
G01X4045Y3954D01*
G01X4045Y3954D02*
G01X4068Y3909D01*
G01X4068Y3909D02*
G01X4068Y3840D01*
G01X4068Y3840D02*
G01X4045Y3795D01*
G01X4045Y3795D02*
G01X4022Y3772D01*
G01X4022Y3772D02*
G01X3954Y3750D01*
G01X3863Y3750D02*
G01X3954Y3750D01*
G01X3795Y3772D02*
G01X3863Y3750D01*
G01X3772Y3795D02*
G01X3795Y3772D01*
G01X3750Y3840D02*
G01X3772Y3795D01*
G01X3750Y3909D02*
G01X3750Y3840D01*
G01X3772Y3954D02*
G01X3750Y3909D01*
G01X3818Y4000D02*
G01X3772Y3954D01*
G01X3886Y4022D02*
G01X3818Y4000D01*
G01X3977Y4045D02*
G01X3886Y4022D01*
G01X4022Y4068D02*
G01X3977Y4045D01*
G01X4045Y4113D02*
G01X4022Y4068D01*
G01X4045Y4159D02*
G01X4045Y4113D01*
G01X4022Y4204D02*
G01X4045Y4159D01*
G01X3954Y4227D02*
G01X4022Y4204D01*
G01X3863Y4227D02*
G01X3954Y4227D01*
G04 Draw part R25*
G04 draw part outline for part R25*
G01X17250Y3750D02*
G01X17250Y6250D01*
G01X17250Y6250D02*
G01X18250Y6250D01*
G01X18250Y6250D02*
G01X18250Y3750D01*
G01X18250Y3750D02*
G01X17250Y3750D01*
G04 draw reference designator for part R25*
G01X17522Y4500D02*
G01X18000Y4500D01*
G01X17522Y4704D02*
G01X17522Y4500D01*
G01X17522Y4704D02*
G01X17545Y4772D01*
G01X17545Y4772D02*
G01X17568Y4795D01*
G01X17568Y4795D02*
G01X17613Y4818D01*
G01X17613Y4818D02*
G01X17659Y4818D01*
G01X17659Y4818D02*
G01X17704Y4795D01*
G01X17704Y4795D02*
G01X17727Y4772D01*
G01X17727Y4772D02*
G01X17750Y4704D01*
G01X17750Y4500D02*
G01X17750Y4704D01*
G01X17750Y4659D02*
G01X18000Y4818D01*
G01X17613Y5022D02*
G01X17636Y5022D01*
G01X17568Y5045D02*
G01X17613Y5022D01*
G01X17545Y5068D02*
G01X17568Y5045D01*
G01X17522Y5113D02*
G01X17545Y5068D01*
G01X17522Y5204D02*
G01X17522Y5113D01*
G01X17522Y5204D02*
G01X17545Y5250D01*
G01X17545Y5250D02*
G01X17568Y5272D01*
G01X17568Y5272D02*
G01X17613Y5295D01*
G01X17613Y5295D02*
G01X17659Y5295D01*
G01X17659Y5295D02*
G01X17704Y5272D01*
G01X17704Y5272D02*
G01X17772Y5227D01*
G01X17772Y5227D02*
G01X18000Y5000D01*
G01X18000Y5318D02*
G01X18000Y5000D01*
G01X17522Y5545D02*
G01X17522Y5772D01*
G01X17522Y5545D02*
G01X17727Y5522D01*
G01X17704Y5545D02*
G01X17727Y5522D01*
G01X17681Y5613D02*
G01X17704Y5545D01*
G01X17681Y5681D02*
G01X17681Y5613D01*
G01X17681Y5681D02*
G01X17704Y5750D01*
G01X17704Y5750D02*
G01X17750Y5795D01*
G01X17750Y5795D02*
G01X17818Y5818D01*
G01X17818Y5818D02*
G01X17863Y5818D01*
G01X17863Y5818D02*
G01X17931Y5795D01*
G01X17931Y5795D02*
G01X17977Y5750D01*
G01X17977Y5750D02*
G01X18000Y5681D01*
G01X18000Y5613D02*
G01X18000Y5681D01*
G01X17977Y5545D02*
G01X18000Y5613D01*
G01X17954Y5522D02*
G01X17977Y5545D01*
G01X17909Y5500D02*
G01X17954Y5522D01*
G04 Draw part R26*
G04 draw part outline for part R26*
G01X22250Y3750D02*
G01X22250Y6250D01*
G01X22250Y6250D02*
G01X23250Y6250D01*
G01X23250Y6250D02*
G01X23250Y3750D01*
G01X23250Y3750D02*
G01X22250Y3750D01*
G04 draw reference designator for part R26*
G01X22522Y4500D02*
G01X23000Y4500D01*
G01X22522Y4704D02*
G01X22522Y4500D01*
G01X22522Y4704D02*
G01X22545Y4772D01*
G01X22545Y4772D02*
G01X22568Y4795D01*
G01X22568Y4795D02*
G01X22613Y4818D01*
G01X22613Y4818D02*
G01X22659Y4818D01*
G01X22659Y4818D02*
G01X22704Y4795D01*
G01X22704Y4795D02*
G01X22727Y4772D01*
G01X22727Y4772D02*
G01X22750Y4704D01*
G01X22750Y4500D02*
G01X22750Y4704D01*
G01X22750Y4659D02*
G01X23000Y4818D01*
G01X22613Y5022D02*
G01X22636Y5022D01*
G01X22568Y5045D02*
G01X22613Y5022D01*
G01X22545Y5068D02*
G01X22568Y5045D01*
G01X22522Y5113D02*
G01X22545Y5068D01*
G01X22522Y5204D02*
G01X22522Y5113D01*
G01X22522Y5204D02*
G01X22545Y5250D01*
G01X22545Y5250D02*
G01X22568Y5272D01*
G01X22568Y5272D02*
G01X22613Y5295D01*
G01X22613Y5295D02*
G01X22659Y5295D01*
G01X22659Y5295D02*
G01X22704Y5272D01*
G01X22704Y5272D02*
G01X22772Y5227D01*
G01X22772Y5227D02*
G01X23000Y5000D01*
G01X23000Y5318D02*
G01X23000Y5000D01*
G01X22545Y5750D02*
G01X22590Y5772D01*
G01X22522Y5681D02*
G01X22545Y5750D01*
G01X22522Y5636D02*
G01X22522Y5681D01*
G01X22522Y5636D02*
G01X22545Y5568D01*
G01X22545Y5568D02*
G01X22613Y5522D01*
G01X22613Y5522D02*
G01X22727Y5500D01*
G01X22727Y5500D02*
G01X22840Y5500D01*
G01X22840Y5500D02*
G01X22931Y5522D01*
G01X22931Y5522D02*
G01X22977Y5568D01*
G01X22977Y5568D02*
G01X23000Y5636D01*
G01X23000Y5659D02*
G01X23000Y5636D01*
G01X22977Y5727D02*
G01X23000Y5659D01*
G01X22931Y5772D02*
G01X22977Y5727D01*
G01X22863Y5795D02*
G01X22931Y5772D01*
G01X22840Y5795D02*
G01X22863Y5795D01*
G01X22772Y5772D02*
G01X22840Y5795D01*
G01X22727Y5727D02*
G01X22772Y5772D01*
G01X22704Y5659D02*
G01X22727Y5727D01*
G01X22704Y5636D02*
G01X22704Y5659D01*
G01X22704Y5636D02*
G01X22727Y5568D01*
G01X22727Y5568D02*
G01X22772Y5522D01*
G01X22772Y5522D02*
G01X22840Y5500D01*
G04 Draw part R27*
G04 draw part outline for part R27*
G01X27250Y3750D02*
G01X27250Y6250D01*
G01X27250Y6250D02*
G01X28250Y6250D01*
G01X28250Y6250D02*
G01X28250Y3750D01*
G01X28250Y3750D02*
G01X27250Y3750D01*
G04 draw reference designator for part R27*
G01X27522Y4500D02*
G01X28000Y4500D01*
G01X27522Y4704D02*
G01X27522Y4500D01*
G01X27522Y4704D02*
G01X27545Y4772D01*
G01X27545Y4772D02*
G01X27568Y4795D01*
G01X27568Y4795D02*
G01X27613Y4818D01*
G01X27613Y4818D02*
G01X27659Y4818D01*
G01X27659Y4818D02*
G01X27704Y4795D01*
G01X27704Y4795D02*
G01X27727Y4772D01*
G01X27727Y4772D02*
G01X27750Y4704D01*
G01X27750Y4500D02*
G01X27750Y4704D01*
G01X27750Y4659D02*
G01X28000Y4818D01*
G01X27613Y5022D02*
G01X27636Y5022D01*
G01X27568Y5045D02*
G01X27613Y5022D01*
G01X27545Y5068D02*
G01X27568Y5045D01*
G01X27522Y5113D02*
G01X27545Y5068D01*
G01X27522Y5204D02*
G01X27522Y5113D01*
G01X27522Y5204D02*
G01X27545Y5250D01*
G01X27545Y5250D02*
G01X27568Y5272D01*
G01X27568Y5272D02*
G01X27613Y5295D01*
G01X27613Y5295D02*
G01X27659Y5295D01*
G01X27659Y5295D02*
G01X27704Y5272D01*
G01X27704Y5272D02*
G01X27772Y5227D01*
G01X27772Y5227D02*
G01X28000Y5000D01*
G01X28000Y5318D02*
G01X28000Y5000D01*
G01X27522Y5818D02*
G01X28000Y5590D01*
G01X27522Y5818D02*
G01X27522Y5500D01*
G04 Draw part R28*
G04 draw part outline for part R28*
G01X32250Y3750D02*
G01X32250Y6250D01*
G01X32250Y6250D02*
G01X33250Y6250D01*
G01X33250Y6250D02*
G01X33250Y3750D01*
G01X33250Y3750D02*
G01X32250Y3750D01*
G04 draw reference designator for part R28*
G01X32522Y4500D02*
G01X33000Y4500D01*
G01X32522Y4704D02*
G01X32522Y4500D01*
G01X32522Y4704D02*
G01X32545Y4772D01*
G01X32545Y4772D02*
G01X32568Y4795D01*
G01X32568Y4795D02*
G01X32613Y4818D01*
G01X32613Y4818D02*
G01X32659Y4818D01*
G01X32659Y4818D02*
G01X32704Y4795D01*
G01X32704Y4795D02*
G01X32727Y4772D01*
G01X32727Y4772D02*
G01X32750Y4704D01*
G01X32750Y4500D02*
G01X32750Y4704D01*
G01X32750Y4659D02*
G01X33000Y4818D01*
G01X32613Y5022D02*
G01X32636Y5022D01*
G01X32568Y5045D02*
G01X32613Y5022D01*
G01X32545Y5068D02*
G01X32568Y5045D01*
G01X32522Y5113D02*
G01X32545Y5068D01*
G01X32522Y5204D02*
G01X32522Y5113D01*
G01X32522Y5204D02*
G01X32545Y5250D01*
G01X32545Y5250D02*
G01X32568Y5272D01*
G01X32568Y5272D02*
G01X32613Y5295D01*
G01X32613Y5295D02*
G01X32659Y5295D01*
G01X32659Y5295D02*
G01X32704Y5272D01*
G01X32704Y5272D02*
G01X32772Y5227D01*
G01X32772Y5227D02*
G01X33000Y5000D01*
G01X33000Y5318D02*
G01X33000Y5000D01*
G01X32522Y5613D02*
G01X32545Y5545D01*
G01X32545Y5545D02*
G01X32590Y5522D01*
G01X32590Y5522D02*
G01X32636Y5522D01*
G01X32636Y5522D02*
G01X32681Y5545D01*
G01X32681Y5545D02*
G01X32704Y5590D01*
G01X32704Y5590D02*
G01X32727Y5681D01*
G01X32727Y5681D02*
G01X32750Y5750D01*
G01X32750Y5750D02*
G01X32795Y5795D01*
G01X32795Y5795D02*
G01X32840Y5818D01*
G01X32840Y5818D02*
G01X32909Y5818D01*
G01X32909Y5818D02*
G01X32954Y5795D01*
G01X32954Y5795D02*
G01X32977Y5772D01*
G01X32977Y5772D02*
G01X33000Y5704D01*
G01X33000Y5613D02*
G01X33000Y5704D01*
G01X32977Y5545D02*
G01X33000Y5613D01*
G01X32954Y5522D02*
G01X32977Y5545D01*
G01X32909Y5500D02*
G01X32954Y5522D01*
G01X32840Y5500D02*
G01X32909Y5500D01*
G01X32795Y5522D02*
G01X32840Y5500D01*
G01X32750Y5568D02*
G01X32795Y5522D01*
G01X32727Y5636D02*
G01X32750Y5568D01*
G01X32704Y5727D02*
G01X32727Y5636D01*
G01X32681Y5772D02*
G01X32704Y5727D01*
G01X32636Y5795D02*
G01X32681Y5772D01*
G01X32590Y5795D02*
G01X32636Y5795D01*
G01X32545Y5772D02*
G01X32590Y5795D01*
G01X32522Y5704D02*
G01X32545Y5772D01*
G01X32522Y5613D02*
G01X32522Y5704D01*
G04 Draw part R37*
G04 draw part outline for part R37*
G01X15250Y7500D02*
G01X12750Y7500D01*
G01X12750Y7500D02*
G01X12750Y8500D01*
G01X12750Y8500D02*
G01X15250Y8500D01*
G01X15250Y8500D02*
G01X15250Y7500D01*
G04 draw reference designator for part R37*
G01X13250Y8227D02*
G01X13250Y7750D01*
G01X13454Y8227D02*
G01X13250Y8227D01*
G01X13454Y8227D02*
G01X13522Y8204D01*
G01X13522Y8204D02*
G01X13545Y8181D01*
G01X13545Y8181D02*
G01X13568Y8136D01*
G01X13568Y8136D02*
G01X13568Y8090D01*
G01X13568Y8090D02*
G01X13545Y8045D01*
G01X13545Y8045D02*
G01X13522Y8022D01*
G01X13522Y8022D02*
G01X13454Y8000D01*
G01X13250Y8000D02*
G01X13454Y8000D01*
G01X13409Y8000D02*
G01X13568Y7750D01*
G01X14045Y8227D02*
G01X13795Y8227D01*
G01X14045Y8227D02*
G01X13909Y8045D01*
G01X13977Y8045D02*
G01X13909Y8045D01*
G01X13977Y8045D02*
G01X14022Y8022D01*
G01X14022Y8022D02*
G01X14045Y8000D01*
G01X14045Y8000D02*
G01X14068Y7931D01*
G01X14068Y7931D02*
G01X14068Y7886D01*
G01X14068Y7886D02*
G01X14045Y7818D01*
G01X14045Y7818D02*
G01X14000Y7772D01*
G01X14000Y7772D02*
G01X13931Y7750D01*
G01X13863Y7750D02*
G01X13931Y7750D01*
G01X13795Y7772D02*
G01X13863Y7750D01*
G01X13772Y7795D02*
G01X13795Y7772D01*
G01X13750Y7840D02*
G01X13772Y7795D01*
G01X14568Y8227D02*
G01X14340Y7750D01*
G01X14568Y8227D02*
G01X14250Y8227D01*
G04 Draw part R35*
G04 draw part outline for part R35*
G01X31750Y23500D02*
G01X34250Y23500D01*
G01X34250Y23500D02*
G01X34250Y22500D01*
G01X34250Y22500D02*
G01X31750Y22500D01*
G01X31750Y22500D02*
G01X31750Y23500D01*
G04 draw reference designator for part R35*
G01X32250Y23227D02*
G01X32250Y22750D01*
G01X32454Y23227D02*
G01X32250Y23227D01*
G01X32454Y23227D02*
G01X32522Y23204D01*
G01X32522Y23204D02*
G01X32545Y23181D01*
G01X32545Y23181D02*
G01X32568Y23136D01*
G01X32568Y23136D02*
G01X32568Y23090D01*
G01X32568Y23090D02*
G01X32545Y23045D01*
G01X32545Y23045D02*
G01X32522Y23022D01*
G01X32522Y23022D02*
G01X32454Y23000D01*
G01X32250Y23000D02*
G01X32454Y23000D01*
G01X32409Y23000D02*
G01X32568Y22750D01*
G01X33045Y23227D02*
G01X32795Y23227D01*
G01X33045Y23227D02*
G01X32909Y23045D01*
G01X32977Y23045D02*
G01X32909Y23045D01*
G01X32977Y23045D02*
G01X33022Y23022D01*
G01X33022Y23022D02*
G01X33045Y23000D01*
G01X33045Y23000D02*
G01X33068Y22931D01*
G01X33068Y22931D02*
G01X33068Y22886D01*
G01X33068Y22886D02*
G01X33045Y22818D01*
G01X33045Y22818D02*
G01X33000Y22772D01*
G01X33000Y22772D02*
G01X32931Y22750D01*
G01X32863Y22750D02*
G01X32931Y22750D01*
G01X32795Y22772D02*
G01X32863Y22750D01*
G01X32772Y22795D02*
G01X32795Y22772D01*
G01X32750Y22840D02*
G01X32772Y22795D01*
G01X33295Y23227D02*
G01X33522Y23227D01*
G01X33295Y23227D02*
G01X33272Y23022D01*
G01X33295Y23045D02*
G01X33272Y23022D01*
G01X33363Y23068D02*
G01X33295Y23045D01*
G01X33431Y23068D02*
G01X33363Y23068D01*
G01X33431Y23068D02*
G01X33500Y23045D01*
G01X33500Y23045D02*
G01X33545Y23000D01*
G01X33545Y23000D02*
G01X33568Y22931D01*
G01X33568Y22931D02*
G01X33568Y22886D01*
G01X33568Y22886D02*
G01X33545Y22818D01*
G01X33545Y22818D02*
G01X33500Y22772D01*
G01X33500Y22772D02*
G01X33431Y22750D01*
G01X33363Y22750D02*
G01X33431Y22750D01*
G01X33295Y22772D02*
G01X33363Y22750D01*
G01X33272Y22795D02*
G01X33295Y22772D01*
G01X33250Y22840D02*
G01X33272Y22795D01*
G04 Draw part D9*
G04 draw part outline for part D9*
G01X31000Y20900D02*
G01X30960Y20899D01*
G01X30921Y20896D01*
G01X30882Y20892D01*
G01X30843Y20886D01*
G01X30805Y20878D01*
G01X30767Y20869D01*
G01X30729Y20858D01*
G01X30692Y20845D01*
G01X30655Y20831D01*
G01X30619Y20815D01*
G01X30584Y20798D01*
G01X30549Y20779D01*
G01X30516Y20759D01*
G01X30483Y20737D01*
G01X30452Y20714D01*
G01X30421Y20689D01*
G01X30391Y20663D01*
G01X30363Y20636D01*
G01X30336Y20608D01*
G01X30310Y20578D01*
G01X30285Y20547D01*
G01X30262Y20516D01*
G01X30240Y20483D01*
G01X30220Y20449D01*
G01X30201Y20415D01*
G01X30184Y20380D01*
G01X30168Y20344D01*
G01X30154Y20307D01*
G01X30141Y20270D01*
G01X30130Y20232D01*
G01X30121Y20194D01*
G01X30113Y20156D01*
G01X30107Y20117D01*
G01X30103Y20078D01*
G01X30100Y20039D01*
G01X30100Y20000D01*
G01X30100Y20000D02*
G01X30100Y19960D01*
G01X30103Y19921D01*
G01X30107Y19882D01*
G01X30113Y19843D01*
G01X30121Y19805D01*
G01X30130Y19767D01*
G01X30141Y19729D01*
G01X30154Y19692D01*
G01X30168Y19655D01*
G01X30184Y19619D01*
G01X30201Y19584D01*
G01X30220Y19549D01*
G01X30240Y19516D01*
G01X30262Y19483D01*
G01X30285Y19452D01*
G01X30310Y19421D01*
G01X30336Y19391D01*
G01X30363Y19363D01*
G01X30391Y19336D01*
G01X30421Y19310D01*
G01X30452Y19285D01*
G01X30483Y19262D01*
G01X30516Y19240D01*
G01X30550Y19220D01*
G01X30584Y19201D01*
G01X30619Y19184D01*
G01X30655Y19168D01*
G01X30692Y19154D01*
G01X30729Y19141D01*
G01X30767Y19130D01*
G01X30805Y19121D01*
G01X30843Y19113D01*
G01X30882Y19107D01*
G01X30921Y19103D01*
G01X30960Y19100D01*
G01X31000Y19100D01*
G01X31000Y19100D02*
G01X31039Y19100D01*
G01X31078Y19103D01*
G01X31117Y19107D01*
G01X31156Y19113D01*
G01X31194Y19121D01*
G01X31232Y19130D01*
G01X31270Y19141D01*
G01X31307Y19154D01*
G01X31344Y19168D01*
G01X31380Y19184D01*
G01X31415Y19201D01*
G01X31450Y19220D01*
G01X31483Y19240D01*
G01X31516Y19262D01*
G01X31547Y19285D01*
G01X31578Y19310D01*
G01X31608Y19336D01*
G01X31636Y19363D01*
G01X31663Y19391D01*
G01X31689Y19421D01*
G01X31714Y19452D01*
G01X31737Y19483D01*
G01X31759Y19516D01*
G01X31779Y19550D01*
G01X31798Y19584D01*
G01X31815Y19619D01*
G01X31831Y19655D01*
G01X31845Y19692D01*
G01X31858Y19729D01*
G01X31869Y19767D01*
G01X31878Y19805D01*
G01X31886Y19843D01*
G01X31892Y19882D01*
G01X31896Y19921D01*
G01X31899Y19960D01*
G01X31900Y20000D01*
G01X31900Y20000D02*
G01X31899Y20039D01*
G01X31896Y20078D01*
G01X31892Y20117D01*
G01X31886Y20156D01*
G01X31878Y20194D01*
G01X31869Y20232D01*
G01X31858Y20270D01*
G01X31845Y20307D01*
G01X31831Y20344D01*
G01X31815Y20380D01*
G01X31798Y20415D01*
G01X31779Y20450D01*
G01X31759Y20483D01*
G01X31737Y20516D01*
G01X31714Y20547D01*
G01X31689Y20578D01*
G01X31663Y20608D01*
G01X31636Y20636D01*
G01X31608Y20663D01*
G01X31578Y20689D01*
G01X31547Y20714D01*
G01X31516Y20737D01*
G01X31483Y20759D01*
G01X31449Y20779D01*
G01X31415Y20798D01*
G01X31380Y20815D01*
G01X31344Y20831D01*
G01X31307Y20845D01*
G01X31270Y20858D01*
G01X31232Y20869D01*
G01X31194Y20878D01*
G01X31156Y20886D01*
G01X31117Y20892D01*
G01X31078Y20896D01*
G01X31039Y20899D01*
G01X31000Y20900D01*
G54D12*
G01X31000Y19750D02*
G01X30500Y20250D01*
G01X30500Y20250D02*
G01X31500Y20250D01*
G01X31500Y20250D02*
G01X31000Y19750D01*
G01X30600Y19800D02*
G01X29900Y19300D01*
G01X29900Y19300D02*
G01X30300Y19300D01*
G01X29900Y19300D02*
G01X30000Y19700D01*
G04 draw reference designator for part D9*
G54D11*
G01X29000Y20977D02*
G01X29000Y20500D01*
G01X29159Y20977D02*
G01X29000Y20977D01*
G01X29159Y20977D02*
G01X29227Y20954D01*
G01X29227Y20954D02*
G01X29272Y20909D01*
G01X29272Y20909D02*
G01X29295Y20863D01*
G01X29295Y20863D02*
G01X29318Y20795D01*
G01X29318Y20795D02*
G01X29318Y20681D01*
G01X29318Y20681D02*
G01X29295Y20613D01*
G01X29295Y20613D02*
G01X29272Y20568D01*
G01X29272Y20568D02*
G01X29227Y20522D01*
G01X29227Y20522D02*
G01X29159Y20500D01*
G01X29000Y20500D02*
G01X29159Y20500D01*
G01X29795Y20818D02*
G01X29772Y20750D01*
G01X29772Y20750D02*
G01X29727Y20704D01*
G01X29727Y20704D02*
G01X29659Y20681D01*
G01X29636Y20681D02*
G01X29659Y20681D01*
G01X29568Y20704D02*
G01X29636Y20681D01*
G01X29522Y20750D02*
G01X29568Y20704D01*
G01X29500Y20818D02*
G01X29522Y20750D01*
G01X29500Y20840D02*
G01X29500Y20818D01*
G01X29522Y20909D02*
G01X29500Y20840D01*
G01X29568Y20954D02*
G01X29522Y20909D01*
G01X29636Y20977D02*
G01X29568Y20954D01*
G01X29659Y20977D02*
G01X29636Y20977D01*
G01X29659Y20977D02*
G01X29727Y20954D01*
G01X29727Y20954D02*
G01X29772Y20909D01*
G01X29772Y20909D02*
G01X29795Y20818D01*
G01X29795Y20818D02*
G01X29795Y20704D01*
G01X29795Y20704D02*
G01X29772Y20590D01*
G01X29772Y20590D02*
G01X29727Y20522D01*
G01X29727Y20522D02*
G01X29659Y20500D01*
G01X29613Y20500D02*
G01X29659Y20500D01*
G01X29545Y20522D02*
G01X29613Y20500D01*
G01X29522Y20568D02*
G01X29545Y20522D01*
G04 Draw part R36*
G04 draw part outline for part R36*
G01X31750Y22500D02*
G01X34250Y22500D01*
G01X34250Y22500D02*
G01X34250Y21500D01*
G01X34250Y21500D02*
G01X31750Y21500D01*
G01X31750Y21500D02*
G01X31750Y22500D01*
G04 draw reference designator for part R36*
G01X32250Y22227D02*
G01X32250Y21750D01*
G01X32454Y22227D02*
G01X32250Y22227D01*
G01X32454Y22227D02*
G01X32522Y22204D01*
G01X32522Y22204D02*
G01X32545Y22181D01*
G01X32545Y22181D02*
G01X32568Y22136D01*
G01X32568Y22136D02*
G01X32568Y22090D01*
G01X32568Y22090D02*
G01X32545Y22045D01*
G01X32545Y22045D02*
G01X32522Y22022D01*
G01X32522Y22022D02*
G01X32454Y22000D01*
G01X32250Y22000D02*
G01X32454Y22000D01*
G01X32409Y22000D02*
G01X32568Y21750D01*
G01X33045Y22227D02*
G01X32795Y22227D01*
G01X33045Y22227D02*
G01X32909Y22045D01*
G01X32977Y22045D02*
G01X32909Y22045D01*
G01X32977Y22045D02*
G01X33022Y22022D01*
G01X33022Y22022D02*
G01X33045Y22000D01*
G01X33045Y22000D02*
G01X33068Y21931D01*
G01X33068Y21931D02*
G01X33068Y21886D01*
G01X33068Y21886D02*
G01X33045Y21818D01*
G01X33045Y21818D02*
G01X33000Y21772D01*
G01X33000Y21772D02*
G01X32931Y21750D01*
G01X32863Y21750D02*
G01X32931Y21750D01*
G01X32795Y21772D02*
G01X32863Y21750D01*
G01X32772Y21795D02*
G01X32795Y21772D01*
G01X32750Y21840D02*
G01X32772Y21795D01*
G01X33500Y22204D02*
G01X33522Y22159D01*
G01X33431Y22227D02*
G01X33500Y22204D01*
G01X33386Y22227D02*
G01X33431Y22227D01*
G01X33386Y22227D02*
G01X33318Y22204D01*
G01X33318Y22204D02*
G01X33272Y22136D01*
G01X33272Y22136D02*
G01X33250Y22022D01*
G01X33250Y22022D02*
G01X33250Y21909D01*
G01X33250Y21909D02*
G01X33272Y21818D01*
G01X33272Y21818D02*
G01X33318Y21772D01*
G01X33318Y21772D02*
G01X33386Y21750D01*
G01X33409Y21750D02*
G01X33386Y21750D01*
G01X33477Y21772D02*
G01X33409Y21750D01*
G01X33522Y21818D02*
G01X33477Y21772D01*
G01X33545Y21886D02*
G01X33522Y21818D01*
G01X33545Y21909D02*
G01X33545Y21886D01*
G01X33522Y21977D02*
G01X33545Y21909D01*
G01X33477Y22022D02*
G01X33522Y21977D01*
G01X33409Y22045D02*
G01X33477Y22022D01*
G01X33386Y22045D02*
G01X33409Y22045D01*
G01X33386Y22045D02*
G01X33318Y22022D01*
G01X33318Y22022D02*
G01X33272Y21977D01*
G01X33272Y21977D02*
G01X33250Y21909D01*
G04 Draw part D10*
G04 draw part outline for part D10*
G01X35000Y20900D02*
G01X34960Y20899D01*
G01X34921Y20896D01*
G01X34882Y20892D01*
G01X34843Y20886D01*
G01X34805Y20878D01*
G01X34767Y20869D01*
G01X34729Y20858D01*
G01X34692Y20845D01*
G01X34655Y20831D01*
G01X34619Y20815D01*
G01X34584Y20798D01*
G01X34549Y20779D01*
G01X34516Y20759D01*
G01X34483Y20737D01*
G01X34452Y20714D01*
G01X34421Y20689D01*
G01X34391Y20663D01*
G01X34363Y20636D01*
G01X34336Y20608D01*
G01X34310Y20578D01*
G01X34285Y20547D01*
G01X34262Y20516D01*
G01X34240Y20483D01*
G01X34220Y20449D01*
G01X34201Y20415D01*
G01X34184Y20380D01*
G01X34168Y20344D01*
G01X34154Y20307D01*
G01X34141Y20270D01*
G01X34130Y20232D01*
G01X34121Y20194D01*
G01X34113Y20156D01*
G01X34107Y20117D01*
G01X34103Y20078D01*
G01X34100Y20039D01*
G01X34100Y20000D01*
G01X34100Y20000D02*
G01X34100Y19960D01*
G01X34103Y19921D01*
G01X34107Y19882D01*
G01X34113Y19843D01*
G01X34121Y19805D01*
G01X34130Y19767D01*
G01X34141Y19729D01*
G01X34154Y19692D01*
G01X34168Y19655D01*
G01X34184Y19619D01*
G01X34201Y19584D01*
G01X34220Y19549D01*
G01X34240Y19516D01*
G01X34262Y19483D01*
G01X34285Y19452D01*
G01X34310Y19421D01*
G01X34336Y19391D01*
G01X34363Y19363D01*
G01X34391Y19336D01*
G01X34421Y19310D01*
G01X34452Y19285D01*
G01X34483Y19262D01*
G01X34516Y19240D01*
G01X34550Y19220D01*
G01X34584Y19201D01*
G01X34619Y19184D01*
G01X34655Y19168D01*
G01X34692Y19154D01*
G01X34729Y19141D01*
G01X34767Y19130D01*
G01X34805Y19121D01*
G01X34843Y19113D01*
G01X34882Y19107D01*
G01X34921Y19103D01*
G01X34960Y19100D01*
G01X35000Y19100D01*
G01X35000Y19100D02*
G01X35039Y19100D01*
G01X35078Y19103D01*
G01X35117Y19107D01*
G01X35156Y19113D01*
G01X35194Y19121D01*
G01X35232Y19130D01*
G01X35270Y19141D01*
G01X35307Y19154D01*
G01X35344Y19168D01*
G01X35380Y19184D01*
G01X35415Y19201D01*
G01X35450Y19220D01*
G01X35483Y19240D01*
G01X35516Y19262D01*
G01X35547Y19285D01*
G01X35578Y19310D01*
G01X35608Y19336D01*
G01X35636Y19363D01*
G01X35663Y19391D01*
G01X35689Y19421D01*
G01X35714Y19452D01*
G01X35737Y19483D01*
G01X35759Y19516D01*
G01X35779Y19550D01*
G01X35798Y19584D01*
G01X35815Y19619D01*
G01X35831Y19655D01*
G01X35845Y19692D01*
G01X35858Y19729D01*
G01X35869Y19767D01*
G01X35878Y19805D01*
G01X35886Y19843D01*
G01X35892Y19882D01*
G01X35896Y19921D01*
G01X35899Y19960D01*
G01X35900Y20000D01*
G01X35900Y20000D02*
G01X35899Y20039D01*
G01X35896Y20078D01*
G01X35892Y20117D01*
G01X35886Y20156D01*
G01X35878Y20194D01*
G01X35869Y20232D01*
G01X35858Y20270D01*
G01X35845Y20307D01*
G01X35831Y20344D01*
G01X35815Y20380D01*
G01X35798Y20415D01*
G01X35779Y20450D01*
G01X35759Y20483D01*
G01X35737Y20516D01*
G01X35714Y20547D01*
G01X35689Y20578D01*
G01X35663Y20608D01*
G01X35636Y20636D01*
G01X35608Y20663D01*
G01X35578Y20689D01*
G01X35547Y20714D01*
G01X35516Y20737D01*
G01X35483Y20759D01*
G01X35449Y20779D01*
G01X35415Y20798D01*
G01X35380Y20815D01*
G01X35344Y20831D01*
G01X35307Y20845D01*
G01X35270Y20858D01*
G01X35232Y20869D01*
G01X35194Y20878D01*
G01X35156Y20886D01*
G01X35117Y20892D01*
G01X35078Y20896D01*
G01X35039Y20899D01*
G01X35000Y20900D01*
G54D12*
G01X35000Y19750D02*
G01X34500Y20250D01*
G01X34500Y20250D02*
G01X35500Y20250D01*
G01X35500Y20250D02*
G01X35000Y19750D01*
G01X34600Y19800D02*
G01X33900Y19300D01*
G01X33900Y19300D02*
G01X34300Y19300D01*
G01X33900Y19300D02*
G01X34000Y19700D01*
G04 draw reference designator for part D10*
G54D11*
G01X32750Y20977D02*
G01X32750Y20500D01*
G01X32909Y20977D02*
G01X32750Y20977D01*
G01X32909Y20977D02*
G01X32977Y20954D01*
G01X32977Y20954D02*
G01X33022Y20909D01*
G01X33022Y20909D02*
G01X33045Y20863D01*
G01X33045Y20863D02*
G01X33068Y20795D01*
G01X33068Y20795D02*
G01X33068Y20681D01*
G01X33068Y20681D02*
G01X33045Y20613D01*
G01X33045Y20613D02*
G01X33022Y20568D01*
G01X33022Y20568D02*
G01X32977Y20522D01*
G01X32977Y20522D02*
G01X32909Y20500D01*
G01X32750Y20500D02*
G01X32909Y20500D01*
G01X33295Y20909D02*
G01X33250Y20886D01*
G01X33363Y20977D02*
G01X33295Y20909D01*
G01X33363Y20977D02*
G01X33363Y20500D01*
G01X33681Y20977D02*
G01X33613Y20954D01*
G01X33613Y20954D02*
G01X33568Y20886D01*
G01X33568Y20886D02*
G01X33545Y20772D01*
G01X33545Y20772D02*
G01X33545Y20704D01*
G01X33545Y20704D02*
G01X33568Y20590D01*
G01X33568Y20590D02*
G01X33613Y20522D01*
G01X33613Y20522D02*
G01X33681Y20500D01*
G01X33727Y20500D02*
G01X33681Y20500D01*
G01X33795Y20522D02*
G01X33727Y20500D01*
G01X33840Y20590D02*
G01X33795Y20522D01*
G01X33863Y20704D02*
G01X33840Y20590D01*
G01X33863Y20772D02*
G01X33863Y20704D01*
G01X33840Y20886D02*
G01X33863Y20772D01*
G01X33795Y20954D02*
G01X33840Y20886D01*
G01X33727Y20977D02*
G01X33795Y20954D01*
G01X33681Y20977D02*
G01X33727Y20977D01*
G04 Draw part K1*
G04 draw part outline for part K1*
G54D12*
G01X11750Y32000D02*
G01X24250Y32000D01*
G01X24250Y32000D02*
G01X24250Y36500D01*
G01X24250Y36500D02*
G01X11750Y36500D01*
G01X11750Y36500D02*
G01X11750Y32000D01*
G01X15000Y36500D02*
G01X15000Y38500D01*
G01X15000Y38500D02*
G01X21000Y38500D01*
G01X21000Y38500D02*
G01X21000Y36500D01*
G04 draw reference designator for part K1*
G01X15000Y41454D02*
G01X15000Y40500D01*
G01X15636Y41454D02*
G01X15000Y40818D01*
G01X15227Y41045D02*
G01X15636Y40500D01*
G01X16090Y41318D02*
G01X16000Y41272D01*
G01X16227Y41454D02*
G01X16090Y41318D01*
G01X16227Y41454D02*
G01X16227Y40500D01*
G04 Draw part K2*
G04 draw part outline for part K2*
G01X28750Y36750D02*
G01X28750Y32750D01*
G01X28750Y32750D02*
G01X33500Y32750D01*
G01X33500Y32750D02*
G01X33500Y36750D01*
G01X33500Y36750D02*
G01X28750Y36750D01*
G04 draw reference designator for part K2*
G01X30000Y35704D02*
G01X30000Y34750D01*
G01X30636Y35704D02*
G01X30000Y35068D01*
G01X30227Y35295D02*
G01X30636Y34750D01*
G01X31045Y35522D02*
G01X31045Y35477D01*
G01X31090Y35613D02*
G01X31045Y35522D01*
G01X31136Y35659D02*
G01X31090Y35613D01*
G01X31227Y35704D02*
G01X31136Y35659D01*
G01X31409Y35704D02*
G01X31227Y35704D01*
G01X31409Y35704D02*
G01X31500Y35659D01*
G01X31500Y35659D02*
G01X31545Y35613D01*
G01X31545Y35613D02*
G01X31590Y35522D01*
G01X31590Y35522D02*
G01X31590Y35431D01*
G01X31590Y35431D02*
G01X31545Y35340D01*
G01X31545Y35340D02*
G01X31454Y35204D01*
G01X31454Y35204D02*
G01X31000Y34750D01*
G01X31636Y34750D02*
G01X31000Y34750D01*
G04 Draw part MH*
G04 draw part outline for part MH*
G04 draw reference designator for part MH*
G54D10*
G01X2000Y35477D02*
G01X2000Y35000D01*
G01X2000Y35477D02*
G01X2181Y35000D01*
G01X2363Y35477D02*
G01X2181Y35000D01*
G01X2363Y35477D02*
G01X2363Y35000D01*
G01X2545Y35477D02*
G01X2545Y35000D01*
G01X2863Y35477D02*
G01X2863Y35000D01*
G01X2863Y35250D02*
G01X2545Y35250D01*
G04 Draw part MH2*
G04 draw part outline for part MH2*
G04 draw reference designator for part MH2*
G01X35000Y35477D02*
G01X35000Y35000D01*
G01X35000Y35477D02*
G01X35181Y35000D01*
G01X35363Y35477D02*
G01X35181Y35000D01*
G01X35363Y35477D02*
G01X35363Y35000D01*
G01X35545Y35477D02*
G01X35545Y35000D01*
G01X35863Y35477D02*
G01X35863Y35000D01*
G01X35863Y35250D02*
G01X35545Y35250D01*
G01X36068Y35386D02*
G01X36068Y35363D01*
G01X36090Y35431D02*
G01X36068Y35386D01*
G01X36113Y35454D02*
G01X36090Y35431D01*
G01X36159Y35477D02*
G01X36113Y35454D01*
G01X36250Y35477D02*
G01X36159Y35477D01*
G01X36250Y35477D02*
G01X36295Y35454D01*
G01X36295Y35454D02*
G01X36318Y35431D01*
G01X36318Y35431D02*
G01X36340Y35386D01*
G01X36340Y35386D02*
G01X36340Y35340D01*
G01X36340Y35340D02*
G01X36318Y35295D01*
G01X36318Y35295D02*
G01X36272Y35227D01*
G01X36272Y35227D02*
G01X36045Y35000D01*
G01X36363Y35000D02*
G01X36045Y35000D01*
G04 Draw part MH3*
G04 draw part outline for part MH3*
G04 draw reference designator for part MH3*
G01X35000Y10477D02*
G01X35000Y10000D01*
G01X35000Y10477D02*
G01X35181Y10000D01*
G01X35363Y10477D02*
G01X35181Y10000D01*
G01X35363Y10477D02*
G01X35363Y10000D01*
G01X35545Y10477D02*
G01X35545Y10000D01*
G01X35863Y10477D02*
G01X35863Y10000D01*
G01X35863Y10250D02*
G01X35545Y10250D01*
G01X36340Y10477D02*
G01X36090Y10477D01*
G01X36340Y10477D02*
G01X36204Y10295D01*
G01X36272Y10295D02*
G01X36204Y10295D01*
G01X36272Y10295D02*
G01X36318Y10272D01*
G01X36318Y10272D02*
G01X36340Y10250D01*
G01X36340Y10250D02*
G01X36363Y10181D01*
G01X36363Y10181D02*
G01X36363Y10136D01*
G01X36363Y10136D02*
G01X36340Y10068D01*
G01X36340Y10068D02*
G01X36295Y10022D01*
G01X36295Y10022D02*
G01X36227Y10000D01*
G01X36159Y10000D02*
G01X36227Y10000D01*
G01X36090Y10022D02*
G01X36159Y10000D01*
G01X36068Y10045D02*
G01X36090Y10022D01*
G01X36045Y10090D02*
G01X36068Y10045D01*
G04 Draw part MH4*
G04 draw part outline for part MH4*
G04 draw reference designator for part MH4*
G01X2000Y1477D02*
G01X2000Y1000D01*
G01X2000Y1477D02*
G01X2181Y1000D01*
G01X2363Y1477D02*
G01X2181Y1000D01*
G01X2363Y1477D02*
G01X2363Y1000D01*
G01X2545Y1477D02*
G01X2545Y1000D01*
G01X2863Y1477D02*
G01X2863Y1000D01*
G01X2863Y1250D02*
G01X2545Y1250D01*
G01X3272Y1477D02*
G01X3045Y1159D01*
G01X3386Y1159D02*
G01X3045Y1159D01*
G01X3272Y1477D02*
G01X3272Y1000D01*
G04 Draw part S1*
G04 draw part outline for part S1*
G54D12*
G01X14250Y2250D02*
G01X14250Y5250D01*
G01X14250Y5250D02*
G01X11000Y5250D01*
G01X11000Y5250D02*
G01X11000Y2250D01*
G01X11000Y2250D02*
G01X14250Y2250D01*
G01X12900Y3200D02*
G01X12300Y3200D01*
G01X12300Y3200D02*
G01X11900Y3600D01*
G01X11900Y3600D02*
G01X12300Y4000D01*
G01X12300Y4000D02*
G01X12900Y4000D01*
G01X12900Y4000D02*
G01X13300Y3600D01*
G01X13300Y3600D02*
G01X12900Y3200D01*
G04 draw reference designator for part S1*
G54D10*
G01X13577Y4295D02*
G01X13631Y4240D01*
G01X13495Y4322D02*
G01X13577Y4295D01*
G01X13386Y4322D02*
G01X13495Y4322D01*
G01X13386Y4322D02*
G01X13304Y4295D01*
G01X13304Y4295D02*
G01X13250Y4240D01*
G01X13250Y4240D02*
G01X13250Y4186D01*
G01X13250Y4186D02*
G01X13277Y4131D01*
G01X13277Y4131D02*
G01X13304Y4104D01*
G01X13304Y4104D02*
G01X13359Y4077D01*
G01X13359Y4077D02*
G01X13522Y4022D01*
G01X13522Y4022D02*
G01X13577Y3995D01*
G01X13577Y3995D02*
G01X13604Y3968D01*
G01X13604Y3968D02*
G01X13631Y3913D01*
G01X13631Y3913D02*
G01X13631Y3831D01*
G01X13631Y3831D02*
G01X13577Y3777D01*
G01X13577Y3777D02*
G01X13495Y3750D01*
G01X13386Y3750D02*
G01X13495Y3750D01*
G01X13304Y3777D02*
G01X13386Y3750D01*
G01X13250Y3831D02*
G01X13304Y3777D01*
G01X13904Y4240D02*
G01X13850Y4213D01*
G01X13986Y4322D02*
G01X13904Y4240D01*
G01X13986Y4322D02*
G01X13986Y3750D01*

G04 Draw traces*

G04 Draw Text*
M00*
M02*
